<?xml version="1.0" encoding="UTF-8"?>
<svg version="1.1" xmlns="http://www.w3.org/2000/svg" width="225" height="225">
<path d="M0 0 C1.11822144 0.00519653 1.11822144 0.00519653 2.2590332 0.01049805 C9.55186567 0.15380525 15.5814268 1.61295052 22 5.125 C24.59676335 6.60363109 24.59676335 6.60363109 27.125 5.6875 C27.970625 5.23375 28.81625 4.78 29.6875 4.3125 C41.87244856 -1.12720918 55.05550285 -1.46797795 67.65625 2.9921875 C79.21907691 8.02857345 88.18066027 15.89090649 93.6875 27.3125 C94.062802 28.87492749 94.43778923 30.43743061 94.8125 32 C95.71407741 34.91165162 96.17670817 36.00415044 98.81640625 37.59765625 C100.54798149 38.25063195 102.29690065 38.85906484 104.05859375 39.42578125 C108.03266465 40.76621824 111.27193396 42.91938106 114.6875 45.3125 C115.698125 46.01375 116.70875 46.715 117.75 47.4375 C125.03868124 53.79275339 128.95910759 63.26186498 131.6875 72.3125 C131.87828125 72.93511719 132.0690625 73.55773437 132.265625 74.19921875 C134.53211912 85.55267541 132.08347367 94.87746741 127.6875 105.3125 C126.37429073 109.25212782 127.3917649 110.51623011 129.0625 114.25 C133.97731819 125.32893373 134.48092419 137.28329038 130.5625 148.8125 C124.85454129 162.68601074 115.92686218 171.48615159 102.09765625 177.53515625 C99.6875 178.3125 99.6875 178.3125 95.6875 178.3125 C95.64625 179.240625 95.605 180.16875 95.5625 181.125 C94.30293167 189.76703825 88.23585337 198.70289659 81.6875 204.3125 C68.87054063 213.05707572 56.00111811 217.44453989 40.37109375 214.73828125 C32.65235437 212.94829138 32.65235437 212.94829138 29.15625 210.64453125 C26.78486092 209.07861662 26.78486092 209.07861662 24.1796875 209.5 C21.65637139 210.32264851 19.24658049 211.25488036 16.8125 212.3125 C5.62456094 216.87360957 -6.49805463 216.3474125 -17.671875 212.0078125 C-29.93476372 206.41186546 -39.4183458 198.25764379 -44.3125 185.3125 C-44.56773438 184.27738281 -44.82296875 183.24226562 -45.0859375 182.17578125 C-46.05520942 179.13044532 -46.05520942 179.13044532 -48.81640625 177.84375 C-49.82574219 177.5034375 -50.83507812 177.163125 -51.875 176.8125 C-65.19716752 171.79278377 -73.07671376 164.05189693 -79.08984375 151.17578125 C-83.64433855 140.50982377 -83.9741344 128.40072747 -80.1875 117.38671875 C-79.3125 115.3125 -79.3125 115.3125 -77.5 112.0625 C-75.90609696 108.37135612 -76.90388203 107.00499371 -78.3125 103.3125 C-78.66570312 102.43851562 -79.01890625 101.56453125 -79.3828125 100.6640625 C-83.75691265 89.3562036 -84.25848979 76.5597864 -79.3125 65.3125 C-75.37458759 56.52956798 -71.12554061 50.01317608 -63.3125 44.3125 C-62.64089844 43.82136719 -61.96929687 43.33023438 -61.27734375 42.82421875 C-57.71685036 40.42460193 -54.8256959 39.18041238 -50.625 38.3125 C-48.28631383 37.73469906 -48.28631383 37.73469906 -46.3125 36.3125 C-44.6828033 33.17744313 -43.63777607 30.03441159 -42.546875 26.67578125 C-38.39182954 15.35459727 -28.73590286 8.73471524 -18.375 3.609375 C-12.17349823 0.98322884 -6.65890042 -0.05044051 0 0 Z " fill="#FEC33D" transform="translate(87.3125,4.6875)"/>
<path d="M0 0 C1.11822144 0.00519653 1.11822144 0.00519653 2.2590332 0.01049805 C9.55186567 0.15380525 15.5814268 1.61295052 22 5.125 C24.59676335 6.60363109 24.59676335 6.60363109 27.125 5.6875 C27.970625 5.23375 28.81625 4.78 29.6875 4.3125 C41.87244856 -1.12720918 55.05550285 -1.46797795 67.65625 2.9921875 C79.21907691 8.02857345 88.18066027 15.89090649 93.6875 27.3125 C94.062802 28.87492749 94.43778923 30.43743061 94.8125 32 C95.71407741 34.91165162 96.17670817 36.00415044 98.81640625 37.59765625 C100.54798149 38.25063195 102.29690065 38.85906484 104.05859375 39.42578125 C108.03266465 40.76621824 111.27193396 42.91938106 114.6875 45.3125 C115.698125 46.01375 116.70875 46.715 117.75 47.4375 C125.03868124 53.79275339 128.95910759 63.26186498 131.6875 72.3125 C131.87828125 72.93511719 132.0690625 73.55773437 132.265625 74.19921875 C134.53211912 85.55267541 132.08347367 94.87746741 127.6875 105.3125 C126.37429073 109.25212782 127.3917649 110.51623011 129.0625 114.25 C133.97731819 125.32893373 134.48092419 137.28329038 130.5625 148.8125 C124.85454129 162.68601074 115.92686218 171.48615159 102.09765625 177.53515625 C99.6875 178.3125 99.6875 178.3125 95.6875 178.3125 C95.64625 179.240625 95.605 180.16875 95.5625 181.125 C94.30293167 189.76703825 88.23585337 198.70289659 81.6875 204.3125 C68.87054063 213.05707572 56.00111811 217.44453989 40.37109375 214.73828125 C32.65235437 212.94829138 32.65235437 212.94829138 29.15625 210.64453125 C26.78486092 209.07861662 26.78486092 209.07861662 24.1796875 209.5 C21.65637139 210.32264851 19.24658049 211.25488036 16.8125 212.3125 C5.62456094 216.87360957 -6.49805463 216.3474125 -17.671875 212.0078125 C-29.93476372 206.41186546 -39.4183458 198.25764379 -44.3125 185.3125 C-44.56773438 184.27738281 -44.82296875 183.24226562 -45.0859375 182.17578125 C-46.05520942 179.13044532 -46.05520942 179.13044532 -48.81640625 177.84375 C-49.82574219 177.5034375 -50.83507812 177.163125 -51.875 176.8125 C-65.19716752 171.79278377 -73.07671376 164.05189693 -79.08984375 151.17578125 C-83.64433855 140.50982377 -83.9741344 128.40072747 -80.1875 117.38671875 C-79.3125 115.3125 -79.3125 115.3125 -77.5 112.0625 C-75.90609696 108.37135612 -76.90388203 107.00499371 -78.3125 103.3125 C-78.66570312 102.43851562 -79.01890625 101.56453125 -79.3828125 100.6640625 C-83.75691265 89.3562036 -84.25848979 76.5597864 -79.3125 65.3125 C-75.37458759 56.52956798 -71.12554061 50.01317608 -63.3125 44.3125 C-62.64089844 43.82136719 -61.96929687 43.33023438 -61.27734375 42.82421875 C-57.71685036 40.42460193 -54.8256959 39.18041238 -50.625 38.3125 C-48.28631383 37.73469906 -48.28631383 37.73469906 -46.3125 36.3125 C-44.6828033 33.17744313 -43.63777607 30.03441159 -42.546875 26.67578125 C-38.39182954 15.35459727 -28.73590286 8.73471524 -18.375 3.609375 C-12.17349823 0.98322884 -6.65890042 -0.05044051 0 0 Z M18.6875 11.3125 C15.66505909 14.9183945 15.66505909 14.9183945 14.6875 19.3125 C14.0275 19.3125 13.3675 19.3125 12.6875 19.3125 C12.275 19.910625 11.8625 20.50875 11.4375 21.125 C9.21749744 23.9000032 6.89134124 24.84407276 3.6875 26.3125 C2.6975 26.9725 1.7075 27.6325 0.6875 28.3125 C0.6875 29.3025 0.6875 30.2925 0.6875 31.3125 C-10.04691513 35.87656999 -21.41991226 35.6700586 -32.90039062 35.87890625 C-34.63385742 35.92337891 -34.63385742 35.92337891 -36.40234375 35.96875 C-37.44253662 35.98744141 -38.48272949 36.00613281 -39.55444336 36.02539062 C-42.6404815 36.18298912 -42.6404815 36.18298912 -46.3125 38.3125 C-46.6425 50.5225 -46.9725 62.7325 -47.3125 75.3125 C-47.9725 75.3125 -48.6325 75.3125 -49.3125 75.3125 C-49.61542969 75.98796875 -49.91835938 76.6634375 -50.23046875 77.359375 C-52.66272301 82.53820562 -54.54281149 85.960827 -59.3125 89.3125 C-60.48824711 91.41239652 -60.48824711 91.41239652 -61.3125 93.3125 C-62.3025 93.8075 -62.3025 93.8075 -63.3125 94.3125 C-63.3125 94.9725 -63.3125 95.6325 -63.3125 96.3125 C-63.869375 96.539375 -64.42625 96.76625 -65 97 C-69.33318253 99.45937387 -71.83490186 101.95511582 -73.5 106.6875 C-73.23419637 111.82637012 -70.88640807 113.84589171 -67.3125 117.3125 C-66.425625 118.26125 -65.53875 119.21 -64.625 120.1875 C-62.42099159 122.50358942 -62.42099159 122.50358942 -59.3125 123.3125 C-59.3125 123.9725 -59.3125 124.6325 -59.3125 125.3125 C-58.6525 125.3125 -57.9925 125.3125 -57.3125 125.3125 C-57.3125 125.9725 -57.3125 126.6325 -57.3125 127.3125 C-56.6525 127.3125 -55.9925 127.3125 -55.3125 127.3125 C-54.9825 128.6325 -54.6525 129.9525 -54.3125 131.3125 C-53.6525 131.3125 -52.9925 131.3125 -52.3125 131.3125 C-52.02375 132.405625 -51.735 133.49875 -51.4375 134.625 C-50.49356796 138.35263845 -50.49356796 138.35263845 -48.3125 141.3125 C-47.34593079 145.68954962 -47.12987421 149.98884774 -46.99609375 154.4609375 C-46.97531265 155.11832916 -46.95453156 155.77572083 -46.93312073 156.45303345 C-46.86829247 158.53109362 -46.80905436 160.60926856 -46.75 162.6875 C-46.70675112 164.10548011 -46.66313491 165.52344907 -46.61914062 166.94140625 C-46.51268082 170.3983188 -46.41123016 173.85535706 -46.3125 177.3125 C-42.91097439 179.38403316 -40.38238278 179.51516887 -36.4375 179.40234375 C-34.71080078 179.37237305 -34.71080078 179.37237305 -32.94921875 179.34179688 C-30.55586655 179.28138466 -28.16262458 179.21640386 -25.76953125 179.14648438 C-17.98748109 179.02124605 -10.65782279 179.51539208 -3.3125 182.3125 C-2.9825 182.9725 -2.6525 183.6325 -2.3125 184.3125 C-1.3225 184.3125 -0.3325 184.3125 0.6875 184.3125 C0.6875 185.3025 0.6875 186.2925 0.6875 187.3125 C3.31346061 189.15776962 5.63877546 190.29625849 8.6875 191.3125 C9.39144612 192.62653276 10.05095658 193.9645257 10.6875 195.3125 C13.05588381 199.01358878 13.05588381 199.01358878 16.8125 200.8125 C17.43125 200.9775 18.05 201.1425 18.6875 201.3125 C18.996875 202.1375 19.30625 202.9625 19.625 203.8125 C19.975625 204.6375 20.32625 205.4625 20.6875 206.3125 C23.23525306 207.20636164 23.23525306 207.20636164 25.6875 207.3125 C25.914375 206.69375 26.14125 206.075 26.375 205.4375 C27.6875 203.3125 27.6875 203.3125 30 202.5625 C33.5906877 200.8924127 34.50001766 198.64223096 36.41796875 195.28125 C38.0816048 192.70133441 40.24279755 191.12856468 42.6875 189.3125 C42.6875 188.6525 42.6875 187.9925 42.6875 187.3125 C43.38875 187.04695312 44.09 186.78140625 44.8125 186.5078125 C48.93398526 184.7942602 52.81360577 182.6534283 56.75 180.5546875 C59.71086578 179.30261926 61.528121 179.14324755 64.6875 179.3125 C65.0175 178.9825 65.3475 178.6525 65.6875 178.3125 C67.58004755 178.26163519 69.4744505 178.27706794 71.3671875 178.3203125 C73.10162109 178.34544922 73.10162109 178.34544922 74.87109375 178.37109375 C77.32437466 178.41522685 79.77752664 178.46726104 82.23046875 178.52734375 C83.96876953 178.54861328 83.96876953 178.54861328 85.7421875 178.5703125 C86.80937012 178.5923877 87.87655273 178.61446289 88.97607422 178.63720703 C91.70757144 178.54821802 91.70757144 178.54821802 93.48486328 176.90185547 C96.94261297 172.33223499 96.96483368 168.95161814 96.6875 163.3125 C96.3575 162.9825 96.0275 162.6525 95.6875 162.3125 C95.58781328 160.21028307 95.55781797 158.10457396 95.5625 156 C95.55992187 154.84886719 95.55734375 153.69773438 95.5546875 152.51171875 C95.66439032 149.86917149 95.99997159 147.82982843 96.6875 145.3125 C96.72638349 142.97949067 96.7323635 140.64540199 96.6875 138.3125 C97.3475 138.3125 98.0075 138.3125 98.6875 138.3125 C98.935 137.36375 99.1825 136.415 99.4375 135.4375 C100.6875 132.3125 100.6875 132.3125 102.8125 130.9375 C103.740625 130.628125 103.740625 130.628125 104.6875 130.3125 C104.6875 128.6625 104.6875 127.0125 104.6875 125.3125 C105.3475 125.3125 106.0075 125.3125 106.6875 125.3125 C110.51093721 121.8720444 110.51093721 121.8720444 112.6875 117.3125 C114.0796875 116.9103125 114.0796875 116.9103125 115.5 116.5 C118.8746308 115.51402272 118.8746308 115.51402272 121.1875 112.625 C122.99722372 109.37135219 122.99722372 109.37135219 122.3125 105.75 C120.30382565 101.50088118 118.52949791 99.95387356 114.6875 97.3125 C114.0275 97.3125 113.3675 97.3125 112.6875 97.3125 C112.3575 96.3225 112.0275 95.3325 111.6875 94.3125 C110.89601562 93.7246875 110.10453125 93.136875 109.2890625 92.53125 C106.13443608 89.84081786 105.37702022 87.71134909 104.0625 83.8125 C102.6711693 79.74122359 101.35636159 76.6743809 98.6875 73.3125 C97.52910957 69.83732871 97.45948782 66.6397998 97.37109375 63.01953125 C97.35031265 62.31350266 97.32953156 61.60747406 97.30812073 60.88005066 C97.24282509 58.62846449 97.18383353 56.37676338 97.125 54.125 C97.08179575 52.5969934 97.03818084 51.06899836 96.99414062 49.54101562 C96.88716426 45.79829438 96.78584078 42.0554577 96.6875 38.3125 C92.89129097 36.56402772 89.84629763 36.04399938 85.6796875 35.96875 C84.52726563 35.93910156 83.37484375 35.90945312 82.1875 35.87890625 C80.393125 35.84603516 80.393125 35.84603516 78.5625 35.8125 C69.06664491 35.6351049 59.77172072 35.34057357 50.6875 32.3125 C50.6875 31.6525 50.6875 30.9925 50.6875 30.3125 C49.635625 29.94125 48.58375 29.57 47.5 29.1875 C42.77937297 27.18626055 39.98730714 23.91211429 37.6875 19.3125 C37.0275 19.3125 36.3675 19.3125 35.6875 19.3125 C35.6875 18.6525 35.6875 17.9925 35.6875 17.3125 C34.03364767 15.96330468 32.365798 14.63116272 30.6875 13.3125 C29.6975 11.8275 29.6975 11.8275 28.6875 10.3125 C28.0275 10.3125 27.3675 10.3125 26.6875 10.3125 C26.6875 9.6525 26.6875 8.9925 26.6875 8.3125 C23.44785416 8.3125 21.43853147 9.66188112 18.6875 11.3125 Z " fill="#FCCA8A" transform="translate(87.3125,4.6875)"/>
<path d="M0 0 C0.71220703 -0.00773438 1.42441406 -0.01546875 2.15820312 -0.0234375 C7.2523934 -0.00493 11.66298724 0.8580302 16.5625 2.25 C16.5625 3.24 16.5625 4.23 16.5625 5.25 C17.5525 5.25 18.5425 5.25 19.5625 5.25 C19.5625 5.91 19.5625 6.57 19.5625 7.25 C21.2125 7.58 22.8625 7.91 24.5625 8.25 C20.8125 11.25 20.8125 11.25 18.5625 11.25 C18.27375 12.013125 17.985 12.77625 17.6875 13.5625 C16.5625 16.25 16.5625 16.25 14.5625 19.25 C13.9025 19.25 13.2425 19.25 12.5625 19.25 C12.315 19.85328125 12.0675 20.4565625 11.8125 21.078125 C10.35690027 23.60722953 9.05125791 24.51772507 6.5625 26 C5.86125 26.42796875 5.16 26.8559375 4.4375 27.296875 C2.5625 28.25 2.5625 28.25 0.5625 28.25 C0.5625 29.24 0.5625 30.23 0.5625 31.25 C-0.59510932 31.91193086 -1.7643383 32.55354146 -2.9375 33.1875 C-3.91203125 33.72697266 -3.91203125 33.72697266 -4.90625 34.27734375 C-13.49063907 37.57597474 -23.91974629 36.5987474 -32.96679688 36.85546875 C-34.13919922 36.89285156 -35.31160156 36.93023437 -36.51953125 36.96875 C-37.58405518 36.99904297 -38.6485791 37.02933594 -39.74536133 37.06054688 C-42.53652884 37.14475911 -42.53652884 37.14475911 -45.4375 38.25 C-45.47508423 39.50490234 -45.47508423 39.50490234 -45.51342773 40.78515625 C-45.60922836 43.92376726 -45.70841655 47.06224881 -45.80981445 50.20068359 C-45.87382741 52.21313601 -45.9340197 54.2257088 -45.99414062 56.23828125 C-46.2031066 62.63585504 -46.47650084 68.91871141 -47.4375 75.25 C-48.0975 75.25 -48.7575 75.25 -49.4375 75.25 C-49.499375 75.930625 -49.56125 76.61125 -49.625 77.3125 C-51.05508693 82.48281429 -54.00180602 86.29287068 -58.4375 89.25 C-58.953125 90.11625 -59.46875 90.9825 -60 91.875 C-60.474375 92.65875 -60.94875 93.4425 -61.4375 94.25 C-62.0975 94.25 -62.7575 94.25 -63.4375 94.25 C-63.4375 94.91 -63.4375 95.57 -63.4375 96.25 C-66.89903846 99.25 -66.89903846 99.25 -69.4375 99.25 C-71.5884884 102.83498067 -72.36546851 106.07217369 -72.4375 110.25 C-70.80964382 112.64390615 -69.47238821 114.2908789 -67.4375 116.25 C-66.57125 117.1575 -65.705 118.065 -64.8125 119 C-62.4549409 121.36082698 -62.4549409 121.36082698 -59.4375 123.25 C-59.4375 123.91 -59.4375 124.57 -59.4375 125.25 C-58.7775 125.25 -58.1175 125.25 -57.4375 125.25 C-57.4375 125.91 -57.4375 126.57 -57.4375 127.25 C-56.7775 127.25 -56.1175 127.25 -55.4375 127.25 C-54.9425 129.23 -54.9425 129.23 -54.4375 131.25 C-53.7775 131.25 -53.1175 131.25 -52.4375 131.25 C-51.61474328 132.78621735 -50.80477423 134.32928632 -50 135.875 C-49.54753906 136.73351562 -49.09507813 137.59203125 -48.62890625 138.4765625 C-46.39955828 143.66619221 -46.31595902 148.80941135 -46.33984375 154.3984375 C-46.3412587 155.05582916 -46.34267365 155.71322083 -46.34413147 156.39053345 C-46.34968238 158.46873731 -46.36222535 160.54682927 -46.375 162.625 C-46.38002136 164.04296718 -46.38458315 165.46093607 -46.38867188 166.87890625 C-46.39963563 170.33597322 -46.41686579 173.79297567 -46.4375 177.25 C-48.0875 176.92 -49.7375 176.59 -51.4375 176.25 C-51.4375 175.59 -51.4375 174.93 -51.4375 174.25 C-53.3865625 174.2190625 -53.3865625 174.2190625 -55.375 174.1875 C-62.61782571 173.33607065 -67.01976675 169.05782851 -71.640625 163.69140625 C-80.85515743 151.66132224 -83.31091619 140.17469063 -82.4375 125.25 C-81.51929179 120.39932768 -80.02695277 116.3069498 -77.625 112 C-76.03109696 108.30885612 -77.02888203 106.94249371 -78.4375 103.25 C-78.79070312 102.37601562 -79.14390625 101.50203125 -79.5078125 100.6015625 C-83.88191265 89.2937036 -84.38348979 76.4972864 -79.4375 65.25 C-75.49958759 56.46706798 -71.25054061 49.95067608 -63.4375 44.25 C-62.76589844 43.75886719 -62.09429687 43.26773438 -61.40234375 42.76171875 C-57.84185036 40.36210193 -54.9506959 39.11791238 -50.75 38.25 C-48.41131383 37.67219906 -48.41131383 37.67219906 -46.4375 36.25 C-44.8078033 33.11494313 -43.76277607 29.97191159 -42.671875 26.61328125 C-38.51682954 15.29209727 -28.86090286 8.67221524 -18.5 3.546875 C-12.22189017 0.88828768 -6.73040323 -0.07269562 0 0 Z " fill="#FDE96B" transform="translate(87.4375,4.75)"/>
<path d="M0 0 C5.00036021 3.94602069 10.48866148 8.40106582 11.58203125 14.98828125 C11.51953125 17.98828125 11.51953125 17.98828125 10.51953125 18.98828125 C10.84953125 18.98828125 11.17953125 18.98828125 11.51953125 18.98828125 C11.51953125 21.62828125 11.51953125 24.26828125 11.51953125 26.98828125 C7.41542657 27.04716367 3.31143298 27.08217046 -0.79296875 27.11328125 C-2.51483398 27.13841797 -2.51483398 27.13841797 -4.27148438 27.1640625 C-22.06557233 27.26487886 -22.06557233 27.26487886 -28.48046875 22.98828125 C-28.48046875 22.32828125 -28.48046875 21.66828125 -28.48046875 20.98828125 C-29.32609375 20.98828125 -30.17171875 20.98828125 -31.04296875 20.98828125 C-36.01384968 19.5422068 -38.58312254 16.18000402 -41.48046875 11.98828125 C-41.48046875 11.32828125 -41.48046875 10.66828125 -41.48046875 9.98828125 C-42.14046875 9.98828125 -42.80046875 9.98828125 -43.48046875 9.98828125 C-43.48046875 9.32828125 -43.48046875 8.66828125 -43.48046875 7.98828125 C-44.03734375 7.76140625 -44.59421875 7.53453125 -45.16796875 7.30078125 C-48.14206463 5.61278089 -50.2005574 3.52151608 -52.48046875 0.98828125 C-52.48046875 0.32828125 -52.48046875 -0.33171875 -52.48046875 -1.01171875 C-54.79046875 -1.34171875 -57.10046875 -1.67171875 -59.48046875 -2.01171875 C-59.48046875 -2.67171875 -59.48046875 -3.33171875 -59.48046875 -4.01171875 C-60.47046875 -4.01171875 -61.46046875 -4.01171875 -62.48046875 -4.01171875 C-62.48046875 -4.67171875 -62.48046875 -5.33171875 -62.48046875 -6.01171875 C-61.57296875 -5.70234375 -60.66546875 -5.39296875 -59.73046875 -5.07421875 C-58.12171875 -4.54828125 -58.12171875 -4.54828125 -56.48046875 -4.01171875 C-55.85527344 -3.77582031 -55.23007813 -3.53992188 -54.5859375 -3.296875 C-51.6164175 -2.89469511 -50.13198449 -3.94261444 -47.54296875 -5.38671875 C-32.67736996 -13.6121969 -13.35993206 -9.1348291 0 0 Z " fill="#FDD27B" transform="translate(166.48046875,14.01171875)"/>
<path d="M0 0 C0.71220703 -0.00773438 1.42441406 -0.01546875 2.15820312 -0.0234375 C7.2523934 -0.00493 11.66298724 0.8580302 16.5625 2.25 C16.5625 3.24 16.5625 4.23 16.5625 5.25 C17.5525 5.25 18.5425 5.25 19.5625 5.25 C19.5625 5.91 19.5625 6.57 19.5625 7.25 C21.2125 7.58 22.8625 7.91 24.5625 8.25 C20.8125 11.25 20.8125 11.25 18.5625 11.25 C18.27375 12.013125 17.985 12.77625 17.6875 13.5625 C16.5625 16.25 16.5625 16.25 14.5625 19.25 C13.9025 19.25 13.2425 19.25 12.5625 19.25 C12.315 19.85328125 12.0675 20.4565625 11.8125 21.078125 C10.35690027 23.60722953 9.05125791 24.51772507 6.5625 26 C5.86125 26.42796875 5.16 26.8559375 4.4375 27.296875 C2.5625 28.25 2.5625 28.25 0.5625 28.25 C0.5625 29.24 0.5625 30.23 0.5625 31.25 C-0.59510932 31.91193086 -1.7643383 32.55354146 -2.9375 33.1875 C-3.91203125 33.72697266 -3.91203125 33.72697266 -4.90625 34.27734375 C-13.3890513 37.53693869 -23.67338283 36.59460436 -32.61523438 36.85546875 C-38.2962534 37.03862556 -43.83551878 37.26286674 -49.4375 38.25 C-48.50357422 37.42048828 -48.50357422 37.42048828 -47.55078125 36.57421875 C-45.24990314 34.04367813 -44.5769113 32.31212824 -43.625 29.0625 C-39.33264254 16.48723401 -30.0211919 9.24618801 -18.5 3.546875 C-12.22189017 0.88828768 -6.73040323 -0.07269562 0 0 Z " fill="#FDDA6A" transform="translate(87.4375,4.75)"/>
<path d="M0 0 C0.02493556 3.98355132 0.04297028 7.96707167 0.05493164 11.95068359 C0.06236421 13.96323241 0.07507829 15.97575949 0.08789062 17.98828125 C0.10405483 24.42163371 0.02960975 30.6439839 -1 37 C-1.66 37 -2.32 37 -3 37 C-3.0928125 38.0209375 -3.0928125 38.0209375 -3.1875 39.0625 C-4.61758693 44.23281429 -7.56430602 48.04287068 -12 51 C-12.515625 51.86625 -13.03125 52.7325 -13.5625 53.625 C-14.2740625 54.800625 -14.2740625 54.800625 -15 56 C-15.66 56 -16.32 56 -17 56 C-17 56.66 -17 57.32 -17 58 C-20.46153846 61 -20.46153846 61 -23 61 C-25.60996888 65.34994813 -26 70.00176812 -26 75 C-28.54185598 72.45814402 -28.42804872 70.44550366 -28.78125 66.9765625 C-29.00881193 64.92037789 -29.4208402 62.98569073 -30 61 C-30.66 61 -31.32 61 -32 61 C-32.495 59.515 -32.495 59.515 -33 58 C-33.66 57.67 -34.32 57.34 -35 57 C-38.33207349 48.32806514 -36.63504298 35.26616536 -33 27 C-27.65754079 15.08443379 -20.57836073 7.103525 -9 1 C-5.8035914 -0.06546953 -3.34252724 -0.07427838 0 0 Z " fill="#FEE35C" transform="translate(41,43)"/>
<path d="M0 0 C2.31 0.33 4.62 0.66 7 1 C7 1.66 7 2.32 7 3 C8.3921875 3.2165625 8.3921875 3.2165625 9.8125 3.4375 C13 4 13 4 16 5 C17.92517779 5.04827696 19.8520885 5.03726985 21.77734375 4.9921875 C23.50887695 4.96705078 23.50887695 4.96705078 25.27539062 4.94140625 C27.68180863 4.89776987 30.08809456 4.84593501 32.49414062 4.78515625 C40.16562146 4.69186019 47.83369736 4.96136834 55 8 C55.495 9.485 55.495 9.485 56 11 C56.99 11 57.98 11 59 11 C59 11.99 59 12.98 59 14 C59.556875 14.061875 60.11375 14.12375 60.6875 14.1875 C65.09205508 15.73504638 67.72494741 19.63620718 70.5625 23.1875 C72.70749235 26.03528218 72.70749235 26.03528218 75.1875 27.0625 C77.80452386 28.41613303 78.03460911 30.31069681 79 33 C79.66 33.33 80.32 33.66 81 34 C74.74308023 39.33107484 65.98405592 40.34713287 58 40 C57.01 40.495 57.01 40.495 56 41 C45.77410273 41.98960296 36.75736957 38.09580819 28.87109375 31.65234375 C28.25363281 31.10707031 27.63617188 30.56179687 27 30 C26.31035156 29.40316406 25.62070312 28.80632812 24.91015625 28.19140625 C19.06464507 22.78131489 15.12185215 16.67438394 13.25 8.875 C12.23076961 5.76562807 12.23076961 5.76562807 9.1796875 4.3203125 C8.08914062 3.92585937 6.99859375 3.53140625 5.875 3.125 C4.77929688 2.71507812 3.68359375 2.30515625 2.5546875 1.8828125 C1.71164063 1.59148437 0.86859375 1.30015625 0 1 C0 0.67 0 0.34 0 0 Z " fill="#FDD379" transform="translate(29,178)"/>
<path d="M0 0 C2.5625 0.125 2.5625 0.125 4.5625 1.125 C5.96405035 0.95944008 7.3599637 0.74403391 8.75 0.5 C13.47560271 -0.07740483 16.38865146 0.66979498 20.5625 3.125 C25.05821269 7.97563738 25.91836772 11.11827167 25.84375 17.58203125 C25.31921272 22.32472252 22.89719568 24.94732734 19.4375 28 C14.25278119 30.02880301 8.84047013 30.06590071 3.6875 27.9375 C0.29954113 25.04777038 -2.02203643 22.37139072 -3.4375 18.125 C-3.57923842 14.22719343 -3.44861622 10.88057452 -2.4375 7.125 C-2.7675 6.795 -3.0975 6.465 -3.4375 6.125 C-3.5625 3.625 -3.5625 3.625 -3.4375 1.125 C-2.4375 0.125 -2.4375 0.125 0 0 Z " fill="#1D0D02" transform="translate(62.4375,97.875)"/>
<path d="M0 0 C2.64452081 0.39971738 2.64452081 0.39971738 5.3203125 -0.3203125 C6.45533203 -0.52720703 6.45533203 -0.52720703 7.61328125 -0.73828125 C8.27328125 -0.07828125 8.93328125 0.58171875 9.61328125 1.26171875 C9.40819121 2.86825736 9.18708299 4.47419367 8.890625 6.06640625 C8.55902781 8.69116146 8.68919891 11.18223695 8.80078125 13.82421875 C8.8349079 18.79988432 8.15023472 21.53860984 4.61328125 25.26171875 C-0.10775654 28.55546605 -4.78853323 29.17468449 -10.38671875 28.26171875 C-14.24659271 26.26030262 -17.38118274 24.16723625 -19.38671875 20.26171875 C-20.67647369 15.54196337 -20.87365768 11.50485958 -18.94921875 6.94921875 C-16.84917357 3.37771334 -14.53373608 1.43552771 -10.73828125 -0.19921875 C-7.05785034 -1.04290557 -3.69937829 -0.58354882 0 0 Z " fill="#130F0F" transform="translate(157.38671875,98.73828125)"/>
<path d="M0 0 C0.85464844 0.08765625 1.70929688 0.1753125 2.58984375 0.265625 C5.05977598 0.74946638 6.88233722 1.51575471 9.0625 2.75 C9.0625 3.41 9.0625 4.07 9.0625 4.75 C9.7225 4.75 10.3825 4.75 11.0625 4.75 C10.7325 7.39 10.4025 10.03 10.0625 12.75 C11.7125 13.41 13.3625 14.07 15.0625 14.75 C16.1875 21.5 16.1875 21.5 15.0625 23.75 C15.31 25.2040625 15.31 25.2040625 15.5625 26.6875 C16.59025473 32.95943911 15.7477696 39.65160915 14.0625 45.75 C12.0625 45.75 10.0625 45.75 8.0625 45.75 C8.2790625 46.36488281 8.495625 46.97976562 8.71875 47.61328125 C8.9971875 48.42152344 9.275625 49.22976562 9.5625 50.0625 C9.8409375 50.86300781 10.119375 51.66351563 10.40625 52.48828125 C11.0625 54.75 11.0625 54.75 11.0625 57.75 C10.0625 59.5 10.0625 59.5 8.0625 60.75 C6.03076668 60.52425185 3.99732024 60.28989975 1.984375 59.93359375 C-0.05946756 59.56385227 -0.05946756 59.56385227 -2.125 60.875 C-2.723125 61.16375 -3.32125 61.4525 -3.9375 61.75 C-6.74448838 60.54700498 -8.44338786 59.53854883 -10.078125 56.9296875 C-11.05450561 54.45323122 -11.14044922 52.65027357 -11.0625 50 C-11.04445312 49.20078125 -11.02640625 48.4015625 -11.0078125 47.578125 C-10.98460937 46.97484375 -10.96140625 46.3715625 -10.9375 45.75 C-7.98902139 44.7671738 -5.70812949 44.55410296 -2.625 44.375 C1.89755123 43.98069567 5.26197819 43.41036526 9.0625 40.75 C12.00338258 36.81953134 12.38023344 34.10234787 12.1875 29.25 C12.04597236 25.21174471 12.10789434 21.68591256 13.0625 17.75 C9.77553767 16.95046862 8.35226808 16.65341064 5.0625 17.75 C2.36328125 17.41015625 2.36328125 17.41015625 -0.625 16.8125 C-2.11580078 16.52052734 -2.11580078 16.52052734 -3.63671875 16.22265625 C-4.39597656 16.06667969 -5.15523437 15.91070312 -5.9375 15.75 C-5.9375 15.42 -5.9375 15.09 -5.9375 14.75 C-2.6375 14.42 0.6625 14.09 4.0625 13.75 C3.7325 13.09 3.4025 12.43 3.0625 11.75 C0.71342125 11.06068656 0.71342125 11.06068656 -2 10.625 C-3.37865234 10.37363281 -3.37865234 10.37363281 -4.78515625 10.1171875 C-5.49542969 9.99601562 -6.20570313 9.87484375 -6.9375 9.75 C-7.2675 7.11 -7.5975 4.47 -7.9375 1.75 C-4.56242304 -0.5000513 -3.85625815 -0.44071522 0 0 Z " fill="#FDAD61" transform="translate(152.9375,82.25)"/>
<path d="M0 0 C2.64452081 0.39971738 2.64452081 0.39971738 5.3203125 -0.3203125 C6.45533203 -0.52720703 6.45533203 -0.52720703 7.61328125 -0.73828125 C8.27328125 -0.07828125 8.93328125 0.58171875 9.61328125 1.26171875 C9.40819121 2.86825736 9.18708299 4.47419367 8.890625 6.06640625 C8.55902781 8.69116146 8.68919891 11.18223695 8.80078125 13.82421875 C8.8349079 18.79988432 8.15023472 21.53860984 4.61328125 25.26171875 C-0.10775654 28.55546605 -4.78853323 29.17468449 -10.38671875 28.26171875 C-14.24659271 26.26030262 -17.38118274 24.16723625 -19.38671875 20.26171875 C-20.67647369 15.54196337 -20.87365768 11.50485958 -18.94921875 6.94921875 C-16.84917357 3.37771334 -14.53373608 1.43552771 -10.73828125 -0.19921875 C-7.05785034 -1.04290557 -3.69937829 -0.58354882 0 0 Z M-13.19921875 2.38671875 C-14.89135955 5.05852002 -14.58081546 7.15617131 -14.38671875 10.26171875 C-14.38671875 13.26171875 -14.38671875 13.26171875 -16.38671875 16.26171875 C-16.29997851 19.64458792 -15.60903078 21.00467047 -13.38671875 23.57421875 C-9.30505613 25.87015397 -5.97277557 25.96662803 -1.38671875 25.26171875 C1.63157775 24.07363695 1.63157775 24.07363695 3.61328125 22.26171875 C3.61328125 21.60171875 3.61328125 20.94171875 3.61328125 20.26171875 C4.60328125 19.93171875 5.59328125 19.60171875 6.61328125 19.26171875 C5.24661093 13.59010587 5.24661093 13.59010587 1.61328125 9.26171875 C0.42578125 7.07421875 0.42578125 7.07421875 -0.38671875 5.26171875 C-1.04671875 5.26171875 -1.70671875 5.26171875 -2.38671875 5.26171875 C-2.98484375 4.60171875 -3.58296875 3.94171875 -4.19921875 3.26171875 C-6.21952957 1.05250387 -6.21952957 1.05250387 -8.94921875 0.82421875 C-11.38598704 1.1068656 -11.38598704 1.1068656 -13.19921875 2.38671875 Z " fill="#1A0D04" transform="translate(157.38671875,98.73828125)"/>
<path d="M0 0 C2.5625 0.125 2.5625 0.125 4.5625 1.125 C5.96405035 0.95944008 7.3599637 0.74403391 8.75 0.5 C13.47560271 -0.07740483 16.38865146 0.66979498 20.5625 3.125 C24.70623284 7.59586964 25.69365932 10.09167147 25.5625 16.125 C25.2325 15.465 24.9025 14.805 24.5625 14.125 C21.61520463 12.96688612 21.61520463 12.96688612 18.5625 13.125 C17.9025 13.125 17.2425 13.125 16.5625 13.125 C16.624375 14.07375 16.68625 15.0225 16.75 16 C16.6571875 17.546875 16.6571875 17.546875 16.5625 19.125 C13.09326119 21.43782587 11.64044425 21.54978586 7.5625 21.125 C5.6875 19.9375 5.6875 19.9375 4.5625 18.125 C4.375 15.4375 4.375 15.4375 4.5625 13.125 C5.51125 13.16625 6.46 13.2075 7.4375 13.25 C10.66494856 13.47473818 10.66494856 13.47473818 12.5625 11.125 C12.80462873 9.14371492 12.80462873 9.14371492 12.6875 7 C12.64625 5.72125 12.605 4.4425 12.5625 3.125 C7.95000391 2.71134064 7.95000391 2.71134064 3.75 4.25 C2.16980475 6.74504513 1.37900319 9.29864281 0.5625 12.125 C1.5525 12.455 2.5425 12.785 3.5625 13.125 C1.9125 15.105 0.2625 17.085 -1.4375 19.125 C-2.0975 18.795 -2.7575 18.465 -3.4375 18.125 C-3.51206036 14.24786142 -3.44461597 10.86571646 -2.4375 7.125 C-2.7675 6.795 -3.0975 6.465 -3.4375 6.125 C-3.5625 3.625 -3.5625 3.625 -3.4375 1.125 C-2.4375 0.125 -2.4375 0.125 0 0 Z " fill="#080607" transform="translate(62.4375,97.875)"/>
<path d="M0 0 C1.63001953 0.01353516 1.63001953 0.01353516 3.29296875 0.02734375 C4.12441406 0.03894531 4.95585937 0.05054687 5.8125 0.0625 C5.8125 0.7225 5.8125 1.3825 5.8125 2.0625 C6.73289063 2.16884766 6.73289063 2.16884766 7.671875 2.27734375 C9.8125 3.0625 9.8125 3.0625 11.078125 5.12890625 C11.56539062 6.36447266 11.56539062 6.36447266 12.0625 7.625 C12.56523437 8.86443359 12.56523437 8.86443359 13.078125 10.12890625 C13.32046875 10.76699219 13.5628125 11.40507812 13.8125 12.0625 C12.3125 14.125 12.3125 14.125 9.8125 16.0625 C7.69880979 16.03218067 5.77335552 15.679975 3.69921875 15.28125 C1.68676839 14.87050538 1.68676839 14.87050538 -0.375 16.1875 C-0.973125 16.47625 -1.57125 16.765 -2.1875 17.0625 C-4.99448838 15.85950498 -6.69338786 14.85104883 -8.328125 12.2421875 C-9.30450561 9.76573122 -9.39044922 7.96277357 -9.3125 5.3125 C-9.29445312 4.51328125 -9.27640625 3.7140625 -9.2578125 2.890625 C-9.23460937 2.28734375 -9.21140625 1.6840625 -9.1875 1.0625 C-5.90230525 -0.03256492 -3.45086585 -0.03710608 0 0 Z " fill="#FCA476" transform="translate(151.1875,126.9375)"/>
<path d="M0 0 C1.93166016 0.01740234 1.93166016 0.01740234 3.90234375 0.03515625 C5.19269531 0.04417969 6.48304687 0.05320313 7.8125 0.0625 C8.81152344 0.07410156 9.81054688 0.08570313 10.83984375 0.09765625 C10.83984375 0.75765625 10.83984375 1.41765625 10.83984375 2.09765625 C8.85984375 2.09765625 6.87984375 2.09765625 4.83984375 2.09765625 C4.50984375 3.08765625 4.17984375 4.07765625 3.83984375 5.09765625 C1.85984375 5.09765625 -0.12015625 5.09765625 -2.16015625 5.09765625 C-1.97453125 6.39703125 -1.78890625 7.69640625 -1.59765625 9.03515625 C-1.10160459 13.99567287 -1.20112756 18.81936622 -1.47265625 23.78515625 C-1.50738037 24.49728271 -1.54210449 25.20940918 -1.57788086 25.94311523 C-2.00548453 32.70396083 -3.50839632 38.33911174 -7.16015625 44.09765625 C-7.74787416 45.36646782 -8.33078178 46.63751319 -8.91015625 47.91015625 C-12.50402782 55.152352 -18.24886989 60.42879578 -24.4609375 65.45703125 C-26.30174675 67.23436432 -27.26165229 68.7081214 -28.16015625 71.09765625 C-27.46081546 73.16382338 -27.46081546 73.16382338 -26.16015625 75.09765625 C-25.75796875 76.14953125 -25.75796875 76.14953125 -25.34765625 77.22265625 C-23.72867804 79.77893763 -21.9541228 80.07547337 -19.16015625 81.09765625 C-17.34765625 82.59765625 -17.34765625 82.59765625 -16.16015625 84.09765625 C-16.16015625 84.75765625 -16.16015625 85.41765625 -16.16015625 86.09765625 C-14.84015625 86.75765625 -13.52015625 87.41765625 -12.16015625 88.09765625 C-13.15015625 88.59265625 -13.15015625 88.59265625 -14.16015625 89.09765625 C-15.64515625 88.60265625 -15.64515625 88.60265625 -17.16015625 88.09765625 C-17.16015625 87.43765625 -17.16015625 86.77765625 -17.16015625 86.09765625 C-17.71703125 85.87078125 -18.27390625 85.64390625 -18.84765625 85.41015625 C-21.83863952 83.71257115 -23.81630187 81.61301217 -26.16015625 79.09765625 C-26.64355469 78.63101563 -27.12695312 78.164375 -27.625 77.68359375 C-30.31152082 74.90032841 -31.14827798 73.43618694 -31.28515625 69.53515625 C-29.71176888 64.72758374 -27.2112184 62.2617726 -22.84765625 59.78515625 C-22.29078125 59.55828125 -21.73390625 59.33140625 -21.16015625 59.09765625 C-21.16015625 58.43765625 -21.16015625 57.77765625 -21.16015625 57.09765625 C-20.17015625 56.43765625 -19.18015625 55.77765625 -18.16015625 55.09765625 C-17.15372875 53.43486298 -16.15430218 51.76782141 -15.16015625 50.09765625 C-14.52078125 49.49953125 -13.88140625 48.90140625 -13.22265625 48.28515625 C-10.38339687 45.27382055 -8.86646306 41.83700948 -7.16015625 38.09765625 C-6.50015625 38.09765625 -5.84015625 38.09765625 -5.16015625 38.09765625 C-5.1351001 36.98205322 -5.11004395 35.8664502 -5.08422852 34.71704102 C-4.99032204 30.59273035 -4.89006111 26.46859475 -4.7878418 22.34448242 C-4.74442925 20.55676355 -4.70275896 18.76900151 -4.6628418 16.98120117 C-4.60529165 14.41702234 -4.54155422 11.85306213 -4.4765625 9.2890625 C-4.45985001 8.48489395 -4.44313751 7.6807254 -4.42591858 6.85218811 C-4.24493651 0.13117851 -4.24493651 0.13117851 0 0 Z " fill="#FCDB2B" transform="translate(45.16015625,41.90234375)"/>
<path d="M0 0 C0 0.66 0 1.32 0 2 C0.66 2 1.32 2 2 2 C2 3.65 2 5.3 2 7 C2.99 7.33 3.98 7.66 5 8 C5.125 10.375 5.125 10.375 5 13 C4.34 13.66 3.68 14.32 3 15 C0.9375 14.8125 0.9375 14.8125 -1 14 C-1.33 13.01 -1.66 12.02 -2 11 C-2.66 11 -3.32 11 -4 11 C-4.33 12.32 -4.66 13.64 -5 15 C-6.8125 15.6875 -6.8125 15.6875 -9 16 C-10.75 14.6875 -10.75 14.6875 -12 13 C-12 12.34 -12 11.68 -12 11 C-12.66 11 -13.32 11 -14 11 C-15.61949011 8.42786866 -16.04408751 7.32330841 -15.625 4.25 C-15.41875 3.5075 -15.2125 2.765 -15 2 C-10.5505618 0.76404494 -10.5505618 0.76404494 -7.8125 1.9375 C-6.9153125 2.4634375 -6.9153125 2.4634375 -6 3 C-5.34 3 -4.68 3 -4 3 C-4 2.34 -4 1.68 -4 1 C-2 0 -2 0 0 0 Z " fill="#FCAD81" transform="translate(78,127)"/>
<path d="M0 0 C0 0.66 0 1.32 0 2 C-1.42831656 2.93812508 -2.85909122 3.8727455 -4.30273438 4.78710938 C-7.21290796 6.86676161 -9.42285922 9.55541594 -11.75 12.25 C-13.45986418 14.2211571 -15.18864859 16.1176152 -17 18 C-17.66 18 -18.32 18 -19 18 C-19.2784375 18.86625 -19.2784375 18.86625 -19.5625 19.75 C-21.2747718 22.43007761 -23.26521824 23.51414798 -26.05078125 24.97265625 C-28.09402475 25.99416662 -28.09402475 25.99416662 -30.171875 27.546875 C-34.03602316 29.53232129 -37.65107615 29.80609576 -41.9375 30.1875 C-42.72318359 30.26935547 -43.50886719 30.35121094 -44.31835938 30.43554688 C-48.5513698 30.85707678 -52.74238844 31.19322494 -57 31 C-57.33 30.67 -57.66 30.34 -58 30 C-59.68608966 29.92794489 -61.37500659 29.91613932 -63.0625 29.9375 C-63.98160156 29.94652344 -64.90070313 29.95554687 -65.84765625 29.96484375 C-66.55792969 29.97644531 -67.26820312 29.98804687 -68 30 C-68.33 29.34 -68.66 28.68 -69 28 C-68.23969482 27.98018066 -67.47938965 27.96036133 -66.69604492 27.93994141 C-63.19289648 27.84365868 -59.69026225 27.73440434 -56.1875 27.625 C-54.99189453 27.5940625 -53.79628906 27.563125 -52.56445312 27.53125 C-43.36341058 27.23039847 -34.54520123 26.63354252 -26 23 C-26 22.01 -26 21.02 -26 20 C-23.17101914 17.89471192 -20.23874383 16.13794088 -17.1875 14.375 C-14.87705879 13.18683458 -14.87705879 13.18683458 -14 11 C-13.34 11 -12.68 11 -12 11 C-11.7525 10.2575 -11.505 9.515 -11.25 8.75 C-9.15978002 4.15151605 -5.37166612 0 0 0 Z " fill="#FBD236" transform="translate(114,13)"/>
<path d="M0 0 C1.98 0 3.96 0 6 0 C6.33 0.66 6.66 1.32 7 2 C8.64363134 2.72159424 10.31050386 3.39351421 12 4 C13.125 10.75 13.125 10.75 12 13 C12.2475 14.4540625 12.2475 14.4540625 12.5 15.9375 C13.52775473 22.20943911 12.6852696 28.90160915 11 35 C9 35 7 35 5 35 C4.34 35.66 3.68 36.32 3 37 C2.01 36.01 1.02 35.02 0 34 C0.86625 33.38125 0.86625 33.38125 1.75 32.75 C4.64812173 30.49590532 7.34187165 28.3162567 9 25 C9.07094304 21.74992201 8.99679523 18.51183871 8.9375 15.26171875 C8.99327113 12.35116267 9.32249904 9.82115634 10 7 C6.71303767 6.20046862 5.28976808 5.90341064 2 7 C-0.69921875 6.66015625 -0.69921875 6.66015625 -3.6875 6.0625 C-4.68136719 5.86785156 -5.67523438 5.67320313 -6.69921875 5.47265625 C-7.83810547 5.23869141 -7.83810547 5.23869141 -9 5 C-9 4.67 -9 4.34 -9 4 C-5.7 3.67 -2.4 3.34 1 3 C0.67 2.01 0.34 1.02 0 0 Z " fill="#EBB458" transform="translate(156,93)"/>
<path d="M0 0 C4.75 0.875 4.75 0.875 7 2 C11.37825381 2.24323632 14.18049077 2.10731544 18 0 C19.32 0 20.64 0 22 0 C22 1.65 22 3.3 22 5 C17.07584801 8.42549703 13.41062863 9.68445719 7.37890625 9.47265625 C3.50753924 8.70346839 1.68261741 6.8238078 -1 4 C-0.67 2.68 -0.34 1.36 0 0 Z " fill="#C76423" transform="translate(102,123)"/>
<path d="M0 0 C3.46264391 1.15421464 4.28784522 1.83251366 6 5 C5.8125 8.1875 5.8125 8.1875 5 11 C4.01 11.495 4.01 11.495 3 12 C3 11.01 3 10.02 3 9 C2.175 9.99 1.35 10.98 0.5 12 C-2.04066045 14.56485722 -3.62179203 15.44703346 -7.25 15.5 C-11 15 -11 15 -13 13 C-13 12.01 -13 11.02 -13 10 C-10.03 9.34 -7.06 8.68 -4 8 C-3.8453125 6.576875 -3.8453125 6.576875 -3.6875 5.125 C-3 2 -3 2 0 0 Z " fill="#221610" transform="translate(82,109)"/>
<path d="M0 0 C2.5625 0.125 2.5625 0.125 4.5625 1.125 C5.96405035 0.95944008 7.3599637 0.74403391 8.75 0.5 C13.66505497 -0.1173499 16.25830198 0.71464911 20.5625 3.125 C22.5 4.8125 22.5 4.8125 23.5625 6.125 C23.2325 6.785 22.9025 7.445 22.5625 8.125 C21.9025 7.795 21.2425 7.465 20.5625 7.125 C20.5625 6.465 20.5625 5.805 20.5625 5.125 C14.54017819 3.65880093 9.65882423 2.79971212 3.5625 4.125 C2.5725 6.765 1.5825 9.405 0.5625 12.125 C1.5525 12.455 2.5425 12.785 3.5625 13.125 C1.9125 15.105 0.2625 17.085 -1.4375 19.125 C-2.0975 18.795 -2.7575 18.465 -3.4375 18.125 C-3.51206036 14.24786142 -3.44461597 10.86571646 -2.4375 7.125 C-2.7675 6.795 -3.0975 6.465 -3.4375 6.125 C-3.5625 3.625 -3.5625 3.625 -3.4375 1.125 C-2.4375 0.125 -2.4375 0.125 0 0 Z " fill="#140C03" transform="translate(62.4375,97.875)"/>
<path d="M0 0 C4.39577761 -0.05815112 8.79145598 -0.09364767 13.1875 -0.125 C14.43337891 -0.14175781 15.67925781 -0.15851562 16.96289062 -0.17578125 C18.16494141 -0.18222656 19.36699219 -0.18867187 20.60546875 -0.1953125 C22.26292114 -0.21102295 22.26292114 -0.21102295 23.95385742 -0.22705078 C27.03654165 0.00272371 29.21840962 0.6918151 32 2 C32.01458252 2.9379541 32.02916504 3.8759082 32.04418945 4.84228516 C32.10546717 8.34269379 32.17965932 11.84234449 32.26245117 15.34228516 C32.29557926 16.85324904 32.32364855 18.36433307 32.34643555 19.87548828 C32.38020681 22.05553082 32.43252896 24.23448439 32.48828125 26.4140625 C32.51446533 27.7232666 32.54064941 29.0324707 32.56762695 30.38134766 C33.02719282 34.22758443 34.0808157 36.6656412 36 40 C36.76361373 41.57681277 37.51512171 43.15959177 38.25 44.75 C38.60578125 45.50796875 38.9615625 46.2659375 39.328125 47.046875 C39.54984375 47.69140625 39.7715625 48.3359375 40 49 C39.505 49.99 39.505 49.99 39 51 C38.03810003 49.27281484 37.08063492 47.54315942 36.125 45.8125 C35.59132812 44.84957031 35.05765625 43.88664062 34.5078125 42.89453125 C34.01023438 41.93933594 33.51265625 40.98414063 33 40 C32.6184375 39.27683594 32.236875 38.55367187 31.84375 37.80859375 C30.50644164 33.35709047 30.52299589 28.87487149 30.375 24.25 C30.33632812 23.29867187 30.29765625 22.34734375 30.2578125 21.3671875 C30.0356338 15.57467151 29.96421957 9.79642928 30 4 C29.34 3.67 28.68 3.34 28 3 C27.67 4.32 27.34 5.64 27 7 C26.01 6.67 25.02 6.34 24 6 C23.67 4.68 23.34 3.36 23 2 C11.615 1.505 11.615 1.505 0 1 C0 0.67 0 0.34 0 0 Z " fill="#FBBD61" transform="translate(152,41)"/>
<path d="M0 0 C2.97 0.495 2.97 0.495 6 1 C6 1.99 6 2.98 6 4 C5.21625 4.226875 4.4325 4.45375 3.625 4.6875 C0.89400364 5.76144784 0.89400364 5.76144784 -0.25 8.0625 C-1.61336583 13.40234949 -2.65231322 17.9663176 -0.9375 23.3125 C1.32129983 26.44567395 3.67472984 28.0787328 7 30 C6.34 30.66 5.68 31.32 5 32 C4.01 32 3.02 32 2 32 C2 33.65 2 35.3 2 37 C1.01 37.495 1.01 37.495 0 38 C-0.33 35.36 -0.66 32.72 -1 30 C-2.32 30 -3.64 30 -5 30 C-4 27 -4 27 -3 26 C-3.144375 25.34 -3.28875 24.68 -3.4375 24 C-5.06143359 15.33902087 -3.41963693 8.06057275 0 0 Z " fill="#EDBB52" transform="translate(140,96)"/>
<path d="M0 0 C1.670625 0.37125 1.670625 0.37125 3.375 0.75 C4.77435013 3.54870027 4.62765405 5.65498792 4.375 8.75 C3.1875 10.625 3.1875 10.625 1.375 11.75 C-1.44615488 12.17317323 -2.96450907 12.13718434 -5.4375 10.6875 C-7.29001934 7.66496844 -7.00143703 5.20067281 -6.625 1.75 C-3.625 -0.25 -3.625 -0.25 0 0 Z " fill="#E7E8E5" transform="translate(71.625,100.25)"/>
<path d="M0 0 C1 1 1 1 1.25 4.375 C1 8 1 8 -0.125 10 C-2.98873147 11.52732345 -4.95300191 10.84278671 -8 10 C-10 8 -10 8 -10.3125 5.0625 C-10 2 -10 2 -8.9375 0.0625 C-5.84787273 -1.63181173 -3.32782582 -0.73951685 0 0 Z " fill="#F7F7F7" transform="translate(153,101)"/>
<path d="M0 0 C3.8450136 0.50313539 6.85065835 0.50265419 10.625 -0.4375 C10.955 0.8825 11.285 2.2025 11.625 3.5625 C10.965 3.5625 10.305 3.5625 9.625 3.5625 C8.635 5.0475 8.635 5.0475 7.625 6.5625 C8.615 8.0475 8.615 8.0475 9.625 9.5625 C9.75 12.25 9.75 12.25 9.625 14.5625 C8.965 14.5625 8.305 14.5625 7.625 14.5625 C5.26285462 11.91403397 3.75327868 9.94733604 2.625 6.5625 C1.635 7.0575 1.635 7.0575 0.625 7.5625 C0.439375 6.94375 0.25375 6.325 0.0625 5.6875 C-2.08937233 2.50647134 -4.75033763 2.36798053 -8.375 1.5625 C-4.85672575 -0.78301617 -4.04179774 -0.5370608 0 0 Z " fill="#050606" transform="translate(154.375,98.4375)"/>
<path d="M0 0 C0.66 0.33 1.32 0.66 2 1 C1.01 2.65 0.02 4.3 -1 6 C-0.34 6.33 0.32 6.66 1 7 C-7.4 9.47058824 -7.4 9.47058824 -11 10 C-11.33 9.67 -11.66 9.34 -12 9 C-13.66617115 8.95936168 -15.33388095 8.957279 -17 9 C-17.99 11.31 -18.98 13.62 -20 16 C-21.2380014 12.42355152 -20.74926071 9.66305234 -20 6 C-18.68 6 -17.36 6 -16 6 C-15.34 5.01 -14.68 4.02 -14 3 C-12.03358471 3 -10.06594951 3.00836593 -8.1015625 3.09765625 C-4.98228975 2.95270863 -2.69754029 1.47722445 0 0 Z " fill="#F8D02E" transform="translate(77,90)"/>
<path d="M0 0 C0.2475 0.5775 0.495 1.155 0.75 1.75 C2.26466783 4.4764021 3.46404752 6.14944008 6 8 C9.69432511 7.85387105 9.69432511 7.85387105 13 7 C13.66 8.32 14.32 9.64 15 11 C10.96770093 13.68819938 7.73618872 13.67303734 3 13 C-0.28936598 11.14973164 -1.60248434 9.99378915 -3 6.5 C-3 3.37736425 -2.08489627 2.25168797 0 0 Z " fill="#72401C" transform="translate(144,111)"/>
<path d="M0 0 C1.18142578 0.00966797 1.18142578 0.00966797 2.38671875 0.01953125 C4.3125 0.1875 4.3125 0.1875 5.3125 1.1875 C5.35313832 2.85367115 5.355221 4.52138095 5.3125 6.1875 C0.38512981 8.15844808 -3.46770872 8.3674928 -8.6875 8.1875 C-8.6875 6.2075 -8.6875 4.2275 -8.6875 2.1875 C-5.65909851 0.43421493 -3.48875633 -0.06343193 0 0 Z " fill="#FCB077" transform="translate(72.6875,83.8125)"/>
<path d="M0 0 C0 0.66 0 1.32 0 2 C-1.41478135 2.64995297 -2.83191487 3.29478722 -4.25 3.9375 C-5.43335938 4.47697266 -5.43335938 4.47697266 -6.640625 5.02734375 C-8.75823698 5.90033279 -10.76669362 6.51338508 -13 7 C-13 7.66 -13 8.32 -13 9 C-13.66 9 -14.32 9 -15 9 C-15 9.66 -15 10.32 -15 11 C-18.46153846 14 -18.46153846 14 -21 14 C-21.226875 14.70125 -21.45375 15.4025 -21.6875 16.125 C-23.89843279 20.96799564 -26.3319399 24.30759769 -31.3125 26.375 C-32.199375 26.58125 -33.08625 26.7875 -34 27 C-34 26.34 -34 25.68 -34 25 C-33.3915625 24.74992187 -32.783125 24.49984375 -32.15625 24.2421875 C-29.65874515 22.80340753 -28.89187454 21.61720779 -27.5 19.125 C-25.63715399 15.97249137 -23.85498654 13.36274748 -21 11 C-20.34 11 -19.68 11 -19 11 C-19 10.34 -19 9.68 -19 9 C-6.31476323 0 -6.31476323 0 0 0 Z " fill="#FBBF6A" transform="translate(149,183)"/>
<path d="M0 0 C0.72574219 -0.01224609 1.45148438 -0.02449219 2.19921875 -0.03710938 C7.36326785 -0.05091699 11.78436022 0.76633839 16.75 2.1875 C16.75 2.5175 16.75 2.8475 16.75 3.1875 C15.92798096 3.17702637 15.10596191 3.16655273 14.2590332 3.15576172 C10.52688669 3.11413241 6.7947891 3.08815147 3.0625 3.0625 C1.76892578 3.04574219 0.47535156 3.02898438 -0.85742188 3.01171875 C-2.10458984 3.00527344 -3.35175781 2.99882813 -4.63671875 2.9921875 C-5.78358154 2.98171387 -6.93044434 2.97124023 -8.11206055 2.96044922 C-11.28339783 3.18991656 -13.45640157 3.68205198 -16.25 5.1875 C-17.14386164 7.73525306 -17.14386164 7.73525306 -17.25 10.1875 C-18.57 9.8575 -19.89 9.5275 -21.25 9.1875 C-21.25 8.5275 -21.25 7.8675 -21.25 7.1875 C-22.57 7.5175 -23.89 7.8475 -25.25 8.1875 C-22.88987122 5.4791555 -20.65006885 4.33730073 -17.3125 3.0625 C-16.45785156 2.72992188 -15.60320312 2.39734375 -14.72265625 2.0546875 C-9.76403313 0.31564432 -5.24003222 0.00455655 0 0 Z " fill="#FAE5A2" transform="translate(87.25,4.8125)"/>
<path d="M0 0 C-7.57679601 7.83806484 -21.11154982 6.38353939 -31.1875 6.625 C-32.53452721 6.6632964 -33.88153299 6.7023543 -35.22851562 6.7421875 C-38.48554682 6.83557908 -41.74258509 6.921354 -45 7 C-44.67 6.01 -44.34 5.02 -44 4 C-42.84999512 4.00785522 -42.84999512 4.00785522 -41.67675781 4.01586914 C-38.20118022 4.03666364 -34.72561573 4.04966809 -31.25 4.0625 C-29.44015625 4.07506836 -29.44015625 4.07506836 -27.59375 4.08789062 C-26.43359375 4.09111328 -25.2734375 4.09433594 -24.078125 4.09765625 C-23.00981445 4.10289307 -21.94150391 4.10812988 -20.84082031 4.11352539 C-18.35363782 4.01413214 -16.3821055 3.63943037 -14 3 C-11.66699067 2.96111651 -9.33290199 2.9551365 -7 3 C-7 2.34 -7 1.68 -7 1 C-4.53721199 -0.231394 -2.7204945 -0.07159196 0 0 Z " fill="#FEDA57" transform="translate(88,35)"/>
<path d="M0 0 C0.33 0.66 0.66 1.32 1 2 C1.66 2 2.32 2 3 2 C3.6875 3.6875 3.6875 3.6875 4 6 C2.07566607 10.30145232 -1.23819833 14.14925967 -5 17 C-5.99 17 -6.98 17 -8 17 C-8.2475 17.7425 -8.495 18.485 -8.75 19.25 C-10.10465039 22.23023087 -11.5101541 23.89919252 -14 26 C-14.66 26 -15.32 26 -16 26 C-16 24.68 -16 23.36 -16 22 C-15.34 22 -14.68 22 -14 22 C-13.73960937 21.40445313 -13.47921875 20.80890625 -13.2109375 20.1953125 C-11.92148412 17.85765831 -10.66460378 16.57615425 -8.625 14.875 C-8.03976563 14.37742187 -7.45453125 13.87984375 -6.8515625 13.3671875 C-5 12 -5 12 -2.85546875 10.96484375 C-0.77886341 10.09867769 -0.77886341 10.09867769 0.3125 7.6875 C1.07479299 4.7076274 0.83686751 2.9290363 0 0 Z " fill="#F9B66E" transform="translate(208,108)"/>
<path d="M0 0 C0.90105469 0.00902344 1.80210937 0.01804687 2.73046875 0.02734375 C3.41753906 0.03894531 4.10460937 0.05054687 4.8125 0.0625 C4.1525 1.3825 3.4925 2.7025 2.8125 4.0625 C1.1625 4.0625 -0.4875 4.0625 -2.1875 4.0625 C-2.1875 3.4025 -2.1875 2.7425 -2.1875 2.0625 C-3.8375 2.0625 -5.4875 2.0625 -7.1875 2.0625 C-6.73408132 3.33509511 -6.27454773 4.60551243 -5.8125 5.875 C-5.55726563 6.58269531 -5.30203125 7.29039062 -5.0390625 8.01953125 C-4.1609231 10.31023359 -4.1609231 10.31023359 -2.1875 13.0625 C-1.1975 13.3925 -0.2075 13.7225 0.8125 14.0625 C1.1425 12.4125 1.4725 10.7625 1.8125 9.0625 C2.4725 9.7225 3.1325 10.3825 3.8125 11.0625 C3.6875 13.0625 3.6875 13.0625 2.8125 15.0625 C1.0625 16.5 1.0625 16.5 -1.1875 17.0625 C-3.99448838 15.85950498 -5.69338786 14.85104883 -7.328125 12.2421875 C-8.30450561 9.76573122 -8.39044922 7.96277357 -8.3125 5.3125 C-8.29445312 4.51328125 -8.27640625 3.7140625 -8.2578125 2.890625 C-8.23460937 2.28734375 -8.21140625 1.6840625 -8.1875 1.0625 C-5.17259443 0.05753148 -3.14568308 -0.04085303 0 0 Z " fill="#F6AB62" transform="translate(150.1875,126.9375)"/>
<path d="M0 0 C0.33 0 0.66 0 1 0 C1.08636719 0.72445312 1.17273437 1.44890625 1.26171875 2.1953125 C2.19212332 8.59717882 2.87615309 12.83687438 8 17 C11.30387816 18.03720524 14.56302713 18.61292344 18 19 C17.34 19.33 16.68 19.66 16 20 C16 20.66 16 21.32 16 22 C14.125 22.625 14.125 22.625 12 23 C11.34 22.34 10.68 21.68 10 21 C6.90073181 21.32198966 6.90073181 21.32198966 4 22 C4.33 20.02 4.66 18.04 5 16 C2.03 15.505 2.03 15.505 -1 15 C-1 14.01 -1 13.02 -1 12 C-0.34 12 0.32 12 1 12 C0.67 11.34 0.34 10.68 0 10 C-0.06996014 8.29297265 -0.08440154 6.58331997 -0.0625 4.875 C-0.05347656 3.96492188 -0.04445312 3.05484375 -0.03515625 2.1171875 C-0.02355469 1.41851562 -0.01195312 0.71984375 0 0 Z " fill="#E7C23B" transform="translate(58,108)"/>
<path d="M0 0 C1.6045556 0.14148989 3.20863767 0.28835686 4.8125 0.4375 C5.70582031 0.51871094 6.59914062 0.59992188 7.51953125 0.68359375 C10 1 10 1 13 2 C12.67 3.65 12.34 5.3 12 7 C4.72727273 7.36363636 4.72727273 7.36363636 1.5 5.75 C0 4 0 4 0 0 Z " fill="#FCA278" transform="translate(148,85)"/>
<path d="M0 0 C2.31 0.33 4.62 0.66 7 1 C7 1.66 7 2.32 7 3 C7.86625 3.103125 8.7325 3.20625 9.625 3.3125 C13.16683123 4.03398414 15.84312042 5.27123261 19 7 C18.67 10.63 18.34 14.26 18 18 C14.89945806 14.89945806 14.76636823 14.55325505 14.0625 10.625 C13.03363115 7.12112997 12.34074199 6.20249012 9.140625 4.30078125 C6.12151004 3.06407806 3.11689567 1.96164688 0 1 C0 0.67 0 0.34 0 0 Z " fill="#F8E08B" transform="translate(29,178)"/>
<path d="M0 0 C0.33 0 0.66 0 1 0 C1.18175781 0.80824219 1.36351563 1.61648437 1.55078125 2.44921875 C1.80214844 3.51785156 2.05351563 4.58648437 2.3125 5.6875 C2.55613281 6.74324219 2.79976563 7.79898438 3.05078125 8.88671875 C3.99420861 11.9810052 5.3299182 14.25395514 7 17 C7 17.99 7 18.98 7 20 C3.98197607 19.67372714 2.40308719 19.38918764 0.1875 17.25 C-1.23197933 14.56046021 -1.38497339 13.00279246 -1 10 C-0.34 9.01 0.32 8.02 1 7 C0.34 6.67 -0.32 6.34 -1 6 C-0.67 4.02 -0.34 2.04 0 0 Z " fill="#673B18" transform="translate(64,104)"/>
<path d="M0 0 C0.66 0 1.32 0 2 0 C1.54326786 2.13141664 1.03787822 3.92728599 0.02734375 5.8671875 C-3.76605827 13.74246318 -3.53214459 23.45548285 -4 32 C-4.66 31.67 -5.32 31.34 -6 31 C-6.23658921 22.73252149 -5.81344335 15.07953776 -4 7 C-3.34 7 -2.68 7 -2 7 C-1.855625 6.030625 -1.71125 5.06125 -1.5625 4.0625 C-1 1 -1 1 0 0 Z " fill="#FAB86D" transform="translate(188,136)"/>
<path d="M0 0 C0.88751953 0.2165625 0.88751953 0.2165625 1.79296875 0.4375 C7.82994538 1.94421132 7.82994538 1.94421132 14 2 C14.99 1.34 15.98 0.68 17 0 C17.99 0.33 18.98 0.66 20 1 C16.96803136 4.49842535 14.50074757 5.91982058 10 7 C6.625 7.125 6.625 7.125 4 7 C4.33 6.34 4.66 5.68 5 5 C3.7625 4.319375 3.7625 4.319375 2.5 3.625 C1.675 3.08875 0.85 2.5525 0 2 C0 1.34 0 0.68 0 0 Z " fill="#D15F33" transform="translate(103,125)"/>
<path d="M0 0 C0 0.66 0 1.32 0 2 C-1.43300442 2.93915606 -2.86831291 3.87501312 -4.31591797 4.79150391 C-7.72890646 7.24066207 -10.26671239 10.63512078 -12.94335938 13.84179688 C-15.14279985 16.36661688 -16.59471513 17.87679786 -19.83984375 18.86328125 C-20.55269531 18.90839844 -21.26554687 18.95351563 -22 19 C-22.33 19.99 -22.66 20.98 -23 22 C-23.99 22 -24.98 22 -26 22 C-26 21.34 -26 20.68 -26 20 C-23.15041846 17.94565052 -20.22838354 16.13195494 -17.1875 14.375 C-14.87705879 13.18683458 -14.87705879 13.18683458 -14 11 C-13.34 11 -12.68 11 -12 11 C-11.7525 10.2575 -11.505 9.515 -11.25 8.75 C-9.15978002 4.15151605 -5.37166612 0 0 0 Z " fill="#F8CA3E" transform="translate(114,13)"/>
<path d="M0 0 C0.99 0.33 1.98 0.66 3 1 C3 1.66 3 2.32 3 3 C3.928125 3.12375 3.928125 3.12375 4.875 3.25 C5.926875 3.62125 5.926875 3.62125 7 4 C7.28875 4.6290625 7.5775 5.258125 7.875 5.90625 C9.26897028 8.50058358 10.47375888 9.0526653 13.125 10.25 C13.84945312 10.58515625 14.57390625 10.9203125 15.3203125 11.265625 C15.87460938 11.50796875 16.42890625 11.7503125 17 12 C17 12.66 17 13.32 17 14 C19.31 14 21.62 14 24 14 C24 14.66 24 15.32 24 16 C22.741875 15.87625 21.48375 15.7525 20.1875 15.625 C19.47980469 15.55539063 18.77210938 15.48578125 18.04296875 15.4140625 C16 15 16 15 13 13 C13 12.34 13 11.68 13 11 C12.154375 11 11.30875 11 10.4375 11 C5.46661907 9.55392555 2.89734621 6.19172277 0 2 C0 1.34 0 0.68 0 0 Z " fill="#FDCB5F" transform="translate(125,24)"/>
<path d="M0 0 C4.62 0 9.24 0 14 0 C14 0.66 14 1.32 14 2 C12.02 2 10.04 2 8 2 C7.67 2.99 7.34 3.98 7 5 C5.02 5 3.04 5 1 5 C1.33 8.3 1.66 11.6 2 15 C1.34 14.67 0.68 14.34 0 14 C0 9.38 0 4.76 0 0 Z " fill="#FAD81E" transform="translate(42,42)"/>
<path d="M0 0 C2.60577305 2.27731426 3.6524187 4.21402762 4.6875 7.5 C4.93886719 8.2734375 5.19023437 9.046875 5.44921875 9.84375 C6 12 6 12 6 15 C4.35 14.67 2.7 14.34 1 14 C-0.6446488 9.06605361 -1.3450373 5.08125204 0 0 Z " fill="#F8D58F" transform="translate(177,27)"/>
<path d="M0 0 C0.99 0.33 1.98 0.66 3 1 C-6.6463818 5.2925607 -14.47281118 7.21484059 -25 7 C-21.38778152 3.53227026 -18.85820396 4 -14 4 C-6.80479093 2.60030786 -6.80479093 2.60030786 0 0 Z " fill="#F7D99A" transform="translate(108,213)"/>
<path d="M0 0 C0.66 0 1.32 0 2 0 C2 0.99 2 1.98 2 3 C2.66 3.33 3.32 3.66 4 4 C3.67 6.31 3.34 8.62 3 11 C1.33388095 11.042721 -0.33382885 11.04063832 -2 11 C-2.33 10.67 -2.66 10.34 -3 10 C-4.32520503 9.31731862 -5.65812182 8.6492959 -7 8 C-6.030625 7.608125 -5.06125 7.21625 -4.0625 6.8125 C-0.77823609 5.32405113 -0.77823609 5.32405113 -0.125 2.3125 C-0.08375 1.549375 -0.0425 0.78625 0 0 Z " fill="#FAB947" transform="translate(124,123)"/>
<path d="M0 0 C1.49172132 4.32891676 0.20550554 6.63958007 -1.69140625 10.6171875 C-4.64824556 16.00128297 -7.95327534 20.45424086 -13 24 C-13 23.01 -13 22.02 -13 21 C-12.34 21 -11.68 21 -11 21 C-11 20.34 -11 19.68 -11 19 C-10.34 19 -9.68 19 -9 19 C-9 18.34 -9 17.68 -9 17 C-8.34 17 -7.68 17 -7 17 C-6.87625 16.236875 -6.7525 15.47375 -6.625 14.6875 C-6 12 -6 12 -4 9 C-3.34 9 -2.68 9 -2 9 C-1.855625 7.700625 -1.71125 6.40125 -1.5625 5.0625 C-1.125 1.125 -1.125 1.125 0 0 Z " fill="#F4D4A5" transform="translate(182,183)"/>
<path d="M0 0 C1.98 0.99 1.98 0.99 4 2 C4 2.66 4 3.32 4 4 C4.66 4 5.32 4 6 4 C6.33 4.99 6.66 5.98 7 7 C8.31647119 7.69937532 9.65022151 8.36729133 11 9 C11.33 9.66 11.66 10.32 12 11 C14.02463255 11.65213292 14.02463255 11.65213292 16 12 C16.33 13.32 16.66 14.64 17 16 C14.625 15.8125 14.625 15.8125 12 15 C11.31867549 13.33927151 10.65257873 11.672233 10 10 C8.3364521 9.32558869 6.66933058 8.6599679 5 8 C3.04580529 6.12545997 1.60981283 4.2077433 0 2 C0 1.34 0 0.68 0 0 Z " fill="#F9BD5E" transform="translate(96,196)"/>
<path d="M0 0 C2.31 0.33 4.62 0.66 7 1 C7.33 1.99 7.66 2.98 8 4 C6.5625 6.1875 6.5625 6.1875 5 8 C3.35 7.67 1.7 7.34 0 7 C0 4.69 0 2.38 0 0 Z " fill="#FACD2C" transform="translate(56,123)"/>
<path d="M0 0 C1.0625 1.875 1.0625 1.875 2 4 C1.67 4.66 1.34 5.32 1 6 C0.01 6 -0.98 6 -2 6 C-1.67 6.99 -1.34 7.98 -1 9 C-3.375 9.125 -3.375 9.125 -6 9 C-8 7 -8 7 -8.125 4.375 C-8.08375 3.59125 -8.0425 2.8075 -8 2 C-7.67 2.66 -7.34 3.32 -7 4 C-3.73045798 3.43628586 -2.17424117 2.50037734 0 0 Z " fill="#F9F9FA" transform="translate(73,102)"/>
<path d="M0 0 C0.86625 0.08765625 1.7325 0.1753125 2.625 0.265625 C5 0.75 5 0.75 8 2.75 C4.04 2.75 0.08 2.75 -4 2.75 C-4.43386092 6.62797662 -4.43386092 6.62797662 -2.5 8.5 C-2.005 8.9125 -1.51 9.325 -1 9.75 C-2.98 9.75 -4.96 9.75 -7 9.75 C-7.33 7.11 -7.66 4.47 -8 1.75 C-4.61496962 -0.50668692 -3.87444105 -0.43818083 0 0 Z " fill="#FEB457" transform="translate(153,82.25)"/>
<path d="M0 0 C-1 3 -1 3 -4 5 C-7.6875 4.625 -7.6875 4.625 -11 4 C-11 2.66666667 -11 1.33333333 -11 0 C-3.57142857 -1.28571429 -3.57142857 -1.28571429 0 0 Z " fill="#937053" transform="translate(80,119)"/>
<path d="M0 0 C1.98 0 3.96 0 6 0 C6.66 1.32 7.32 2.64 8 4 C7.01 4 6.02 4 5 4 C4.67 4.99 4.34 5.98 4 7 C-0.29 6.34 -4.58 5.68 -9 5 C-9 4.67 -9 4.34 -9 4 C-5.7 3.67 -2.4 3.34 1 3 C0.67 2.01 0.34 1.02 0 0 Z " fill="#FDBB4D" transform="translate(156,93)"/>
<path d="M0 0 C0.33 0 0.66 0 1 0 C1.33 4.29 1.66 8.58 2 13 C1.01 13.33 0.02 13.66 -1 14 C-1 11.69 -1 9.38 -1 7 C-2.65 7 -4.3 7 -6 7 C-6.33 5.02 -6.66 3.04 -7 1 C-5 1 -5 1 -3.375 2.5 C-2.92125 2.995 -2.4675 3.49 -2 4 C-1.34 2.68 -0.68 1.36 0 0 Z " fill="#FAD225" transform="translate(57,107)"/>
<path d="M0 0 C0.598125 0.20625 1.19625 0.4125 1.8125 0.625 C2.58396637 4.99664276 2.88734805 8.32560779 1.8125 12.625 C1.46846692 14.95677975 1.13300798 17.28987041 0.8125 19.625 C0.4825 19.625 0.1525 19.625 -0.1875 19.625 C-0.38422365 17.89685839 -0.56946799 16.16740803 -0.75 14.4375 C-0.90662109 12.99310547 -0.90662109 12.99310547 -1.06640625 11.51953125 C-1.18508751 8.68266623 -0.86515639 6.37076329 -0.1875 3.625 C-2.6625 2.635 -2.6625 2.635 -5.1875 1.625 C-2.1875 -0.375 -2.1875 -0.375 0 0 Z " fill="#DEAD5A" transform="translate(166.1875,96.375)"/>
<path d="M0 0 C4.04706105 0.60447906 7.10764545 1.91169641 10.6875 3.875 C11.64011719 4.38804688 12.59273437 4.90109375 13.57421875 5.4296875 C16 7 16 7 18 10 C16.68 10 15.36 10 14 10 C13.34 9.01 12.68 8.02 12 7 C10.515 6.7525 10.515 6.7525 9 6.5 C7.515 6.2525 7.515 6.2525 6 6 C5.34 5.01 4.68 4.02 4 3 C1.94074861 2.27617533 1.94074861 2.27617533 0 2 C0 1.34 0 0.68 0 0 Z " fill="#F6D5A7" transform="translate(185,42)"/>
<path d="M0 0 C1.6662553 0.0370279 3.33401319 0.04759962 5 0 C0.77614544 3.44165927 -2.50060584 5 -8 5 C-7.625 2.5625 -7.625 2.5625 -7 0 C-4.30493528 -1.34753236 -2.91558912 -0.61023958 0 0 Z " fill="#F9CC96" transform="translate(191,178)"/>
<path d="M0 0 C1.64453125 1.37890625 1.64453125 1.37890625 4.08203125 3.81640625 C3.75203125 4.47640625 3.42203125 5.13640625 3.08203125 5.81640625 C2.42203125 5.48640625 1.76203125 5.15640625 1.08203125 4.81640625 C1.08203125 4.15640625 1.08203125 3.49640625 1.08203125 2.81640625 C-4.298239 1.62551639 -9.37088259 0.52445435 -14.91796875 0.81640625 C-14.91796875 0.15640625 -14.91796875 -0.50359375 -14.91796875 -1.18359375 C-9.95337908 -2.64376718 -4.52155655 -2.79028846 0 0 Z " fill="#271807" transform="translate(81.91796875,100.18359375)"/>
<path d="M0 0 C0.99 0 1.98 0 3 0 C3 0.66 3 1.32 3 2 C4.1446875 2.4021875 4.1446875 2.4021875 5.3125 2.8125 C7.88988618 3.95134505 9.26954864 4.81416671 11 7 C11 7.66 11 8.32 11 9 C12.32 9.66 13.64 10.32 15 11 C14.01 11.495 14.01 11.495 13 12 C12.01 11.67 11.02 11.34 10 11 C10 10.34 10 9.68 10 9 C9.443125 8.773125 8.88625 8.54625 8.3125 8.3125 C4.80040423 6.31914835 1.81940125 3.63880251 0 0 Z " fill="#F9D735" transform="translate(18,119)"/>
<path d="M0 0 C0.66 0.33 1.32 0.66 2 1 C1.67 1.33 1.34 1.66 1 2 C2.32 2.33 3.64 2.66 5 3 C4.67 2.01 4.34 1.02 4 0 C5.32 0 6.64 0 8 0 C8.33 0.99 8.66 1.98 9 3 C7.875 4.5625 7.875 4.5625 6 6 C2.9375 5.875 2.9375 5.875 0 5 C-0.66 4.01 -1.32 3.02 -2 2 C-1.34 1.34 -0.68 0.68 0 0 Z " fill="#EAEAEA" transform="translate(145,106)"/>
<path d="M0 0 C0.66 0.33 1.32 0.66 2 1 C1.34 1.66 0.68 2.32 0 3 C-0.33 3.825 -0.66 4.65 -1 5.5 C-2 8 -2 8 -4 10 C-4.99 10 -5.98 10 -7 10 C-7 10.99 -7 11.98 -7 13 C-7.66 13 -8.32 13 -9 13 C-7.47987323 7.59510481 -3.72614782 4.01507372 0 0 Z " fill="#FAE888" transform="translate(21,51)"/>
<path d="M0 0 C0 0.66 0 1.32 0 2 C-1.41478135 2.64995297 -2.83191487 3.29478722 -4.25 3.9375 C-5.43335938 4.47697266 -5.43335938 4.47697266 -6.640625 5.02734375 C-8.75823698 5.90033279 -10.76669362 6.51338508 -13 7 C-13 7.66 -13 8.32 -13 9 C-14.98 9.66 -16.96 10.32 -19 11 C-19 10.34 -19 9.68 -19 9 C-6.31476323 0 -6.31476323 0 0 0 Z " fill="#F8B861" transform="translate(149,183)"/>
<path d="M0 0 C0.12375 0.639375 0.2475 1.27875 0.375 1.9375 C0.58125 2.618125 0.7875 3.29875 1 4 C1.66 4.33 2.32 4.66 3 5 C2.01 5.99 1.02 6.98 0 8 C-0.185625 7.38125 -0.37125 6.7625 -0.5625 6.125 C-2.71437233 2.94397134 -5.37533763 2.80548053 -9 2 C-5.5647952 -0.29013653 -4.014669 -0.17842973 0 0 Z " fill="#191007" transform="translate(155,98)"/>
<path d="M0 0 C4.68187876 1.31981745 8.00374921 3.19795672 11.875 6.125 C13.32519531 7.21167969 13.32519531 7.21167969 14.8046875 8.3203125 C15.89136719 9.15175781 15.89136719 9.15175781 17 10 C16.01 10.495 16.01 10.495 15 11 C12.96855359 10.06553465 10.96466413 9.06775224 9 8 C9 7.34 9 6.68 9 6 C7.68 5.67 6.36 5.34 5 5 C5 4.34 5 3.68 5 3 C2.525 2.01 2.525 2.01 0 1 C0 0.67 0 0.34 0 0 Z " fill="#F7E0A5" transform="translate(154,8)"/>
<path d="M0 0 C0.99 0.495 0.99 0.495 2 1 C2 1.99 2 2.98 2 4 C2.66 4 3.32 4 4 4 C6.60018816 7.90028225 6.15085514 11.47434569 6 16 C5.34 16 4.68 16 4 16 C3.896875 15.154375 3.79375 14.30875 3.6875 13.4375 C3.1409912 10.70495602 2.55748242 8.79547989 1.4375 6.3125 C0 3 0 3 0 0 Z " fill="#F9E98A" transform="translate(7,100)"/>
<path d="M0 0 C3.33511388 2.9901021 5.21521119 5.89498574 7 10 C7 10.66 7 11.32 7 12 C5.02 12.99 5.02 12.99 3 14 C3 11.03 3 8.06 3 5 C2.01 4.67 1.02 4.34 0 4 C0 2.68 0 1.36 0 0 Z " fill="#F4D29C" transform="translate(209,58)"/>
<path d="M0 0 C2.32472205 2.85306797 3.7508258 5.54074837 5 9 C3.4375 11.0625 3.4375 11.0625 1 13 C-2.75 12.75 -2.75 12.75 -6 12 C-6 11.67 -6 11.34 -6 11 C-3.69 11 -1.38 11 1 11 C1.08912219 7.16774573 0.87867729 3.73437848 0 0 Z " fill="#FDAF64" transform="translate(160,130)"/>
<path d="M0 0 C0.66 0.99 1.32 1.98 2 3 C1.34434512 4.73748543 0.67297077 6.4734055 -0.12890625 8.1484375 C-1.32449544 10.68973471 -2.1522288 13.32626006 -3 16 C-4.62746924 10.82903389 -3.04405635 6.32012523 -0.875 1.5 C-0.58625 1.005 -0.2975 0.51 0 0 Z " fill="#F8E474" transform="translate(11,64)"/>
<path d="M0 0 C0.33 0 0.66 0 1 0 C2.57379666 4.13121623 3.59053123 7.57101576 3 12 C1 13.875 1 13.875 -1 15 C-1.20086443 11.28400809 -1.1519437 10.22791555 1 7 C0.34 6.67 -0.32 6.34 -1 6 C-0.67 4.02 -0.34 2.04 0 0 Z " fill="#3A2C1E" transform="translate(64,104)"/>
<path d="M0 0 C1.12109375 1.7578125 1.12109375 1.7578125 2 4 C1.28515625 5.9296875 1.28515625 5.9296875 0.0625 7.875 C-1.67272547 10.97403144 -2.01499275 11.7901015 -1.75 15.5 C-1.5025 16.325 -1.255 17.15 -1 18 C-1.66 18 -2.32 18 -3 18 C-3.9765625 11.9453125 -3.9765625 11.9453125 -4 10 C-3.34 9.34 -2.68 8.68 -2 8 C-1.32707499 6.03309626 -1.32707499 6.03309626 -0.875 3.875 C-0.58625 2.59625 -0.2975 1.3175 0 0 Z " fill="#F6D6AE" transform="translate(216,99)"/>
<path d="M0 0 C3.37462715 0.54723683 5.08235 1.0549 8 3 C8 3.66 8 4.32 8 5 C9.32 5 10.64 5 12 5 C12.33 5.99 12.66 6.98 13 8 C7.73691968 6.58795406 4.2437012 4.31008693 0 1 C0 0.67 0 0.34 0 0 Z " fill="#F5D995" transform="translate(57,208)"/>
<path d="M0 0 C2.475 0.495 2.475 0.495 5 1 C5.33 1.99 5.66 2.98 6 4 C8.01508358 4.73323796 8.01508358 4.73323796 10 5 C10 5.66 10 6.32 10 7 C10.99 7.33 11.98 7.66 13 8 C13 8.66 13 9.32 13 10 C7.65978754 8.49806525 3.86352256 4.82517494 0 1 C0 0.67 0 0.34 0 0 Z " fill="#F9F09C" transform="translate(16,168)"/>
<path d="M0 0 C2.96676187 1.05231297 3.89604626 1.81780739 5.484375 4.6015625 C5.90203125 5.59929687 6.3196875 6.59703125 6.75 7.625 C7.17796875 8.62789062 7.6059375 9.63078125 8.046875 10.6640625 C8.36140625 11.43492187 8.6759375 12.20578125 9 13 C8.01 13.495 8.01 13.495 7 14 C6.32845067 12.71086513 5.66291141 11.41859796 5 10.125 C4.62875 9.40570313 4.2575 8.68640625 3.875 7.9453125 C3 6 3 6 3 4 C2.34 4 1.68 4 1 4 C0.67 2.68 0.34 1.36 0 0 Z " fill="#F8D436" transform="translate(32,132)"/>
<path d="M0 0 C0.99 0.33 1.98 0.66 3 1 C3.33 1.99 3.66 2.98 4 4 C0.77208445 6.1519437 -0.28400809 6.20086443 -4 6 C-4 5.01 -4 4.02 -4 3 C-3.01 3 -2.02 3 -1 3 C-0.67 2.01 -0.34 1.02 0 0 Z " fill="#A98C6E" transform="translate(155,118)"/>
<path d="M0 0 C1.65 0.33 3.3 0.66 5 1 C4.67 2.65 4.34 4.3 4 6 C2.0625 5.6875 2.0625 5.6875 0 5 C-0.33 4.01 -0.66 3.02 -1 2 C-0.67 1.34 -0.34 0.68 0 0 Z " fill="#E7E3E0" transform="translate(79,111)"/>
<path d="M0 0 C1.32 0 2.64 0 4 0 C4.625 1.875 4.625 1.875 5 4 C4.34 4.66 3.68 5.32 3 6 C0.875 5.625 0.875 5.625 -1 5 C-0.67 3.35 -0.34 1.7 0 0 Z " fill="#E9E7E2" transform="translate(158,111)"/>
<path d="M0 0 C0.99 0 1.98 0 3 0 C2.67 2.97 2.34 5.94 2 9 C-1 8 -1 8 -2.1875 5.9375 C-2.455625 5.298125 -2.72375 4.65875 -3 4 C-1.6875 2 -1.6875 2 0 0 Z " fill="#201009" transform="translate(164,100)"/>
<path d="M0 0 C-0.33 1.65 -0.66 3.3 -1 5 C-2.32 4.67 -3.64 4.34 -5 4 C-5 3.34 -5 2.68 -5 2 C-6.32 2.33 -7.64 2.66 -9 3 C-5.83583464 -0.30799106 -4.50236011 -1.35070803 0 0 Z " fill="#F8E38A" transform="translate(71,10)"/>
<path d="M0 0 C0.33 1.32 0.66 2.64 1 4 C1.66 4 2.32 4 3 4 C2.67 4.66 2.34 5.32 2 6 C0.02 6 -1.96 6 -4 6 C-4 4.68 -4 3.36 -4 2 C-2.68 1.34 -1.36 0.68 0 0 Z " fill="#FECC2F" transform="translate(60,132)"/>
<path d="M0 0 C1.98 0 3.96 0 6 0 C6 1.32 6 2.64 6 4 C3.69 3.67 1.38 3.34 -1 3 C-0.67 2.01 -0.34 1.02 0 0 Z " fill="#FBCE2D" transform="translate(81,96)"/>
<path d="M0 0 C0.66 0.33 1.32 0.66 2 1 C-0.17024784 4.25537177 -1.68059295 5.07011218 -5 7 C-6.68477344 8.31037934 -8.35648543 9.63823078 -10 11 C-8.55218207 7.55571735 -6.72305391 5.63869038 -3.875 3.25 C-3.15054688 2.63640625 -2.42609375 2.0228125 -1.6796875 1.390625 C-0.84824219 0.70226562 -0.84824219 0.70226562 0 0 Z " fill="#F9E8A0" transform="translate(60,13)"/>
<path d="M0 0 C1.67542976 0.28604898 3.34385343 0.61781233 5 1 C4.01 1.495 4.01 1.495 3 2 C2.34 1.67 1.68 1.34 1 1 C0.92572162 4.34252724 0.93453047 6.8035914 2 10 C1.34 10 0.68 10 0 10 C-1.58538318 7.48203847 -2.0373656 6.32134414 -1.6875 3.3125 C-1 1 -1 1 0 0 Z " fill="#FBB66A" transform="translate(64,128)"/>
<path d="M0 0 C2.475 0.99 2.475 0.99 5 2 C3.35 3.98 1.7 5.96 0 8 C-0.99 7.67 -1.98 7.34 -3 7 C-2.01 6.34 -1.02 5.68 0 5 C-0.2784375 4.0409375 -0.2784375 4.0409375 -0.5625 3.0625 C-0.706875 2.381875 -0.85125 1.70125 -1 1 C-0.67 0.67 -0.34 0.34 0 0 Z " fill="#613C1E" transform="translate(79,116)"/>
<path d="M0 0 C0.99 0.33 1.98 0.66 3 1 C2.67 2.32 2.34 3.64 2 5 C2.66 5 3.32 5 4 5 C4.33 4.34 4.66 3.68 5 3 C6.33333333 4.33333333 7.66666667 5.66666667 9 7 C5.625 7.1875 5.625 7.1875 2 7 C0 4 0 4 0 0 Z " fill="#0E0707" transform="translate(145,111)"/>
<path d="M0 0 C1.65 0.33 3.3 0.66 5 1 C3.35830472 3.02054804 1.69088222 5.02043058 0 7 C-0.33 7 -0.66 7 -1 7 C-0.67 4.69 -0.34 2.38 0 0 Z " fill="#080307" transform="translate(61,110)"/>
<path d="M0 0 C0.33 0.66 0.66 1.32 1 2 C1.66 2 2.32 2 3 2 C3 2.99 3 3.98 3 5 C3.66 5 4.32 5 5 5 C5.66 7.31 6.32 9.62 7 12 C1.33064516 6.62903226 1.33064516 6.62903226 0 3 C0 2.01 0 1.02 0 0 Z " fill="#FBF198" transform="translate(9,155)"/>
<path d="M0 0 C0.66 0.33 1.32 0.66 2 1 C1.04882866 2.1725131 0.08882991 3.33787015 -0.875 4.5 C-1.40867188 5.1496875 -1.94234375 5.799375 -2.4921875 6.46875 C-2.98976562 6.9740625 -3.48734375 7.479375 -4 8 C-4.66 8 -5.32 8 -6 8 C-6 6.68 -6 5.36 -6 4 C-3.5625 2.3125 -3.5625 2.3125 -1 1 C-0.67 0.67 -0.34 0.34 0 0 Z " fill="#FDBF76" transform="translate(198,126)"/>
<path d="M0 0 C0.33 0 0.66 0 1 0 C1.66 4.29 2.32 8.58 3 13 C1.02 13.99 1.02 13.99 -1 15 C-1 14.01 -1 13.02 -1 12 C-0.34 12 0.32 12 1 12 C0.67 11.34 0.34 10.68 0 10 C-0.06996014 8.29297265 -0.08440154 6.58331997 -0.0625 4.875 C-0.05347656 3.96492188 -0.04445312 3.05484375 -0.03515625 2.1171875 C-0.02355469 1.41851562 -0.01195312 0.71984375 0 0 Z " fill="#E9CA3F" transform="translate(58,108)"/>
<path d="M0 0 C0.66 1.32 1.32 2.64 2 4 C1.01 4 0.02 4 -1 4 C-1.33 4.99 -1.66 5.98 -2 7 C-3.5 5.625 -3.5 5.625 -5 4 C-5 3.34 -5 2.68 -5 2 C-3.35 1.34 -1.7 0.68 0 0 Z " fill="#5B361C" transform="translate(162,115)"/>
<path d="M0 0 C1.98 0 3.96 0 6 0 C6 0.99 6 1.98 6 3 C4.35 3.33 2.7 3.66 1 4 C0.67 2.68 0.34 1.36 0 0 Z " fill="#FDA88D" transform="translate(65,87)"/>
<path d="M0 0 C0.66 0.33 1.32 0.66 2 1 C1.67 1.66 1.34 2.32 1 3 C1.66 3 2.32 3 3 3 C2.34 4.32 1.68 5.64 1 7 C0.34 7 -0.32 7 -1 7 C-1 6.34 -1 5.68 -1 5 C-1.99 4.34 -2.98 3.68 -4 3 C-2.68 2.01 -1.36 1.02 0 0 Z " fill="#FAE574" transform="translate(27,47)"/>
<path d="M0 0 C0.99 0.33 1.98 0.66 3 1 C3 1.66 3 2.32 3 3 C3.99 3 4.98 3 6 3 C9 6.33333333 9 6.33333333 9 9 C8.34 9 7.68 9 7 9 C7 8.34 7 7.68 7 7 C6.401875 6.773125 5.80375 6.54625 5.1875 6.3125 C2.43648112 4.66188867 1.47515363 2.8027919 0 0 Z " fill="#FDCB5C" transform="translate(116,15)"/>
<path d="M0 0 C1.98 0.99 1.98 0.99 4 2 C4 2.66 4 3.32 4 4 C4.66 4 5.32 4 6 4 C6.66 5.65 7.32 7.3 8 9 C4.20620942 7.50958227 2.31656242 5.30937488 0 2 C0 1.34 0 0.68 0 0 Z " fill="#FCC663" transform="translate(96,196)"/>
<path d="M0 0 C0.66 0 1.32 0 2 0 C2 1.32 2 2.64 2 4 C1.34 4 0.68 4 0 4 C-0.33 5.32 -0.66 6.64 -1 8 C-2.32 8.33 -3.64 8.66 -5 9 C-4.525625 8.608125 -4.05125 8.21625 -3.5625 7.8125 C-1.64408868 5.58714287 -1.45173233 3.86097141 -1 1 C-0.67 0.67 -0.34 0.34 0 0 Z " fill="#FDB36C" transform="translate(74,134)"/>
<path d="M0 0 C2.475 0.495 2.475 0.495 5 1 C4.01 1.495 4.01 1.495 3 2 C3 2.66 3 3.32 3 4 C3.99 4 4.98 4 6 4 C6 4.66 6 5.32 6 6 C4.35 6.33 2.7 6.66 1 7 C0 2.25 0 2.25 0 0 Z " fill="#ECC73C" transform="translate(65,93)"/>
<path d="M0 0 C2.64 0 5.28 0 8 0 C7.01 0.495 7.01 0.495 6 1 C6 1.66 6 2.32 6 3 C4.68 3.33 3.36 3.66 2 4 C1.34 2.68 0.68 1.36 0 0 Z " fill="#E6B852" transform="translate(68,127)"/>
<path d="M0 0 C-0.61875 0.28875 -1.2375 0.5775 -1.875 0.875 C-4.13325765 1.93720042 -4.13325765 1.93720042 -6 4 C-7.02104551 3.02149805 -8.0206121 2.02019573 -9 1 C-9 0.67 -9 0.34 -9 0 C-5.62182575 -0.84454356 -3.32534757 -1.10844919 0 0 Z " fill="#F1B054" transform="translate(165,126)"/>
<path d="M0 0 C1.65 0.33 3.3 0.66 5 1 C4.01 2.32 3.02 3.64 2 5 C-0.97 4.505 -0.97 4.505 -4 4 C-3.01 3.67 -2.02 3.34 -1 3 C-0.67 2.01 -0.34 1.02 0 0 Z " fill="#693F17" transform="translate(149,119)"/>
<path d="M0 0 C0.66 1.32 1.32 2.64 2 4 C0.68 5.65 -0.64 7.3 -2 9 C-2.6875 6.75 -2.6875 6.75 -3 4 C-1.5625 1.6875 -1.5625 1.6875 0 0 Z " fill="#452716" transform="translate(144,111)"/>
<path d="M0 0 C-0.33 0.99 -0.66 1.98 -1 3 C-1 2.34 -1 1.68 -1 1 C-3.97 1.66 -6.94 2.32 -10 3 C-10 2.01 -10 1.02 -10 0 C-6.30458414 -0.95024979 -3.69541586 -0.95024979 0 0 Z " fill="#140600" transform="translate(166,99)"/>
<path d="M0 0 C1.95803507 -0.05389087 3.91648909 -0.09274217 5.875 -0.125 C7.51082031 -0.15980469 7.51082031 -0.15980469 9.1796875 -0.1953125 C12 0 12 0 14 2 C10.52487282 3.15837573 8.86329714 2.77265943 5.3125 2.0625 C4.31863281 1.86785156 3.32476562 1.67320313 2.30078125 1.47265625 C1.54152344 1.31667969 0.78226563 1.16070312 0 1 C0 0.67 0 0.34 0 0 Z " fill="#E3B660" transform="translate(147,97)"/>
<path d="M0 0 C0.99 0.33 1.98 0.66 3 1 C-4.28571429 4.42857143 -4.28571429 4.42857143 -9 4 C-8.34 3.01 -7.68 2.02 -7 1 C-3.9375 0.875 -3.9375 0.875 -1 1 C-0.67 0.67 -0.34 0.34 0 0 Z " fill="#FECC32" transform="translate(72,81)"/>
<path d="M0 0 C0.66 0 1.32 0 2 0 C3.35439668 2.70879335 3.06501451 5.00933268 3 8 C2.67 7.34 2.34 6.68 2 6 C1.01 5.67 0.02 5.34 -1 5 C-0.67 3.35 -0.34 1.7 0 0 Z " fill="#110D05" transform="translate(85,106)"/>
<path d="M0 0 C2.31 0.33 4.62 0.66 7 1 C7 2.98 7 4.96 7 7 C5.83040013 6.02433888 4.66438823 5.044375 3.5 4.0625 C2.8503125 3.51722656 2.200625 2.97195312 1.53125 2.41015625 C1.0259375 1.94480469 0.520625 1.47945313 0 1 C0 0.67 0 0.34 0 0 Z " fill="#E7C347" transform="translate(80,99)"/>
<path d="M0 0 C-0.33 0.99 -0.66 1.98 -1 3 C-1.99 3 -2.98 3 -4 3 C-4.33 3.99 -4.66 4.98 -5 6 C-5.99 6 -6.98 6 -8 6 C-8 5.34 -8 4.68 -8 4 C-2.58823529 0 -2.58823529 0 0 0 Z " fill="#FCD34F" transform="translate(96,29)"/>
<path d="M0 0 C3.37503669 1.1858237 5.64722731 2.27573689 8 5 C7.67 5.66 7.34 6.32 7 7 C6.34 6.67 5.68 6.34 5 6 C5 5.34 5 4.68 5 4 C2.525 3.01 2.525 3.01 0 2 C0 1.34 0 0.68 0 0 Z " fill="#211102" transform="translate(78,99)"/>
<path d="M0 0 C1.2065625 0.0309375 1.2065625 0.0309375 2.4375 0.0625 C-0.09038007 2.86122437 -1.76661134 4.52023019 -5.5625 5.0625 C-3.15007962 0.07683121 -3.15007962 0.07683121 0 0 Z " fill="#F1F1EB" transform="translate(148.5625,99.9375)"/>
<path d="M0 0 C0.66 0.33 1.32 0.66 2 1 C1.01 2.485 1.01 2.485 0 4 C-3.125 4.1875 -3.125 4.1875 -6 4 C-3.94766315 1.7522025 -2.99332739 0.9977758 0 0 Z " fill="#F9EC82" transform="translate(35,43)"/>
<path d="M0 0 C3.625 -0.1875 3.625 -0.1875 7 0 C4.23776722 2.76223278 1.79293383 2.57856291 -2 3 C-1.34 2.01 -0.68 1.02 0 0 Z " fill="#F3D0A8" transform="translate(185,180)"/>
<path d="M0 0 C0.66 0.99 1.32 1.98 2 3 C0.02 3.99 0.02 3.99 -2 5 C-2 5.99 -2 6.98 -2 8 C-2.66 8 -3.32 8 -4 8 C-2.87548273 5.0280615 -1.77706209 2.66559313 0 0 Z " fill="#F8E290" transform="translate(49,24)"/>
</svg>
