<?xml version="1.0" encoding="UTF-8"?>
<svg version="1.1" xmlns="http://www.w3.org/2000/svg" width="225" height="225">
<path d="M0 0 C6.5012637 2.38842157 10.57653017 7.0099796 13.515625 13.18359375 C15.59681515 18.12779338 16.21633927 23.30350678 17.05859375 28.57421875 C18.10318152 32.37547798 18.8144074 33.72913516 22 36 C26.76695249 37.73446785 31.40934872 38.36224368 36.4375 38.875 C46.03482639 40.12312521 51.44761258 42.41892575 57.58984375 49.98828125 C60.90633464 54.71956327 61.66235846 59.32264176 61 65 C58.51664088 72.26526925 54.81846091 77.35033557 48 81 C42.48924954 83.22488632 37.04898051 83.63941951 31.18945312 84.12304688 C26.78943142 84.55795552 23.54820794 85.1266866 20 88 C18.87717786 89.81673462 18.87717786 89.81673462 18.375 91.9375 C18.02501953 93.12472656 18.02501953 93.12472656 17.66796875 94.3359375 C17.19862005 96.20784283 16.76696423 98.08940649 16.36328125 99.9765625 C14.36118542 109.11908102 10.96724646 115.68850236 3 121 C-1.67877546 123.67358598 -6.76213702 123.63174225 -12 123 C-18.98170237 120.94366085 -23.41911222 116.22165836 -27.13671875 110.140625 C-29.17898677 105.07653959 -29.02343932 98.68378293 -27.08984375 93.61328125 C-23.23579593 87.10725197 -18.05752673 82.82502949 -10.83203125 80.609375 C-6.52695491 79.68304133 -2.14916202 79.23679064 2.23974609 78.90942383 C7.15458913 78.44831825 10.24240713 77.20091245 14 74 C17.32400997 68.13748098 16.67101987 60.81184397 15.53515625 54.359375 C14.4180091 50.36673075 13.66338696 48.55864165 10.40234375 45.8125 C6.34286627 43.64993105 3.20266013 43.29060446 -1.3125 43 C-10.64900826 42.14058502 -17.6778004 40.43788188 -24 33 C-28.57602153 27.44340243 -28.65933505 21.97557374 -28 15 C-26.1838456 8.22123264 -21.78576791 4.61923577 -16 1 C-11.3165083 -1.34174585 -5.07990768 -0.4957366 0 0 Z " fill="#CD021A" transform="translate(120,51)"/>
<path d="M0 0 C5.1905673 3.77415826 8.30530075 8.84870601 9.3671875 15.17578125 C9.66234145 21.42867228 7.95258307 26.67158394 3.9921875 31.48828125 C-1.99879042 36.36465863 -6.54565788 39.07492337 -14.2890625 38.94921875 C-20.98363325 38.18847207 -25.33605048 34.53632676 -29.46875 29.45703125 C-33.40004475 23.74788984 -33.4018374 18.48167298 -32.6953125 11.67578125 C-30.69167984 5.13698007 -25.05187292 0.61905307 -19.3203125 -2.69921875 C-12.13335633 -4.41039879 -6.4933974 -3.59058579 0 0 Z " fill="#000000" transform="translate(80.6953125,94.32421875)"/>
<path d="M0 0 C0.86625 0.5775 1.7325 1.155 2.625 1.75 C3.49125 2.306875 4.3575 2.86375 5.25 3.4375 C9.95780817 8.02141848 11.86088356 12.68351885 12.125 19.25 C11.81755647 26.42037653 9.51829222 31.27723665 4.25 36.125 C-0.94032656 40.18891526 -5.81004613 41.3159443 -12.375 40.75 C-19.80180429 39.37521933 -24.04713588 34.70755858 -28.375 28.75 C-30.34949536 22.82651391 -30.66521425 15.85276436 -28.24609375 10.03515625 C-21.83805114 -0.02028398 -11.53140506 -4.27089076 0 0 Z " fill="#000000" transform="translate(29.375,133.25)"/>
<path d="M0 0 C4.9299259 2.81999877 8.18110201 7.48720401 10.6875 12.5 C11.3448991 20.2055796 11.60512486 26.32144569 6.6875 32.5 C1.80850426 37.57982607 -2.50507226 39.98746165 -9.5625 40.9375 C-15.97640328 40.18921128 -22.00408174 37.42026464 -26.3125 32.5 C-30.45306433 26.28915351 -31.13651712 20.84405259 -30.3125 13.5 C-28.54880701 7.55755715 -25.33334002 3.98384817 -20.3125 0.5 C-13.90427242 -2.51314012 -6.56216663 -2.85201857 0 0 Z " fill="#000000" transform="translate(214.3125,133.5)"/>
<path d="M0 0 C3.50423232 3.03700134 4.93765527 5.48503491 6 10 C6.32170051 14.58423229 6.00998858 17.85439856 4 22 C2.60766533 17.82299599 2.61795155 13.70332513 2.37890625 9.32421875 C1.99697674 5.97347639 1.17734333 3.15070421 0 0 Z " fill="#AB0D15" transform="translate(175,99)"/>
<path d="M0 0 C2 1 2 1 3.109375 3.6484375 C4.03167739 7.119207 4.26678735 10.04090055 4.25 13.625 C4.25773438 15.28402344 4.25773438 15.28402344 4.265625 16.9765625 C4.01048385 19.88066911 3.50901999 21.54484843 2 24 C1.34 24 0.68 24 0 24 C0.16242188 23.29617187 0.32484375 22.59234375 0.4921875 21.8671875 C1.76360421 14.68857313 1.29974979 7.14862385 0 0 Z " fill="#AB0D1A" transform="translate(135,101)"/>
<path d="M0 0 C-2 3 -2 3 -5.125 3.6875 C-6.07375 3.790625 -7.0225 3.89375 -8 4 C-8 4.66 -8 5.32 -8 6 C-9.98 6.66 -11.96 7.32 -14 8 C-12.61220551 4.65927822 -11.18411804 3.09800579 -8.125 1.1875 C-7.44695312 0.74792969 -6.76890625 0.30835938 -6.0703125 -0.14453125 C-3.59237953 -1.16843185 -2.47510086 -0.90457722 0 0 Z " fill="#B80814" transform="translate(110,52)"/>
<path d="M0 0 C1.32 0.33 2.64 0.66 4 1 C-4.28112562 7.8729139 -4.28112562 7.8729139 -10 8 C-12.875 7.5625 -12.875 7.5625 -15 7 C-12.24075815 5.19588033 -11.11027897 4.9872755 -7.75 5.375 C-6.8425 5.58125 -5.935 5.7875 -5 6 C-5 5.01 -5 4.02 -5 3 C-3.35 3 -1.7 3 0 3 C0 2.01 0 1.02 0 0 Z " fill="#B20A16" transform="translate(172,125)"/>
<path d="M0 0 C2.31 0.33 4.62 0.66 7 1 C3.95590654 4.04409346 1.24762089 4.15617309 -2.875 4.1875 C-6.68003233 4.15968544 -9.58143244 3.82323603 -13 2 C-13 1.67 -13 1.34 -13 1 C-11.02 1 -9.04 1 -7 1 C-7 1.66 -7 2.32 -7 3 C-5.02 3 -3.04 3 -1 3 C-0.67 2.01 -0.34 1.02 0 0 Z " fill="#AB0B17" transform="translate(116,170)"/>
<path d="M0 0 C0 0.66 0 1.32 0 2 C0.66 2 1.32 2 2 2 C3.0625 3.8125 3.0625 3.8125 4 6 C3.67 6.99 3.34 7.98 3 9 C2.21625 8.195625 1.4325 7.39125 0.625 6.5625 C-2.93130367 3.09087022 -4.77869906 2.83196636 -9.625 2.4375 C-10.62789063 2.35371094 -11.63078125 2.26992187 -12.6640625 2.18359375 C-13.43492188 2.12300781 -14.20578125 2.06242187 -15 2 C-15 1.67 -15 1.34 -15 1 C-12.8750734 0.83240016 -10.75005624 0.66594799 -8.625 0.5 C-7.44164063 0.4071875 -6.25828125 0.314375 -5.0390625 0.21875 C-3.36213157 0.09804546 -1.68126944 0 0 0 Z " fill="#B00A17" transform="translate(131,92)"/>
<path d="M0 0 C-0.33 0.66 -0.66 1.32 -1 2 C-3.46875 2.37890625 -3.46875 2.37890625 -6.5 2.5625 C-10.06330354 2.49321033 -10.06330354 2.49321033 -13 4 C-14.99958364 4.04080783 -17.00045254 4.04254356 -19 4 C-12.79513053 -0.13657964 -7.22892855 -0.25715556 0 0 Z " fill="#AB0D1A" transform="translate(122,131)"/>
<path d="M0 0 C-0.125 1.875 -0.125 1.875 -1 4 C-3.9375 5.3125 -3.9375 5.3125 -7 6 C-7.66 5.67 -8.32 5.34 -9 5 C-8.3125 3.0625 -8.3125 3.0625 -7 1 C-4.56968481 0.27090544 -2.52838375 0 0 0 Z " fill="#C10514" transform="translate(130,129)"/>
<path d="M0 0 C0.33 0 0.66 0 1 0 C1.15855469 0.81984375 1.31710938 1.6396875 1.48046875 2.484375 C2.81019153 9.25236865 2.81019153 9.25236865 6.6875 14.75 C7.450625 15.1625 8.21375 15.575 9 16 C6.69 15.67 4.38 15.34 2 15 C-0.59227518 10.13948404 -0.18689553 5.34728867 0 0 Z " fill="#B10A1B" transform="translate(135,73)"/>
<path d="M0 0 C2.31 0 4.62 0 7 0 C7 0.66 7 1.32 7 2 C9.31 2 11.62 2 14 2 C14 2.66 14 3.32 14 4 C9.02906176 3.58846263 4.55491614 3.20399168 0 1 C0 0.67 0 0.34 0 0 Z " fill="#AB0E19" transform="translate(102,89)"/>
<path d="M0 0 C0.99 0.33 1.98 0.66 3 1 C3 1.66 3 2.32 3 3 C3.99 3.33 4.98 3.66 6 4 C7.125 5.9375 7.125 5.9375 8 8 C8.33 8.66 8.66 9.32 9 10 C4.71095765 8.4114658 2.67654474 5.56872632 0 2 C0 1.34 0 0.68 0 0 Z " fill="#AB0C18" transform="translate(94,161)"/>
<path d="M0 0 C3 1 3 1 4 2 C4.66 1.34 5.32 0.68 6 0 C6 4 6 4 5 7 C3.29115995 5.37660195 1.62553283 3.70680947 0 2 C0 1.34 0 0.68 0 0 Z " fill="#BF0617" transform="translate(96,82)"/>
</svg>
