
<!-- Generator: visioncortex VTracer 0.6.4 -->
<svg version="1.1" xmlns="http://www.w3.org/2000/svg" viewBox="0 0 460 460" preserveAspectRatio="xMidYMid meet">
<path d="M0 0 C151.8 0 303.6 0 460 0 C460 151.8 460 303.6 460 460 C308.2 460 156.4 460 0 460 C0 308.2 0 156.4 0 0 Z " fill="#000000" transform="translate(0,0)"/>
<path d="M0 0 C2.706 1.823 4.537 3.075 6 6 C6.544 11.66 5.461 14.681 2 19 C-0.615 21.886 -3.361 24.631 -6.123 27.377 C-6.948 28.205 -7.774 29.034 -8.624 29.888 C-10.907 32.177 -13.194 34.462 -15.483 36.745 C-17.955 39.211 -20.42 41.684 -22.886 44.156 C-27.714 48.993 -32.548 53.824 -37.383 58.653 C-41.312 62.578 -45.239 66.504 -49.165 70.432 C-49.723 70.991 -50.282 71.551 -50.858 72.127 C-51.994 73.263 -53.129 74.399 -54.265 75.535 C-64.907 86.183 -75.556 96.825 -86.206 107.465 C-95.347 116.597 -104.483 125.734 -113.614 134.875 C-124.22 145.491 -134.828 156.104 -145.442 166.711 C-146.573 167.842 -147.704 168.972 -148.835 170.103 C-149.392 170.659 -149.949 171.216 -150.522 171.789 C-154.447 175.712 -158.369 179.636 -162.29 183.562 C-167.066 188.344 -171.846 193.123 -176.63 197.896 C-179.072 200.333 -181.512 202.77 -183.947 205.213 C-186.586 207.857 -189.231 210.495 -191.877 213.131 C-192.649 213.907 -193.42 214.683 -194.215 215.483 C-194.924 216.187 -195.634 216.891 -196.364 217.616 C-196.974 218.226 -197.584 218.835 -198.213 219.463 C-201.24 222.066 -203.455 222.941 -207.438 223.375 C-211.628 222.934 -213.094 221.989 -216 219 C-218.086 216.345 -218.002 214.849 -218.036 211.41 C-217.199 205.496 -213.156 202.203 -209.041 198.186 C-208.197 197.335 -207.353 196.483 -206.484 195.606 C-204.144 193.253 -201.79 190.916 -199.428 188.586 C-196.882 186.066 -194.356 183.526 -191.828 180.989 C-186.876 176.025 -181.905 171.079 -176.928 166.14 C-171.135 160.389 -165.361 154.619 -159.588 148.848 C-149.289 138.555 -138.974 128.279 -128.649 118.011 C-118.626 108.044 -108.613 98.066 -98.611 88.076 C-97.995 87.46 -97.379 86.845 -96.744 86.21 C-95.502 84.97 -94.26 83.73 -93.019 82.49 C-92.406 81.878 -91.794 81.266 -91.163 80.636 C-90.552 80.026 -89.941 79.416 -89.312 78.787 C-79.785 69.272 -70.251 59.765 -60.716 50.259 C-57.833 47.385 -54.952 44.512 -52.071 41.637 C-46.013 35.593 -39.953 29.552 -33.884 23.52 C-31.374 21.025 -28.865 18.529 -26.361 16.028 C-23.65 13.322 -20.932 10.623 -18.213 7.925 C-17.417 7.128 -16.621 6.331 -15.8 5.51 C-15.074 4.791 -14.348 4.073 -13.599 3.333 C-12.658 2.397 -12.658 2.397 -11.699 1.442 C-7.931 -1.757 -4.555 -1.021 0 0 Z " fill="#FCFCFC" transform="translate(320,103)"/>
<path d="M0 0 C3.395 0.806 5.032 2.828 7.121 5.504 C7.616 5.999 7.616 5.999 8.121 6.504 C8.547 15.154 8.547 15.154 6.121 18.504 C4.499 20.214 2.827 21.877 1.121 23.504 C0.399 24.246 -0.323 24.989 -1.066 25.754 C-3.567 28.199 -6.132 30.504 -8.754 32.816 C-11.846 35.575 -14.71 38.335 -17.379 41.504 C-20.786 45.548 -24.624 48.972 -28.582 52.469 C-31.897 55.406 -35.002 58.354 -37.691 61.879 C-40.206 64.897 -43.022 67.273 -46.004 69.816 C-48.013 71.533 -48.013 71.533 -49.879 74.004 C-52.236 76.95 -54.903 79.234 -57.781 81.66 C-62.079 85.438 -65.899 89.603 -69.691 93.879 C-73.226 97.795 -76.839 101.301 -80.871 104.688 C-84.121 107.627 -86.949 110.93 -89.848 114.211 C-101.368 127.216 -101.368 127.216 -108.691 127.816 C-112.011 127.786 -112.869 127.51 -115.816 125.629 C-119.189 122.154 -119.279 119.505 -119.227 114.816 C-118.656 111.024 -116.557 109.123 -113.879 106.504 C-112.211 104.839 -110.544 103.172 -108.879 101.504 C-107.754 100.379 -106.629 99.254 -105.504 98.129 C-104.911 97.536 -104.318 96.943 -103.707 96.332 C-76.223 68.848 -48.738 41.363 -21.254 13.879 C-20.679 13.304 -20.105 12.73 -19.513 12.137 C-18.047 10.672 -16.58 9.207 -15.113 7.742 C-13.442 6.068 -11.783 4.383 -10.129 2.691 C-6.425 0.199 -4.369 -0.228 0 0 Z " fill="#FBFBFB" transform="translate(338.87890625,219.49609375)"/>
</svg>