<?xml version="1.0" encoding="UTF-8"?>
<svg version="1.1" xmlns="http://www.w3.org/2000/svg" width="300" height="268">
<path d="M0 0 C7.95734236 5.69516691 15.22258639 12.1634732 22.33837891 18.86572266 C26.27736937 17.53210285 28.59172537 15.90884256 31.52587891 12.99072266 C46.65793945 -0.98949448 65.72088107 -12.78184606 86.75244141 -12.36865234 C96.20169363 -11.75105416 102.12327941 -7.21200771 108.33837891 -0.13427734 C115.18604794 10.4753827 116.72810412 20.77775083 116.71337891 33.17822266 C116.71466797 34.31018066 116.71595703 35.44213867 116.71728516 36.60839844 C116.60472129 45.70432644 115.32538464 54.18717982 113.21337891 63.01416016 C112.1906885 66.85754024 112.1906885 66.85754024 112.33837891 70.86572266 C112.89074219 71.06617187 113.44310547 71.26662109 114.01220703 71.47314453 C160.50877969 88.46153603 160.50877969 88.46153603 171.39306641 108.75244141 C174.69887764 116.14270537 174.55343028 125.50609747 171.83837891 133.05322266 C163.947368 150.0768371 147.27098703 159.88257393 130.33056641 166.14697266 C114.2999471 171.86572266 114.2999471 171.86572266 111.33837891 171.86572266 C111.62841797 172.92146484 111.62841797 172.92146484 111.92431641 173.99853516 C115.15336373 186.24333839 116.52888467 197.86012883 116.65087891 210.49072266 C116.66852295 211.52737061 116.68616699 212.56401855 116.7043457 213.63208008 C116.69364226 225.92839106 114.02763107 238.6799418 105.33837891 247.86572266 C98.6876467 253.98658884 90.33241697 256.15660652 81.40209961 256.00170898 C58.99885398 254.52547477 40.44556059 239.21423312 25.33837891 223.86572266 C22.55949782 225.15755552 20.3081003 226.57144296 17.97509766 228.55322266 C17.02739502 229.34684204 17.02739502 229.34684204 16.06054688 230.15649414 C15.38910645 230.72053955 14.71766602 231.28458496 14.02587891 231.86572266 C-3.01004974 245.88580519 -19.72501321 257.29340322 -42.61474609 256.08789062 C-49.57915993 255.33197262 -55.41977488 251.04969408 -60.06396484 246.01025391 C-67.95296373 235.42086421 -70.06648805 224.25475599 -70.09912109 211.36572266 C-70.10492188 209.76192749 -70.10492188 209.76192749 -70.11083984 208.12573242 C-69.94221256 196.07502969 -67.48459704 184.5405301 -64.66162109 172.86572266 C-65.27400635 172.62192871 -65.8863916 172.37813477 -66.51733398 172.12695312 C-116.5868325 152.15275005 -116.5868325 152.15275005 -125.66162109 131.86572266 C-128.227421 123.97221085 -127.51098666 114.71956959 -124.03662109 107.26416016 C-112.0518999 86.35899308 -89.2440047 78.18268178 -67.44897461 71.49487305 C-65.66260103 71.0107725 -65.66260103 71.0107725 -64.66162109 69.86572266 C-64.85985736 68.39011215 -65.13490792 66.92477387 -65.43896484 65.46728516 C-69.08139427 46.86828908 -73.32006864 23.66521975 -64.66162109 5.86572266 C-64.29939453 5.10904297 -63.93716797 4.35236328 -63.56396484 3.57275391 C-59.87854696 -3.08598416 -53.62313326 -9.36794708 -46.24365234 -11.69677734 C-29.10647372 -14.60050504 -14.22577622 -9.71098389 0 0 Z " fill="#052A38" transform="translate(126.66162109375,12.13427734375)"/>
<path d="M0 0 C1.31244186 -0.02409439 1.31244186 -0.02409439 2.65139771 -0.04867554 C6.66977134 -0.09324216 10.68797953 -0.13422427 14.70654297 -0.15722656 C16.82091307 -0.17374508 18.93522828 -0.20098045 21.04931641 -0.23925781 C24.10462291 -0.29427821 27.15861891 -0.31594296 30.21435547 -0.33056641 C31.61948898 -0.36457047 31.61948898 -0.36457047 33.05300903 -0.39926147 C39.48102676 -0.37876632 43.82908697 0.98752458 48.76904297 5.19287109 C51.06201172 8.15380859 51.06201172 8.15380859 52.95654297 11.56787109 C53.30966553 12.19636963 53.66278809 12.82486816 54.02661133 13.47241211 C54.82427312 14.8934524 55.61461547 16.31861759 56.39892578 17.74707031 C57.95927827 20.53246076 59.59125365 23.26929399 61.22998047 26.00927734 C62.43136067 28.04913605 63.63188351 30.08949993 64.83154297 32.13037109 C65.41637451 33.10087402 66.00120605 34.07137695 66.60375977 35.07128906 C69.90046928 40.78021307 71.72934365 44.58291821 70.76904297 51.19287109 C69.72998047 54.19287109 69.72998047 54.19287109 68.14404297 57.19287109 C67.84699463 57.75611084 67.54994629 58.31935059 67.24389648 58.8996582 C66.1108413 61.01212004 64.94179016 63.10217129 63.76904297 65.19287109 C62.97264404 66.62977295 62.97264404 66.62977295 62.16015625 68.09570312 C60.36060932 71.3263112 58.53788656 74.54269046 56.70654297 77.75537109 C56.11728027 78.80273438 55.52801758 79.85009766 54.92089844 80.92919922 C51.36408952 87.06402454 48.26826121 91.94326198 41.76904297 95.19287109 C40.32048156 95.30239553 38.86713536 95.3518782 37.41455078 95.36987305 C36.5131134 95.38270828 35.61167603 95.39554352 34.68292236 95.4087677 C33.70587341 95.41615463 32.72882446 95.42354156 31.72216797 95.43115234 C30.71820984 95.43922409 29.71425171 95.44729584 28.67987061 95.45561218 C26.5514092 95.46945951 24.42292553 95.48017875 22.29443359 95.48803711 C19.04595549 95.50522867 15.79850059 95.54910701 12.55029297 95.59326172 C10.48259212 95.60339044 8.41488262 95.61190598 6.34716797 95.61865234 C5.37821594 95.63616043 4.40926392 95.65366852 3.41094971 95.67170715 C-2.32286417 95.65335506 -5.76044672 95.14019173 -10.23095703 91.19287109 C-13.20195735 87.91069952 -15.36837262 84.4167141 -17.50830078 80.55224609 C-18.10449219 79.48103516 -18.70068359 78.40982422 -19.31494141 77.30615234 C-19.92660156 76.19626953 -20.53826172 75.08638672 -21.16845703 73.94287109 C-21.77625 72.84845703 -22.38404297 71.75404297 -23.01025391 70.62646484 C-24.20338161 68.47703306 -25.39023066 66.32410226 -26.5703125 64.16748047 C-27.6049805 62.31414396 -28.67187341 60.47799129 -29.78613281 58.67138672 C-32.93510366 53.50259343 -34.03125134 50.26533322 -33.23095703 44.19287109 C-32.27872975 41.6094871 -31.33993232 39.45672933 -30.04345703 37.06787109 C-29.52356201 36.07436646 -29.52356201 36.07436646 -28.99316406 35.06079102 C-27.76678464 32.75522919 -26.50417445 30.47290271 -25.23095703 28.19287109 C-24.71678223 27.26845215 -24.20260742 26.3440332 -23.67285156 25.39160156 C-22.00406378 22.41749023 -20.31066453 19.45902631 -18.60595703 16.50537109 C-18.06817627 15.56097168 -17.53039551 14.61657227 -16.97631836 13.64355469 C-12.92869205 6.76859241 -8.66382252 0.1445423 0 0 Z " fill="#FCD84D" transform="translate(130.23095703125,85.80712890625)"/>
<path d="M0 0 C1.49462891 1.58203125 1.49462891 1.58203125 2.7265625 3.8125 C3.42942383 5.04274902 3.42942383 5.04274902 4.14648438 6.29785156 C4.63439453 7.18956055 5.12230469 8.08126953 5.625 9 C6.68606056 10.8512818 7.7512278 12.70021539 8.8203125 14.546875 C9.35301758 15.47177734 9.88572266 16.39667969 10.43457031 17.34960938 C20.32073741 34.08763651 32.77275303 49.69792555 45.17578125 64.6171875 C47 67 47 67 47.6875 69.4375 C45.40534034 77.94373148 29.07716062 86.53681892 21.79296875 90.9375 C19.21860763 92.34617914 16.62716962 93.69310578 14 95 C12.88625 95.598125 11.7725 96.19625 10.625 96.8125 C4.76747488 99.46233279 -1.66972372 99.67026455 -8 99 C-16.17612976 94.98626357 -19.15425502 88.21658762 -22 80 C-29.37487906 57.82716098 -17.33398313 23.36042391 -8.375 3.375 C-6.24003261 -0.31267095 -4.08648937 -0.48288461 0 0 Z " fill="#FB4253" transform="translate(92,156)"/>
<path d="M0 0 C6.83144407 4.98737328 10.27189808 12.81796181 11.625 21 C12.26803443 31.18807668 11.61545475 40.9782918 9.625 51 C9.40328125 52.26070312 9.1815625 53.52140625 8.953125 54.8203125 C7.19290034 64.16059381 4.44195766 73.16057928 1.34960938 82.13595581 C0.90933071 83.41703767 0.47552956 84.70036463 0.04833984 85.98587036 C-0.55927811 87.80139962 -1.19897507 89.60609599 -1.83984375 91.41015625 C-2.207146 92.46340088 -2.57444824 93.51664551 -2.95288086 94.60180664 C-4.375 97 -4.375 97 -6.90307617 97.94580078 C-9.375 98 -9.375 98 -11.4609375 96.45703125 C-13.64201339 93.657242 -15.30801436 90.80867351 -17 87.6875 C-27.89364788 68.10057682 -41.73551414 49.11266918 -56.6875 32.41796875 C-58.375 30 -58.375 30 -59.07421875 27.58203125 C-57.91453229 23.29961366 -54.61069505 21.31414389 -51.1875 18.6875 C-50.46369141 18.11717041 -49.73988281 17.54684082 -48.99414062 16.95922852 C-15.71806844 -8.8414135 -15.71806844 -8.8414135 0 0 Z " fill="#FA4253" transform="translate(219.375,15)"/>
<path d="M0 0 C0.99 0.99 0.99 0.99 2 2 C1.78810523 7.8892132 -0.24218544 11.73370471 -3.1875 16.625 C-7.81318015 24.65043101 -12.02648783 32.85294092 -16.0625 41.1875 C-16.36123016 41.80382294 -16.65996033 42.42014587 -16.96774292 43.05514526 C-21.55493747 52.56616786 -25.66704349 62.21427216 -29.33618164 72.11987305 C-29.66352295 73.00199463 -29.99086426 73.88411621 -30.328125 74.79296875 C-30.6055957 75.5614917 -30.88306641 76.33001465 -31.16894531 77.12182617 C-32 79 -32 79 -34 81 C-40.64636269 80.76209887 -46.08377227 78.65196281 -52.125 76 C-53.0442627 75.59918213 -53.96352539 75.19836426 -54.91064453 74.78540039 C-66.94632179 69.39680945 -78.41713132 63.22386999 -85.4375 51.625 C-86.79958217 45.26861653 -87.09107673 40.01533247 -83.5 34.375 C-82.36699031 32.89036662 -81.19968487 31.43129432 -80 30 C-79.47792969 29.33226563 -78.95585938 28.66453125 -78.41796875 27.9765625 C-63.09663764 10.47635134 -22.65789558 -1.64854401 0 0 Z " fill="#FB4253" transform="translate(99,89)"/>
<path d="M0 0 C5.25684825 16.06211194 7.22155639 37.99411561 1 54 C-1.82925145 59.28126937 -5.22749804 63.07583268 -11 65 C-27.4295735 66.42152716 -40.57304403 58.74580774 -52.9140625 48.58203125 C-80.93046979 24.56695971 -80.93046979 24.56695971 -88 11 C-87.67173252 6.67173252 -87.67173252 6.67173252 -86 5 C-83.82166911 4.86465147 -81.63915492 4.7961079 -79.45703125 4.75390625 C-78.07006169 4.72246081 -76.68309903 4.69070988 -75.29614258 4.65869141 C-74.5645694 4.64332336 -73.83299622 4.62795532 -73.07925415 4.61212158 C-53.98580125 4.19414624 -35.21700715 2.78432033 -16.31567383 -0.03466797 C-3.7472162 -1.8736081 -3.7472162 -1.8736081 0 0 Z " fill="#FA4253" transform="translate(227,190)"/>
<path d="M0 0 C6.13314383 0.12957346 11.26119381 2.74043863 16.6875 5.375 C17.42564941 5.72916992 18.16379883 6.08333984 18.92431641 6.44824219 C44.837279 19.0289829 44.837279 19.0289829 49.6875 31.375 C50.88501954 37.57187298 49.37047345 42.52514911 46.34375 47.96484375 C31.94020529 68.92471896 -0.29838677 74.77258357 -23.3125 79.375 C-28.1235668 80.22190014 -32.4359836 80.54030564 -37.3125 80.375 C-37.6425 80.045 -37.9725 79.715 -38.3125 79.375 C-38.00157588 73.31197957 -35.88453165 69.27188022 -32.8125 64.125 C-21.81296922 44.99753239 -13.46849546 24.60204018 -5.44140625 4.0859375 C-3.92494579 0.44433349 -3.92494579 0.44433349 0 0 Z " fill="#FA4253" transform="translate(237.3125,96.625)"/>
<path d="M0 0 C1.387319 0.55339747 2.76353287 1.13574432 4.125 1.75 C4.764375 2.01683594 5.40375 2.28367187 6.0625 2.55859375 C17.69961185 7.83752554 27.04207178 16.98484186 36.125 25.75 C36.68541992 26.28850586 37.24583984 26.82701172 37.82324219 27.38183594 C45.14987911 34.45597532 51.82434832 41.7365498 58.125 49.75 C58.455 50.08 58.785 50.41 59.125 50.75 C59.25 53.75 59.25 53.75 59.125 56.75 C57.40795567 58.46704433 55.1194542 57.92023786 52.7734375 57.9609375 C51.6272998 57.98720215 50.48116211 58.0134668 49.30029297 58.04052734 C48.04619629 58.06840332 46.79209961 58.0962793 45.5 58.125 C25.19096066 58.70525827 4.85042457 60.26733632 -15.17041016 63.83544922 C-19.1167293 64.53495142 -22.87097797 65.16051637 -26.875 64.75 C-34.59232313 53.1740153 -33.87262578 28.7584989 -31.46777344 15.50585938 C-29.7096565 8.60211697 -26.94194021 3.52498502 -20.875 -0.25 C-15.18282516 -3.09608742 -5.92280436 -1.90857443 0 0 Z " fill="#FB4253" transform="translate(102.875,14.25)"/>
<path d="M0 0 C1.09570312 0.00902344 2.19140625 0.01804688 3.3203125 0.02734375 C4.58488281 0.04474609 4.58488281 0.04474609 5.875 0.0625 C7.80583902 4.68846848 8.89938575 9.16191458 9.875 14.0625 C10.06320313 14.91457031 10.25140625 15.76664063 10.4453125 16.64453125 C11.71060881 23.01556549 12.11055085 29.27239537 12.1875 35.75 C12.20506348 36.53358887 12.22262695 37.31717773 12.24072266 38.12451172 C12.23464971 43.9071697 10.98554686 48.69390124 8.875 54.0625 C7.89055337 50.57629869 8.14728133 48.61750403 8.875 45.0625 C9.66807774 33.39908498 8.75889244 22.13393116 6.53125 10.6875 C5.875 7.0625 5.875 7.0625 5.875 3.0625 C-2.17029262 2.79052173 -9.85871542 3.85354427 -17.8125 5 C-34.10394722 7.33442003 -50.21742433 8.23651321 -66.64404297 8.61474609 C-68.83052397 8.66627613 -71.01680196 8.72345727 -73.203125 8.78125 C-75.12753418 8.82668945 -75.12753418 8.82668945 -77.09082031 8.87304688 C-80.04376398 8.85912983 -80.04376398 8.85912983 -82.125 10.0625 C-81.795 8.7425 -81.465 7.4225 -81.125 6.0625 C-80.57598526 6.05219254 -80.02697052 6.04188507 -79.46131897 6.03126526 C-73.76778719 5.92342053 -68.07442079 5.80880551 -62.38110352 5.69018555 C-60.25385993 5.64676577 -58.1265799 5.60509607 -55.99926758 5.56518555 C-52.94861849 5.50765293 -49.89815411 5.44391033 -46.84765625 5.37890625 C-45.89037125 5.36219376 -44.93308624 5.34548126 -43.9467926 5.32826233 C-43.06595505 5.30831711 -42.18511749 5.28837189 -41.27758789 5.26782227 C-40.49815323 5.25227798 -39.71871857 5.2367337 -38.91566467 5.22071838 C-37.10206647 5.25360881 -37.10206647 5.25360881 -36.125 4.0625 C-33.59450598 3.98936433 -31.09195163 3.97002473 -28.5625 4 C-27.49612305 4.00676758 -27.49612305 4.00676758 -26.40820312 4.01367188 C-24.64709987 4.02549136 -22.88603964 4.04342737 -21.125 4.0625 C-21.125 3.4025 -21.125 2.7425 -21.125 2.0625 C-19.75214844 1.97162109 -19.75214844 1.97162109 -18.3515625 1.87890625 C-16.56878906 1.75322266 -16.56878906 1.75322266 -14.75 1.625 C-13.56664062 1.54378906 -12.38328125 1.46257812 -11.1640625 1.37890625 C-7.16573902 0.96262836 -4.17351527 -0.0443991 0 0 Z " fill="#2F2130" transform="translate(221.125,186.9375)"/>
<path d="M0 0 C0.6875 1.6875 0.6875 1.6875 1 4 C0.0126546 5.67419438 -0.98812105 7.34051852 -2 9 C-2.25196129 11.70953551 -2.25196129 11.70953551 -2 14 C-1.38125 14.12375 -0.7625 14.2475 -0.125 14.375 C2 15 2 15 4 17 C4.66 16.34 5.32 15.68 6 15 C6.99 15 7.98 15 9 15 C7.26778881 20.80028292 4.47352504 25.65913723 1.4609375 30.87890625 C0.02147163 33.95412879 -0.33491052 35.66950097 0 39 C6.07593562 39.11251733 11.96445452 38.69260358 18 38 C14.40180858 41.59819142 9.68871163 41.15721297 4.8125 41.1875 C3.76707031 41.20167969 2.72164062 41.21585938 1.64453125 41.23046875 C-1 41 -1 41 -3 39 C-3.125 35.875 -3.125 35.875 -3 33 C-2.34 33 -1.68 33 -1 33 C-0.855625 32.401875 -0.71125 31.80375 -0.5625 31.1875 C-0.1127561 29.43849596 0.42892341 27.71322977 1 26 C1.66 26 2.32 26 3 26 C3.33 24.35 3.66 22.7 4 21 C0.04 21.495 0.04 21.495 -4 22 C-4 21.01 -4 20.02 -4 19 C-6.62187494 20.04874998 -7.79371361 20.64931313 -9.25 23.125 C-9.4975 23.74375 -9.745 24.3625 -10 25 C-10.66 25 -11.32 25 -12 25 C-12.33 26.65 -12.66 28.3 -13 30 C-13.66 30 -14.32 30 -15 30 C-13.36754912 23.87060895 -10.12336582 18.73406113 -6.9375 13.3125 C-5.84005537 11.4349902 -4.74489601 9.5561422 -3.65234375 7.67578125 C-3.16757568 6.84989502 -2.68280762 6.02400879 -2.18334961 5.1730957 C-0.87835949 2.92836883 -0.87835949 2.92836883 0 0 Z " fill="#1A2534" transform="translate(200,137)"/>
<path d="M0 0 C2.57070245 3.24515467 4.58940023 6.66332277 6.6171875 10.26953125 C7.31375161 11.5006796 8.01036785 12.73179846 8.70703125 13.96289062 C9.78985426 15.88413081 10.87139348 17.80608105 11.95166016 19.72875977 C17.52887333 29.64800377 17.52887333 29.64800377 24 39 C22.68 39 21.36 39 20 39 C19.59007813 38.22914063 19.18015625 37.45828125 18.7578125 36.6640625 C18.21898438 35.66117188 17.68015625 34.65828125 17.125 33.625 C16.32449219 32.12839844 16.32449219 32.12839844 15.5078125 30.6015625 C13.93677647 27.89091483 12.80833983 26.40416991 10 25 C10 23.35 10 21.7 10 20 C9.34 20 8.68 20 8 20 C6.29633374 26.08251096 5.86746348 30.77104914 7 37 C3.3304964 33.7106702 1.11629795 30.12557223 -1.25 25.875 C-1.61351563 25.24207031 -1.97703125 24.60914063 -2.3515625 23.95703125 C-5 19.2675047 -5 19.2675047 -5 17 C-4.34 17 -3.68 17 -3 17 C-2.34 18.65 -1.68 20.3 -1 22 C1.62113708 22 3.50935112 21.68707555 6 21 C6.92513918 13.90726631 3.8187024 9.78623327 0 4 C-0.33 3.34 -0.66 2.68 -1 2 C-0.67 1.34 -0.34 0.68 0 0 Z " fill="#10302C" transform="translate(98,140)"/>
<path d="M0 0 C0.66 0 1.32 0 2 0 C3.33665485 6.4402461 3.33665485 6.4402461 1.97583008 8.70288086 C-0.96651539 10.63451084 -3.89374713 10.44083233 -7.30078125 10.44140625 C-8.37177315 10.46121803 -8.37177315 10.46121803 -9.46440125 10.48143005 C-11.7471399 10.52230753 -14.02947848 10.54397406 -16.3125 10.5625 C-18.58468451 10.58637204 -20.85649673 10.61467345 -23.12846375 10.65428162 C-24.54077739 10.67841788 -25.95328605 10.69345538 -27.36579895 10.69789124 C-34.20175122 10.80229882 -34.20175122 10.80229882 -40 14 C-41.8125 14.1328125 -41.8125 14.1328125 -44 14.125 C-44.721875 14.12757812 -45.44375 14.13015625 -46.1875 14.1328125 C-48 14 -48 14 -49 13 C-51.53049402 12.92686433 -54.03304837 12.90752473 -56.5625 12.9375 C-57.27341797 12.94201172 -57.98433594 12.94652344 -58.71679688 12.95117188 C-60.47790013 12.96299136 -62.23896036 12.98092737 -64 13 C-60.63601436 11.02390628 -57.70983727 10.56813252 -53.84765625 10.18359375 C-52.60894775 10.05960205 -51.37023926 9.93561035 -50.09399414 9.80786133 C-48.75023427 9.68363162 -47.40640081 9.56019568 -46.0625 9.4375 C-45.38524872 9.37307709 -44.70799744 9.30865417 -44.01022339 9.24227905 C-29.35781491 7.85638866 -14.71326441 7.2995951 0 7 C0 4.69 0 2.38 0 0 Z " fill="#432938" transform="translate(161,64)"/>
<path d="M0 0 C0.97135895 -0.00619858 1.9427179 -0.01239716 2.94351196 -0.01878357 C4.99260459 -0.02586798 7.04175494 -0.02273188 9.09082031 -0.01000977 C12.21007425 0.00383308 15.32631262 -0.03020873 18.4453125 -0.06835938 C20.44270906 -0.06931091 22.44010935 -0.06744992 24.4375 -0.0625 C25.36170746 -0.07575821 26.28591492 -0.08901642 27.23812866 -0.10267639 C33.53645101 -0.0130727 38.05426145 1.34610724 42.8515625 5.56640625 C44.3515625 8.37890625 44.3515625 8.37890625 44.8515625 10.56640625 C42.5415625 9.24640625 40.2315625 7.92640625 37.8515625 6.56640625 C37.8515625 5.57640625 37.8515625 4.58640625 37.8515625 3.56640625 C31.21300508 3.51576136 24.57449736 3.48069602 17.93579102 3.45654297 C15.67665749 3.44647567 13.41753703 3.43282087 11.15844727 3.41552734 C7.91419251 3.39131117 4.67010979 3.3799305 1.42578125 3.37109375 C0.41319748 3.36077118 -0.59938629 3.35044861 -1.64265442 3.33981323 C-3.05377754 3.33958664 -3.05377754 3.33958664 -4.4934082 3.33935547 C-5.32169632 3.33491425 -6.14998444 3.33047302 -7.00337219 3.32589722 C-9.44628976 3.43380965 -9.44628976 3.43380965 -12.1484375 5.56640625 C-14.3359375 5.19140625 -14.3359375 5.19140625 -16.1484375 4.56640625 C-10.88852715 0.19834654 -6.70362745 -0.03581891 0 0 Z " fill="#DCCB5F" transform="translate(136.1484375,85.43359375)"/>
<path d="M0 0 C5.37472912 16.42229273 7.70445255 39.98410742 0.05078125 55.984375 C-1.77540106 59.015982 -3.66181948 60.80779267 -7 62 C-7 61.01 -7 60.02 -7 59 C-6.01 59 -5.02 59 -4 59 C-4 58.01 -4 57.02 -4 56 C-3.54625 55.5875 -3.0925 55.175 -2.625 54.75 C2.72030264 48.99352023 1.25982621 39.35762073 1.1875 32.125 C1.18685547 30.8771875 1.18621094 29.629375 1.18554688 28.34375 C1.69850427 22.80243801 1.69850427 22.80243801 0 18 C-0.39993686 15.31137336 -0.75134543 12.63647783 -1.0625 9.9375 C-1.19881836 8.79958008 -1.19881836 8.79958008 -1.33789062 7.63867188 C-1.5624374 5.7595699 -1.78170978 3.87983905 -2 2 C-5.1647977 1.29609578 -8.07136949 0.88256558 -11.3125 0.9375 C-12.529375 0.958125 -13.74625 0.97875 -15 1 C-15 0.67 -15 0.34 -15 0 C-4.21052632 -2.10526316 -4.21052632 -2.10526316 0 0 Z " fill="#BF4A5D" transform="translate(227,190)"/>
<path d="M0 0 C1.65661454 4.03042196 0.13747876 7.19459368 -1.25 11.0625 C-3.69750582 18.28026595 -5.05932738 25.42625416 -6.09863281 32.96704102 C-6.92048204 38.92048204 -6.92048204 38.92048204 -8 40 C-8.15764405 41.77869726 -8.25100677 43.56318476 -8.31640625 45.34765625 C-8.35830078 46.42724609 -8.40019531 47.50683594 -8.44335938 48.61914062 C-8.48267578 49.75544922 -8.52199219 50.89175781 -8.5625 52.0625 C-8.60568359 53.20267578 -8.64886719 54.34285156 -8.69335938 55.51757812 C-8.79982839 58.34492195 -8.90184207 61.17235738 -9 64 C-8.34 64 -7.68 64 -7 64 C-7 66.64 -7 69.28 -7 72 C-11.08849807 67.91150193 -11.25392229 61.32065716 -11.32958984 55.76293945 C-11.3239502 55.03679443 -11.31831055 54.31064941 -11.3125 53.5625 C-11.30686035 52.78028076 -11.3012207 51.99806152 -11.29541016 51.19213867 C-11.00046567 36.67999406 -7.11221645 22.77760873 -3.40234375 8.82421875 C-3.06964478 7.57257935 -3.06964478 7.57257935 -2.73022461 6.2956543 C-2.01586366 4.04987162 -1.11350712 2.07296468 0 0 Z " fill="#CE4B5D" transform="translate(80,170)"/>
<path d="M0 0 C0.33 0 0.66 0 1 0 C1.625 3.375 1.625 3.375 2 7 C1.34 7.66 0.68 8.32 0 9 C-0.31209242 11.68327442 -0.31209242 11.68327442 -0.265625 14.828125 C-0.26957275 16.01486816 -0.27352051 17.20161133 -0.27758789 18.42431641 C-0.26848389 19.68679199 -0.25937988 20.94926758 -0.25 22.25 C-0.24311157 24.15724854 -0.24311157 24.15724854 -0.23608398 26.10302734 C-0.52495527 39.89885265 -0.52495527 39.89885265 3 53 C5.58605332 53.4683265 5.58605332 53.4683265 8.5625 53.625 C9.57441406 53.69976562 10.58632812 53.77453125 11.62890625 53.8515625 C12.41136719 53.90054688 13.19382812 53.94953125 14 54 C14 54.33 14 54.66 14 55 C8.06 55.495 8.06 55.495 2 56 C-4.14009481 46.78985778 -3.30004873 31.03469564 -3.375 20.3125 C-3.39554443 18.82713745 -3.39554443 18.82713745 -3.41650391 17.31176758 C-3.3771359 11.02299517 -2.38379522 5.82373661 0 0 Z " fill="#D34B5F" transform="translate(74,23)"/>
<path d="M0 0 C0.33 0 0.66 0 1 0 C0.56694888 7.66167372 -1.50108795 14.376693 -4.07324219 21.58691406 C-4.75605645 23.51712061 -5.40549056 25.4567041 -6.0546875 27.3984375 C-6.48523438 28.61789063 -6.91578125 29.83734375 -7.359375 31.09375 C-7.74577148 32.20427734 -8.13216797 33.31480469 -8.53027344 34.45898438 C-10 37 -10 37 -12.53686523 37.96264648 C-15 38 -15 38 -17.05078125 36.50390625 C-19.40877985 33.47489402 -21.33340512 30.28739375 -23.1875 26.9375 C-23.72020508 26.00067383 -23.72020508 26.00067383 -24.26367188 25.04492188 C-25.75740832 22.38907549 -27.03409615 19.89771156 -28 17 C-27.01 17 -26.02 17 -25 17 C-24.54625 18.134375 -24.0925 19.26875 -23.625 20.4375 C-22.42904194 24.04721692 -22.42904194 24.04721692 -20 25 C-19.18359375 26.7421875 -19.18359375 26.7421875 -18.4375 28.875 C-18.18871094 29.57367188 -17.93992188 30.27234375 -17.68359375 30.9921875 C-17.11599908 32.65929413 -16.55690288 34.32929135 -16 36 C-14.68 36 -13.36 36 -12 36 C-12 35.01 -12 34.02 -12 33 C-11.34 33 -10.68 33 -10 33 C-10 31.35 -10 29.7 -10 28 C-9.34 28 -8.68 28 -8 28 C-8 26.35 -8 24.7 -8 23 C-7.34 23 -6.68 23 -6 23 C-5.90912109 21.84371094 -5.90912109 21.84371094 -5.81640625 20.6640625 C-5.73261719 19.66117188 -5.64882812 18.65828125 -5.5625 17.625 C-5.48128906 16.62726563 -5.40007812 15.62953125 -5.31640625 14.6015625 C-5 12 -5 12 -4 10 C-3.34 10 -2.68 10 -2 10 C-2 8.02 -2 6.04 -2 4 C-1.34 4 -0.68 4 0 4 C0 2.68 0 1.36 0 0 Z " fill="#D04B5E" transform="translate(225,75)"/>
<path d="M0 0 C0.99 0 1.98 0 3 0 C2.79503906 0.60328125 2.59007813 1.2065625 2.37890625 1.828125 C2.10949219 2.62734375 1.84007813 3.4265625 1.5625 4.25 C1.29566406 5.03890625 1.02882813 5.8278125 0.75390625 6.640625 C-0.51844316 10.62248534 -1.12759455 14.01755783 -1.1328125 18.21875 C-1.13474609 19.22873047 -1.13667969 20.23871094 -1.13867188 21.27929688 C-1.13416016 22.34212891 -1.12964844 23.40496094 -1.125 24.5 C-1.12306641 25.57830078 -1.12113281 26.65660156 -1.11914062 27.76757812 C-1.08039988 34.89157145 -0.86915897 41.92256268 0 49 C-4.78043644 44.21956356 -4.25646357 35.84636607 -4.2734375 29.47265625 C-4.26570313 28.49167969 -4.25796875 27.51070312 -4.25 26.5 C-4.25773437 25.51902344 -4.26546875 24.53804687 -4.2734375 23.52734375 C-4.25707537 17.38336446 -3.54821459 11.94711001 -2 6 C-1.34 6 -0.68 6 0 6 C0 4.02 0 2.04 0 0 Z " fill="#371F30" transform="translate(73,19)"/>
<path d="M0 0 C0.33 0.66 0.66 1.32 1 2 C0.33333333 3.33333333 -0.33333333 4.66666667 -1 6 C-1.38290462 7.99110401 -1.72604615 9.99100513 -2 12 C-2.99 12 -3.98 12 -5 12 C-4.8453125 13.0828125 -4.8453125 13.0828125 -4.6875 14.1875 C-5 17 -5 17 -7.5 19.1875 C-10.74996136 22.84370653 -10.49153182 25.06754581 -10.37109375 29.79296875 C-10.18558676 32.20112665 -10.18558676 32.20112665 -8 34 C-7.375 36.625 -7.375 36.625 -7 39 C-7.99 39.495 -7.99 39.495 -9 40 C-9.68771754 38.84561699 -10.34897292 37.67546556 -11 36.5 C-11.37125 35.8503125 -11.7425 35.200625 -12.125 34.53125 C-13.90277064 29.38841349 -13.62981537 24.88078976 -11.42578125 20 C-10.73876399 18.65761311 -10.03378723 17.3242885 -9.3125 16 C-8.94962891 15.30519531 -8.58675781 14.61039063 -8.21289062 13.89453125 C-5.69103782 9.11958438 -2.99638834 4.49458251 0 0 Z " fill="#E0D36B" transform="translate(110,106)"/>
<path d="M0 0 C0.33 0 0.66 0 1 0 C2.34382872 6.23047859 2.34382872 6.23047859 0.6875 9.9375 C0.130625 10.618125 -0.42625 11.29875 -1 12 C-1.66 12 -2.32 12 -3 12 C-3.12375 12.9590625 -3.12375 12.9590625 -3.25 13.9375 C-3.92492759 16.69345433 -4.79742938 18.82607314 -6 21.375 C-7.82730848 25.32754768 -8.63187645 28.67454826 -9 33 C-10.98 33.495 -10.98 33.495 -13 34 C-13.33 35.32 -13.66 36.64 -14 38 C-14.66 37.67 -15.32 37.34 -16 37 C-14.79291602 34.27027456 -13.58462474 31.5410997 -12.375 28.8125 C-12.01325684 27.99620117 -11.65151367 27.17990234 -11.27880859 26.33886719 C-8.66523048 20.45687534 -5.98134805 14.61424337 -3.2265625 8.796875 C-1.9604911 5.90990964 -0.95096611 3.00398641 0 0 Z " fill="#CB475C" transform="translate(228,110)"/>
<path d="M0 0 C2 2 2 2 2.23046875 5.44140625 C2.22647911 6.81517304 2.21173177 8.18894114 2.1875 9.5625 C2.18685547 10.26052734 2.18621094 10.95855469 2.18554688 11.67773438 C2.14031158 16.85968842 2.14031158 16.85968842 1 18 C0.76518307 20.18292774 0.58636677 22.37203174 0.4375 24.5625 C0.31181641 26.35880859 0.31181641 26.35880859 0.18359375 28.19140625 C0.12300781 29.11824219 0.06242188 30.04507813 0 31 C-0.66 31 -1.32 31 -2 31 C-2.04898438 31.65226562 -2.09796875 32.30453125 -2.1484375 32.9765625 C-2.57242229 37.93279853 -3.15665573 42.33019451 -5 47 C-6.64272932 42.92979805 -5.25078887 39.35676315 -4.1875 35.3125 C-1.33853253 23.70332532 -0.71128796 11.89817062 0 0 Z " fill="#2A2031" transform="translate(231,37)"/>
<path d="M0 0 C3.39417765 3.12621626 5.6062718 5.56541027 7 10 C6.34 9.67 5.68 9.34 5 9 C4.87882813 9.62648438 4.75765625 10.25296875 4.6328125 10.8984375 C4.46523437 11.71570313 4.29765625 12.53296875 4.125 13.375 C3.96257812 14.18710938 3.80015625 14.99921875 3.6328125 15.8359375 C3 18 3 18 1 20 C0.97624074 21.9931567 0.97624074 21.9931567 1.375 24.125 C1.58125 25.40375 1.7875 26.6825 2 28 C-0.74277578 24.80009492 -2.6302836 21.99500618 -4 18 C-2.68 18.33 -1.36 18.66 0 19 C-0.01160156 18.40832031 -0.02320313 17.81664063 -0.03515625 17.20703125 C-0.11124464 10.54386266 -0.11124464 10.54386266 0.5625 7.25 C1.08281322 4.57410343 0.6734045 2.61879527 0 0 Z " fill="#132734" transform="translate(186,78)"/>
<path d="M0 0 C0 0.66 0 1.32 0 2 C-0.969375 2.309375 -1.93875 2.61875 -2.9375 2.9375 C-5.84065792 3.69523342 -5.84065792 3.69523342 -7 5 C-8.8125 5.1328125 -8.8125 5.1328125 -11 5.125 C-11.721875 5.12757812 -12.44375 5.13015625 -13.1875 5.1328125 C-15 5 -15 5 -16 4 C-18.53049402 3.92686433 -21.03304837 3.90752473 -23.5625 3.9375 C-24.27341797 3.94201172 -24.98433594 3.94652344 -25.71679688 3.95117188 C-27.47790013 3.96299136 -29.23896036 3.98092737 -31 4 C-28.19581004 2.44624179 -25.91846102 1.68956381 -22.734375 1.3671875 C-21.92613281 1.28339844 -21.11789063 1.19960937 -20.28515625 1.11328125 C-19.03025391 0.99533203 -19.03025391 0.99533203 -17.75 0.875 C-16.92886719 0.78863281 -16.10773438 0.70226562 -15.26171875 0.61328125 C-10.14869612 0.10278929 -5.13755122 -0.08286373 0 0 Z " fill="#312735" transform="translate(128,73)"/>
<path d="M0 0 C5.34082361 -0.32044942 8.33706965 0.46579873 13 3 C15.73572585 3.69907414 15.73572585 3.69907414 18 4 C18 4.66 18 5.32 18 6 C19.65 5.67 21.3 5.34 23 5 C23.33 5.99 23.66 6.98 24 8 C27.62885324 8.15149298 27.62885324 8.15149298 31 7 C31 8.32 31 9.64 31 11 C32.485 11.495 32.485 11.495 34 12 C34 12.66 34 13.32 34 14 C29.80206457 12.69826631 26.01991835 11.09260996 22.125 9.0625 C14.75848076 5.33376804 8.27372537 2.73872548 0 2 C0 1.34 0 0.68 0 0 Z " fill="#2E2333" transform="translate(234,95)"/>
<path d="M0 0 C1.32 0.33 2.64 0.66 4 1 C2.10807525 1.98669759 0.21128022 2.9640602 -1.6875 3.9375 C-2.74324219 4.48277344 -3.79898438 5.02804688 -4.88671875 5.58984375 C-10.99101941 8.35477792 -17.37379851 8.71897201 -24 8 C-27.91075925 6.01031547 -29.57689098 4.63466354 -32 1 C-29.525 1.495 -29.525 1.495 -27 2 C-27 2.66 -27 3.32 -27 4 C-26.01 4 -25.02 4 -24 4 C-24 4.66 -24 5.32 -24 6 C-16.65391485 5.67964441 -10.62239169 5.24074487 -4 2 C-2.68 2 -1.36 2 0 2 C0 1.34 0 0.68 0 0 Z " fill="#C64A5F" transform="translate(108,247)"/>
<path d="M0 0 C1.98 3.63 3.96 7.26 6 11 C5.01 11 4.02 11 3 11 C2.01 8.03 1.02 5.06 0 2 C-0.66 2 -1.32 2 -2 2 C-2.061875 2.556875 -2.12375 3.11375 -2.1875 3.6875 C-3.33373872 6.94987173 -5.49390197 8.68667874 -8 11 C-8 10.34 -8 9.68 -8 9 C-8.66 9 -9.32 9 -10 9 C-8.32888586 2.05844896 -7.64586732 0 0 0 Z " fill="#DD4658" transform="translate(92,156)"/>
<path d="M0 0 C4.53810594 2.58361669 7.14936437 5.55162808 9.67578125 10.078125 C9.34578125 10.738125 9.01578125 11.398125 8.67578125 12.078125 C6.73434949 10.3215915 5.53243429 8.82259346 4.23828125 6.515625 C2.47848438 3.77034188 1.66468411 3.22412921 -1.32421875 2.078125 C-8.77086179 1.25899427 -14.48725137 2.27008483 -21.32421875 5.078125 C-23.54296875 4.66796875 -23.54296875 4.66796875 -25.32421875 4.078125 C-17.17442671 0.09567863 -8.956745 -3.55259129 0 0 Z " fill="#B44A5F" transform="translate(217.32421875,13.921875)"/>
<path d="M0 0 C13.29750799 -0.40799172 21.68562523 0.38687017 33 8 C29.80796362 8 28.45413669 7.4191338 25.625 6.0625 C19.97492313 3.353958 15.12923465 2.86172137 8.875 2.875 C7.04582031 2.87113281 7.04582031 2.87113281 5.1796875 2.8671875 C1.97660399 2.85426467 1.97660399 2.85426467 -1 4 C-0.67 2.68 -0.34 1.36 0 0 Z " fill="#2F212E" transform="translate(82,11)"/>
<path d="M0 0 C-0.66 0 -1.32 0 -2 0 C-2 0.66 -2 1.32 -2 2 C-3.670625 2.12375 -3.670625 2.12375 -5.375 2.25 C-7.169375 2.62125 -7.169375 2.62125 -9 3 C-10.1500831 4.96672915 -10.1500831 4.96672915 -11 7 C-14.61996468 8.27187948 -17.33611849 7.9394568 -21 7 C-22.33319088 6.66609738 -23.66650099 6.33266994 -25 6 C-6.08859041 -2.08144835 -6.08859041 -2.08144835 0 0 Z " fill="#DD4657" transform="translate(73,95)"/>
<path d="M0 0 C1.34011032 4.75602922 0.08250266 7.61769006 -2 12 C-2.97581759 13.35113205 -3.97029741 14.68946944 -5 16 C-5.70514846 18.14733927 -5.70514846 18.14733927 -6 20 C-6.66 20 -7.32 20 -8 20 C-8 21.65 -8 23.3 -8 25 C-8.66 25 -9.32 25 -10 25 C-10.12375 25.804375 -10.2475 26.60875 -10.375 27.4375 C-10.684375 28.7059375 -10.684375 28.7059375 -11 30 C-11.66 30.33 -12.32 30.66 -13 31 C-11.03047778 23.53387714 -8.21786221 16.79259741 -4.8125 9.875 C-4.34908203 8.91851562 -3.88566406 7.96203125 -3.40820312 6.9765625 C-2.27872073 4.64773282 -1.14261401 2.32240705 0 0 Z " fill="#302330" transform="translate(85,124)"/>
<path d="M0 0 C0.66 0.66 1.32 1.32 2 2 C1.75 5.5625 1.75 5.5625 1 9 C0.01 9.495 0.01 9.495 -1 10 C-0.67 7.36 -0.34 4.72 0 2 C-1.47968324 2.14049518 -2.95874516 2.28754826 -4.4375 2.4375 C-5.67306641 2.55931641 -5.67306641 2.55931641 -6.93359375 2.68359375 C-8.98662025 2.78930815 -8.98662025 2.78930815 -10 4 C-12.52596259 4.23653523 -15.03107207 4.42173692 -17.5625 4.5625 C-18.62887695 4.62727539 -18.62887695 4.62727539 -19.71679688 4.69335938 C-21.47761912 4.79971777 -23.2387832 4.90038846 -25 5 C-21.34257578 2.56171719 -17.87133945 2.07794133 -13.625 1.375 C-12.49191406 1.17390625 -12.49191406 1.17390625 -11.3359375 0.96875 C-3.5728134 -0.36129574 -3.5728134 -0.36129574 0 0 Z " fill="#C0495E" transform="translate(99,89)"/>
<path d="M0 0 C6 6 6 6 6.3125 8.3125 C5.90729328 11.7972778 4.70056793 12.85543135 2 15 C1.34 15 0.68 15 0 15 C-0.625 11.625 -0.625 11.625 -1 8 C-0.34 7.34 0.32 6.68 1 6 C0.67801034 2.90073181 0.67801034 2.90073181 0 0 Z " fill="#E94555" transform="translate(133,217)"/>
<path d="M0 0 C5 2 5 2 10 4 C10 4.66 10 5.32 10 6 C12.86724686 5.42655063 13.8614515 5.1385485 16 3 C16 5.31 16 7.62 16 10 C18.475 10.495 18.475 10.495 21 11 C21 11.66 21 12.32 21 13 C16.67847882 11.71246714 13.16118418 10.06735543 9.375 7.625 C8.45460937 7.03976563 7.53421875 6.45453125 6.5859375 5.8515625 C4.11357176 4.08131875 2.07678184 2.21328394 0 0 Z " fill="#D5485C" transform="translate(176,239)"/>
<path d="M0 0 C0.33 0 0.66 0 1 0 C1.95587839 26.40062578 1.95587839 26.40062578 -5.015625 34.27734375 C-7 36 -7 36 -9 36 C-9 35.01 -9 34.02 -9 33 C-8.01 33 -7.02 33 -6 33 C-6 32.01 -6 31.02 -6 30 C-5.54625 29.5875 -5.0925 29.175 -4.625 28.75 C-0.07588513 23.85095322 -0.59213905 15.84596132 -0.375 9.5625 C-0.33632812 8.64017578 -0.29765625 7.71785156 -0.2578125 6.76757812 C-0.16431324 4.51190857 -0.0785609 2.25623084 0 0 Z " fill="#D84D5F" transform="translate(229,216)"/>
<path d="M0 0 C0.33 0 0.66 0 1 0 C1.69836067 6.14557387 -0.21025731 10.45901078 -2.6953125 16.046875 C-3.81076413 18.57166971 -4.77896759 21.08366485 -5.6875 23.6875 C-7 27 -7 27 -9 28 C-6.64500307 18.43540722 -3.35051831 9.24916544 0 0 Z " fill="#362231" transform="translate(224,84)"/>
<path d="M0 0 C3.19778422 3.77009459 5.68704403 7.74640177 8.0625 12.0625 C10.17316301 15.87777466 12.26648868 19.58523976 15 23 C13.68 23 12.36 23 11 23 C10.59007813 22.22914063 10.18015625 21.45828125 9.7578125 20.6640625 C9.21898438 19.66117188 8.68015625 18.65828125 8.125 17.625 C7.32449219 16.12839844 7.32449219 16.12839844 6.5078125 14.6015625 C4.93677647 11.89091483 3.80833983 10.40416991 1 9 C0.5859375 6.93359375 0.5859375 6.93359375 0.375 4.4375 C0.30023438 3.61121094 0.22546875 2.78492188 0.1484375 1.93359375 C0.09945312 1.29550781 0.05046875 0.65742188 0 0 Z " fill="#1C331F" transform="translate(107,156)"/>
<path d="M0 0 C-3.38493381 1.12831127 -4.59581816 0.75313757 -8 0 C-13.62009768 -0.58024607 -18.36534176 -0.98594133 -23.0625 2.5 C-24.031875 3.325 -25.00125 4.15 -26 5 C-26.66 5 -27.32 5 -28 5 C-28.33 5.99 -28.66 6.98 -29 8 C-29.33 7.34 -29.66 6.68 -30 6 C-22.32578704 -3.80593878 -11.60799966 -4.42209511 0 0 Z " fill="#C14D60" transform="translate(105,15)"/>
<path d="M0 0 C1.24546405 2.49092811 0.7767578 3.41080733 0 6 C-0.66 6 -1.32 6 -2 6 C-2 7.65 -2 9.3 -2 11 C6.415 10.505 6.415 10.505 15 10 C8.99349349 13.00325326 3.59570875 13.22358335 -3 13 C-3.33 12.67 -3.66 12.34 -4 12 C-3.631726 7.21243804 -2.74997245 3.94561264 0 0 Z " fill="#CA4E62" transform="translate(203,164)"/>
<path d="M0 0 C6.78376359 5.55035203 12.85522968 11.76442027 19 18 C18.01 18.33 17.02 18.66 16 19 C16 18.34 16 17.68 16 17 C14.68 17 13.36 17 12 17 C12 15.68 12 14.36 12 13 C11.34 13 10.68 13 10 13 C8.14000715 11.0324413 6.46609802 8.94444402 4.75390625 6.84765625 C3.03994919 4.75201831 3.03994919 4.75201831 0 4 C0 2.68 0 1.36 0 0 Z " fill="#352030" transform="translate(149,214)"/>
<path d="M0 0 C6.40629424 -0.20852314 11.92972642 -0.1583195 18 2 C18.68707555 4.49064888 19 6.37886292 19 9 C18.2575 8.38125 17.515 7.7625 16.75 7.125 C12.71663541 4.00830918 9.84318193 2.77709331 4.75 2.375 C3.85796875 2.30023438 2.9659375 2.22546875 2.046875 2.1484375 C1.03367188 2.07496094 1.03367188 2.07496094 0 2 C0 1.34 0 0.68 0 0 Z " fill="#20202F" transform="translate(205,11)"/>
<path d="M0 0 C0.66 0.33 1.32 0.66 2 1 C-1.63 8.26 -5.26 15.52 -9 23 C-10.28485596 17.86057616 -9.22194431 16.62164416 -7 12 C-6.34 12 -5.68 12 -5 12 C-4.67 9.69 -4.34 7.38 -4 5 C-3.34 5 -2.68 5 -2 5 C-2 4.01 -2 3.02 -2 2 C-1.34 2 -0.68 2 0 2 C0 1.34 0 0.68 0 0 Z " fill="#D04A5D" transform="translate(89,113)"/>
<path d="M0 0 C0.99 0 1.98 0 3 0 C2.80664062 0.54527344 2.61328125 1.09054688 2.4140625 1.65234375 C-0.72538833 10.74431768 -2.31836114 19.40324243 -3 29 C-3.33 29 -3.66 29 -4 29 C-4.20483028 21.00023956 -4.13480153 13.73865554 -2 6 C-1.34 6 -0.68 6 0 6 C0 4.02 0 2.04 0 0 Z " fill="#27222F" transform="translate(73,19)"/>
<path d="M0 0 C0.33 0.66 0.66 1.32 1 2 C-1.46640429 4.7138696 -4.20535978 6.50789287 -7.3125 8.4375 C-11.25041883 10.9026163 -15.15074156 13.3991497 -19 16 C-19.66 15.67 -20.32 15.34 -21 15 C-14 10 -7 5 0 0 Z " fill="#2F222E" transform="translate(135,231)"/>
<path d="M0 0 C0.66 0 1.32 0 2 0 C2.2475 0.763125 2.495 1.52625 2.75 2.3125 C3.7874057 5.10595884 3.7874057 5.10595884 6.125 6.5625 C6.74375 7.036875 7.3625 7.51125 8 8 C8 9.32 8 10.64 8 12 C8.66 12 9.32 12 10 12 C10.66 14.64 11.32 17.28 12 20 C8.3304964 16.7106702 6.11629795 13.12557223 3.75 8.875 C3.38648437 8.24207031 3.02296875 7.60914063 2.6484375 6.95703125 C0 2.2675047 0 2.2675047 0 0 Z " fill="#262130" transform="translate(93,157)"/>
<path d="M0 0 C-3.72278187 2.21935073 -6.77365392 4.02468937 -11 5 C-11.33 5.66 -11.66 6.32 -12 7 C-14.28515625 7.8515625 -14.28515625 7.8515625 -17.0625 8.625 C-17.98160156 8.88539062 -18.90070312 9.14578125 -19.84765625 9.4140625 C-20.55792969 9.60742188 -21.26820312 9.80078125 -22 10 C-18.91840572 6.71530729 -15.49687994 4.86241876 -11.5625 2.75 C-10.55993164 2.18539062 -10.55993164 2.18539062 -9.53710938 1.609375 C-5.88659617 -0.35879069 -3.95483511 -1.32787704 0 0 Z " fill="#CB4859" transform="translate(48,103)"/>
<path d="M0 0 C0.66 0 1.32 0 2 0 C4.6384227 4.56205359 4.55879686 8.84935072 4 14 C2.5 17.625 2.5 17.625 1 20 C0.34 20 -0.32 20 -1 20 C-0.67 19.030625 -0.34 18.06125 0 17.0625 C1.62253821 11.4008773 1.59707412 5.66003068 0 0 Z " fill="#322331" transform="translate(285,124)"/>
<path d="M0 0 C0.66 0.33 1.32 0.66 2 1 C0.56347895 5.91441412 -1.54159615 10.00238358 -4.125 14.375 C-4.49753906 15.01566406 -4.87007813 15.65632813 -5.25390625 16.31640625 C-6.16434002 17.88048477 -7.08148191 19.44065534 -8 21 C-9.1171875 17.28125 -9.1171875 17.28125 -8.0625 14.75 C-7.711875 14.1725 -7.36125 13.595 -7 13 C-7.66 13 -8.32 13 -9 13 C-9 12.34 -9 11.68 -9 11 C-7.35 11 -5.7 11 -4 11 C-2.50859979 7.37802806 -1.2125738 3.72433382 0 0 Z " fill="#1B3121" transform="translate(115,92)"/>
<path d="M0 0 C0.33 0 0.66 0 1 0 C1.33 6.6 1.66 13.2 2 20 C2.66 20 3.32 20 4 20 C4 22.64 4 25.28 4 28 C0.17342192 24.17342192 -0.11195699 18.48776366 -0.1953125 13.28125 C-0.182248 11.68738122 -0.15873998 10.09356518 -0.125 8.5 C-0.11597656 7.67757812 -0.10695313 6.85515625 -0.09765625 6.0078125 C-0.07436865 4.00507917 -0.03850959 2.00249846 0 0 Z " fill="#A94557" transform="translate(69,214)"/>
<path d="M0 0 C1.10844919 3.32534757 0.84454356 5.62182575 0 9 C-0.66 9 -1.32 9 -2 9 C-1.938125 9.78375 -1.87625 10.5675 -1.8125 11.375 C-1.874375 12.24125 -1.93625 13.1075 -2 14 C-5.20380017 16.13586678 -6.01939967 16.23132175 -9.6875 16.125 C-10.89986328 16.09792969 -10.89986328 16.09792969 -12.13671875 16.0703125 C-12.75160156 16.04710937 -13.36648437 16.02390625 -14 16 C-14 15.34 -14 14.68 -14 14 C-11.36 14 -8.72 14 -6 14 C-3.60457417 9.41845739 -1.49170266 4.9723422 0 0 Z " fill="#33202F" transform="translate(71,155)"/>
<path d="M0 0 C2.9552728 2.61778794 4.75832727 5.67583335 6.75 9.0625 C7.38421875 10.12597656 8.0184375 11.18945312 8.671875 12.28515625 C9.11015625 13.18105469 9.5484375 14.07695313 10 15 C9.67 15.66 9.34 16.32 9 17 C5.29399512 14.52933008 5.11895101 12.87282963 3.94140625 8.77734375 C3.1421455 6.78442594 3.1421455 6.78442594 0.90234375 6.25390625 C0.27457031 6.17011719 -0.35320312 6.08632812 -1 6 C-0.67 4.02 -0.34 2.04 0 0 Z " fill="#DCCB65" transform="translate(181,96)"/>
<path d="M0 0 C0.33 0 0.66 0 1 0 C1.66 4.95 2.32 9.9 3 15 C1.35 15 -0.3 15 -2 15 C-1.85973717 12.68715544 -1.71264442 10.37472409 -1.5625 8.0625 C-1.48128906 6.77472656 -1.40007813 5.48695313 -1.31640625 4.16015625 C-1 1 -1 1 0 0 Z " fill="#282232" transform="translate(12,128)"/>
<path d="M0 0 C0.66 0 1.32 0 2 0 C1.67515625 0.80050781 1.67515625 0.80050781 1.34375 1.6171875 C-0.87898862 7.56507139 -1.35617135 12.68125637 -1 19 C-3.55632171 16.76068916 -3.96880196 16.32445957 -4.3125 12.75 C-3.98661157 8.83933882 -3.21247373 5.7132008 -2 2 C-1.34 2 -0.68 2 0 2 C0 1.34 0 0.68 0 0 Z " fill="#22321C" transform="translate(99,121)"/>
<path d="M0 0 C0.33 0.66 0.66 1.32 1 2 C0.33333333 3.33333333 -0.33333333 4.66666667 -1 6 C-1.38290462 7.99110401 -1.72604615 9.99100513 -2 12 C-2.99 12 -3.98 12 -5 12 C-5 13.65 -5 15.3 -5 17 C-5.99 17.33 -6.98 17.66 -8 18 C-6.29259116 11.22589011 -4.03882065 5.71501104 0 0 Z " fill="#EAD360" transform="translate(110,106)"/>
<path d="M0 0 C1.98 0 3.96 0 6 0 C2.64137949 2.70186056 -0.94651268 4.67165172 -4.75 6.6875 C-5.35199219 7.00783203 -5.95398438 7.32816406 -6.57421875 7.65820312 C-8.04788011 8.4418167 -9.52372194 9.22132733 -11 10 C-11 8.68 -11 7.36 -11 6 C-4.375 3.125 -4.375 3.125 -1 2 C-0.67 1.34 -0.34 0.68 0 0 Z " fill="#21212E" transform="translate(36,103)"/>
<path d="M0 0 C0.33 0 0.66 0 1 0 C0.55629496 6.87742809 -0.76741335 12.85198614 -4 19 C-4.66 19.33 -5.32 19.66 -6 20 C-5.34 16.7 -4.68 13.4 -4 10 C-3.34 10 -2.68 10 -2 10 C-2 8.02 -2 6.04 -2 4 C-1.34 4 -0.68 4 0 4 C0 2.68 0 1.36 0 0 Z " fill="#D94960" transform="translate(225,75)"/>
<path d="M0 0 C3.3 0 6.6 0 10 0 C10 0.33 10 0.66 10 1 C6.75393904 1.8696403 3.50267592 2.71796913 0.25 3.5625 C-0.67039062 3.80935547 -1.59078125 4.05621094 -2.5390625 4.31054688 C-3.42851563 4.53935547 -4.31796875 4.76816406 -5.234375 5.00390625 C-6.45979004 5.32597046 -6.45979004 5.32597046 -7.70996094 5.65454102 C-10.14145409 6.02133876 -11.68425298 5.76494053 -14 5 C-12.4188708 4.49307308 -10.83498617 3.99473557 -9.25 3.5 C-8.36828125 3.2215625 -7.4865625 2.943125 -6.578125 2.65625 C-4 2 -4 2 0 2 C0 1.34 0 0.68 0 0 Z " fill="#2B2031" transform="translate(72,91)"/>
<path d="M0 0 C0.69738281 0.00451172 1.39476562 0.00902344 2.11328125 0.01367188 C3.82555803 0.0253998 5.53779033 0.04333347 7.25 0.0625 C7.25 0.3925 7.25 0.7225 7.25 1.0625 C6.49074219 1.09988281 5.73148438 1.13726562 4.94921875 1.17578125 C3.95535156 1.24152344 2.96148437 1.30726563 1.9375 1.375 C0.95136719 1.43300781 -0.03476563 1.49101562 -1.05078125 1.55078125 C-4.08116905 2.12528313 -4.71731359 2.88799826 -6.75 5.0625 C-9.9375 4.75 -9.9375 4.75 -12.75 4.0625 C-12.42 3.0725 -12.09 2.0825 -11.75 1.0625 C-8.0916892 -0.52216433 -3.91852005 -0.04814817 0 0 Z " fill="#0C3542" transform="translate(209.75,-0.0625)"/>
<path d="M0 0 C2.95183101 2.95183101 3.08663988 5.95511947 4 10 C7.63 10.33 11.26 10.66 15 11 C15 11.33 15 11.66 15 12 C9.06 12.495 9.06 12.495 3 13 C0.89172945 9.83759418 0.66182535 8.49342531 0.375 4.8125 C0.30023438 3.91144531 0.22546875 3.01039062 0.1484375 2.08203125 C0.09945312 1.39496094 0.05046875 0.70789063 0 0 Z " fill="#C74D63" transform="translate(73,66)"/>
<path d="M0 0 C0 0.33 0 0.66 0 1 C-0.6290625 1.03738281 -1.258125 1.07476562 -1.90625 1.11328125 C-6.34594987 1.45428229 -10.23931512 1.91610379 -14.375 3.625 C-18.00108948 5.00041325 -18.59097982 5.12632825 -22 4 C-14.51935975 0.29278005 -8.30085731 -0.51345509 0 0 Z " fill="#D74A60" transform="translate(214,14)"/>
<path d="M0 0 C0.33 0.66 0.66 1.32 1 2 C-3.65201794 10.43497758 -3.65201794 10.43497758 -6.95703125 11.8203125 C-8.875 12.0625 -8.875 12.0625 -12 12 C-11.319375 11.505 -10.63875 11.01 -9.9375 10.5 C-6.21041414 7.32801203 -3.14666758 3.73610099 0 0 Z " fill="#282130" transform="translate(283,144)"/>
<path d="M0 0 C2.9719385 1.12451727 5.33440687 2.22293791 8 4 C8.825 4.144375 9.65 4.28875 10.5 4.4375 C13.29500716 5.06637661 14.28566845 5.74430059 16 8 C16 8.66 16 9.32 16 10 C9.8034553 8.53239731 4.93130534 4.88851943 0 1 C0 0.67 0 0.34 0 0 Z " fill="#C3475C" transform="translate(22,150)"/>
<path d="M0 0 C7.17222695 2.66397001 11.28763538 6.08930211 16 12 C15.67 12.66 15.34 13.32 15 14 C13.06172464 12.23000902 11.12435656 10.45904239 9.1875 8.6875 C8.64029297 8.18798828 8.09308594 7.68847656 7.52929688 7.17382812 C4.96878163 4.83056872 2.42060466 2.48855146 0 0 Z " fill="#362030" transform="translate(121,24)"/>
<path d="M0 0 C2.375 0.25 2.375 0.25 5 1 C6.375 2.8125 6.375 2.8125 7 5 C6.71018504 6.34346425 6.38195265 7.67977235 6 9 C4.99406757 7.8803014 3.9954151 6.7540588 3 5.625 C2.443125 4.99851563 1.88625 4.37203125 1.3125 3.7265625 C0 2 0 2 0 0 Z " fill="#1D2334" transform="translate(121,200)"/>
<path d="M0 0 C0.5859375 1.84765625 0.5859375 1.84765625 1 4 C0.04504326 5.69287785 -0.9590934 7.35857037 -2 9 C-2.185625 10.299375 -2.185625 10.299375 -2.375 11.625 C-3 14 -3 14 -5.5625 15.8125 C-6.366875 16.204375 -7.17125 16.59625 -8 17 C-6.51095825 13.10391502 -4.75621287 9.40902982 -2.875 5.6875 C-2.06675781 4.08455078 -2.06675781 4.08455078 -1.2421875 2.44921875 C-0.62730469 1.23685547 -0.62730469 1.23685547 0 0 Z " fill="#273B23" transform="translate(200,137)"/>
<path d="M0 0 C0.99 0 1.98 0 3 0 C2.34 1.98 1.68 3.96 1 6 C0.01 6 -0.98 6 -2 6 C-2.33 7.32 -2.66 8.64 -3 10 C-3.66 9.67 -4.32 9.34 -5 9 C-4.3566152 7.686298 -3.71021785 6.37407102 -3.0625 5.0625 C-2.70285156 4.33160156 -2.34320313 3.60070312 -1.97265625 2.84765625 C-1 1 -1 1 0 0 Z " fill="#E3465C" transform="translate(217,138)"/>
<path d="M0 0 C0.58203125 1.91015625 0.58203125 1.91015625 1 4 C-0.3125 5.4375 -0.3125 5.4375 -2 7 C-3.19027984 9.59915538 -3.19027984 9.59915538 -4 12 C-4.66 12 -5.32 12 -6 12 C-6 12.99 -6 13.98 -6 15 C-6.66 15 -7.32 15 -8 15 C-6.51194289 9.19657726 -3.40902445 4.82409121 0 0 Z " fill="#DCCF68" transform="translate(119,91)"/>
<path d="M0 0 C0.66 0 1.32 0 2 0 C1.67 0.99 1.34 1.98 1 3 C0.67 2.01 0.34 1.02 0 0 Z M-5 2 C-2.03 2.495 -2.03 2.495 1 3 C1.33 5.64 1.66 8.28 2 11 C-0.96404505 8.19195732 -3.44499019 5.81684226 -5 2 Z " fill="#E2475B" transform="translate(172,49)"/>
<path d="M0 0 C-4.8643526 3.24290174 -10.04680699 5.55811184 -16 5 C-14 2 -14 2 -12.01171875 1.26953125 C-7.96093659 0.47299089 -4.15399957 -0.26799997 0 0 Z " fill="#DA495D" transform="translate(251,165)"/>
<path d="M0 0 C0.99 0.33 1.98 0.66 3 1 C2.02526874 2.66926454 1.04510211 4.33535642 0.0625 6 C-0.75541016 7.3921875 -0.75541016 7.3921875 -1.58984375 8.8125 C-2.05519531 9.534375 -2.52054688 10.25625 -3 11 C-3.33 11 -3.66 11 -4 11 C-4.20086443 7.28400809 -4.1519437 6.22791555 -2 3 C-1.34 3 -0.68 3 0 3 C0 2.01 0 1.02 0 0 Z " fill="#E5CE64" transform="translate(185,160)"/>
<path d="M0 0 C1.44122613 0.59522337 2.87785868 1.20157619 4.3125 1.8125 C5.11300781 2.14894531 5.91351563 2.48539063 6.73828125 2.83203125 C8.96515745 3.98200704 10.34987767 5.13626961 12 7 C4.65882353 6.51058824 4.65882353 6.51058824 1.5 4.0625 C0 2 0 2 0 0 Z " fill="#D8475E" transform="translate(106,16)"/>
<path d="M0 0 C0.66 0 1.32 0 2 0 C0.68 5.28 -0.64 10.56 -2 16 C-3.18206661 12.45380016 -2.76796128 10.53019086 -2.125 6.875 C-1.94195312 5.79992187 -1.75890625 4.72484375 -1.5703125 3.6171875 C-1 1 -1 1 0 0 Z " fill="#2A2131" transform="translate(77,172)"/>
<path d="M0 0 C0.66 0.33 1.32 0.66 2 1 C2.25 3.25 2.25 3.25 2 6 C0.125 8.3125 0.125 8.3125 -2 10 C-2.66 10 -3.32 10 -4 10 C-4 9.01 -4 8.02 -4 7 C-3.01 7 -2.02 7 -1 7 C-0.67 4.69 -0.34 2.38 0 0 Z " fill="#C9495E" transform="translate(137,222)"/>
<path d="M0 0 C0 0.66 0 1.32 0 2 C-1.423125 2.433125 -1.423125 2.433125 -2.875 2.875 C-6.05211578 3.76825109 -6.05211578 3.76825109 -8 6 C-7.625 3.0625 -7.625 3.0625 -7 0 C-4.3333581 -1.33332095 -2.83319697 -0.67102033 0 0 Z " fill="#312934" transform="translate(91,154)"/>
<path d="M0 0 C2.97 0.495 2.97 0.495 6 1 C0.21428571 5.82142857 0.21428571 5.82142857 -3 7 C-3.99 6.67 -4.98 6.34 -6 6 C-5.01 5.38125 -4.02 4.7625 -3 4.125 C-2.01 3.42375 -1.02 2.7225 0 2 C0 1.34 0 0.68 0 0 Z " fill="#D64A5D" transform="translate(262,156)"/>
<path d="M0 0 C1.2077558 3.62326739 0.54311128 4.64146369 -1 8 C-1.66 8 -2.32 8 -3 8 C-3.33 9.65 -3.66 11.3 -4 13 C-4.66 13 -5.32 13 -6 13 C-4.58707905 8.1725201 -2.57025846 4.2837641 0 0 Z " fill="#1B331E" transform="translate(191,154)"/>
<path d="M0 0 C0.66 0 1.32 0 2 0 C0.74194623 4.50802601 -0.90407165 7.4912812 -4 11 C-4 9.02 -4 7.04 -4 5 C-2.68 4.34 -1.36 3.68 0 3 C0 2.01 0 1.02 0 0 Z " fill="#D64960" transform="translate(95,101)"/>
<path d="M0 0 C0.93423645 3.01031744 1.04449911 3.86650268 0 7 C-0.66 7 -1.32 7 -2 7 C-2.33 8.65 -2.66 10.3 -3 12 C-3.66 12 -4.32 12 -5 12 C-3.68938409 7.76570244 -2.05643741 3.92592596 0 0 Z " fill="#2B1F2C" transform="translate(91,112)"/>
<path d="M0 0 C0.99 0.495 0.99 0.495 2 1 C2 1.66 2 2.32 2 3 C4.31 3 6.62 3 9 3 C8.67 3.99 8.34 4.98 8 6 C6.125 6.875 6.125 6.875 4 7 C1.81974318 5.4657452 1.11209475 4.35666511 0.3125 1.8125 C0.209375 1.214375 0.10625 0.61625 0 0 Z " fill="#222533" transform="translate(206,109)"/>
<path d="M0 0 C1.32 0.33 2.64 0.66 4 1 C-0.75 5 -0.75 5 -3 5 C-3.33 5.99 -3.66 6.98 -4 8 C-4.33 7.34 -4.66 6.68 -5 6 C-3.35 4.02 -1.7 2.04 0 0 Z " fill="#D44A5E" transform="translate(80,15)"/>
<path d="M0 0 C0.66 0 1.32 0 2 0 C2 0.66 2 1.32 2 2 C2.99 2 3.98 2 5 2 C5.99 4.97 6.98 7.94 8 11 C5.79179014 8.79179014 4.08830514 6.88139164 2.3125 4.375 C1.65701172 3.45847656 1.65701172 3.45847656 0.98828125 2.5234375 C0 1 0 1 0 0 Z " fill="#CF4C5B" transform="translate(185,75)"/>
<path d="M0 0 C2.475 0.495 2.475 0.495 5 1 C5 1.66 5 2.32 5 3 C5.99 3 6.98 3 8 3 C8 3.99 8 4.98 8 6 C4.08597051 4.73058503 2.20927127 3.48832306 0 0 Z " fill="#CF485C" transform="translate(76,248)"/>
<path d="M0 0 C2.93200474 2.85276137 5.64315404 5.65079784 8 9 C7.67 9.66 7.34 10.32 7 11 C2.34012809 7.9342948 1.14514798 5.41342681 0 0 Z " fill="#CB4A5D" transform="translate(113,191)"/>
<path d="M0 0 C1.65 0 3.3 0 5 0 C5.33 3.3 5.66 6.6 6 10 C3.25722422 6.80009492 1.3697164 3.99500618 0 0 Z " fill="#1B3321" transform="translate(182,96)"/>
<path d="M0 0 C3.21043882 1.38188453 5.04936365 2.92421903 7.25 5.625 C8.03117188 6.57246094 8.03117188 6.57246094 8.828125 7.5390625 C9.40820312 8.26222656 9.40820312 8.26222656 10 9 C5.57238086 7.60846256 3.0443745 5.47928514 0 2 C0 1.34 0 0.68 0 0 Z " fill="#D64D61" transform="translate(129,32)"/>
<path d="M0 0 C1.46726798 3.81489674 0.43336419 6.29011622 -1 10 C-2.65 10.33 -4.3 10.66 -6 11 C-5.47599609 10.18595703 -5.47599609 10.18595703 -4.94140625 9.35546875 C-4.25884766 8.28232422 -4.25884766 8.28232422 -3.5625 7.1875 C-3.11003906 6.47980469 -2.65757812 5.77210938 -2.19140625 5.04296875 C-0.85913661 2.91865448 -0.85913661 2.91865448 0 0 Z " fill="#33232D" transform="translate(228,241)"/>
<path d="M0 0 C0.66 0 1.32 0 2 0 C2.66 0.99 3.32 1.98 4 3 C4.99 3.33 5.98 3.66 7 4 C7.33 5.65 7.66 7.3 8 9 C6.84775972 8.07038578 5.70340824 7.1309875 4.5625 6.1875 C3.60537109 5.40439453 3.60537109 5.40439453 2.62890625 4.60546875 C1 3 1 3 0 0 Z " fill="#CA4A5E" transform="translate(148,211)"/>
<path d="M0 0 C0.99 0.33 1.98 0.66 3 1 C0.47043472 4.0916909 -2.22454612 4.90931332 -6 6 C-6.33 5.34 -6.66 4.68 -7 4 C-6.030625 3.71125 -5.06125 3.4225 -4.0625 3.125 C-0.89335797 2.35785318 -0.89335797 2.35785318 0 0 Z " fill="#07222C" transform="translate(115,258)"/>
<path d="M0 0 C3.81684226 1.55500981 6.19195732 4.03595495 9 7 C7.02 6.34 5.04 5.68 3 5 C3 4.34 3 3.68 3 3 C2.01 2.67 1.02 2.34 0 2 C0 1.34 0 0.68 0 0 Z " fill="#30202D" transform="translate(172,237)"/>
<path d="M0 0 C2.475 0.495 2.475 0.495 5 1 C4.67 1.66 4.34 2.32 4 3 C4.39938767 5.09821215 4.39938767 5.09821215 5 7 C3.29115995 5.37660195 1.62553283 3.70680947 0 2 C0 1.34 0 0.68 0 0 Z " fill="#202131" transform="translate(111,186)"/>
<path d="M0 0 C-0.33 0.66 -0.66 1.32 -1 2 C-3.64 2 -6.28 2 -9 2 C-5.945634 -1.054366 -3.9532319 -1.22686507 0 0 Z " fill="#2F2330" transform="translate(231,173)"/>
<path d="M0 0 C2.50037734 2.17424117 3.43628586 3.73045798 4 7 C2.35 6.67 0.7 6.34 -1 6 C-0.67 4.02 -0.34 2.04 0 0 Z " fill="#EBD563" transform="translate(181,96)"/>
<path d="M0 0 C2.88575819 0.39803561 3.82189513 0.79009069 5.75 3.0625 C6.1625 3.701875 6.575 4.34125 7 5 C6.01 5 5.02 5 4 5 C4 4.34 4 3.68 4 3 C2.68 3 1.36 3 0 3 C0 2.01 0 1.02 0 0 Z " fill="#272434" transform="translate(161,228)"/>
<path d="M0 0 C0.66 0 1.32 0 2 0 C2 0.66 2 1.32 2 2 C2.66 2.33 3.32 2.66 4 3 C2.68 3.99 1.36 4.98 0 6 C-0.38218767 4.34385343 -0.71395102 2.67542976 -1 1 C-0.67 0.67 -0.34 0.34 0 0 Z " fill="#E04752" transform="translate(276,146)"/>
<path d="M0 0 C0.66 0 1.32 0 2 0 C1.01 2.97 0.02 5.94 -1 9 C-1.33 9 -1.66 9 -2 9 C-2 6.69 -2 4.38 -2 2 C-1.34 2 -0.68 2 0 2 C0 1.34 0 0.68 0 0 Z " fill="#2A3C24" transform="translate(99,121)"/>
<path d="M0 0 C-0.66 0 -1.32 0 -2 0 C-2 0.66 -2 1.32 -2 2 C-4.97 2 -7.94 2 -11 2 C-11 1.67 -11 1.34 -11 1 C-3.57142857 -1.42857143 -3.57142857 -1.42857143 0 0 Z " fill="#CB465D" transform="translate(73,95)"/>
<path d="M0 0 C-2.97 2.475 -2.97 2.475 -6 5 C-6 3.35 -6 1.7 -6 0 C-2.25 -1.125 -2.25 -1.125 0 0 Z " fill="#152B27" transform="translate(123,88)"/>
</svg>
