
<!-- Generator: visioncortex VTracer 0.6.4 -->
<svg version="1.1" xmlns="http://www.w3.org/2000/svg" viewBox="0 0 256 256" preserveAspectRatio="xMidYMid meet">
<path d="M0 0 C3.455 2.883 6.75 5.888 10 9 C10.746 9.683 11.493 10.366 12.262 11.07 C18.882 17.333 23.98 24.443 29 32 C29.629 32.933 30.258 33.867 30.906 34.828 C48.236 62.398 52.958 98.795 45.839 130.377 C39.982 153.573 28.5 173.766 12 191 C10.975 192.12 10.975 192.12 9.93 193.262 C3.667 199.882 -3.443 204.98 -11 210 C-11.933 210.629 -12.867 211.258 -13.828 211.906 C-41.398 229.236 -77.795 233.958 -109.377 226.839 C-132.573 220.982 -152.766 209.5 -170 193 C-171.12 191.975 -171.12 191.975 -172.262 190.93 C-178.882 184.667 -183.98 177.557 -189 170 C-189.629 169.067 -190.258 168.133 -190.906 167.172 C-208.236 139.602 -212.958 103.205 -205.839 71.623 C-199.982 48.427 -188.5 28.234 -172 11 C-171.317 10.254 -170.634 9.507 -169.93 8.738 C-163.667 2.118 -156.557 -2.98 -149 -8 C-148.067 -8.629 -147.133 -9.258 -146.172 -9.906 C-101.529 -37.967 -40.649 -32.246 0 0 Z " fill="#0195C1" transform="translate(208,27)"/>
<path d="M0 0 C9.331 -0.911 9.331 -0.911 13.254 1.23 C16.19 3.713 17.767 5.301 19 9 C19.139 11.102 19.225 13.207 19.281 15.312 C19.319 16.553 19.356 17.793 19.395 19.07 C19.465 21.69 19.535 24.31 19.605 26.93 C19.643 28.17 19.68 29.41 19.719 30.688 C19.749 31.826 19.779 32.964 19.811 34.137 C19.884 37.072 19.884 37.072 21 40 C24.512 41.23 24.512 41.23 28 42 C28 44.31 28 46.62 28 49 C26.866 49.454 25.731 49.907 24.562 50.375 C20.953 51.571 20.953 51.571 20 54 C19.881 56.034 19.821 58.072 19.789 60.109 C19.747 61.954 19.747 61.954 19.703 63.836 C19.651 66.43 19.607 69.023 19.57 71.617 C19.524 73.47 19.524 73.47 19.477 75.359 C19.457 76.488 19.437 77.617 19.417 78.78 C18.779 83.706 17.086 86.968 13.5 90.375 C8.629 92.637 4.284 92.338 -1 92 C-1.043 90 -1.041 88 -1 86 C0.896 84.104 4.295 84.634 6.871 84.477 C9.385 84.171 9.385 84.171 11 81 C11.32 78.077 11.32 78.077 11.309 74.758 C11.334 73.527 11.359 72.296 11.385 71.027 C11.42 68.434 11.451 65.84 11.479 63.246 C11.505 62.012 11.531 60.779 11.559 59.508 C11.579 57.816 11.579 57.816 11.599 56.09 C12.044 52.663 12.955 50.76 15 48 C15.99 47.505 15.99 47.505 17 47 C15.987 44.817 15.044 43.05 13.453 41.228 C11.59 38.372 11.603 36.491 11.559 33.098 C11.532 31.96 11.506 30.822 11.479 29.65 C11.465 28.466 11.451 27.282 11.438 26.062 C11.403 23.72 11.36 21.377 11.309 19.035 C11.296 17.998 11.284 16.96 11.271 15.891 C10.967 12.646 10.387 9.387 8 7 C6.653 6.769 5.296 6.588 3.938 6.438 C2.638 6.293 1.339 6.149 0 6 C0 4.02 0 2.04 0 0 Z " fill="#9CD5E6" transform="translate(208,82)"/>
<path d="M0 0 C0.985 0.027 1.97 0.054 2.984 0.082 C3.732 0.117 4.48 0.152 5.25 0.188 C5.25 2.168 5.25 4.147 5.25 6.188 C3.971 6.311 2.692 6.435 1.375 6.562 C-2.098 6.878 -2.098 6.878 -4.75 9.188 C-5.897 12.459 -5.874 15.611 -5.891 19.055 C-5.91 20.188 -5.929 21.321 -5.949 22.488 C-5.983 24.863 -6.001 27.238 -6.004 29.613 C-6.213 39.301 -6.213 39.301 -9.297 42.883 C-10.106 43.643 -10.916 44.404 -11.75 45.188 C-11.982 47.412 -11.982 47.412 -9.812 49.188 C-9.132 49.847 -8.451 50.507 -7.75 51.188 C-6.363 53.961 -6.569 56.303 -6.504 59.402 C-6.471 60.646 -6.438 61.889 -6.404 63.17 C-6.343 65.803 -6.286 68.435 -6.232 71.068 C-6.198 72.313 -6.164 73.558 -6.129 74.84 C-6.104 75.984 -6.079 77.129 -6.053 78.308 C-5.955 81.384 -5.955 81.384 -3.75 84.188 C-1.587 84.731 -1.587 84.731 0.812 84.812 C5.168 85.105 5.168 85.105 6.25 86.188 C6.291 88.187 6.293 90.188 6.25 92.188 C-3.46 92.809 -3.46 92.809 -8.25 90.5 C-11.716 87.294 -13.564 84.783 -14.119 80.021 C-14.12 78.858 -14.12 77.695 -14.121 76.496 C-14.138 75.222 -14.156 73.948 -14.174 72.635 C-14.184 70.625 -14.187 68.615 -14.186 66.605 C-14.189 64.652 -14.217 62.699 -14.246 60.746 C-14.248 59.584 -14.25 58.422 -14.252 57.224 C-14.85 53.576 -15.867 52.425 -18.75 50.188 C-20.888 49.4 -20.888 49.4 -22.75 49.188 C-22.75 46.877 -22.75 44.567 -22.75 42.188 C-21.616 41.919 -20.481 41.651 -19.312 41.375 C-17.549 40.787 -17.549 40.787 -15.75 40.188 C-14.657 36.91 -14.609 34.43 -14.574 30.98 C-14.55 29.754 -14.527 28.527 -14.502 27.264 C-14.459 24.683 -14.428 22.102 -14.408 19.521 C-14.221 11.22 -13.797 7.176 -7.859 1.324 C-5.101 -0.162 -3.113 -0.111 0 0 Z " fill="#9CD5E6" transform="translate(42.75,81.8125)"/>
<path d="M0 0 C3.562 -0.146 7.123 -0.234 10.688 -0.312 C12.199 -0.375 12.199 -0.375 13.74 -0.439 C21.212 -0.563 21.212 -0.563 25.172 2.266 C27.934 6.396 27.698 8.112 27 13 C25.125 15.5 25.125 15.5 23 17 C22.34 17 21.68 17 21 17 C22.071 18.799 23.157 20.589 24.25 22.375 C24.853 23.373 25.457 24.37 26.078 25.398 C27.964 27.951 29.072 28.925 32 30 C31.67 30.99 31.34 31.98 31 33 C28.277 33.398 28.277 33.398 25 33 C23.215 30.855 21.921 29.015 20.562 26.625 C18.369 22.773 16.645 19.85 12.215 18.586 C10.623 18.296 10.623 18.296 9 18 C9 21.63 9 25.26 9 29 C10.65 29.33 12.3 29.66 14 30 C13.67 30.99 13.34 31.98 13 33 C8.71 33 4.42 33 0 33 C0 31.68 0 30.36 0 29 C1.65 29 3.3 29 5 29 C5 20.42 5 11.84 5 3 C3.35 3 1.7 3 0 3 C0 2.01 0 1.02 0 0 Z " fill="#F5FBFC" transform="translate(62,93)"/>
<path d="M0 0 C9.24 0 18.48 0 28 0 C28 3.3 28 6.6 28 10 C26.68 10 25.36 10 24 10 C24 8.02 24 6.04 24 4 C19.05 4 14.1 4 9 4 C9 6.97 9 9.94 9 13 C11.31 13 13.62 13 16 13 C16.33 11.68 16.66 10.36 17 9 C17.99 9 18.98 9 20 9 C20 12.63 20 16.26 20 20 C18.68 20 17.36 20 16 20 C16 19.01 16 18.02 16 17 C13.69 17 11.38 17 9 17 C9 20.96 9 24.92 9 29 C13.95 29 18.9 29 24 29 C24 26.36 24 23.72 24 21 C25.32 21.33 26.64 21.66 28 22 C28.027 23.646 28.046 25.292 28.062 26.938 C28.074 27.854 28.086 28.771 28.098 29.715 C28 32 28 32 27 33 C25 33.088 22.998 33.107 20.996 33.098 C19.781 33.094 18.566 33.091 17.314 33.088 C16.035 33.08 14.756 33.071 13.438 33.062 C12.154 33.058 10.871 33.053 9.549 33.049 C6.366 33.037 3.183 33.021 0 33 C0 31.68 0 30.36 0 29 C1.65 29 3.3 29 5 29 C4.67 20.75 4.34 12.5 4 4 C2.68 3.67 1.36 3.34 0 3 C0 2.01 0 1.02 0 0 Z " fill="#F0F8FB" transform="translate(97,93)"/>
<path d="M0 0 C1.098 0.008 1.098 0.008 2.219 0.016 C7.595 0.095 7.595 0.095 8.75 1.25 C8.891 3.921 8.792 6.574 8.75 9.25 C7.43 9.25 6.11 9.25 4.75 9.25 C4.358 8.59 3.966 7.93 3.562 7.25 C1.956 5.049 1.956 5.049 -0.367 4.949 C-4.963 4.859 -4.963 4.859 -9.25 6.25 C-9.25 8.23 -9.25 10.21 -9.25 12.25 C-6.263 13.919 -3.684 14.616 -0.312 15.125 C3.993 15.965 6.925 16.672 9.75 20.25 C10.422 24.951 10.459 27.042 8.062 31.125 C4.44 34.454 1.524 35.348 -3.312 35.438 C-6.281 35.296 -8.444 34.951 -11.25 34.25 C-12.59 34.556 -13.925 34.885 -15.25 35.25 C-16.25 34.25 -16.25 34.25 -16.348 31.746 C-16.336 30.737 -16.324 29.727 -16.312 28.688 C-16.303 27.676 -16.294 26.664 -16.285 25.621 C-16.274 24.839 -16.262 24.056 -16.25 23.25 C-13.855 23.594 -13.855 23.594 -11.25 24.25 C-9.562 26.75 -9.562 26.75 -8.25 29.25 C-5.193 30.778 -2.62 30.482 0.75 30.25 C3.151 28.891 3.151 28.891 4.75 27.25 C4.48 24.813 4.48 24.813 3.75 22.25 C0.585 20.14 -0.94 19.897 -4.625 19.438 C-8.47 18.78 -10.176 18.302 -13.438 16 C-15.607 12.709 -15.826 11.12 -15.25 7.25 C-14.373 4.459 -13.504 3.447 -11.184 1.652 C-7.419 -0.147 -4.077 -0.117 0 0 Z " fill="#EFF8FB" transform="translate(149.25,91.75)"/>
<path d="M0 0 C1.168 0.005 2.336 0.01 3.539 0.016 C4.799 0.019 6.059 0.022 7.357 0.026 C8.698 0.034 10.038 0.042 11.379 0.051 C12.723 0.056 14.067 0.061 15.412 0.065 C18.713 0.077 22.015 0.094 25.316 0.114 C25.316 4.734 25.316 9.354 25.316 14.114 C23.996 13.784 22.676 13.454 21.316 13.114 C21.316 10.144 21.316 7.174 21.316 4.114 C18.676 4.114 16.036 4.114 13.316 4.114 C13.316 12.364 13.316 20.614 13.316 29.114 C15.626 29.114 17.936 29.114 20.316 29.114 C20.316 30.434 20.316 31.754 20.316 33.114 C14.376 33.114 8.436 33.114 2.316 33.114 C2.316 31.794 2.316 30.474 2.316 29.114 C4.626 29.114 6.936 29.114 9.316 29.114 C9.316 20.534 9.316 11.954 9.316 3.114 C6.676 3.444 4.036 3.774 1.316 4.114 C0.986 7.414 0.656 10.714 0.316 14.114 C-1.004 13.784 -2.324 13.454 -3.684 13.114 C-3.711 11.134 -3.73 9.155 -3.746 7.176 C-3.758 6.074 -3.77 4.972 -3.781 3.836 C-3.651 0.196 -3.635 0.154 0 0 Z " fill="#F3FAFC" transform="translate(169.683837890625,92.886474609375)"/>
<path d="M0 0 C2.688 2.25 2.688 2.25 4 5 C3.67 6.32 3.34 7.64 3 9 C-1.62 9 -6.24 9 -11 9 C-10.67 10.32 -10.34 11.64 -10 13 C-5.167 13.083 -0.763 12.953 4 12 C3 15 3 15 1.438 16.188 C-2.09 17.363 -5.363 17.684 -9 17 C-11.994 15.004 -13.638 13.617 -14.441 10.027 C-14.631 6.751 -14.203 4.369 -12.625 1.5 C-8.536 -0.837 -4.586 -0.89 0 0 Z " fill="#EDF7FA" transform="translate(145,148)"/>
<path d="M0 0 C8.246 -0.492 8.246 -0.492 12.062 2 C12.702 2.66 13.341 3.32 14 4 C13.692 6.848 13.345 8.583 11.5 10.812 C7.645 12.644 4.239 12.187 0 12 C0 8.04 0 4.08 0 0 Z " fill="#0E9BC4" transform="translate(71,96)"/>
<path d="M0 0 C1.087 0.018 2.173 0.036 3.293 0.055 C4.54 0.089 4.54 0.089 5.812 0.125 C5.812 2.435 5.812 4.745 5.812 7.125 C4.823 7.125 3.832 7.125 2.812 7.125 C2.483 6.135 2.153 5.145 1.812 4.125 C-1.038 3.358 -1.038 3.358 -4.188 3.125 C-5.974 4.228 -5.974 4.228 -7.188 6.125 C-7.662 8.564 -7.662 8.564 -7.562 11.188 C-7.57 12.065 -7.578 12.943 -7.586 13.848 C-7.454 14.599 -7.323 15.351 -7.188 16.125 C-3.735 18.426 -2.953 18.263 1 17.75 C1.901 17.639 2.802 17.528 3.73 17.414 C4.418 17.319 5.105 17.223 5.812 17.125 C4.812 20.125 4.812 20.125 1.812 22.125 C-2.299 22.582 -4.453 22.582 -8 20.375 C-11.231 17.051 -12.077 15.341 -12.5 10.688 C-12.167 6.886 -11.496 5.117 -9.188 2.125 C-5.661 -0.226 -4.159 -0.089 0 0 Z " fill="#E0F2F7" transform="translate(77.1875,142.875)"/>
<path d="M0 0 C2.104 -0.081 4.208 -0.139 6.312 -0.188 C7.484 -0.222 8.656 -0.257 9.863 -0.293 C13 0 13 0 14.906 1.156 C16.442 3.745 16.293 5.702 16.188 8.688 C16.16 9.681 16.133 10.675 16.105 11.699 C16.071 12.458 16.036 13.218 16 14 C16.66 14 17.32 14 18 14 C18 14.66 18 15.32 18 16 C15.69 16 13.38 16 11 16 C11 15.34 11 14.68 11 14 C11.66 14 12.32 14 13 14 C12.67 10.7 12.34 7.4 12 4 C10.344 3.618 8.675 3.286 7 3 C5.337 4.663 5.64 6.783 5.438 9.062 C5.312 10.441 5.312 10.441 5.184 11.848 C5.123 12.558 5.062 13.268 5 14 C5.66 14 6.32 14 7 14 C7 14.66 7 15.32 7 16 C4.69 16 2.38 16 0 16 C0 15.34 0 14.68 0 14 C0.66 14 1.32 14 2 14 C2 10.04 2 6.08 2 2 C1.34 2 0.68 2 0 2 C0 1.34 0 0.68 0 0 Z " fill="#EBF6FA" transform="translate(153,148)"/>
<path d="M0 0 C2.64 0 5.28 0 8 0 C8 6.93 8 13.86 8 21 C10.31 21 12.62 21 15 21 C15 21.66 15 22.32 15 23 C9.72 23 4.44 23 -1 23 C-1 22.34 -1 21.68 -1 21 C0.98 21 2.96 21 5 21 C5 15.06 5 9.12 5 3 C3.35 3 1.7 3 0 3 C0 2.01 0 1.02 0 0 Z " fill="#E7F5F9" transform="translate(90,141)"/>
<path d="M0 0 C0.66 0 1.32 0 2 0 C2 1.98 2 3.96 2 6 C4.97 6 7.94 6 11 6 C11 6.66 11 7.32 11 8 C8.03 8 5.06 8 2 8 C2 11.3 2 14.6 2 18 C5.63 17.67 9.26 17.34 13 17 C13 17.99 13 18.98 13 20 C9.077 21.308 6.14 21.197 2 21 C0 19 0 19 -0.195 16.398 C-0.172 15.401 -0.149 14.403 -0.125 13.375 C-0.107 12.372 -0.089 11.369 -0.07 10.336 C-0.047 9.565 -0.024 8.794 0 8 C-1.65 8 -3.3 8 -5 8 C-5 7.34 -5 6.68 -5 6 C-3.35 6 -1.7 6 0 6 C0 4.02 0 2.04 0 0 Z " fill="#F5FAFC" transform="translate(179,143)"/>
<path d="M0 0 C2.64 0 5.28 0 8 0 C8 4.62 8 9.24 8 14 C10.31 14 12.62 14 15 14 C15 14.66 15 15.32 15 16 C9.39 16 3.78 16 -2 16 C-2 15.34 -2 14.68 -2 14 C0.31 14 2.62 14 5 14 C5 10.04 5 6.08 5 2 C3.35 2 1.7 2 0 2 C0 1.34 0 0.68 0 0 Z " fill="#F6FBFC" transform="translate(112,148)"/>
<path d="M0 0 C3.062 0.188 3.062 0.188 5.062 2.188 C5.062 3.178 5.062 4.167 5.062 5.188 C1.433 5.188 -2.197 5.188 -5.938 5.188 C-3.454 0.22 -3.454 0.22 0 0 Z " fill="#27A5CA" transform="translate(139.9375,149.8125)"/>
<path d="M0 0 C2.64 0 5.28 0 8 0 C8 4.62 8 9.24 8 14 C7.01 14 6.02 14 5 14 C5 10.04 5 6.08 5 2 C3.35 2 1.7 2 0 2 C0 1.34 0 0.68 0 0 Z " fill="#E0F2F7" transform="translate(112,148)"/>
<path d="M0 0 C2.97 0 5.94 0 9 0 C9 2.31 9 4.62 9 7 C8.01 7 7.02 7 6 7 C5.67 6.01 5.34 5.02 5 4 C1.992 2.775 1.992 2.775 -1 2 C-0.67 1.34 -0.34 0.68 0 0 Z " fill="#EDF7FA" transform="translate(74,143)"/>
<path d="M0 0 C-1 3 -1 3 -2.562 4.188 C-6.111 5.37 -9.267 5.124 -13 5 C-13 4.67 -13 4.34 -13 4 C-12.093 3.711 -11.185 3.423 -10.25 3.125 C-7.122 2.128 -7.122 2.128 -4.812 0.875 C-3 0 -3 0 0 0 Z " fill="#BAE2EE" transform="translate(149,160)"/>
<path d="M0 0 C0.33 0 0.66 0 1 0 C1 2.31 1 4.62 1 7 C1.99 7 2.98 7 4 7 C4 7.66 4 8.32 4 9 C1.69 9 -0.62 9 -3 9 C-3 8.34 -3 7.68 -3 7 C-2.01 7 -1.02 7 0 7 C0 4.69 0 2.38 0 0 Z " fill="#FDFEFE" transform="translate(156,155)"/>
<path d="M0 0 C0.99 0 1.98 0 3 0 C3 1.32 3 2.64 3 4 C2.01 4 1.02 4 0 4 C0 2.68 0 1.36 0 0 Z " fill="#F9FCFD" transform="translate(117,140)"/>
<path d="M0 0 C0.99 0 1.98 0 3 0 C2.67 0.99 2.34 1.98 2 3 C1.01 3.33 0.02 3.66 -1 4 C-0.67 2.68 -0.34 1.36 0 0 Z " fill="#C8E8F1" transform="translate(146,160)"/>
</svg>