<svg width="128" height="128" viewBox="0 0 128 128" fill="none" xmlns="http://www.w3.org/2000/svg">
<path d="M48.648 63.617C46.945 63.617 45.554 64.125 44.492 65.14C43.43 66.155 42.89 67.488 42.89 69.12C42.89 69.965 43.023 70.738 43.289 71.445C43.55 72.152 43.964 72.805 44.515 73.398C45.07 73.992 46.175 74.797 47.82 75.824C49.84 77.066 51.164 78.074 51.8 78.859C52.436 79.644 52.754 80.469 52.754 81.328C52.754 82.476 52.379 83.398 51.601 84.086C50.828 84.773 49.793 85.121 48.504 85.121C47.152 85.121 45.972 84.641 44.957 83.687C43.945 82.73 43.433 81.469 43.417 79.883H42.793V85.633H43.418C43.613 85.09 43.882 84.808 44.226 84.808C44.398 84.808 44.789 84.922 45.402 85.141C46.89 85.676 48.109 85.933 49.07 85.933C50.722 85.933 52.136 85.348 53.312 84.164C54.488 82.98 55.082 81.551 55.082 79.883C55.082 78.59 54.691 77.437 53.925 76.437C53.152 75.434 51.66 74.262 49.425 72.922C47.504 71.758 46.254 70.816 45.675 70.078C45.096 69.34 44.8 68.528 44.8 67.633C44.8 66.664 45.156 65.887 45.851 65.305C46.551 64.727 47.461 64.437 48.609 64.437C49.89 64.437 50.965 64.824 51.812 65.594C52.66 66.371 53.148 67.441 53.292 68.82H53.925V63.836H53.34C53.265 64.094 53.199 64.254 53.14 64.328C53.078 64.402 52.968 64.438 52.793 64.438C52.59 64.438 52.23 64.352 51.715 64.184C50.609 63.809 49.59 63.614 48.648 63.614V63.617ZM69.242 63.617C67.164 63.617 65.282 64.109 63.574 65.097C61.867 66.082 60.515 67.445 59.515 69.187C58.523 70.926 58.023 72.777 58.023 74.746C58.023 77.39 58.886 79.75 60.621 81.816C62.363 83.883 64.441 85.172 66.855 85.664C67.41 85.953 68.199 86.699 69.235 87.914C70.398 89.274 71.383 90.258 72.195 90.844C72.9874 91.421 73.8705 91.8617 74.808 92.148C75.73 92.43 76.73 92.57 77.812 92.57C79.121 92.57 80.297 92.34 81.328 91.867L81.098 91.289C80.4836 91.5084 79.8354 91.6181 79.183 91.613C78.273 91.613 77.347 91.313 76.422 90.699C75.496 90.089 74.34 88.926 72.961 87.211C72.312 86.387 71.863 85.867 71.613 85.664C74.253 85.144 76.429 83.859 78.125 81.797C79.816 79.734 80.664 77.383 80.664 74.746C80.664 71.613 79.558 68.984 77.359 66.84C75.159 64.695 72.453 63.617 69.242 63.617V63.617ZM82.101 63.617L82.136 64.297C83.516 64.297 84.292 64.703 84.464 65.527C84.531 65.824 84.562 66.371 84.57 67.152L84.554 82.152C84.542 83.273 84.386 83.988 84.081 84.297C83.777 84.605 83.257 84.801 82.511 84.875L82.476 85.555H96.273L96.628 82.152H95.996C95.816 83.078 95.406 83.742 94.746 84.117C94.089 84.496 92.921 84.687 91.246 84.687H89.937C88.425 84.687 87.55 84.133 87.32 83.031C87.2744 82.7954 87.2519 82.556 87.253 82.316L87.304 67.152C87.304 66.035 87.444 65.285 87.738 64.918C88.031 64.551 88.562 64.351 89.332 64.297L89.296 63.617H82.101ZM69.468 64.437C71.808 64.437 73.726 65.367 75.202 67.238C76.682 69.117 77.413 71.683 77.413 74.933C77.413 78.015 76.671 80.484 75.183 82.34C73.694 84.199 71.71 85.12 69.241 85.12C66.874 85.12 64.956 84.168 63.487 82.25C62.015 80.336 61.284 77.851 61.284 74.789C61.284 71.649 62.023 69.133 63.507 67.249C64.991 65.375 66.98 64.437 69.468 64.437V64.437ZM101.191 67.664C100.855 67.664 100.597 67.781 100.406 68.008C100.211 68.238 100.152 68.512 100.218 68.851C100.285 69.18 100.468 69.465 100.761 69.711C101.051 69.949 101.367 70.078 101.703 70.078C101.848 70.0828 101.993 70.0519 102.124 69.9879C102.254 69.9239 102.368 69.8289 102.453 69.711C102.628 69.465 102.683 69.18 102.617 68.851C102.547 68.5181 102.363 68.2201 102.097 68.008C101.845 67.7895 101.524 67.6676 101.191 67.664ZM110.289 69.964C109.719 72.176 108.476 73.374 106.578 73.566L106.598 74.199H108.82L108.777 81.691C108.781 82.977 108.817 83.828 108.906 84.261C109.125 85.301 109.804 85.828 110.933 85.828C112.566 85.828 114.281 84.832 116.07 82.828L115.53 82.359C114.234 83.679 113.093 84.344 112.09 84.344C111.476 84.344 111.097 83.988 110.953 83.285C110.912 83.0873 110.894 82.8858 110.898 82.684L110.922 74.199H114.312L114.281 73.191H110.933V69.965L110.289 69.964ZM123.409 72.789C121.511 72.789 119.972 73.719 118.765 75.559C117.574 77.402 117.203 79.445 117.675 81.691C117.949 83.011 118.504 84.031 119.343 84.754C120.187 85.472 121.253 85.828 122.527 85.828C123.715 85.828 125.371 85.528 126.067 84.918C126.761 84.312 127.406 83.324 128 81.972L127.527 81.472C126.577 83.222 124.664 84.105 123.227 84.105C121.242 84.105 120.031 83.015 119.574 80.84C119.515 80.5455 119.472 80.2481 119.445 79.949C121.805 79.574 123.59 78.909 124.793 77.949C126 76.989 127.211 75.965 126.984 74.89C126.863 74.2773 126.514 73.7333 126.008 73.367C125.492 72.988 124.156 72.789 123.41 72.789H123.409ZM102.664 72.867L98.574 73.812V74.547L99.988 74.371C100.672 74.371 101.074 74.68 101.203 75.301C101.246 75.511 101.273 75.801 101.281 76.168L101.238 82.898C101.222 83.824 101.121 84.368 100.914 84.531C100.711 84.691 100.16 84.773 99.269 84.773L99.246 85.41H105.734L105.722 84.773C104.824 84.773 104.238 84.703 103.98 84.563C103.722 84.426 103.547 84.172 103.468 83.785C103.41 83.508 103.386 83.027 103.383 82.363L103.403 72.867H102.664ZM122.371 74.113C122.765 74.113 123.152 74.265 123.535 74.566C123.914 74.871 124.145 75.206 124.218 75.57C124.589 77.355 123.015 78.594 119.464 79.281C119.367 77.976 119.589 76.793 120.16 75.726C120.73 74.656 121.472 74.113 122.37 74.113H122.371ZM11.512 76.5C11.508 76.547 11.508 76.563 11.504 76.59C11.508 76.7 11.512 76.813 11.512 76.922C11.516 76.848 11.516 76.812 11.516 76.73L11.512 76.5Z" fill="black"/>
<path d="M47.711 36.66C45.297 34.496 42.383 35.363 39.496 37.937C39.055 38.34 38.629 38.757 38.219 39.199C33.289 44.461 28.715 54.207 27.293 61.648C27.843 62.781 28.277 64.222 28.563 65.324C28.707 65.867 28.836 66.421 28.949 66.976C28.949 66.976 28.902 66.808 28.723 66.276L28.605 65.937C28.582 65.8734 28.556 65.811 28.527 65.75C28.207 64.996 27.317 63.406 26.926 62.714C26.6144 63.6301 26.321 64.5523 26.046 65.48C27.176 67.562 27.863 71.128 27.863 71.128C27.863 71.128 27.805 70.894 27.519 70.089C27.269 69.374 26.015 67.159 25.715 66.644C25.207 68.534 25.008 69.812 25.187 70.121C25.543 70.722 25.879 71.761 26.172 72.91C26.844 75.5 27.308 78.652 27.308 78.652L27.348 79.175C27.2591 81.3307 27.3032 83.4898 27.48 85.64C27.699 88.34 28.117 90.652 28.648 91.894L29.008 91.694C28.23 89.254 27.91 86.05 28.051 82.363C28.261 76.723 29.551 69.918 31.933 62.828C35.965 52.125 41.551 43.535 46.663 39.433C42.003 43.667 35.694 57.382 33.804 62.456C31.691 68.143 30.191 73.476 29.289 78.589C30.847 73.796 35.887 71.737 35.887 71.737C35.887 71.737 38.355 68.671 41.242 64.292C39.515 64.686 36.672 65.366 35.722 65.768C34.32 66.362 33.942 66.561 33.942 66.561C33.942 66.561 38.488 63.776 42.387 62.515C47.75 54.015 53.594 41.941 47.711 36.66M4.28899 37.937C1.92199 37.945 0.00799292 39.874 -0.00100708 42.253V81.327C0.00799292 83.707 1.92599 85.632 4.28899 85.64H26.309C26.1437 83.5219 26.1033 81.3959 26.188 79.273C26.172 79.124 26.16 78.94 26.148 78.8C25.8618 76.92 25.4931 75.0536 25.043 73.206C24.758 72.101 24.399 71.093 24.18 70.722C23.91 70.257 23.95 69.992 23.953 69.702C23.953 69.421 23.989 69.128 24.039 68.796C24.179 67.968 24.359 67.148 24.586 66.335L25.094 66.273C25.054 66.19 25.063 66.116 25.02 66.042L24.926 65.148C25.207 64.206 25.504 63.268 25.821 62.338L26.285 62.292C26.27 62.257 26.262 62.202 26.242 62.167L26.145 61.425C27.617 53.71 32.192 43.913 37.364 38.394C37.52 38.23 37.676 38.094 37.829 37.937H4.28899Z" fill="black"/>
</svg>
