<?xml version="1.0" encoding="UTF-8"?>
<svg version="1.1" xmlns="http://www.w3.org/2000/svg" width="512" height="512">
<path d="M0 0 C42.94850028 38.47850376 72.05985417 90.36028638 82.03369141 147.26806641 C82.19595215 148.15300781 82.35821289 149.03794922 82.52539062 149.94970703 C93.8137172 213.83534474 78.0883002 282.84407184 41.44873047 336.07470703 C34.31008156 346.24173649 26.53041271 355.7503188 18.15478516 364.92431641 C16.21537638 367.06730953 14.34039842 369.25151279 12.47119141 371.45556641 C9.59145581 374.75801549 6.50340482 377.62248462 3.15869141 380.44775391 C1.73304119 381.66899104 0.33680456 382.92535741 -1.02880859 384.21337891 C-31.69008242 413.06478587 -71.78456721 431.932748 -112.34130859 441.95556641 C-113.09331543 442.14594482 -113.84532227 442.33632324 -114.62011719 442.5324707 C-132.01709374 446.64243024 -149.36533982 447.78086498 -167.19360352 447.71411133 C-170.63342594 447.70561674 -174.07157097 447.73447577 -177.51123047 447.76611328 C-197.94138596 447.83147172 -218.04226615 445.40426987 -237.77880859 440.01806641 C-239.4489502 439.57092285 -239.4489502 439.57092285 -241.15283203 439.11474609 C-291.50215475 425.23372755 -338.72029715 394.52018699 -370.96630859 353.26806641 C-371.97530417 352.01146042 -372.98442682 350.75495647 -373.99365234 349.49853516 C-382.34063347 338.9812887 -389.35573586 327.94317162 -395.96630859 316.26806641 C-396.37864746 315.55183105 -396.79098633 314.8355957 -397.21582031 314.09765625 C-409.57319099 292.51684601 -417.3258535 268.70703279 -422.71630859 244.51806641 C-422.91514648 243.63248047 -423.11398437 242.74689453 -423.31884766 241.83447266 C-426.8227349 225.36680361 -427.37157031 209.23645175 -427.34130859 192.45556641 C-427.34076477 191.32389038 -427.34022095 190.19221436 -427.33966064 189.02624512 C-427.30229224 172.12556145 -426.74295531 155.81052121 -422.96630859 139.26806641 C-422.74668457 138.2814502 -422.52706055 137.29483398 -422.30078125 136.27832031 C-417.71156815 116.17737208 -410.89630892 96.84280343 -401.96630859 78.26806641 C-401.4684082 77.23117676 -401.4684082 77.23117676 -400.96044922 76.17333984 C-389.58031926 52.85177757 -373.93844318 31.89215268 -355.96630859 13.26806641 C-355.39976562 12.67960937 -354.83322266 12.09115234 -354.24951172 11.48486328 C-316.92117986 -27.08087185 -267.0029913 -53.26359715 -213.96630859 -61.73193359 C-212.9734082 -61.89274414 -211.98050781 -62.05355469 -210.95751953 -62.21923828 C-134.81812388 -73.99837924 -57.67291878 -50.79857038 0 0 Z M-242.89208984 46.02978516 C-246.32002378 49.7288551 -248.71354115 53.77701876 -250.96630859 58.26806641 C-251.29501953 58.90228516 -251.62373047 59.53650391 -251.96240234 60.18994141 C-254.78515919 66.51075578 -254.68860676 73.45000766 -254.96630859 80.26806641 C-255.63275391 80.17267578 -256.29919922 80.07728516 -256.98583984 79.97900391 C-270.1675092 78.3935164 -281.54511216 81.49634115 -292.27880859 89.51806641 C-302.86588965 100.35135865 -307.32169322 111.73795883 -307.18115234 126.69775391 C-306.66690006 135.24369192 -303.37716072 142.05030839 -298.96630859 149.26806641 C-299.58376953 149.41501953 -300.20123047 149.56197266 -300.83740234 149.71337891 C-312.0716489 152.68865881 -320.16126199 158.82540484 -326.96630859 168.26806641 C-333.07559206 180.07934778 -335.33633555 192.62339426 -331.40380859 205.58056641 C-326.19950109 219.16654811 -316.93389659 227.37972288 -303.96630859 233.26806641 C-302.63025978 233.92927424 -301.29596224 234.59409059 -299.96630859 235.26806641 C-300.59859375 236.58871094 -300.59859375 236.58871094 -301.24365234 237.93603516 C-301.79150391 239.09748047 -302.33935547 240.25892578 -302.90380859 241.45556641 C-303.72171875 243.17839844 -303.72171875 243.17839844 -304.55615234 244.93603516 C-308.44993204 254.13657277 -308.30977545 265.51450929 -305.00146484 274.90087891 C-298.84411929 288.98145024 -289.81245306 296.3851602 -275.96630859 302.26806641 C-273.19252633 303.09406193 -270.74649398 303.38761327 -267.85693359 303.36572266 C-266.72578125 303.36088867 -266.72578125 303.36088867 -265.57177734 303.35595703 C-264.79447266 303.34757812 -264.01716797 303.33919922 -263.21630859 303.33056641 C-262.02714844 303.32379883 -262.02714844 303.32379883 -260.81396484 303.31689453 C-258.86471351 303.30515205 -256.91550121 303.28721786 -254.96630859 303.26806641 C-254.95212891 304.13947266 -254.93794922 305.01087891 -254.92333984 305.90869141 C-254.38699131 319.30290878 -250.46925811 329.648414 -240.96630859 339.26806641 C-230.82847793 348.0418368 -220.31948133 351.19453191 -207.13037109 350.65087891 C-193.60811193 349.66957393 -184.64128149 342.75212692 -175.90380859 332.95556641 C-169.61982495 324.23907296 -167.65016917 315.76484239 -167.77099609 305.17822266 C-167.77382599 304.23369736 -167.77665588 303.28917206 -167.77957153 302.31602478 C-167.79070176 299.32073916 -167.815793 296.32576055 -167.84130859 293.33056641 C-167.85134765 291.29085721 -167.86047188 289.25114328 -167.86865234 287.21142578 C-167.88890989 282.23009463 -167.92807218 277.24942125 -167.96630859 272.26806641 C-159.71630859 272.26806641 -151.46630859 272.26806641 -142.96630859 272.26806641 C-142.30630859 274.24806641 -141.64630859 276.22806641 -140.96630859 278.26806641 C-139.94441779 280.18363231 -138.8669729 282.0703194 -137.74365234 283.92822266 C-137.12296875 284.96914063 -136.50228516 286.01005859 -135.86279297 287.08251953 C-134.55403373 289.25247628 -133.24413274 291.42174481 -131.93310547 293.59033203 C-131.31371094 294.62996094 -130.69431641 295.66958984 -130.05615234 296.74072266 C-129.48759521 297.68181885 -128.91903809 298.62291504 -128.33325195 299.5925293 C-126.9821822 302.23699678 -126.25291736 304.31864759 -125.96630859 307.26806641 C-127.32958984 309.29541016 -127.32958984 309.29541016 -129.27880859 311.20556641 C-134.33610669 316.61546497 -135.46158772 321.3684547 -135.27490234 328.68212891 C-134.43250306 335.74122167 -130.99779323 341.10243902 -125.80224609 345.82666016 C-119.48414963 350.78703802 -112.70553255 351.19430332 -104.96630859 350.26806641 C-97.04217186 347.84390615 -92.18648248 342.20120922 -87.96630859 335.26806641 C-85.94477856 329.2034763 -85.83211508 321.83297536 -88.52880859 315.95556641 C-92.13744129 309.87786923 -96.87173408 304.8945629 -103.70068359 302.68994141 C-108.0991493 301.87091676 -112.5149686 302.04713593 -116.96630859 302.26806641 C-117.2334668 301.39190674 -117.500625 300.51574707 -117.77587891 299.61303711 C-118.92410829 296.3866444 -120.28354724 293.69663763 -122.01318359 290.74853516 C-122.61130859 289.72566406 -123.20943359 288.70279297 -123.82568359 287.64892578 C-124.44958984 286.59511719 -125.07349609 285.54130859 -125.71630859 284.45556641 C-126.32474609 283.41335938 -126.93318359 282.37115234 -127.56005859 281.29736328 C-128.76897938 279.2398731 -129.99842532 277.19429227 -131.24902344 275.16186523 C-132.96630859 272.26806641 -132.96630859 272.26806641 -134.234375 269.52075195 C-135.59317657 266.83723777 -136.61357602 265.15498759 -138.96630859 263.26806641 C-143.97860812 262.17441092 -148.7428294 262.41931526 -153.84130859 262.70556641 C-158.50255859 262.89119141 -163.16380859 263.07681641 -167.96630859 263.26806641 C-167.96630859 250.06806641 -167.96630859 236.86806641 -167.96630859 223.26806641 C-161.03760502 223.08849986 -154.13541821 222.95316182 -147.20825195 222.92626953 C-144.85794561 222.90431461 -142.50772671 222.85752402 -140.15844727 222.78466797 C-119.56270289 222.17286992 -119.56270289 222.17286992 -114.13256836 227.19897461 C-111.64061376 230.09029017 -109.71172364 233.22007378 -107.90805054 236.57568359 C-106.66718084 238.80562202 -105.13216152 240.67787609 -103.47021484 242.60791016 C-102.97996826 243.20861328 -102.48972168 243.80931641 -101.98461914 244.42822266 C-101.50420166 245.01474609 -101.02378418 245.60126953 -100.52880859 246.20556641 C-94.29012559 253.85243367 -88.1191634 261.55205389 -81.96630859 269.26806641 C-83.04981768 272.04016108 -84.17414372 274.67542326 -85.52880859 277.33056641 C-88.19101598 282.77072932 -88.96321665 287.80056013 -87.24755859 293.76806641 C-84.41562503 301.44169284 -80.22396951 306.1009771 -73.19287109 310.24853516 C-67.12745903 313.02585542 -61.55201512 312.75314957 -55.27880859 310.76806641 C-48.57211995 308.00760475 -44.54245943 304.15767627 -41.09130859 297.83056641 C-38.89751337 290.88354819 -38.3159551 285.18203205 -40.96630859 278.26806641 C-44.76276176 271.23759757 -50.38948838 266.21977052 -57.99365234 263.72900391 C-62.32593385 262.71670843 -66.05038746 263.00437583 -70.29052734 264.22509766 C-73.96630859 264.26806641 -73.96630859 264.26806641 -75.57202148 263.07519531 C-77.25226816 261.19530743 -78.7386865 259.24866134 -80.21630859 257.20556641 C-80.77350586 256.47764893 -81.33070313 255.74973145 -81.90478516 254.99975586 C-83.05348215 253.49694804 -84.19246676 251.98666825 -85.32177734 250.46923828 C-87.72671882 247.25027268 -90.22329476 244.10640964 -92.71630859 240.95556641 C-93.61242562 239.80995493 -94.50826466 238.66412594 -95.40380859 237.51806641 C-98.4410866 233.64828147 -101.56179197 229.84871344 -104.70068359 226.06103516 C-106.96630859 223.26806641 -106.96630859 223.26806641 -108.27949524 221.0574646 C-110.6214872 217.41142022 -112.40406673 214.72502141 -116.67935181 213.47450256 C-119.97476441 213.22705951 -123.16037268 213.25520638 -126.46240234 213.38916016 C-127.65108414 213.40189468 -128.83976593 213.41462921 -130.06446838 213.42774963 C-133.84635841 213.47797379 -137.6233792 213.5908622 -141.40380859 213.70556641 C-143.97340056 213.75072648 -146.54306804 213.79178836 -149.11279297 213.82861328 C-155.39916294 213.92763345 -161.68191148 214.0828494 -167.96630859 214.26806641 C-167.96630859 208.32806641 -167.96630859 202.38806641 -167.96630859 196.26806641 C-131.33630859 196.26806641 -94.70630859 196.26806641 -56.96630859 196.26806641 C-56.63630859 197.91806641 -56.30630859 199.56806641 -55.96630859 201.26806641 C-52.40008832 207.71469536 -47.55454348 212.52330196 -40.65380859 215.20556641 C-34.86226701 216.85044301 -29.33152807 216.71457283 -23.76708984 214.32275391 C-16.67915459 210.24550353 -11.61231484 204.58369102 -9.38037109 196.65087891 C-8.03453591 188.90597835 -9.95896102 182.95748862 -14.22802734 176.46728516 C-18.45995856 171.11317892 -23.26175645 168.58503201 -29.96630859 167.26806641 C-37.21356108 166.59702451 -43.18930037 168.45233026 -49.21630859 172.39306641 C-53.15226999 176.50793514 -56.96630859 181.39730411 -56.96630859 187.26806641 C-93.59630859 187.26806641 -130.22630859 187.26806641 -167.96630859 187.26806641 C-167.96630859 181.32806641 -167.96630859 175.38806641 -167.96630859 169.26806641 C-166.41314941 169.32567139 -164.85999023 169.38327637 -163.25976562 169.44262695 C-157.46442146 169.64262388 -151.66937783 169.7683232 -145.87158203 169.87231445 C-143.36878066 169.92743298 -140.86633031 170.00235377 -138.36474609 170.09790039 C-124.17355251 171.3898203 -124.17355251 171.3898203 -111.23510742 167.01660156 C-108.68220094 164.23191585 -106.82355329 161.5476137 -104.96630859 158.26806641 C-103.96779277 156.99911922 -102.94885822 155.74564629 -101.89990234 154.51806641 C-101.0636892 153.43795776 -100.23156917 152.3546664 -99.40380859 151.26806641 C-98.47634417 150.06943654 -97.54794718 148.87152772 -96.61865234 147.67431641 C-96.17118652 147.09681641 -95.7237207 146.51931641 -95.26269531 145.92431641 C-92.66815898 142.60956415 -89.97853627 139.37474742 -87.26318359 136.15869141 C-85.50955185 133.95173989 -83.9606382 131.78767113 -82.41943359 129.43994141 C-79.84427112 125.63364992 -77.40584507 122.34912877 -73.96630859 119.26806641 C-70.31440393 118.64488936 -67.66169597 119.01800556 -64.04052734 119.72509766 C-58.44960861 120.71256615 -54.34040569 118.91297654 -49.77880859 115.75244141 C-44.56899651 111.50031536 -39.83467837 106.21502464 -38.96630859 99.26806641 C-38.3832216 91.83370718 -40.03377997 85.30246712 -44.71630859 79.45556641 C-49.1740092 74.67629038 -54.48688918 71.70590439 -61.04443359 71.06494141 C-69.23215721 70.88822795 -75.34197993 72.95075866 -81.42724609 78.52197266 C-85.66491009 83.32967775 -87.64918223 89.0968028 -88.27880859 95.39306641 C-87.81933286 101.09056552 -86.08885071 107.14552429 -81.96630859 111.26806641 C-82.31304577 114.53310482 -83.65085537 116.42506335 -85.73974609 118.88525391 C-86.31176758 119.5675708 -86.88378906 120.2498877 -87.47314453 120.95288086 C-88.08963867 121.67564209 -88.70613281 122.39840332 -89.34130859 123.14306641 C-90.62649118 124.67450466 -91.91032886 126.20707249 -93.19287109 127.74072266 C-93.83256836 128.50400879 -94.47226562 129.26729492 -95.13134766 130.05371094 C-97.72280804 133.18097886 -100.22661737 136.37207504 -102.71630859 139.58056641 C-107.05190843 145.16532539 -111.55678311 150.57860285 -116.16552734 155.93994141 C-118.17025031 158.04118176 -118.17025031 158.04118176 -117.96630859 160.26806641 C-134.46630859 160.26806641 -150.96630859 160.26806641 -167.96630859 160.26806641 C-167.96630859 147.06806641 -167.96630859 133.86806641 -167.96630859 120.26806641 C-154.21630859 120.51806641 -154.21630859 120.51806641 -149.89697266 120.62841797 C-148.77000977 120.6384082 -147.64304687 120.64839844 -146.48193359 120.65869141 C-145.32983398 120.67963867 -144.17773438 120.70058594 -142.99072266 120.72216797 C-139.21443262 120.15517576 -138.27692546 119.26388155 -135.96630859 116.26806641 C-134.64435172 114.19193494 -133.38799025 112.07331802 -132.18115234 109.92822266 C-131.83879044 109.32425156 -131.49642853 108.72028046 -131.14369202 108.0980072 C-130.0575537 106.17893722 -128.98047653 104.25496258 -127.90380859 102.33056641 C-126.8215329 100.41094475 -125.73744085 98.49235711 -124.6532135 96.57383728 C-123.66998954 94.83168583 -122.69095727 93.08717064 -121.7121582 91.3425293 C-120.59169423 89.3693783 -119.43619091 87.4154898 -118.23803711 85.48852539 C-116.80064475 83.4052902 -116.80064475 83.4052902 -116.96630859 81.26806641 C-116.28826172 81.32607422 -115.61021484 81.38408203 -114.91162109 81.44384766 C-107.44271511 81.80591374 -102.11351328 80.61710917 -95.96630859 76.26806641 C-90.94305065 71.65411097 -87.39428619 67.15470015 -86.63037109 60.21728516 C-86.5319115 51.99590877 -87.14683426 46.53587633 -92.69677734 40.33447266 C-97.87840594 35.35969551 -103.22056449 32.43782086 -110.47802734 32.17822266 C-118.06216013 32.63118005 -124.10843489 34.92745511 -129.27880859 40.58056641 C-133.86623887 46.49297655 -135.59332482 51.96987753 -135.38818359 59.41650391 C-134.51590743 65.31244462 -131.84646261 70.43739013 -127.59130859 74.58056641 C-126.78693359 75.41587891 -126.78693359 75.41587891 -125.96630859 76.26806641 C-126.33521096 80.55297311 -128.12918716 83.6688293 -130.27490234 87.33837891 C-130.60168472 87.90128632 -130.9284671 88.46419373 -131.26515198 89.04415894 C-132.30477676 90.83107167 -133.35420798 92.61199901 -134.40380859 94.39306641 C-135.1056102 95.59712667 -135.80678847 96.80155047 -136.50732422 98.00634766 C-141.49567693 106.56211891 -141.49567693 106.56211891 -143.96630859 110.26806641 C-146.39648438 110.70043945 -146.39648438 110.70043945 -149.41162109 110.77978516 C-150.48798828 110.81523437 -151.56435547 110.85068359 -152.67333984 110.88720703 C-153.80126953 110.90976563 -154.92919922 110.93232422 -156.09130859 110.95556641 C-157.22697266 110.98972656 -158.36263672 111.02388672 -159.53271484 111.05908203 C-162.34381438 111.14176143 -165.15459413 111.21084577 -167.96630859 111.26806641 C-167.94012451 110.00325439 -167.91394043 108.73844238 -167.88696289 107.43530273 C-167.79558089 102.68483592 -167.73874316 97.93444462 -167.69165039 93.18334961 C-167.66670476 91.13796875 -167.63273549 89.09267517 -167.58911133 87.04760742 C-167.26275296 71.34017119 -167.96119967 58.92049543 -178.73974609 46.48681641 C-187.28796155 37.96859469 -197.90687509 32.88027924 -210.00927734 32.17041016 C-223.12281996 32.6034862 -233.3945202 37.22837245 -242.89208984 46.02978516 Z " fill="#3582BA" transform="translate(426.96630859375,64.73193359375)"/>
</svg>
