<?xml version="1.0" encoding="UTF-8"?>
<svg version="1.1" xmlns="http://www.w3.org/2000/svg" width="512" height="512">
<path d="M0 0 C1.01823853 0.00215515 2.03647705 0.0043103 3.08557129 0.00653076 C17.70747424 0.05622604 32.00633932 0.36188758 46.375 3.3125 C47.89383789 3.61051514 47.89383789 3.61051514 49.44335938 3.91455078 C97.33223881 13.49089201 141.79848903 35.78506667 176.87475586 69.90942383 C178.93859956 71.83959628 181.16756034 73.55032168 183.375 75.3125 C184.47309154 76.46716769 185.5374861 77.65499631 186.5625 78.875 C189.33259955 82.1297174 192.19946722 85.25937713 195.125 88.375 C201.1093165 94.95684281 206.30422091 102.01172445 211.375 109.3125 C212.04184814 110.26672852 212.04184814 110.26672852 212.72216797 111.24023438 C225.77673454 130.10901967 235.95320481 150.62667186 243.375 172.3125 C243.64892578 173.0869043 243.92285156 173.86130859 244.20507812 174.65917969 C253.43500283 200.86994176 256.80341484 227.91222614 256.75 255.5625 C256.74918427 257.15105301 256.74918427 257.15105301 256.74835205 258.771698 C256.58274811 329.00962715 227.79894752 391.24474097 179.375 441.3125 C177.49561188 443.10564469 175.58592766 444.80348147 173.58984375 446.46484375 C171.84354723 447.9216308 170.13502023 449.42369359 168.44140625 450.94140625 C142.74643854 473.86658234 111.2138556 491.15538142 78.375 501.3125 C77.24118896 501.66368896 77.24118896 501.66368896 76.08447266 502.02197266 C67.56724042 504.61240769 58.97040003 506.71437025 50.25 508.5 C49.49976563 508.6549292 48.74953125 508.8098584 47.9765625 508.96948242 C32.3127607 512.02798624 16.98244069 512.71819876 1.0625 512.6875 C0.001521 512.68695618 -1.05945801 512.68641235 -2.15258789 512.68585205 C-18.6391791 512.64703011 -34.47176367 511.87963932 -50.625 508.3125 C-51.64835449 508.09287598 -52.67170898 507.87325195 -53.72607422 507.64697266 C-98.89354281 497.73831979 -139.94827683 476.50387258 -173.765625 444.92578125 C-175.74196714 443.11953413 -177.70890091 441.40114346 -179.77734375 439.7109375 C-182.08579368 437.76664634 -184.0079271 435.92353516 -185.9375 433.625 C-188.49457821 430.61568744 -191.12156708 427.70258138 -193.8125 424.8125 C-223.21842707 392.06725579 -242.23635664 350.92250253 -251.375 308.125 C-251.57383789 307.20017822 -251.77267578 306.27535645 -251.97753906 305.32250977 C-255.26941369 289.11581484 -256.0003085 273.18212105 -255.9375 256.6875 C-255.93534485 255.66959381 -255.9331897 254.65168762 -255.93096924 253.60293579 C-255.88129854 238.99386477 -255.63040191 224.66174147 -252.625 210.3125 C-252.42632324 209.33764648 -252.22764648 208.36279297 -252.02294922 207.35839844 C-241.77138226 158.35053302 -219.43217348 114.34635801 -184.625 78.3125 C-184.02606934 77.69165527 -183.42713867 77.07081055 -182.81005859 76.43115234 C-175.14623497 68.52999741 -167.40501606 60.98483045 -158.625 54.3125 C-158.08472168 53.89581055 -157.54444336 53.47912109 -156.98779297 53.04980469 C-125.1187531 28.55165293 -88.56685217 12.06060062 -49.1875 4 C-48.46860596 3.85264404 -47.74971191 3.70528809 -47.0090332 3.5534668 C-31.36274321 0.57960898 -15.88931915 -0.06049808 0 0 Z " fill="#A82372" transform="translate(255.625,-0.3125)"/>
<path d="M0 0 C1.01958963 -0.00657338 1.01958963 -0.00657338 2.05977702 -0.01327956 C4.33654611 -0.02662989 6.61327653 -0.03283789 8.89007568 -0.03897095 C10.52298659 -0.04687482 12.15589575 -0.05514395 13.7888031 -0.06375122 C19.15034322 -0.08993603 24.51189101 -0.10527427 29.87347412 -0.11953735 C31.72073115 -0.12489829 33.56798813 -0.1302758 35.41524506 -0.13566971 C43.09987843 -0.15729229 50.78450972 -0.17602868 58.4691658 -0.1872921 C69.47489547 -0.20353069 80.4802721 -0.23671339 91.48586869 -0.29369295 C99.22868549 -0.33241109 106.97140793 -0.35192695 114.71431899 -0.35721266 C119.33689013 -0.36086324 123.95908441 -0.37285344 128.5815506 -0.4053154 C132.93191451 -0.43542952 137.28167417 -0.4416961 141.63212013 -0.42993164 C143.22521787 -0.42971119 144.81834392 -0.43799259 146.41134453 -0.45558548 C162.29176258 -0.62136512 162.29176258 -0.62136512 168.23284912 5.15390015 C172.21587759 9.73655165 174.35405851 13.73851305 174.3670702 19.84232616 C174.37152804 20.81174969 174.37598589 21.78117321 174.38057882 22.77997321 C174.38030227 24.38120542 174.38030227 24.38120542 174.38002014 26.01478577 C174.38369683 27.14693207 174.38737352 28.27907838 174.39116162 29.44553214 C174.40222151 33.25937743 174.40604621 37.0731955 174.40985107 40.88705444 C174.4155808 43.61340062 174.42274764 46.33974269 174.42976379 49.06608582 C174.44952759 57.262197 174.45959441 65.45830941 174.46849158 73.65443847 C174.47287472 77.514167 174.47824147 81.37389415 174.48348045 85.2336216 C174.50049283 98.06437616 174.51498692 110.89512987 174.52222919 123.72589397 C174.52413909 127.05565581 174.52605942 130.38541764 174.52801514 133.71517944 C174.52849888 134.54277536 174.52898262 135.37037128 174.52948102 136.22304586 C174.53778103 149.62906922 174.5631174 163.03500334 174.59559581 176.44098773 C174.62866896 190.20467417 174.64667819 203.96831527 174.64987344 217.73204166 C174.65203832 225.45984703 174.66078379 233.18752228 174.68633461 240.91528893 C174.70804515 247.4967795 174.71609035 254.07810835 174.70636783 260.65963068 C174.70182394 264.01671089 174.70589673 267.37318697 174.72312927 270.73026657 C174.74078303 274.37315871 174.73377291 278.01520402 174.72059631 281.65809631 C174.73705018 283.24259812 174.73705018 283.24259812 174.75383645 284.85911006 C174.69354071 291.7626222 173.68828043 297.52251399 168.78553563 302.67491263 C163.69364223 307.11519085 160.16791271 308.40329585 153.45896912 308.41459656 C152.77853713 308.4184221 152.09810515 308.42224765 151.39705402 308.42618912 C149.11787515 308.43650476 146.83894888 308.43252974 144.55975342 308.42855835 C142.92521939 308.4329057 141.2906874 308.43808893 139.65615845 308.44404602 C135.21596134 308.45744675 130.77584929 308.45801336 126.3356359 308.45548272 C122.62797828 308.45441345 118.9203379 308.4592954 115.21268398 308.46408814 C106.4636146 308.47518765 97.71458815 308.47561864 88.96551514 308.46957397 C79.94394274 308.46353675 70.92252641 308.47583778 61.90098065 308.49714404 C54.15307391 308.51476861 46.4052168 308.52075994 38.65729076 308.5175063 C34.03095656 308.51569421 29.40473362 308.51832193 24.77841759 308.53222084 C20.42568637 308.544808 16.07319797 308.5428467 11.72047043 308.52980995 C10.12536219 308.52744632 8.53023683 308.53017122 6.93514824 308.53843307 C4.75237877 308.54892105 2.5704209 308.54078426 0.38768005 308.52812195 C-0.83218755 308.52828969 -2.05205515 308.52845743 -3.30888844 308.52863026 C-9.8609749 307.81865982 -14.49290291 305.25925189 -18.76715088 300.15390015 C-22.56059955 294.46229996 -22.15419083 289.00110216 -22.06011963 282.41171265 C-22.05587479 281.28820404 -22.05162994 280.16469543 -22.04725647 279.00714111 C-22.03050978 275.43081351 -21.99286384 271.85505646 -21.95465088 268.27890015 C-21.93959891 265.8492208 -21.9259114 263.4195326 -21.91363525 260.98983765 C-21.88061934 255.04433161 -21.83045938 249.09915665 -21.76715088 243.15390015 C-22.79755241 243.19427902 -22.79755241 243.19427902 -23.84877014 243.23547363 C-24.74971909 243.25641083 -25.65066803 243.27734802 -26.57891846 243.29891968 C-27.47210281 243.32583893 -28.36528717 243.35275818 -29.28553772 243.38049316 C-31.76715088 243.15390015 -31.76715088 243.15390015 -34.77886963 240.83358765 C-37.70019117 236.46508836 -38.03619049 231.3881201 -38.57965088 226.27890015 C-38.70017822 225.3043689 -38.82070557 224.32983765 -38.94488525 223.32577515 C-39.23766069 220.9367276 -39.51112198 218.54711672 -39.76715088 216.15390015 C-42.7219352 214.77054635 -45.53529945 213.66883654 -48.76715088 213.15390015 C-51.53901555 214.64394007 -52.91651949 215.61547815 -55.01715088 217.77890015 C-63.47582152 225.81463726 -63.47582152 225.81463726 -69.19683838 226.66171265 C-73.66277144 226.02651429 -75.83751493 224.12362318 -78.89215088 221.02890015 C-79.39101807 220.55452515 -79.88988525 220.08015015 -80.40386963 219.59140015 C-90.39371185 209.94063874 -90.39371185 209.94063874 -91.13043213 204.44296265 C-90.65589398 200.14660649 -88.64454054 197.7313279 -85.95465088 194.52890015 C-85.50283447 193.96944702 -85.05101807 193.4099939 -84.58551025 192.83358765 C-80.91246018 188.28651252 -80.91246018 188.28651252 -78.75543213 186.31796265 C-77.4492567 183.45779984 -78.11281495 182.34539743 -79.07965088 179.40390015 C-79.62390129 177.98012271 -80.18089929 176.56090397 -80.76715088 175.15390015 C-81.40741211 175.09444214 -82.04767334 175.03498413 -82.70733643 174.97372437 C-85.62663005 174.68668472 -88.53984091 174.35825721 -91.45465088 174.02890015 C-92.46205322 173.93608765 -93.46945557 173.84327515 -94.50738525 173.74765015 C-99.18788682 173.19155095 -102.08925424 172.652919 -105.93511963 169.8218689 C-109.10803296 165.05202604 -108.48709036 159.08839601 -108.39215088 153.59140015 C-108.41148682 152.46798218 -108.43082275 151.34456421 -108.45074463 150.18710327 C-108.42255512 145.44280959 -108.33720581 142.13842998 -105.93511963 137.98983765 C-101.27957646 135.29180399 -96.75173593 134.87348099 -91.45465088 134.34140015 C-90.4279126 134.2208728 -89.40117432 134.10034546 -88.34332275 133.97616577 C-85.81946607 133.68269406 -83.29509255 133.40933454 -80.76715088 133.15390015 C-79.27785471 130.19563949 -78.181602 127.45386946 -77.76715088 124.15390015 C-79.07779952 121.10463595 -81.2012043 118.99502005 -83.51715088 116.65390015 C-87.89390598 112.11106282 -90.7132483 108.71251993 -91.00152588 102.21102905 C-90.62660074 98.92027985 -89.21851004 97.37467859 -86.89215088 95.09140015 C-86.06199463 94.26768921 -85.23183838 93.44397827 -84.37652588 92.5953064 C-83.51543213 91.78964233 -82.65433838 90.98397827 -81.76715088 90.15390015 C-80.98855713 89.35854858 -80.20996338 88.56319702 -79.40777588 87.7437439 C-76.17735864 84.58573256 -73.75763747 82.44737766 -69.39215088 81.15390015 C-62.33782713 83.09992049 -56.68555121 88.1715636 -51.64215088 93.34140015 C-48.99688741 95.47636053 -48.99688741 95.47636053 -46.51763916 94.6746521 C-45.31470215 94.2254541 -45.31470215 94.2254541 -44.08746338 93.7671814 C-43.27809326 93.47238892 -42.46872314 93.17759644 -41.63482666 92.87387085 C-41.01849365 92.63628052 -40.40216064 92.39869019 -39.76715088 92.15390015 C-39.67010864 91.24680298 -39.67010864 91.24680298 -39.57110596 90.32138062 C-39.26250211 87.5542769 -38.92139565 84.79209852 -38.57965088 82.02890015 C-38.47845947 81.07757202 -38.37726807 80.1262439 -38.27301025 79.14608765 C-37.73009593 74.92015996 -37.18179301 71.0675073 -34.77886963 67.47421265 C-31.4153555 64.88286713 -30.63463413 64.88664737 -26.57891846 65.00888062 C-25.67796951 65.02981781 -24.77702057 65.050755 -23.84877014 65.07232666 C-23.16183578 65.09924591 -22.47490143 65.12616516 -21.76715088 65.15390015 C-21.77825394 64.52020508 -21.78935699 63.88651001 -21.80079651 63.23361206 C-21.91175076 56.61473745 -21.98696772 49.9961287 -22.04180908 43.3765564 C-22.06689246 40.90899924 -22.10096735 38.44151595 -22.14434814 35.97421265 C-22.20526835 32.41933936 -22.23342375 28.86545174 -22.25543213 25.31015015 C-22.28123856 24.21400391 -22.30704498 23.11785767 -22.33363342 21.98849487 C-22.33612311 15.12916333 -21.38183973 10.38922127 -16.76715088 5.15390015 C-11.11909394 0.65850789 -7.07550036 0.03238507 0 0 Z " fill="#9D236C" transform="translate(211.76715087890625,101.84609985351563)"/>
<path d="M0 0 C1.01958963 -0.00657338 1.01958963 -0.00657338 2.05977702 -0.01327956 C4.33654611 -0.02662989 6.61327653 -0.03283789 8.89007568 -0.03897095 C10.52298659 -0.04687482 12.15589575 -0.05514395 13.7888031 -0.06375122 C19.15034322 -0.08993603 24.51189101 -0.10527427 29.87347412 -0.11953735 C31.72073115 -0.12489829 33.56798813 -0.1302758 35.41524506 -0.13566971 C43.09987843 -0.15729229 50.78450972 -0.17602868 58.4691658 -0.1872921 C69.47489547 -0.20353069 80.4802721 -0.23671339 91.48586869 -0.29369295 C99.22868549 -0.33241109 106.97140793 -0.35192695 114.71431899 -0.35721266 C119.33689013 -0.36086324 123.95908441 -0.37285344 128.5815506 -0.4053154 C132.93191451 -0.43542952 137.28167417 -0.4416961 141.63212013 -0.42993164 C143.22521787 -0.42971119 144.81834392 -0.43799259 146.41134453 -0.45558548 C162.29176258 -0.62136512 162.29176258 -0.62136512 168.23284912 5.15390015 C172.21587759 9.73655165 174.35405851 13.73851305 174.3670702 19.84232616 C174.37152804 20.81174969 174.37598589 21.78117321 174.38057882 22.77997321 C174.38030227 24.38120542 174.38030227 24.38120542 174.38002014 26.01478577 C174.38369683 27.14693207 174.38737352 28.27907838 174.39116162 29.44553214 C174.40222151 33.25937743 174.40604621 37.0731955 174.40985107 40.88705444 C174.4155808 43.61340062 174.42274764 46.33974269 174.42976379 49.06608582 C174.44952759 57.262197 174.45959441 65.45830941 174.46849158 73.65443847 C174.47287472 77.514167 174.47824147 81.37389415 174.48348045 85.2336216 C174.50049283 98.06437616 174.51498692 110.89512987 174.52222919 123.72589397 C174.52413909 127.05565581 174.52605942 130.38541764 174.52801514 133.71517944 C174.52849888 134.54277536 174.52898262 135.37037128 174.52948102 136.22304586 C174.53778103 149.62906922 174.5631174 163.03500334 174.59559581 176.44098773 C174.62866896 190.20467417 174.64667819 203.96831527 174.64987344 217.73204166 C174.65203832 225.45984703 174.66078379 233.18752228 174.68633461 240.91528893 C174.70804515 247.4967795 174.71609035 254.07810835 174.70636783 260.65963068 C174.70182394 264.01671089 174.70589673 267.37318697 174.72312927 270.73026657 C174.74078303 274.37315871 174.73377291 278.01520402 174.72059631 281.65809631 C174.73705018 283.24259812 174.73705018 283.24259812 174.75383645 284.85911006 C174.69354071 291.7626222 173.68828043 297.52251399 168.78553563 302.67491263 C163.69364223 307.11519085 160.16791271 308.40329585 153.45896912 308.41459656 C152.77853713 308.4184221 152.09810515 308.42224765 151.39705402 308.42618912 C149.11787515 308.43650476 146.83894888 308.43252974 144.55975342 308.42855835 C142.92521939 308.4329057 141.2906874 308.43808893 139.65615845 308.44404602 C135.21596134 308.45744675 130.77584929 308.45801336 126.3356359 308.45548272 C122.62797828 308.45441345 118.9203379 308.4592954 115.21268398 308.46408814 C106.4636146 308.47518765 97.71458815 308.47561864 88.96551514 308.46957397 C79.94394274 308.46353675 70.92252641 308.47583778 61.90098065 308.49714404 C54.15307391 308.51476861 46.4052168 308.52075994 38.65729076 308.5175063 C34.03095656 308.51569421 29.40473362 308.51832193 24.77841759 308.53222084 C20.42568637 308.544808 16.07319797 308.5428467 11.72047043 308.52980995 C10.12536219 308.52744632 8.53023683 308.53017122 6.93514824 308.53843307 C4.75237877 308.54892105 2.5704209 308.54078426 0.38768005 308.52812195 C-0.83218755 308.52828969 -2.05205515 308.52845743 -3.30888844 308.52863026 C-9.8609749 307.81865982 -14.49290291 305.25925189 -18.76715088 300.15390015 C-22.56059955 294.46229996 -22.15419083 289.00110216 -22.06011963 282.41171265 C-22.05587479 281.28820404 -22.05162994 280.16469543 -22.04725647 279.00714111 C-22.03050978 275.43081351 -21.99286384 271.85505646 -21.95465088 268.27890015 C-21.93959891 265.8492208 -21.9259114 263.4195326 -21.91363525 260.98983765 C-21.88061934 255.04433161 -21.83045938 249.09915665 -21.76715088 243.15390015 C-22.79755241 243.19427902 -22.79755241 243.19427902 -23.84877014 243.23547363 C-24.74971909 243.25641083 -25.65066803 243.27734802 -26.57891846 243.29891968 C-27.47210281 243.32583893 -28.36528717 243.35275818 -29.28553772 243.38049316 C-31.76715088 243.15390015 -31.76715088 243.15390015 -34.77886963 240.83358765 C-37.70019117 236.46508836 -38.03619049 231.3881201 -38.57965088 226.27890015 C-38.70017822 225.3043689 -38.82070557 224.32983765 -38.94488525 223.32577515 C-39.23766069 220.9367276 -39.51112198 218.54711672 -39.76715088 216.15390015 C-42.7219352 214.77054635 -45.53529945 213.66883654 -48.76715088 213.15390015 C-51.53901555 214.64394007 -52.91651949 215.61547815 -55.01715088 217.77890015 C-63.47582152 225.81463726 -63.47582152 225.81463726 -69.19683838 226.66171265 C-73.66277144 226.02651429 -75.83751493 224.12362318 -78.89215088 221.02890015 C-79.39101807 220.55452515 -79.88988525 220.08015015 -80.40386963 219.59140015 C-90.39371185 209.94063874 -90.39371185 209.94063874 -91.13043213 204.44296265 C-90.65589398 200.14660649 -88.64454054 197.7313279 -85.95465088 194.52890015 C-85.50283447 193.96944702 -85.05101807 193.4099939 -84.58551025 192.83358765 C-80.91246018 188.28651252 -80.91246018 188.28651252 -78.75543213 186.31796265 C-77.4492567 183.45779984 -78.11281495 182.34539743 -79.07965088 179.40390015 C-79.62390129 177.98012271 -80.18089929 176.56090397 -80.76715088 175.15390015 C-81.40741211 175.09444214 -82.04767334 175.03498413 -82.70733643 174.97372437 C-85.62663005 174.68668472 -88.53984091 174.35825721 -91.45465088 174.02890015 C-92.46205322 173.93608765 -93.46945557 173.84327515 -94.50738525 173.74765015 C-99.18788682 173.19155095 -102.08925424 172.652919 -105.93511963 169.8218689 C-109.10803296 165.05202604 -108.48709036 159.08839601 -108.39215088 153.59140015 C-108.41148682 152.46798218 -108.43082275 151.34456421 -108.45074463 150.18710327 C-108.42255512 145.44280959 -108.33720581 142.13842998 -105.93511963 137.98983765 C-101.27957646 135.29180399 -96.75173593 134.87348099 -91.45465088 134.34140015 C-90.4279126 134.2208728 -89.40117432 134.10034546 -88.34332275 133.97616577 C-85.81946607 133.68269406 -83.29509255 133.40933454 -80.76715088 133.15390015 C-79.27785471 130.19563949 -78.181602 127.45386946 -77.76715088 124.15390015 C-79.07779952 121.10463595 -81.2012043 118.99502005 -83.51715088 116.65390015 C-87.89390598 112.11106282 -90.7132483 108.71251993 -91.00152588 102.21102905 C-90.62660074 98.92027985 -89.21851004 97.37467859 -86.89215088 95.09140015 C-86.06199463 94.26768921 -85.23183838 93.44397827 -84.37652588 92.5953064 C-83.51543213 91.78964233 -82.65433838 90.98397827 -81.76715088 90.15390015 C-80.98855713 89.35854858 -80.20996338 88.56319702 -79.40777588 87.7437439 C-76.17735864 84.58573256 -73.75763747 82.44737766 -69.39215088 81.15390015 C-62.33782713 83.09992049 -56.68555121 88.1715636 -51.64215088 93.34140015 C-48.99688741 95.47636053 -48.99688741 95.47636053 -46.51763916 94.6746521 C-45.31470215 94.2254541 -45.31470215 94.2254541 -44.08746338 93.7671814 C-43.27809326 93.47238892 -42.46872314 93.17759644 -41.63482666 92.87387085 C-41.01849365 92.63628052 -40.40216064 92.39869019 -39.76715088 92.15390015 C-39.67010864 91.24680298 -39.67010864 91.24680298 -39.57110596 90.32138062 C-39.26250211 87.5542769 -38.92139565 84.79209852 -38.57965088 82.02890015 C-38.47845947 81.07757202 -38.37726807 80.1262439 -38.27301025 79.14608765 C-37.73009593 74.92015996 -37.18179301 71.0675073 -34.77886963 67.47421265 C-31.4153555 64.88286713 -30.63463413 64.88664737 -26.57891846 65.00888062 C-25.67796951 65.02981781 -24.77702057 65.050755 -23.84877014 65.07232666 C-23.16183578 65.09924591 -22.47490143 65.12616516 -21.76715088 65.15390015 C-21.77825394 64.52020508 -21.78935699 63.88651001 -21.80079651 63.23361206 C-21.91175076 56.61473745 -21.98696772 49.9961287 -22.04180908 43.3765564 C-22.06689246 40.90899924 -22.10096735 38.44151595 -22.14434814 35.97421265 C-22.20526835 32.41933936 -22.23342375 28.86545174 -22.25543213 25.31015015 C-22.28123856 24.21400391 -22.30704498 23.11785767 -22.33363342 21.98849487 C-22.33612311 15.12916333 -21.38183973 10.38922127 -16.76715088 5.15390015 C-11.11909394 0.65850789 -7.07550036 0.03238507 0 0 Z M-13.76715088 13.15390015 C-14.90556056 15.43071951 -14.89150057 16.6668096 -14.89019871 19.19501686 C-14.89218976 20.04546408 -14.8941808 20.8959113 -14.89623219 21.77212965 C-14.89331935 22.71180441 -14.8904065 23.65147916 -14.8874054 24.61962891 C-14.88825982 25.61364098 -14.88911425 26.60765305 -14.88999456 27.6317867 C-14.89165002 30.98373962 -14.8861269 34.3356432 -14.88067627 37.68759155 C-14.88039439 40.08194477 -14.88055215 42.47629808 -14.88111877 44.87065125 C-14.88134696 50.03642891 -14.87849889 55.20219529 -14.87288094 60.36796951 C-14.86476353 67.83686708 -14.86215047 75.30575854 -14.86089294 82.77466004 C-14.85870281 94.89163676 -14.85204375 107.00860676 -14.84259033 119.12557983 C-14.83341523 130.89804043 -14.82634634 142.6704992 -14.82208252 154.44296265 C-14.82181452 155.17567989 -14.82154652 155.90839713 -14.82127041 156.66331792 C-14.81895765 163.03662439 -14.81680481 169.40993092 -14.8146677 175.78323746 C-14.80525332 203.24013135 -14.78533425 230.69700742 -14.76715088 258.15390015 C45.29284912 258.15390015 105.35284912 258.15390015 167.23284912 258.15390015 C167.37847729 215.31310286 167.37847729 215.31310286 167.47698975 172.47225952 C167.48677902 166.69646128 167.4968814 160.92066371 167.50750732 155.14486694 C167.50882607 154.42097092 167.51014481 153.69707489 167.51150352 152.95124263 C167.53324653 141.26645005 167.57266358 129.58178058 167.6186131 117.89706098 C167.66538078 105.90421325 167.69314515 93.91142994 167.70329159 81.91849476 C167.70953492 75.1826882 167.72454335 68.44713817 167.7614994 61.71142387 C167.79541774 55.37244631 167.80591022 49.03386293 167.79838753 42.69480324 C167.79976391 40.36757643 167.80972069 38.04033655 167.8288765 35.71318817 C167.85374851 32.53595314 167.84777457 29.360207 167.8341217 26.18293762 C167.84868591 25.26171802 167.86325012 24.34049843 167.87825567 23.39136308 C167.80473196 17.06265107 166.43364555 13.92202489 162.23284912 9.15390015 C158.27274188 6.76037017 154.52112396 6.92107484 149.96331787 6.95858765 C149.28231522 6.96141754 148.60131256 6.96424744 147.89967346 6.96716309 C145.73971457 6.9782949 143.58018118 7.00338558 141.42034912 7.02890015 C139.94965201 7.03893903 138.47894836 7.04806329 137.00823975 7.0562439 C133.41630627 7.07821101 129.82461927 7.11269195 126.23284912 7.15390015 C126.22874023 7.96020874 126.22463135 8.76651733 126.22039795 9.59725952 C126.18731468 13.28352951 126.11665027 16.96817929 126.04534912 20.65390015 C126.03664795 22.5565564 126.03664795 22.5565564 126.027771 24.49765015 C125.87320322 31.09254181 125.53949842 36.17920496 121.78631592 41.71835327 C117.69249553 45.50142161 112.72542575 45.45970964 107.43255615 45.47616577 C106.27789856 45.49106049 106.27789856 45.49106049 105.09991455 45.5062561 C102.56346003 45.53537119 100.0272555 45.54908013 97.49066162 45.56015015 C95.72095742 45.57166222 93.95125323 45.58317757 92.18154907 45.59469604 C88.47451623 45.61567853 84.76756967 45.62738876 81.06048584 45.6343689 C76.3200952 45.64534108 71.58085275 45.69341387 66.84082222 45.75031281 C63.18613388 45.78763459 59.53172054 45.79798022 55.87685776 45.80104065 C54.12977688 45.80707777 52.38269993 45.82308151 50.63580704 45.84941101 C35.27138727 46.06448931 35.27138727 46.06448931 30.66986084 42.30038452 C27.26631969 37.90599078 27.08226556 34.94195222 26.91644287 29.5171814 C26.87454834 28.21845093 26.83265381 26.91972046 26.78948975 25.58163452 C26.74967925 24.20989254 26.70996696 22.83814771 26.67034912 21.46640015 C26.62714077 20.08292369 26.58352574 18.69945988 26.53948975 17.31600952 C26.43326884 13.92874295 26.33122555 10.54140215 26.23284912 7.15390015 C21.66145894 7.00474578 17.09150682 6.89631498 12.51824951 6.8243103 C10.96526395 6.7942744 9.41244609 6.75343114 7.86004639 6.70126343 C-4.36460011 6.08346831 -4.36460011 6.08346831 -13.76715088 13.15390015 Z " fill="#FCF9FB" transform="translate(211.76715087890625,101.84609985351563)"/>
<path d="M0 0 C60.06 0 120.12 0 182 0 C182 26 182 26 177 34 C173.21783213 36.34720694 169.60906421 36.2590442 165.21975708 36.28088379 C164.55072133 36.28682603 163.88168558 36.29276828 163.19237602 36.29889059 C160.9577893 36.3161891 158.72341781 36.3192745 156.48876953 36.32226562 C154.88364203 36.3315272 153.27851891 36.34157722 151.67340088 36.35235596 C147.31799558 36.37855402 142.96265187 36.39148349 138.60718012 36.40037727 C135.8848898 36.40624552 133.1626162 36.41445631 130.44033432 36.42338562 C121.91925357 36.4507195 113.39821117 36.47006185 104.87708962 36.4777894 C95.04691994 36.48675377 85.21730606 36.52186994 75.38730538 36.57979059 C67.7837495 36.62303506 60.18034997 36.64319843 52.57667243 36.64587164 C48.03736921 36.64796657 43.498589 36.65975577 38.95941544 36.69551086 C34.68937363 36.72849352 30.42024747 36.7327749 26.1501236 36.71523285 C24.58562897 36.71369325 23.02108489 36.72236317 21.45671463 36.74214935 C8.17639498 36.90023193 8.17639498 36.90023193 3.57687378 33.14294434 C-4.61884116 24.61907034 0 10.38110385 0 0 Z " fill="#9D216A" transform="translate(197,367)"/>
<path d="M0 0 C43.89 0 87.78 0 133 0 C133 12.21 133 24.42 133 37 C89.11 37 45.22 37 0 37 C0 24.79 0 12.58 0 0 Z " fill="#9D226A" transform="translate(221,173)"/>
<path d="M0 0 C1.98 0 3.96 0 6 0 C6 14.19 6 28.38 6 43 C2.7 43.99 -0.6 44.98 -4 46 C-14.21479847 50.42133068 -19.87480782 56.106826 -25 66 C-25.34289062 66.62519531 -25.68578125 67.25039062 -26.0390625 67.89453125 C-30.05586726 76.51001436 -29.03066842 87.16716942 -25.9375 95.875 C-21.11172326 106.86105599 -14.6997546 113.19479001 -3.72265625 117.99609375 C-0.52124815 119.2420794 2.66628968 120.16657242 6 121 C6 135.19 6 149.38 6 164 C4.02 164 2.04 164 0 164 C-1.81797654 158.37038358 -2.57950105 152.9422633 -3.125 147.0625 C-3.21136719 146.18787109 -3.29773438 145.31324219 -3.38671875 144.41210938 C-3.59689697 142.27529746 -3.79925518 140.13771878 -4 138 C-4.90492188 137.87882813 -5.80984375 137.75765625 -6.7421875 137.6328125 C-10.40353229 136.92161603 -12.89004855 135.59414843 -16.0703125 133.7421875 C-18.6351795 132.75570019 -19.46141537 132.91858128 -22 134 C-24.23683097 135.57594909 -26.36847256 137.16881137 -28.5 138.875 C-29.63533345 139.76833494 -30.77074818 140.66156658 -31.90625 141.5546875 C-33.43765625 142.76511719 -33.43765625 142.76511719 -35 144 C-36.329179 145.00551528 -37.66038911 146.00842527 -39 147 C-43.32504836 145.34136495 -46.09418825 142.128959 -49.25 138.875 C-50.08144531 138.03001953 -50.08144531 138.03001953 -50.9296875 137.16796875 C-52.29104485 135.78313972 -53.64614859 134.39216796 -55 133 C-52.96258994 128.10777584 -49.26121413 124.24771274 -45.90039062 120.22070312 C-42.1323571 115.66737616 -42.1323571 115.66737616 -41 110 C-41.95308501 106.89422044 -41.95308501 106.89422044 -43.4375 103.8125 C-46 98.14986376 -46 98.14986376 -46 96 C-47.21816406 95.86722656 -48.43632812 95.73445313 -49.69140625 95.59765625 C-51.3151107 95.41933033 -52.93880825 95.24094157 -54.5625 95.0625 C-55.36236328 94.97548828 -56.16222656 94.88847656 -56.98632812 94.79882812 C-70.7140195 93.2859805 -70.7140195 93.2859805 -72 92 C-72.08669432 90.5112814 -72.10703494 89.018555 -72.09765625 87.52734375 C-72.09443359 86.62822266 -72.09121094 85.72910156 -72.08789062 84.80273438 C-72.07951172 83.85720703 -72.07113281 82.91167969 -72.0625 81.9375 C-72.05798828 80.98810547 -72.05347656 80.03871094 -72.04882812 79.06054688 C-72.0370011 76.70696935 -72.02052025 74.35351523 -72 72 C-68.58177032 70.49565773 -65.63431444 69.68638284 -61.91796875 69.3671875 C-60.98662109 69.28339844 -60.05527344 69.19960937 -59.09570312 69.11328125 C-58.13599609 69.03464844 -57.17628906 68.95601563 -56.1875 68.875 C-55.20845703 68.78863281 -54.22941406 68.70226562 -53.22070312 68.61328125 C-50.81431022 68.40198821 -48.40753388 68.19779237 -46 68 C-45.80664062 67.32453125 -45.61328125 66.6490625 -45.4140625 65.953125 C-45.15367187 65.06109375 -44.89328125 64.1690625 -44.625 63.25 C-44.36976563 62.36828125 -44.11453125 61.4865625 -43.8515625 60.578125 C-43 58 -43 58 -41.8359375 55.984375 C-40.68646956 53.25573149 -41.09752024 51.78861615 -42 49 C-43.27714909 46.91570823 -43.27714909 46.91570823 -44.94140625 45.01171875 C-45.52470703 44.30595703 -46.10800781 43.60019531 -46.70898438 42.87304688 C-47.62647461 41.79120117 -47.62647461 41.79120117 -48.5625 40.6875 C-49.17802734 39.94693359 -49.79355469 39.20636719 -50.42773438 38.44335938 C-51.94370442 36.62184498 -53.46784356 34.80790012 -55 33 C-53.71825282 30.18121988 -52.38992385 28.14758504 -50.1796875 25.984375 C-49.64472656 25.45585937 -49.10976562 24.92734375 -48.55859375 24.3828125 C-48.00300781 23.84398437 -47.44742188 23.30515625 -46.875 22.75 C-46.31167969 22.19570312 -45.74835938 21.64140625 -45.16796875 21.0703125 C-43.78313972 19.70895515 -42.39216796 18.35385141 -41 17 C-35.14089074 18.7690003 -31.03416283 22.96195304 -26.52734375 26.91992188 C-22.89943021 30.14790238 -22.89943021 30.14790238 -18.3203125 30.9921875 C-17.55460937 30.66476563 -16.78890625 30.33734375 -16 30 C-15.22398437 29.67902344 -14.44796875 29.35804688 -13.6484375 29.02734375 C-12.1275623 28.2982644 -10.60672925 27.56909713 -9.0859375 26.83984375 C-7 26 -7 26 -4 26 C-3.91435791 25.2479126 -3.82871582 24.4958252 -3.74047852 23.72094727 C-3.35229855 20.33426705 -2.95749016 16.94839239 -2.5625 13.5625 C-2.36043945 11.78649414 -2.36043945 11.78649414 -2.15429688 9.97460938 C-1.95610352 8.28754883 -1.95610352 8.28754883 -1.75390625 6.56640625 C-1.63345947 5.52427979 -1.5130127 4.48215332 -1.38891602 3.40844727 C-1 1 -1 1 0 0 Z " fill="#AC2368" transform="translate(183,174)"/>
<path d="M0 0 C1.80462456 -0.00845947 1.80462456 -0.00845947 3.64570618 -0.01708984 C4.98593199 -0.0132009 6.32615722 -0.00910454 7.66638184 -0.00482178 C9.07228273 -0.00753065 10.47818221 -0.011091 11.88407898 -0.01544189 C15.70838825 -0.02458051 19.53258995 -0.02101562 23.35690117 -0.01468372 C27.35317151 -0.00963132 31.34943244 -0.01431305 35.34570312 -0.01745605 C42.05759338 -0.02109792 48.76943966 -0.01629083 55.48132324 -0.0067749 C63.24870213 0.00411008 71.01597603 0.00058466 78.78335238 -0.01042771 C85.44409985 -0.01949432 92.10481566 -0.02078895 98.7655673 -0.01555037 C102.74731893 -0.01242721 106.72902117 -0.01203078 110.71076965 -0.01862335 C114.45359033 -0.0243871 118.19627523 -0.02041787 121.93908119 -0.00883484 C123.31536445 -0.00618303 124.69165907 -0.00696219 126.06793785 -0.01136017 C127.94136531 -0.0167963 129.81481765 -0.00878194 131.68823242 0 C132.73832237 0.00075405 133.78841232 0.0015081 134.87032318 0.002285 C137.34411621 0.25396729 137.34411621 0.25396729 139.34411621 2.25396729 C139.58462524 4.35470581 139.58462524 4.35470581 139.57116699 6.97906494 C139.5709404 8.45036362 139.5709404 8.45036362 139.57070923 9.9513855 C139.56038666 11.01287811 139.55006409 12.07437073 139.53942871 13.16802979 C139.53659882 14.25280609 139.53376892 15.3375824 139.53085327 16.45523071 C139.51963199 19.92992042 139.49452383 23.4043551 139.46911621 26.87896729 C139.45908893 29.23052607 139.44996265 31.58208888 139.44177246 33.93365479 C139.41968632 39.70717973 139.38618966 45.48055529 139.34411621 51.25396729 C136.68343922 52.58430578 134.6688905 52.38292321 131.68823242 52.38768005 C130.48514938 52.39194504 129.28206635 52.39621002 128.04252625 52.40060425 C126.70230099 52.40025471 125.36207577 52.39979316 124.02185059 52.39923096 C122.61595063 52.40222179 121.21005149 52.40562414 119.80415344 52.40940857 C115.97987501 52.41825942 112.15561894 52.42058711 108.33133125 52.42122436 C105.14274085 52.42217246 101.95415569 52.42584953 98.7655673 52.42939645 C91.2460119 52.43754477 83.72646848 52.4399803 76.20690918 52.43927002 C68.43953717 52.43866878 60.6722345 52.44922886 52.90488005 52.46501368 C46.2441384 52.47806931 39.58341947 52.48345477 32.92266512 52.48281461 C28.94090623 52.48255908 24.95920896 52.48544033 20.97746277 52.49599266 C17.23465331 52.50564074 13.49196484 52.50577562 9.74915123 52.49847603 C8.37286389 52.49742614 6.99656915 52.49981687 5.62029457 52.50583649 C3.74687809 52.51350205 1.87342077 52.50773703 0 52.50120544 C-1.05008995 52.50175021 -2.1001799 52.50229498 -3.18209076 52.50285625 C-5.65588379 52.25396729 -5.65588379 52.25396729 -7.65588379 50.25396729 C-7.90985107 48.20465088 -7.90985107 48.20465088 -7.91467285 45.65240479 C-7.92097717 44.69801514 -7.92728149 43.74362549 -7.93377686 42.76031494 C-7.92972839 41.72697021 -7.92567993 40.69362549 -7.92150879 39.62896729 C-7.92342224 38.57113037 -7.92533569 37.51329346 -7.92730713 36.42340088 C-7.92866981 34.18397789 -7.92496761 31.94454703 -7.91662598 29.70513916 C-7.90592781 26.26811051 -7.91651866 22.83160459 -7.92932129 19.39459229 C-7.92799971 17.22271613 -7.92543735 15.05084029 -7.92150879 12.87896729 C-7.92758148 11.3289502 -7.92758148 11.3289502 -7.93377686 9.74761963 C-7.92747253 8.79322998 -7.92116821 7.83884033 -7.91467285 6.85552979 C-7.91308167 6.01328857 -7.91149048 5.17104736 -7.90985107 4.30328369 C-7.31769986 -0.47491122 -3.9791456 0.00285735 0 0 Z M-0.65588379 8.25396729 C-0.65588379 20.46396729 -0.65588379 32.67396729 -0.65588379 45.25396729 C43.23411621 45.25396729 87.12411621 45.25396729 132.34411621 45.25396729 C132.34411621 33.04396729 132.34411621 20.83396729 132.34411621 8.25396729 C88.45411621 8.25396729 44.56411621 8.25396729 -0.65588379 8.25396729 Z " fill="#F9F3F7" transform="translate(221.6558837890625,164.74603271484375)"/>
<path d="M0 0 C28.05 0 56.1 0 85 0 C85 9.24 85 18.48 85 28 C80.5427102 32.4572898 80.5427102 32.4572898 75.66023254 32.55322266 C74.96089096 32.54669678 74.26154938 32.5401709 73.54101562 32.53344727 C72.42323982 32.54637062 72.42323982 32.54637062 71.28288269 32.55955505 C68.82365019 32.58222808 66.36555591 32.57547478 63.90625 32.56640625 C62.19518698 32.57164102 60.48412686 32.57791697 58.77307129 32.58518982 C55.18858248 32.59559624 51.6044906 32.5910289 48.02001953 32.57641602 C43.42619549 32.55922135 38.83362139 32.58272964 34.23993683 32.61790562 C30.70713003 32.63986363 27.17462312 32.63844221 23.64176941 32.6301403 C21.94808073 32.62932002 20.25437021 32.63619823 18.56074524 32.65091133 C16.19270924 32.66833046 13.82692948 32.65384068 11.45898438 32.63110352 C10.409972 32.64864182 10.409972 32.64864182 9.33976746 32.66653442 C7.37731934 32.62818909 7.37731934 32.62818909 4 32 C0 27 0 27 0 0 Z " fill="#9D2168" transform="translate(245,109)"/>
<path d="M0 0 C0 20.46 0 40.92 0 62 C-7.76027197 62 -12.08264556 59.59320394 -17.8125 54.5 C-25.19130979 46.06707453 -28.41337211 39.15126082 -28.27734375 27.90625 C-27.52947777 20.06945715 -23.59082848 12.5082635 -18 7 C-11.93483258 2.7170587 -7.48160187 0 0 0 Z " fill="#A72267" transform="translate(189,225)"/>
<path d="M0 0 C0.90721298 -0.00426498 1.81442596 -0.00852997 2.74913025 -0.01292419 C4.25384384 -0.01224442 4.25384384 -0.01224442 5.78895569 -0.0115509 C6.83927475 -0.01490952 7.88959381 -0.01826813 8.97174072 -0.02172852 C12.46298894 -0.03127075 15.95418937 -0.03318325 19.44544983 -0.03425598 C21.86061625 -0.03746622 24.27578248 -0.04083011 26.69094849 -0.04434204 C31.76105704 -0.05034147 36.83114852 -0.0521811 41.90126038 -0.05158997 C48.41298557 -0.05148828 54.92460187 -0.06514335 61.43630123 -0.08236217 C66.42641711 -0.09345498 71.41650643 -0.09551002 76.40663338 -0.09498024 C78.80810992 -0.09616436 81.20958707 -0.10061013 83.61105156 -0.10831261 C86.96340032 -0.11805801 90.31550972 -0.1152561 93.66786194 -0.10920715 C95.16953918 -0.11763641 95.16953918 -0.11763641 96.70155334 -0.12623596 C98.06660255 -0.11994423 98.06660255 -0.11994423 99.45922852 -0.11352539 C100.64915862 -0.11434254 100.64915862 -0.11434254 101.86312771 -0.1151762 C103.79310608 0.13371277 103.79310608 0.13371277 105.79310608 2.13371277 C105.23755052 6.68926832 105.23755052 6.68926832 103.79310608 8.13371277 C102.39365261 8.23349339 100.98921515 8.26446024 99.58621216 8.26742554 C98.22539268 8.27382301 98.22539268 8.27382301 96.83708191 8.28034973 C95.33236832 8.27966995 95.33236832 8.27966995 93.79725647 8.27897644 C92.22177788 8.28401436 92.22177788 8.28401436 90.61447144 8.28915405 C87.12322322 8.29869628 83.63202279 8.30060878 80.14076233 8.30168152 C77.7255959 8.30489176 75.31042968 8.30825565 72.89526367 8.31176758 C67.82515512 8.317767 62.75506364 8.31960664 57.68495178 8.3190155 C51.17322659 8.31891382 44.66161029 8.33256889 38.14991093 8.34978771 C33.15979505 8.36088052 28.16970573 8.36293555 23.17957878 8.36240578 C20.77810223 8.3635899 18.37662509 8.36803566 15.9751606 8.37573814 C12.62281184 8.38548355 9.27070244 8.38268164 5.91835022 8.37663269 C4.41667297 8.38506195 4.41667297 8.38506195 2.88465881 8.3936615 C1.5196096 8.38736977 1.5196096 8.38736977 0.12698364 8.38095093 C-1.06294646 8.38176808 -1.06294646 8.38176808 -2.27691555 8.38260174 C-4.20689392 8.13371277 -4.20689392 8.13371277 -6.20689392 6.13371277 C-5.57782314 0.97533237 -5.10611681 0.01079197 0 0 Z " fill="#F5EAF1" transform="translate(255.20689392089844,267.8662872314453)"/>
<path d="M0 0 C0.90721298 -0.00426498 1.81442596 -0.00852997 2.74913025 -0.01292419 C4.25384384 -0.01224442 4.25384384 -0.01224442 5.78895569 -0.0115509 C6.83927475 -0.01490952 7.88959381 -0.01826813 8.97174072 -0.02172852 C12.46298894 -0.03127075 15.95418937 -0.03318325 19.44544983 -0.03425598 C21.86061625 -0.03746622 24.27578248 -0.04083011 26.69094849 -0.04434204 C31.76105704 -0.05034147 36.83114852 -0.0521811 41.90126038 -0.05158997 C48.41298557 -0.05148828 54.92460187 -0.06514335 61.43630123 -0.08236217 C66.42641711 -0.09345498 71.41650643 -0.09551002 76.40663338 -0.09498024 C78.80810992 -0.09616436 81.20958707 -0.10061013 83.61105156 -0.10831261 C86.96340032 -0.11805801 90.31550972 -0.1152561 93.66786194 -0.10920715 C95.16953918 -0.11763641 95.16953918 -0.11763641 96.70155334 -0.12623596 C98.06660255 -0.11994423 98.06660255 -0.11994423 99.45922852 -0.11352539 C100.64915862 -0.11434254 100.64915862 -0.11434254 101.86312771 -0.1151762 C103.79310608 0.13371277 103.79310608 0.13371277 105.79310608 2.13371277 C105.23755052 6.68926832 105.23755052 6.68926832 103.79310608 8.13371277 C102.39365261 8.23349339 100.98921515 8.26446024 99.58621216 8.26742554 C98.22539268 8.27382301 98.22539268 8.27382301 96.83708191 8.28034973 C95.33236832 8.27966995 95.33236832 8.27966995 93.79725647 8.27897644 C92.22177788 8.28401436 92.22177788 8.28401436 90.61447144 8.28915405 C87.12322322 8.29869628 83.63202279 8.30060878 80.14076233 8.30168152 C77.7255959 8.30489176 75.31042968 8.30825565 72.89526367 8.31176758 C67.82515512 8.317767 62.75506364 8.31960664 57.68495178 8.3190155 C51.17322659 8.31891382 44.66161029 8.33256889 38.14991093 8.34978771 C33.15979505 8.36088052 28.16970573 8.36293555 23.17957878 8.36240578 C20.77810223 8.3635899 18.37662509 8.36803566 15.9751606 8.37573814 C12.62281184 8.38548355 9.27070244 8.38268164 5.91835022 8.37663269 C4.41667297 8.38506195 4.41667297 8.38506195 2.88465881 8.3936615 C1.5196096 8.38736977 1.5196096 8.38736977 0.12698364 8.38095093 C-1.06294646 8.38176808 -1.06294646 8.38176808 -2.27691555 8.38260174 C-4.20689392 8.13371277 -4.20689392 8.13371277 -6.20689392 6.13371277 C-5.57782314 0.97533237 -5.10611681 0.01079197 0 0 Z " fill="#F5EAF1" transform="translate(255.20689392089844,232.8662872314453)"/>
<path d="M0 0 C3.53571429 0.53571429 3.53571429 0.53571429 5 2 C5.10008034 3.50086237 5.13075376 5.00641233 5.13371277 6.51060486 C5.13797775 7.48513107 5.14224274 8.45965729 5.14663696 9.4637146 C5.14595718 11.08063705 5.14595718 11.08063705 5.14526367 12.73022461 C5.14862228 13.85857224 5.1519809 14.98691986 5.15544128 16.14945984 C5.16498429 19.90043217 5.16689605 23.65136002 5.16796875 27.40234375 C5.17117892 29.99687214 5.17454281 32.59140035 5.17805481 35.18592834 C5.18405442 40.63266496 5.18593651 46.07938378 5.18530273 51.52612305 C5.18470178 57.82851294 5.19525534 64.13081728 5.2110464 70.43318552 C5.22567749 76.4874896 5.22929136 82.5417471 5.22869301 88.59607124 C5.22987726 91.17617708 5.23432373 93.75628348 5.24202538 96.3363781 C5.25176894 99.93778557 5.24896958 103.53897017 5.24291992 107.14038086 C5.24853943 108.21630493 5.25415894 109.292229 5.25994873 110.40075684 C5.253657 111.86677589 5.253657 111.86677589 5.24723816 113.3624115 C5.24778293 114.21469298 5.24832769 115.06697447 5.24888897 115.94508266 C5 118 5 118 3 120 C-0.53571429 119.46428571 -0.53571429 119.46428571 -2 118 C-2.10008034 116.49913763 -2.13075376 114.99358767 -2.13371277 113.48939514 C-2.13797775 112.51486893 -2.14224274 111.54034271 -2.14663696 110.5362854 C-2.14618378 109.4583371 -2.14573059 108.38038879 -2.14526367 107.26977539 C-2.14862228 106.14142776 -2.1519809 105.01308014 -2.15544128 103.85054016 C-2.16498429 100.09956783 -2.16689605 96.34863998 -2.16796875 92.59765625 C-2.17117892 90.00312786 -2.17454281 87.40859965 -2.17805481 84.81407166 C-2.18405442 79.36733504 -2.18593651 73.92061622 -2.18530273 68.47387695 C-2.18470178 62.17148706 -2.19525534 55.86918272 -2.2110464 49.56681448 C-2.22567749 43.5125104 -2.22929136 37.4582529 -2.22869301 31.40392876 C-2.22987726 28.82382292 -2.23432373 26.24371652 -2.24202538 23.6636219 C-2.25176894 20.06221443 -2.24896958 16.46102983 -2.24291992 12.85961914 C-2.24853943 11.78369507 -2.25415894 10.707771 -2.25994873 9.59924316 C-2.25575424 8.62189713 -2.25155975 7.64455109 -2.24723816 6.6375885 C-2.24778293 5.78530702 -2.24832769 4.93302553 -2.24888897 4.05491734 C-2 2 -2 2 0 0 Z " fill="#FEFEFE" transform="translate(403,216)"/>
<path d="M0 0 C0.9170723 -0.00281982 1.83414459 -0.00563965 2.77900696 -0.00854492 C3.79307114 -0.00652069 4.80713531 -0.00449646 5.85192871 -0.00241089 C6.91360764 -0.00416321 7.97528656 -0.00591553 9.06913757 -0.00772095 C12.59766244 -0.01214184 16.12613766 -0.00920063 19.65466309 -0.00582886 C22.09464528 -0.00650183 24.53462741 -0.0074718 26.97460938 -0.00872803 C32.09599443 -0.01020532 37.21736208 -0.00804943 42.33874512 -0.00338745 C48.92004023 0.00230985 55.50129458 -0.00096899 62.0825882 -0.00695992 C67.12327382 -0.01056467 72.16394971 -0.00942734 77.20463562 -0.00683212 C79.6320547 -0.00616262 82.05947464 -0.00699209 84.4868927 -0.00931168 C87.87291831 -0.0118368 91.25887687 -0.00799957 94.64489746 -0.00241089 C95.65896164 -0.00443512 96.67302582 -0.00645935 97.71781921 -0.00854492 C99.09342766 -0.00431519 99.09342766 -0.00431519 100.49682617 0 C101.29840904 0.00037703 102.09999191 0.00075405 102.92586517 0.0011425 C104.74841309 0.12698364 104.74841309 0.12698364 105.74841309 1.12698364 C105.87341309 3.62698364 105.87341309 3.62698364 105.74841309 6.12698364 C104.18655153 7.6888452 102.67559765 7.25614802 100.5035553 7.26069641 C99.13011459 7.26709389 99.13011459 7.26709389 97.72892761 7.27362061 C96.71643448 7.27316742 95.70394135 7.27271423 94.6607666 7.27224731 C93.60069397 7.27560593 92.54062134 7.27896454 91.44842529 7.28242493 C87.92471157 7.29196726 84.40104519 7.29387966 80.87731934 7.29495239 C78.43973266 7.29816262 76.00214619 7.30152651 73.56455994 7.30503845 C68.44737298 7.3110379 63.33020293 7.31287751 58.2130127 7.31228638 C51.64075376 7.31218469 45.06860271 7.3258398 38.49636936 7.34305859 C33.45993039 7.35415127 28.42351773 7.35620643 23.38706779 7.35567665 C20.96326259 7.35686079 18.53945679 7.36130665 16.11566353 7.36900902 C12.73218247 7.37875418 9.34893859 7.37595261 5.9654541 7.36990356 C4.44975075 7.37833282 4.44975075 7.37833282 2.90342712 7.38693237 C1.98498016 7.38273788 1.0665332 7.3785434 0.12025452 7.3742218 C-0.68040656 7.37476657 -1.48106764 7.37531134 -2.30599117 7.37587261 C-4.25158691 7.12698364 -4.25158691 7.12698364 -6.25158691 5.12698364 C-5.54238137 0.44622703 -4.54609373 0.00213826 0 0 Z " fill="#FEFEFE" transform="translate(220.2515869140625,285.8730163574219)"/>
<path d="M0 0 C0.9170723 -0.00281982 1.83414459 -0.00563965 2.77900696 -0.00854492 C3.79307114 -0.00652069 4.80713531 -0.00449646 5.85192871 -0.00241089 C6.91360764 -0.00416321 7.97528656 -0.00591553 9.06913757 -0.00772095 C12.59766244 -0.01214184 16.12613766 -0.00920063 19.65466309 -0.00582886 C22.09464528 -0.00650183 24.53462741 -0.0074718 26.97460938 -0.00872803 C32.09599443 -0.01020532 37.21736208 -0.00804943 42.33874512 -0.00338745 C48.92004023 0.00230985 55.50129458 -0.00096899 62.0825882 -0.00695992 C67.12327382 -0.01056467 72.16394971 -0.00942734 77.20463562 -0.00683212 C79.6320547 -0.00616262 82.05947464 -0.00699209 84.4868927 -0.00931168 C87.87291831 -0.0118368 91.25887687 -0.00799957 94.64489746 -0.00241089 C95.65896164 -0.00443512 96.67302582 -0.00645935 97.71781921 -0.00854492 C99.09342766 -0.00431519 99.09342766 -0.00431519 100.49682617 0 C101.29840904 0.00037703 102.09999191 0.00075405 102.92586517 0.0011425 C104.74841309 0.12698364 104.74841309 0.12698364 105.74841309 1.12698364 C105.87341309 3.62698364 105.87341309 3.62698364 105.74841309 6.12698364 C104.18655153 7.6888452 102.67559765 7.25614802 100.5035553 7.26069641 C99.13011459 7.26709389 99.13011459 7.26709389 97.72892761 7.27362061 C96.71643448 7.27316742 95.70394135 7.27271423 94.6607666 7.27224731 C93.60069397 7.27560593 92.54062134 7.27896454 91.44842529 7.28242493 C87.92471157 7.29196726 84.40104519 7.29387966 80.87731934 7.29495239 C78.43973266 7.29816262 76.00214619 7.30152651 73.56455994 7.30503845 C68.44737298 7.3110379 63.33020293 7.31287751 58.2130127 7.31228638 C51.64075376 7.31218469 45.06860271 7.3258398 38.49636936 7.34305859 C33.45993039 7.35415127 28.42351773 7.35620643 23.38706779 7.35567665 C20.96326259 7.35686079 18.53945679 7.36130665 16.11566353 7.36900902 C12.73218247 7.37875418 9.34893859 7.37595261 5.9654541 7.36990356 C4.44975075 7.37833282 4.44975075 7.37833282 2.90342712 7.38693237 C1.98498016 7.38273788 1.0665332 7.3785434 0.12025452 7.3742218 C-0.68040656 7.37476657 -1.48106764 7.37531134 -2.30599117 7.37587261 C-4.25158691 7.12698364 -4.25158691 7.12698364 -6.25158691 5.12698364 C-5.54238137 0.44622703 -4.54609373 0.00213826 0 0 Z " fill="#FEFEFE" transform="translate(220.2515869140625,250.87301635742188)"/>
<path d="M0 0 C0.91442368 -0.00637985 1.82884735 -0.0127597 2.77098083 -0.01933289 C3.76573929 -0.02044571 4.76049774 -0.02155853 5.78540039 -0.02270508 C6.80026016 -0.02603348 7.81511993 -0.02936188 8.86073303 -0.03279114 C11.01196844 -0.03786483 13.16321174 -0.04019933 15.31445312 -0.04003906 C18.615447 -0.04222467 21.91610639 -0.0603734 25.21704102 -0.0793457 C27.30232632 -0.08227964 29.38761323 -0.08426443 31.47290039 -0.08520508 C32.46563461 -0.09239059 33.45836884 -0.09957611 34.48118591 -0.10697937 C35.39876175 -0.10390274 36.31633759 -0.10082611 37.26171875 -0.09765625 C38.07144638 -0.09908127 38.88117401 -0.10050629 39.71543884 -0.10197449 C41.69555664 0.14526367 41.69555664 0.14526367 43.69555664 2.14526367 C43.14000109 6.70081923 43.14000109 6.70081923 41.69555664 8.14526367 C40.26364803 8.24858294 38.82672861 8.28376253 37.39111328 8.29052734 C36.01947777 8.30009712 36.01947777 8.30009712 34.62013245 8.30986023 C33.12799477 8.31152946 33.12799477 8.31152946 31.60571289 8.31323242 C30.59085312 8.31656082 29.57599335 8.31988922 28.53038025 8.32331848 C26.37914484 8.32839217 24.22790154 8.33072667 22.07666016 8.33056641 C18.77566629 8.33275201 15.47500689 8.35090074 12.17407227 8.36987305 C10.08878696 8.37280698 8.00350005 8.37479178 5.91821289 8.37573242 C4.92547867 8.38291794 3.93274445 8.39010345 2.90992737 8.39750671 C1.99235153 8.39443008 1.0747757 8.39135345 0.12939453 8.38818359 C-0.6803331 8.38960861 -1.49006073 8.39103363 -2.32432556 8.39250183 C-4.30444336 8.14526367 -4.30444336 8.14526367 -6.30444336 6.14526367 C-5.6673014 0.92069963 -5.15960204 0.02431275 0 0 Z " fill="#F5E8EF" transform="translate(220.304443359375,322.854736328125)"/>
<path d="M0 0 C1.40166664 -0.00956978 1.40166664 -0.00956978 2.83164978 -0.01933289 C3.84828201 -0.02044571 4.86491425 -0.02155853 5.91235352 -0.02270508 C6.94940933 -0.02603348 7.98646515 -0.02936188 9.0549469 -0.03279114 C11.25326085 -0.03786493 13.45158254 -0.04019932 15.64990234 -0.04003906 C19.02332177 -0.04222471 22.39641394 -0.06037347 25.76977539 -0.0793457 C27.90063364 -0.08227962 30.03149345 -0.08426443 32.16235352 -0.08520508 C33.17696152 -0.09239059 34.19156952 -0.09957611 35.23692322 -0.10697937 C36.17451981 -0.10390274 37.11211639 -0.10082611 38.078125 -0.09765625 C38.90561752 -0.09908127 39.73311005 -0.10050629 40.5856781 -0.10197449 C42.60375977 0.14526367 42.60375977 0.14526367 44.60375977 2.14526367 C44.06804548 5.68097796 44.06804548 5.68097796 42.60375977 7.14526367 C41.13570684 7.24349111 39.66298517 7.27324737 38.19165039 7.2746582 C37.25397827 7.27781036 36.31630615 7.28096252 35.35021973 7.28421021 C34.33045044 7.28218597 33.31068115 7.28016174 32.26000977 7.27807617 C30.70086853 7.27951126 30.70086853 7.27951126 29.11022949 7.28097534 C26.90771423 7.2816573 24.70519697 7.27980194 22.50268555 7.27563477 C19.11836257 7.27028675 15.73417233 7.27557926 12.34985352 7.28198242 C10.21573864 7.28132164 8.08162384 7.28004049 5.94750977 7.27807617 C4.92774048 7.2801004 3.90797119 7.28212463 2.8572998 7.28421021 C1.45079163 7.27948196 1.45079163 7.27948196 0.01586914 7.2746582 C-0.81384399 7.27386261 -1.64355713 7.27306702 -2.49841309 7.27224731 C-4.39624023 7.14526367 -4.39624023 7.14526367 -5.39624023 6.14526367 C-5.52124023 3.64526367 -5.52124023 3.64526367 -5.39624023 1.14526367 C-3.81265419 -0.43832237 -2.19633663 0.01012704 0 0 Z " fill="#FEFDFE" transform="translate(243.396240234375,305.854736328125)"/>
<path d="M0 0 C4.25851295 1.62807628 5.48579259 4.89366847 7.55078125 8.796875 C7.95748047 9.51359375 8.36417969 10.2303125 8.78320312 10.96875 C12.63294645 18.00828066 12.63294645 18.00828066 11.73828125 22.046875 C10.3854817 24.95972436 8.76126063 27.64444389 7.05078125 30.359375 C6.61572266 31.09994141 6.18066406 31.84050781 5.73242188 32.60351562 C4.502346 34.5807487 3.34352022 36.35919699 1.73828125 38.046875 C-1.09375 38.52734375 -1.09375 38.52734375 -3.26171875 38.046875 C-3.98046875 35.921875 -3.98046875 35.921875 -4.26171875 33.046875 C-2.65515575 29.833749 -0.71487851 26.97625432 1.26953125 23.984375 C2.94536875 21.21695774 2.94536875 21.21695774 2.65234375 18.51953125 C1.21040258 14.61889553 -0.94378879 11.22021025 -3.08203125 7.66796875 C-4.26171875 5.046875 -4.26171875 5.046875 -4.00390625 2.76953125 C-2.92226813 0.25899225 -2.81931061 0.05843131 0 0 Z " fill="#FBF6F9" transform="translate(349.26171875,305.953125)"/>
<path d="M0 0 C2.625 0.375 2.625 0.375 5 1 C5.61663557 6.87426514 2.50825689 10.40731439 -0.56640625 15.16015625 C-2.17614055 17.7728334 -2.17614055 17.7728334 -1.91015625 20.03125 C-0.26490369 23.59007957 1.7964251 26.89315586 3.8203125 30.24609375 C5.1652004 33.38564994 5.01196728 34.79543694 4 38 C1.796875 38.4453125 1.796875 38.4453125 -1 38 C-2.8800176 35.61662285 -4.29170966 33.49697657 -5.75 30.875 C-6.14832031 30.20984375 -6.54664063 29.5446875 -6.95703125 28.859375 C-9.1954859 24.98950424 -11.0536383 21.56521512 -11 17 C-9.86781874 14.20847253 -8.33141097 11.76654341 -6.6875 9.25 C-6.27048828 8.57839844 -5.85347656 7.90679687 -5.42382812 7.21484375 C-3.77486225 4.59017398 -2.19780383 2.19780383 0 0 Z " fill="#FBF7F9" transform="translate(307,306)"/>
<path d="M0 0 C0.763125 0.226875 1.52625 0.45375 2.3125 0.6875 C1.96585553 7.73923894 -1.18131781 13.06733284 -4.5 19.1875 C-5.03431641 20.19425781 -5.56863281 21.20101563 -6.11914062 22.23828125 C-8.8897592 27.43872891 -11.73099274 32.59056739 -14.6875 37.6875 C-16.3375 37.6875 -17.9875 37.6875 -19.6875 37.6875 C-21.03121069 33.67816295 -20.43731539 31.37525382 -18.59075928 27.62399292 C-18.26690247 27.00299713 -17.94304565 26.38200134 -17.609375 25.7421875 C-17.2821344 25.09049591 -16.9548938 24.43880432 -16.61773682 23.7673645 C-15.92475628 22.39413886 -15.22503087 21.02429882 -14.51904297 19.65771484 C-13.4412017 17.5696711 -12.3850603 15.47174162 -11.33203125 13.37109375 C-10.65489453 12.03582436 -9.97654901 10.70116715 -9.296875 9.3671875 C-8.82323517 8.42962112 -8.82323517 8.42962112 -8.34002686 7.47311401 C-4.20649607 -0.48912745 -4.20649607 -0.48912745 0 0 Z " fill="#FBF6F9" transform="translate(337.6875,306.3125)"/>
<path d="M0 0 C0.88494141 -0.01224609 1.76988281 -0.02449219 2.68164062 -0.03710938 C3.52791016 -0.03904297 4.37417969 -0.04097656 5.24609375 -0.04296875 C6.02525146 -0.04707764 6.80440918 -0.05118652 7.60717773 -0.05541992 C9.5625 0.1875 9.5625 0.1875 11.5625 2.1875 C11.00694444 6.74305556 11.00694444 6.74305556 9.5625 8.1875 C6.4242655 8.43716567 3.27200387 8.37271791 0.125 8.375 C-0.75994141 8.38724609 -1.64488281 8.39949219 -2.55664062 8.41210938 C-3.40291016 8.41404297 -4.24917969 8.41597656 -5.12109375 8.41796875 C-5.90025146 8.42207764 -6.67940918 8.42618652 -7.48217773 8.43041992 C-9.4375 8.1875 -9.4375 8.1875 -11.4375 6.1875 C-10.50064873 -1.49468038 -6.73307155 0.00488258 0 0 Z " fill="#F5E8EF" transform="translate(225.4375,267.8125)"/>
<path d="M0 0 C0.88494141 -0.01224609 1.76988281 -0.02449219 2.68164062 -0.03710938 C3.52791016 -0.03904297 4.37417969 -0.04097656 5.24609375 -0.04296875 C6.02525146 -0.04707764 6.80440918 -0.05118652 7.60717773 -0.05541992 C9.5625 0.1875 9.5625 0.1875 11.5625 2.1875 C11.00694444 6.74305556 11.00694444 6.74305556 9.5625 8.1875 C6.4242655 8.43716567 3.27200387 8.37271791 0.125 8.375 C-0.75994141 8.38724609 -1.64488281 8.39949219 -2.55664062 8.41210938 C-3.40291016 8.41404297 -4.24917969 8.41597656 -5.12109375 8.41796875 C-5.90025146 8.42207764 -6.67940918 8.42618652 -7.48217773 8.43041992 C-9.4375 8.1875 -9.4375 8.1875 -11.4375 6.1875 C-10.50064873 -1.49468038 -6.73307155 0.00488258 0 0 Z " fill="#F5E8EF" transform="translate(225.4375,232.8125)"/>
<path d="M0 0 C3.53571429 0.53571429 3.53571429 0.53571429 5 2 C5.25098924 5.47208807 5.18522096 8.9574062 5.1875 12.4375 C5.19974609 13.41783203 5.21199219 14.39816406 5.22460938 15.40820312 C5.22654297 16.34470703 5.22847656 17.28121094 5.23046875 18.24609375 C5.23457764 19.10904053 5.23868652 19.9719873 5.24291992 20.86108398 C5 23 5 23 3 25 C-0.53571429 24.46428571 -0.53571429 24.46428571 -2 23 C-2.25098924 19.52791193 -2.18522096 16.0425938 -2.1875 12.5625 C-2.19974609 11.58216797 -2.21199219 10.60183594 -2.22460938 9.59179688 C-2.22750977 8.18704102 -2.22750977 8.18704102 -2.23046875 6.75390625 C-2.23457764 5.89095947 -2.23868652 5.0280127 -2.24291992 4.13891602 C-2 2 -2 2 0 0 Z " fill="#FDFBFD" transform="translate(403,176)"/>
<path d="M0 0 C0.89460938 -0.00128906 1.78921875 -0.00257813 2.7109375 -0.00390625 C3.65195312 -0.00003906 4.59296875 0.00382812 5.5625 0.0078125 C6.97402344 0.00201172 6.97402344 0.00201172 8.4140625 -0.00390625 C9.75597656 -0.00197266 9.75597656 -0.00197266 11.125 0 C11.95128906 0.00112793 12.77757812 0.00225586 13.62890625 0.00341797 C15.5625 0.1328125 15.5625 0.1328125 16.5625 1.1328125 C16.6875 3.6328125 16.6875 3.6328125 16.5625 6.1328125 C14.26240227 8.43291023 8.71459334 7.31818615 5.625 7.3203125 C4.22604492 7.33868164 4.22604492 7.33868164 2.79882812 7.35742188 C1.90744141 7.35935547 1.01605469 7.36128906 0.09765625 7.36328125 C-0.723396 7.36739014 -1.54444824 7.37149902 -2.39038086 7.37573242 C-4.4375 7.1328125 -4.4375 7.1328125 -6.4375 5.1328125 C-5.71262739 0.34865329 -4.63289813 0.00632416 0 0 Z " fill="#FCF9FB" transform="translate(344.4375,285.8671875)"/>
<path d="M0 0 C0.89460938 -0.00128906 1.78921875 -0.00257813 2.7109375 -0.00390625 C3.65195312 -0.00003906 4.59296875 0.00382813 5.5625 0.0078125 C6.97402344 0.00201172 6.97402344 0.00201172 8.4140625 -0.00390625 C9.75597656 -0.00197266 9.75597656 -0.00197266 11.125 0 C11.95128906 0.00112793 12.77757812 0.00225586 13.62890625 0.00341797 C15.5625 0.1328125 15.5625 0.1328125 16.5625 1.1328125 C16.6875 3.6328125 16.6875 3.6328125 16.5625 6.1328125 C14.26240227 8.43291023 8.71459334 7.31818615 5.625 7.3203125 C4.22604492 7.33868164 4.22604492 7.33868164 2.79882812 7.35742188 C1.90744141 7.35935547 1.01605469 7.36128906 0.09765625 7.36328125 C-0.723396 7.36739014 -1.54444824 7.37149902 -2.39038086 7.37573242 C-4.4375 7.1328125 -4.4375 7.1328125 -6.4375 5.1328125 C-5.71262739 0.34865329 -4.63289813 0.00632416 0 0 Z " fill="#FCF9FB" transform="translate(344.4375,250.8671875)"/>
<path d="M0 0 C0.98871094 -0.01417969 1.97742188 -0.02835937 2.99609375 -0.04296875 C5.5625 0.1875 5.5625 0.1875 7.5625 2.1875 C7.00694444 6.74305556 7.00694444 6.74305556 5.5625 8.1875 C3.94110563 8.31244616 2.31365878 8.36321624 0.6875 8.375 C-0.19679688 8.38917969 -1.08109375 8.40335937 -1.9921875 8.41796875 C-4.4375 8.1875 -4.4375 8.1875 -7.4375 6.1875 C-6.38636176 0.33115836 -5.97102796 0.03882333 0 0 Z " fill="#F2E3EC" transform="translate(280.4375,322.8125)"/>
<path d="M0 0 C0.98871094 -0.01417969 1.97742188 -0.02835937 2.99609375 -0.04296875 C5.5625 0.1875 5.5625 0.1875 7.5625 2.1875 C7.02678571 5.72321429 7.02678571 5.72321429 5.5625 7.1875 C3.75322719 7.31237758 1.93853893 7.36320846 0.125 7.375 C-0.86371094 7.38917969 -1.85242188 7.40335937 -2.87109375 7.41796875 C-5.4375 7.1875 -5.4375 7.1875 -7.4375 5.1875 C-6.6374056 -0.09312306 -5.05791197 0.03288629 0 0 Z " fill="#FCF9FB" transform="translate(221.4375,305.8125)"/>
</svg>
