<svg width="124" height="124" viewBox="0 0 124 124" fill="none" xmlns="http://www.w3.org/2000/svg">
<path d="M27.9 99.2C30.2827 96.5314 41.4421 84.2512 44.7124 84.2512H79.2897C84.0286 84.2512 93.7025 94.4306 96.1 98.0189M111.6 62C111.6 89.3933 89.3933 111.6 62 111.6C34.6067 111.6 12.4 89.3933 12.4 62C12.4 34.6067 34.6067 12.4 62 12.4C89.3933 12.4 111.6 34.6067 111.6 62ZM79.7673 45.0944C79.7673 35.6316 71.779 27.9 62.0015 27.9C52.2242 27.9 44.2356 35.6316 44.2356 45.0944C44.2356 54.5573 52.2242 62.2889 62.0015 62.2889C71.7787 62.2889 79.7673 54.5573 79.7673 45.0944Z" stroke="white" stroke-width="2"/>
</svg>
