<?xml version="1.0" encoding="UTF-8"?>
<svg version="1.1" xmlns="http://www.w3.org/2000/svg" width="597" height="418">
<path d="M0 0 C0.65902313 0.00021149 1.31804626 0.00042297 1.99703979 0.00064087 C36.99414269 0.11240193 64.62701289 15.40504805 89.06640625 39.74609375 C90.5625 41.375 90.5625 41.375 91.5625 43.375 C95.06067439 41.84000431 97.61696037 39.73851841 100.5 37.25 C124.45254395 17.45897231 152.52977247 11.07687145 183.02832031 13.57714844 C202.3453828 15.88405315 220.85336881 24.82500733 235.5625 37.375 C236.72458984 38.32052734 236.72458984 38.32052734 237.91015625 39.28515625 C246.21649512 46.3277732 254.85861394 55.4172643 259.5625 65.375 C264.18861664 64.73740353 268.33639244 63.50931657 272.75 62 C305.46312846 51.46791261 340.53117817 55.21907638 371.1875 70.3125 C377.79465386 73.70500835 383.74219877 77.7567175 389.5625 82.375 C390.41328125 83.02339844 391.2640625 83.67179687 392.140625 84.33984375 C416.38605561 103.1188966 432.38591801 130.48530926 438.5625 160.375 C438.90087891 161.85033203 438.90087891 161.85033203 439.24609375 163.35546875 C445.44077429 195.01242243 438.0595231 230.15906133 420.74609375 257.16015625 C400.28050978 287.29106073 371.75560879 307.43916265 335.83276367 314.97143555 C327.83553796 316.39303078 319.8527069 316.5278088 311.75 316.5 C310.16723267 316.51123901 310.16723267 316.51123901 308.55249023 316.52270508 C299.76694136 316.53556231 299.76694136 316.53556231 295.4296875 315.69140625 C290.98384303 314.83667334 290.98384303 314.83667334 286.5625 315.375 C282.70294768 319.26396964 280.24944639 323.6300844 277.5625 328.375 C263.67564289 347.95438078 239.70909762 357.78806867 216.9296875 361.84375 C214.79879136 362.12682107 212.71002552 362.28345362 210.5625 362.375 C209.17998047 362.45234375 209.17998047 362.45234375 207.76953125 362.53125 C192.10540789 362.99825492 177.89280837 359.40778649 163.5625 353.375 C163.2840625 354.096875 163.005625 354.81875 162.71875 355.5625 C152.23426936 381.06529075 130.54831054 399.7592978 105.5625 410.375 C89.87352375 416.43186045 89.87352375 416.43186045 82.4309082 416.56787109 C81.22232903 416.59196548 81.22232903 416.59196548 79.98933411 416.61654663 C76.26723562 416.66174791 72.54530888 416.70216825 68.82299805 416.72509766 C66.88081756 416.74150365 64.93869346 416.76858476 62.99682617 416.80712891 C46.86812566 417.12486776 32.59077267 415.29809088 18.1875 407.5 C17.53233398 407.15686768 16.87716797 406.81373535 16.20214844 406.46020508 C14.30876578 405.45431652 12.43328572 404.42220518 10.5625 403.375 C9.56476563 402.81941406 8.56703125 402.26382812 7.5390625 401.69140625 C-12.07081543 389.97604938 -26.40011635 371.08567087 -35.4375 350.375 C-35.4375 349.715 -35.4375 349.055 -35.4375 348.375 C-36.29730469 348.519375 -37.15710938 348.66375 -38.04296875 348.8125 C-64.42174745 352.95486001 -91.41519777 348.01268228 -113.390625 332.2578125 C-115.79329508 330.3515024 -118.12100016 328.38438812 -120.4375 326.375 C-121.448125 325.611875 -122.45875 324.84875 -123.5 324.0625 C-128.01589978 319.93093212 -131.69513567 315.20533715 -135.4375 310.375 C-136.37142578 309.18197266 -136.37142578 309.18197266 -137.32421875 307.96484375 C-147.77180662 293.90168615 -154.5331329 276.13894834 -154.640625 258.58984375 C-154.64632507 257.85230362 -154.65202515 257.11476349 -154.65789795 256.35487366 C-154.66730509 254.79755059 -154.67386479 253.240208 -154.67773438 251.68286133 C-154.68737211 249.34354148 -154.71840706 247.00512732 -154.75 244.66601562 C-154.83883123 232.32568626 -153.07468855 221.17766394 -148.1875 209.75 C-147.88448975 209.03126709 -147.58147949 208.31253418 -147.26928711 207.57202148 C-139.25091841 189.09725259 -125.18528717 173.42697188 -108.4375 162.375 C-107.7775 162.375 -107.1175 162.375 -106.4375 162.375 C-106.83582031 161.27285156 -107.23414063 160.17070312 -107.64453125 159.03515625 C-115.90396702 135.64643265 -118.1017143 112.72376539 -112.4375 88.375 C-112.17066406 87.18777344 -111.90382812 86.00054687 -111.62890625 84.77734375 C-104.13690483 55.24220926 -83.14041557 30.38979824 -57.390625 14.8828125 C-46.97954345 8.91102403 -36.06622594 5.22617624 -24.4375 2.375 C-23.6741333 2.18067383 -22.9107666 1.98634766 -22.12426758 1.78613281 C-14.77908644 0.09682396 -7.51318042 -0.00999156 0 0 Z M35.5625 148.375 C35.46810022 150.64491887 35.44507774 152.91781967 35.44897461 155.18969727 C35.44882858 155.90185394 35.44868256 156.61401062 35.4485321 157.3477478 C35.4492313 159.71233112 35.45702394 162.07683661 35.46484375 164.44140625 C35.46670791 166.07665463 35.46813182 167.71190357 35.46913147 169.34715271 C35.47295682 173.65934785 35.48278725 177.97150952 35.49383545 182.28369141 C35.5040492 186.68065946 35.50862901 191.07763289 35.51367188 195.47460938 C35.52440951 204.10808831 35.54148613 212.74154 35.5625 221.375 C38.8625 221.375 42.1625 221.375 45.5625 221.375 C45.58562484 211.87425675 45.6034158 202.37352312 45.61431217 192.87275791 C45.61954069 188.46162996 45.62663777 184.0505212 45.63793945 179.6394043 C45.64876944 175.38598885 45.65477707 171.13259191 45.65737724 166.87916374 C45.65923129 165.25278367 45.66285152 163.62640466 45.66823006 162.00003242 C45.67544198 159.72989807 45.67649088 157.45984115 45.67602539 155.18969727 C45.678246 153.89508072 45.68046661 152.60046417 45.68275452 151.26661682 C45.89378112 148.48057617 45.89378112 148.48057617 44.5625 147.375 C42.68928052 147.21446185 42.68928052 147.21446185 40.5625 147.25 C39.840625 147.24742187 39.11875 147.24484375 38.375 147.2421875 C36.54160585 147.17804724 36.54160585 147.17804724 35.5625 148.375 Z M176.4375 153.375 C173.45866104 158.14114234 170.5625 164.66013731 170.5625 170.375 C167.9225 170.375 165.2825 170.375 162.5625 170.375 C161.9025 172.685 161.2425 174.995 160.5625 177.375 C163.2025 177.705 165.8425 178.035 168.5625 178.375 C167.5792063 187.28248408 166.33973954 195.97741277 164.34765625 204.7265625 C163.457402 208.86336583 162.75760733 213.01457846 162.0625 217.1875 C160.84458496 224.35212864 159.65533402 231.23574897 155.5625 237.375 C152.7421875 237.88671875 152.7421875 237.88671875 149.4375 238.0625 C148.34179688 238.12824219 147.24609375 238.19398438 146.1171875 238.26171875 C145.27414062 238.29910156 144.43109375 238.33648437 143.5625 238.375 C142.5725 241.84 142.5725 241.84 141.5625 245.375 C147.2037748 247.25542493 153.34433631 247.155465 158.9375 245.1875 C167.09848207 239.55253619 169.54966381 232.76315837 171.4375 223.375 C171.59968018 222.59189453 171.76186035 221.80878906 171.92895508 221.00195312 C173.87610292 211.2872296 175.37981805 201.48831891 176.89990234 191.69921875 C177.10180176 190.40628906 177.30370117 189.11335938 177.51171875 187.78125 C177.69049561 186.61916016 177.86927246 185.45707031 178.0534668 184.25976562 C178.5625 181.375 178.5625 181.375 179.5625 178.375 C183.1925 178.045 186.8225 177.715 190.5625 177.375 C191.2225 175.065 191.8825 172.755 192.5625 170.375 C188.6025 170.375 184.6425 170.375 180.5625 170.375 C180.93147031 168.24517138 181.33360824 166.1210674 181.75 164 C182.08064453 162.22496094 182.08064453 162.22496094 182.41796875 160.4140625 C183.5625 157.375 183.5625 157.375 185.875 155.96875 C188.48524261 155.39206849 190.70858821 155.17040562 193.375 155.25 C194.56029297 155.27707031 194.56029297 155.27707031 195.76953125 155.3046875 C196.36121094 155.32789063 196.95289063 155.35109375 197.5625 155.375 C198.81914978 152.46899739 199.5625 150.57895416 199.5625 147.375 C197.18624823 147.26616404 194.81506024 147.18733304 192.4375 147.125 C191.77234375 147.09148437 191.1071875 147.05796875 190.421875 147.0234375 C184.19275898 146.90129797 180.84014879 149.23133055 176.4375 153.375 Z M-63.1796875 175.27734375 C-65.26405723 178.34501784 -66.34112796 180.83959979 -67 184.5 C-65.89453854 190.15013635 -62.56623982 193.9508731 -57.84375 197.140625 C-52.49767853 199.88309023 -44.55024758 203.375 -38.4375 203.375 C-38.06955575 210.8565331 -38.06955575 210.8565331 -39.8125 213.3125 C-43.33672501 215.61680097 -46.31867104 215.81253128 -50.4375 215.375 C-55.5758819 214.14242864 -60.58775596 212.47655575 -65.4375 210.375 C-66.0975 212.685 -66.7575 214.995 -67.4375 217.375 C-59.00199147 222.53959706 -51.36541567 224.39357836 -41.4375 223.375 C-36.62327089 222.18215688 -32.71732853 220.43921591 -29.875 216.25 C-27.7816833 211.76432135 -27.68622909 207.21030743 -28.4375 202.375 C-29.87916087 198.83637786 -31.0907272 197.07379721 -34.5078125 195.30078125 C-37.12558824 194.23599465 -39.76607958 193.29693042 -42.4375 192.375 C-44.61264056 191.58546581 -46.77948014 190.77269518 -48.9375 189.9375 C-49.9378125 189.56753906 -50.938125 189.19757813 -51.96875 188.81640625 C-54.4375 187.375 -54.4375 187.375 -55.84375 184.90234375 C-56.4375 182.375 -56.4375 182.375 -55.4375 179.375 C-48.47618266 174.86442721 -38.97090841 177.79791263 -31.4375 179.375 C-30.7775 177.395 -30.1175 175.415 -29.4375 173.375 C-31.0412331 172.72809078 -32.64550306 172.08251236 -34.25 171.4375 C-35.14332031 171.07785156 -36.03664063 170.71820313 -36.95703125 170.34765625 C-46.33295807 166.67111172 -56.02132142 167.4609216 -63.1796875 175.27734375 Z M-17.4375 174.375 C-16.4475 176.025 -15.4575 177.675 -14.4375 179.375 C-13.61507812 179.21902344 -12.79265625 179.06304687 -11.9453125 178.90234375 C4.67470861 176.0043955 4.67470861 176.0043955 11.125 179.9375 C13.1786788 183.41982493 13.29429571 186.35193571 13.5625 190.375 C12.9025 190.045 12.2425 189.715 11.5625 189.375 C1.89946327 188.68639575 -8.14591133 188.2463116 -16.0859375 194.71875 C-19.15735879 198.48257262 -20.53317733 203.78259984 -20.35546875 208.59765625 C-19.3846269 213.30669288 -17.34053519 217.44086816 -13.4375 220.375 C-1.81075907 225.84762229 10.58812737 223.15605164 22.5625 220.375 C24.53176394 218.40573606 23.75006329 214.59486906 23.765625 211.90234375 C23.77417511 210.7676339 23.77417511 210.7676339 23.78289795 209.61000061 C23.79236753 208.00181482 23.79888967 206.39360946 23.80273438 204.78540039 C23.8123645 202.34681095 23.84333583 199.90909177 23.875 197.47070312 C23.88153763 195.90625499 23.88678511 194.34180083 23.890625 192.77734375 C23.9029718 192.05618881 23.9153186 191.33503387 23.92803955 190.59202576 C23.89940866 183.94355758 22.53377606 178.43796332 17.875 173.5625 C7.39456711 166.64145941 -7.3749551 165.82183683 -17.4375 174.375 Z M72.875 170.3125 C71.92238281 170.67214844 70.96976563 171.03179687 69.98828125 171.40234375 C67.60619275 172.31889709 67.60619275 172.31889709 65.5625 173.375 C65.5625 174.035 65.5625 174.695 65.5625 175.375 C64.5725 175.705 63.5825 176.035 62.5625 176.375 C57.40359725 182.47188507 56.03326319 190.35223773 56.3203125 198.24609375 C57.17196129 205.73236134 59.00040269 212.22449181 64.35546875 217.71484375 C71.54856167 223.12557736 80.80211125 224.45453799 89.5625 223.375 C93.29626082 222.56027663 96.92876615 221.55578779 100.5625 220.375 C99.9025 218.065 99.2425 215.755 98.5625 213.375 C97.28375 213.54 96.005 213.705 94.6875 213.875 C87.20917154 214.69808647 79.9767965 214.66444287 72.5625 213.375 C72.0675 211.89 72.0675 211.89 71.5625 210.375 C70.9025 210.375 70.2425 210.375 69.5625 210.375 C68.5725 204.93 68.5725 204.93 67.5625 199.375 C84.8875 198.88 84.8875 198.88 102.5625 198.375 C102.84190815 184.5553879 102.84190815 184.5553879 95.91796875 173.71875 C88.81272048 168.20135631 81.16132106 167.13588852 72.875 170.3125 Z M115.5625 175.0625 C113.04108813 179.23858842 112.30912591 182.52594418 112.5625 187.375 C113.75166013 192.04016668 116.03998666 193.95869455 119.9375 196.5 C125.02145525 199.36441137 130.25749139 201.00525712 135.875 202.515625 C138.5625 203.375 138.5625 203.375 140.5625 205.375 C141.12381261 210.65133851 141.12381261 210.65133851 139.29296875 213.01171875 C136.09327543 215.53247037 132.52629339 215.4875741 128.5625 215.375 C123.26836382 214.38190293 118.32218145 212.91571574 113.5625 210.375 C112.25725829 212.52480987 111.51735687 213.83643192 111.73046875 216.37890625 C112.4056493 218.53956456 112.4056493 218.53956456 114.5234375 219.60546875 C115.71839844 220.07919922 115.71839844 220.07919922 116.9375 220.5625 C117.72898437 220.88605469 118.52046875 221.20960938 119.3359375 221.54296875 C125.93108394 224.00747084 133.19910863 224.63340754 140.0546875 222.65625 C144.25776623 220.68952637 147.02411798 218.33487595 149.5625 214.375 C151.27181268 209.24706197 151.3021672 205.08968306 149.1875 200.1875 C143.43270172 194.0216447 134.73129199 191.53456075 127.03125 188.48828125 C124.5625 187.375 124.5625 187.375 122.5625 185.375 C122.1875 182.9375 122.1875 182.9375 122.5625 180.375 C124.29188478 178.19447137 125.70127586 177.50543436 128.4453125 177.08984375 C134.80134814 176.82785662 140.54298814 178.48476076 146.5625 180.375 C148.7144437 177.14708445 148.76336443 176.09099191 148.5625 172.375 C136.94790254 167.97285139 125.26595272 165.05232895 115.5625 175.0625 Z M202.5625 174.8125 C197.14376259 181.7552573 195.20184557 187.50125503 195.1875 196.1875 C195.16300781 196.95642578 195.13851563 197.72535156 195.11328125 198.51757812 C195.07684778 205.71318766 197.29858225 210.82809254 202.0625 216.1875 C208.00245327 221.38495911 213.08887611 223.885585 221.12109375 223.6953125 C226.74047356 222.95804987 231.79755293 220.80376668 236.1875 217.25 C237.75962122 215.49372074 237.75962122 215.49372074 237.5625 213.375 C238.2225 213.375 238.8825 213.375 239.5625 213.375 C240.036875 212.323125 240.51125 211.27125 241 210.1875 C241.26683594 209.59582031 241.53367187 209.00414062 241.80859375 208.39453125 C245.1266245 199.50633488 244.23200458 190.37355594 240.6796875 181.75 C237.40510815 174.78865649 232.56934407 172.08030518 225.5625 169.375 C217.24775287 166.89491163 209.19206465 169.42597872 202.5625 174.8125 Z M292.6484375 178.7265625 C292.29007812 179.27054688 291.93171875 179.81453125 291.5625 180.375 C290.9025 181.365 290.2425 182.355 289.5625 183.375 C286.76657331 193.56660376 287.56868618 205.10077434 292.5625 214.375 C293.2225 214.375 293.8825 214.375 294.5625 214.375 C294.8925 215.365 295.2225 216.355 295.5625 217.375 C302.71040359 222.09261637 309.97210777 224.35798021 318.5625 223.375 C321.64544777 222.56566773 324.60137043 221.55105146 327.5625 220.375 C326.9025 218.065 326.2425 215.755 325.5625 213.375 C324.2940625 213.51808594 324.2940625 213.51808594 323 213.6640625 C310.77254566 214.85901826 310.77254566 214.85901826 304.5625 212.375 C299.90961224 208.45677873 299.09784243 203.18964238 298.5625 197.375 C298.49835002 192.11470135 298.98195794 187.72959814 301.0625 182.875 C304.54989195 179.38760805 307.70052115 178.08894697 312.5625 177.375 C316.60906559 177.43329386 320.55677394 177.8124361 324.5625 178.375 C326.7144437 175.14708445 326.76336443 174.09099191 326.5625 170.375 C314.10731143 166.75167242 301.07773123 167.43641756 292.6484375 178.7265625 Z M338.5625 176.375 C332.62434244 185.02774388 331.51327068 194.59307344 333.125 204.8125 C334.68574587 211.0771605 338.3443397 216.40834648 343.8828125 219.79296875 C354.96786245 224.85989752 365.11108551 224.09615597 376.5625 220.375 C375.9025 218.065 375.2425 215.755 374.5625 213.375 C373.28375 213.54 372.005 213.705 370.6875 213.875 C362.55917337 214.75546238 355.43311278 214.70703342 347.5625 212.375 C347.5625 211.715 347.5625 211.055 347.5625 210.375 C346.9025 210.375 346.2425 210.375 345.5625 210.375 C344.9025 206.415 344.2425 202.455 343.5625 198.375 C345.14502563 198.38285522 345.14502563 198.38285522 346.75952148 198.39086914 C350.6600663 198.40891901 354.5606074 198.42043195 358.46118164 198.42993164 C360.15194316 198.4349719 361.84270029 198.44180405 363.53344727 198.45043945 C365.95850707 198.46251857 368.38350944 198.46823123 370.80859375 198.47265625 C371.56901474 198.47781754 372.32943573 198.48297882 373.11289978 198.48829651 C374.9298257 198.48849238 376.74663127 198.43697277 378.5625 198.375 C379.94021762 197.21024938 379.94021762 197.21024938 379.875 194 C379.77876195 187.31145537 377.31144389 180.43209976 373.5 174.9375 C368.88170792 170.90877712 363.19236826 168.68127013 357.0625 168.1640625 C350.49241263 168.71841362 343.10626557 171.55585469 338.5625 176.375 Z M264.5625 174.375 C264.2325 173.055 263.9025 171.735 263.5625 170.375 C260.5925 170.375 257.6225 170.375 254.5625 170.375 C254.5625 187.205 254.5625 204.035 254.5625 221.375 C257.5325 221.375 260.5025 221.375 263.5625 221.375 C263.57708252 220.37645996 263.59166504 219.37791992 263.60668945 218.34912109 C263.66490068 214.62513394 263.74213077 210.90173708 263.82495117 207.17822266 C263.85809363 205.5702476 263.88615854 203.96215919 263.90893555 202.35400391 C263.94267967 200.03499295 263.99500194 197.71701069 264.05078125 195.3984375 C264.05717117 194.68569672 264.0635611 193.97295593 264.07014465 193.23861694 C264.20552557 188.58607306 265.05235502 185.30395447 267.5625 181.375 C272.33210932 178.62330232 276.10418431 178.04081741 281.5625 178.375 C282.5525 175.735 283.5425 173.095 284.5625 170.375 C277.38806135 168.58139034 270.11049806 168.82700194 264.5625 174.375 Z " fill="#01A1E0" transform="translate(154.4375,0.625)"/>
<path d="M0 0 C7.75 -0.125 7.75 -0.125 10 1 C10 3.97 10 6.94 10 10 C10.66 9.34 11.32 8.68 12 8 C14.83967231 8 17.23735711 8.40267181 20 9 C19.54625 9.804375 19.0925 10.60875 18.625 11.4375 C14.38591572 20.73087709 13.40229038 31.30476376 17 41 C19.51061305 45.12920313 22.54486182 48.63768643 26 52 C24.35 51.67 22.7 51.34 21 51 C21 50.34 21 49.68 21 49 C20.01 49 19.02 49 18 49 C17.67 48.34 17.34 47.68 17 47 C14.97536745 46.34786708 14.97536745 46.34786708 13 46 C13.020625 44.906875 13.04125 43.81375 13.0625 42.6875 C13.18544452 39.05615809 13.18544452 39.05615809 12 36 C11.34 36.66 10.68 37.32 10 38 C10.01747927 40.75589777 10.13863271 43.38786676 10.375 46.125 C10.43171875 46.87910156 10.4884375 47.63320312 10.546875 48.41015625 C10.6884465 50.27418096 10.84299959 52.13721137 11 54 C8.24921116 54.91692961 6.64051087 55.10886083 3.8125 55.0625 C2.554375 55.041875 1.29625 55.02125 0 55 C2.63904371 53.58622659 5.07120629 52.62759865 8 52 C7.67 50.02 7.34 48.04 7 46 C5.7315625 46.14308594 5.7315625 46.14308594 4.4375 46.2890625 C-7.92081737 47.49680715 -7.92081737 47.49680715 -14 45 C-19.16463392 40.50901398 -20.45991421 35.72213917 -21 29 C-21.07216987 22.35135104 -20.61321068 17.12578965 -16 12 C-11.40297634 8.29684205 -6.20282921 7.7861465 -0.484375 8.16796875 C1.68564154 8.40339507 3.84171101 8.67525744 6 9 C6.66 6.69 7.32 4.38 8 2 C5.36 1.67 2.72 1.34 0 1 C0 0.67 0 0.34 0 0 Z " fill="#02A1DF" transform="translate(473,169)"/>
<path d="M0 0 C2.31 0.33 4.62 0.66 7 1 C7.66 2.65 8.32 4.3 9 6 C9.391875 5.525625 9.78375 5.05125 10.1875 4.5625 C12.40808374 2.64820367 14.13375709 2.38733012 17 2 C17 2.66 17 3.32 17 4 C17.99 4.33 18.98 4.66 20 5 C20.495 6.485 20.495 6.485 21 8 C21.82242188 7.84402344 22.64484375 7.68804687 23.4921875 7.52734375 C40.34632418 4.58857396 40.34632418 4.58857396 47.125 9.0625 C49.65219574 13.02177333 49.14247518 15.36005833 49 20 C47.78183594 19.96519531 46.56367188 19.93039063 45.30859375 19.89453125 C43.68490972 19.86637488 42.06121065 19.83907671 40.4375 19.8125 C39.63763672 19.78736328 38.83777344 19.76222656 38.01367188 19.73632812 C32.50152184 19.66883241 28.95483306 20.61943077 24 23 C23.01 23 22.02 23 21 23 C20.505 24.485 20.505 24.485 20 26 C19.34 26 18.68 26 18 26 C16.6207777 32.30338787 15.58882051 37.6496923 17 44 C16.01 44 15.02 44 14 44 C12.02612187 39.23947038 11.9929762 36.03511899 13 31 C12.01 31 11.02 31 10 31 C10 34.96 10 38.92 10 43 C9.34 43 8.68 43 8 43 C7.67 43.99 7.34 44.98 7 46 C6.96261719 45.03578125 6.92523438 44.0715625 6.88671875 43.078125 C6.82097656 41.81484375 6.75523438 40.5515625 6.6875 39.25 C6.62949219 37.99703125 6.57148437 36.7440625 6.51171875 35.453125 C5.98709029 31.91288409 5.29081957 30.62860798 3 28 C3 27.34 3 26.68 3 26 C1.91332031 25.81050781 1.91332031 25.81050781 0.8046875 25.6171875 C-3.6802429 24.63025296 -7.77001428 22.75534509 -12 21 C-12.69222656 20.73960937 -13.38445312 20.47921875 -14.09765625 20.2109375 C-16.78748829 19.17155442 -18.89001956 18.09664948 -21.0625 16.1875 C-22 14 -22 14 -21.4375 10.875 C-19.83050523 7.66101047 -19.23147715 7.24826013 -16 6 C-9.28565735 5.09589049 -2.55022661 6.62873761 4 8 C4.33 6.35 4.66 4.7 5 3 C3.35 2.34 1.7 1.68 0 1 C0 0.67 0 0.34 0 0 Z " fill="#16A7DF" transform="translate(119,171)"/>
<path d="M0 0 C4.53589567 3.66731991 7.14481377 7.21894109 8 13 C8.63954481 21.11729957 8.24821349 28.93973314 3 35.5 C-1.24335831 38.68251873 -5.92313826 38.46560284 -11 38 C-14.96466947 36.59033974 -16.36320869 34.66821863 -18.25 31.0625 C-22.01471658 23.05476269 -21.69182054 15.5745677 -18.984375 7.2734375 C-17.58300302 4.03693554 -15.79628759 2.11426622 -13 0 C-8.63539527 -1.45788664 -4.41381597 -1.16650851 0 0 Z " fill="#02A1DF" transform="translate(380,178)"/>
<path d="M0 0 C0.495 1.485 0.495 1.485 1 3 C0.0409375 3.433125 0.0409375 3.433125 -0.9375 3.875 C-3.15206079 4.82823451 -3.15206079 4.82823451 -4 7 C-2.515 7.495 -2.515 7.495 -1 8 C-1.375 9.9375 -1.375 9.9375 -2 12 C-2.66 12.33 -3.32 12.66 -4 13 C-2.7315625 14.0209375 -2.7315625 14.0209375 -1.4375 15.0625 C1 18 1 18 0.8125 21.8125 C0.544375 22.864375 0.27625 23.91625 0 25 C-1.41199578 25.39222105 -2.82992764 25.76311059 -4.25 26.125 C-5.03890625 26.33382812 -5.8278125 26.54265625 -6.640625 26.7578125 C-9 27 -9 27 -13 25 C-7.555 24.01 -7.555 24.01 -2 23 C-2.66 21.02 -3.32 19.04 -4 17 C-5.918125 17.2475 -5.918125 17.2475 -7.875 17.5 C-16.1376049 18.39782636 -23.38494132 18.80752934 -31 15 C-31 14.34 -31 13.68 -31 13 C-31.66 13 -32.32 13 -33 13 C-34.70572284 8.52247755 -35 6.01632918 -35 1 C-17.675 0.505 -17.675 0.505 0 0 Z " fill="#06A3DF" transform="translate(533,198)"/>
<path d="M0 0 C0.68449219 0.00064453 1.36898437 0.00128906 2.07421875 0.00195312 C7.10932037 0.04682037 7.10932037 0.04682037 8.25 1.1875 C8.32325168 4.05017567 8.34238205 6.888219 8.3125 9.75 C8.30798828 10.55630859 8.30347656 11.36261719 8.29882812 12.19335938 C8.28700518 14.19143756 8.26906914 16.18947783 8.25 18.1875 C0.79336706 20.03637825 -5.51349387 21.26068385 -12.6875 17.75 C-14.75 16.1875 -14.75 16.1875 -15.75 14.1875 C-16.20714286 7.10178571 -16.20714286 7.10178571 -14.5625 3.8125 C-10.26430417 -0.04105488 -5.52842869 -0.10119474 0 0 Z " fill="#10A3DE" transform="translate(159.75,196.8125)"/>
<path d="M0 0 C1.98 0 3.96 0 6 0 C6 0.66 6 1.32 6 2 C6.99 2.33 7.98 2.66 9 3 C9.08153933 4.58246707 9.13943557 6.16616273 9.1875 7.75 C9.23970703 9.07257813 9.23970703 9.07257813 9.29296875 10.421875 C8.94283053 13.50309131 7.83722548 14.56286416 6 17 C5.42770132 19.80883637 5.42770132 19.80883637 5.3125 22.75 C5.24675781 23.73484375 5.18101562 24.7196875 5.11328125 25.734375 C5.07589844 26.48203125 5.03851563 27.2296875 5 28 C-15.42686463 21.53149287 -15.42686463 21.53149287 -19 17 C-19.5 14.5625 -19.5 14.5625 -19 12 C-16.92468204 9.52300759 -15.27946357 8.23076497 -12.05078125 7.6484375 C-5.74840688 7.39951068 0.03533333 9.12698318 6 11 C6.66 8.69 7.32 6.38 8 4 C5.03 3.34 2.06 2.68 -1 2 C-0.67 1.34 -0.34 0.68 0 0 Z " fill="#0BA4DE" transform="translate(295,169)"/>
<path d="M0 0 C3.22790919 2.06227532 5.03069232 4.86813002 6.25 8.4375 C6.25 10.4175 6.25 12.3975 6.25 14.4375 C-2.33 14.4375 -10.91 14.4375 -19.75 14.4375 C-18.59146341 5.16920732 -18.59146341 5.16920732 -14.75 1.4375 C-10.48407792 -1.76194156 -4.95463944 -1.01344898 0 0 Z " fill="#02A0DF" transform="translate(517.75,177.5625)"/>
<path d="M0 0 C4.89754264 2.40256809 7.122274 4.88841255 9 10 C9 11.65 9 13.3 9 15 C0.42 15 -8.16 15 -17 15 C-16 6 -16 6 -13.0625 3 C-8.60248915 0.08733985 -5.31569342 -0.7028198 0 0 Z " fill="#0FA2DC" transform="translate(239,177)"/>
<path d="M0 0 C1.32 0 2.64 0 4 0 C4.28875 0.639375 4.5775 1.27875 4.875 1.9375 C5.82823451 4.15206079 5.82823451 4.15206079 8 5 C8 6.32 8 7.64 8 9 C8.66 9 9.32 9 10 9 C10 9.66 10 10.32 10 11 C11.3921875 9.7934375 11.3921875 9.7934375 12.8125 8.5625 C14.99279031 6.67291506 16.17337435 5.94220855 19 5 C18.97679687 5.59167969 18.95359375 6.18335938 18.9296875 6.79296875 C18.69722104 13.17940476 18.69722104 13.17940476 21 19 C24.01283733 21.31501804 24.01283733 21.31501804 27 23 C26.505 25.475 26.505 25.475 26 28 C25.01 28 24.02 28 23 28 C23.66 26.35 24.32 24.7 25 23 C23.7625 22.87625 22.525 22.7525 21.25 22.625 C18.1237803 22.24253695 15.71120763 21.69450477 13 20 C12.505 21.485 12.505 21.485 12 23 C12 22.34 12 21.68 12 21 C11.34 21 10.68 21 10 21 C9.67 22.98 9.34 24.96 9 27 C-2.22 27 -13.44 27 -25 27 C-24.67 28.65 -24.34 30.3 -24 32 C-23.66666667 33.66666667 -23.33333333 35.33333333 -23 37 C-23.66 37 -24.32 37 -25 37 C-26.92166045 32.77234701 -27.30047086 29.89670397 -28 25 C-16.12 25 -4.24 25 8 25 C7.14938078 11.12073368 7.14938078 11.12073368 0 0 Z " fill="#09A2DD" transform="translate(249,174)"/>
<path d="M0 0 C6.03880571 1.03279373 11.52038663 2.20189955 17 5 C18.42041821 7.84083641 18.31452272 9.85477278 18 13 C16.1329009 15.30275556 14.64352259 16.67823871 12 18 C4.7404191 18.60496508 -2.12825679 17.01022025 -8.125 12.8125 C-8.74375 12.214375 -9.3625 11.61625 -10 11 C-9.22914062 10.96261719 -8.45828125 10.92523438 -7.6640625 10.88671875 C-6.15972656 10.78810547 -6.15972656 10.78810547 -4.625 10.6875 C-3.62726563 10.62949219 -2.62953125 10.57148438 -1.6015625 10.51171875 C-0.74304688 10.34285156 0.11546875 10.17398438 1 10 C1.66 9.01 2.32 8.02 3 7 C3.99 6.67 4.98 6.34 6 6 C6.33 5.34 6.66 4.68 7 4 C6.01 4 5.02 4 4 4 C4 3.34 4 2.68 4 2 C2.68 1.67 1.36 1.34 0 1 C0 0.67 0 0.34 0 0 Z " fill="#1BA7DE" transform="translate(99,199)"/>
<path d="M0 0 C0.33 0 0.66 0 1 0 C1.17855235 5.70092153 0.67311365 10.61308965 -0.75 16.125 C-0.98589844 17.14013672 -0.98589844 17.14013672 -1.2265625 18.17578125 C-2.37214465 22.73167336 -3.82000343 26.42250386 -7 30 C-10.015625 30.5859375 -10.015625 30.5859375 -13.25 30.375 C-14.32765625 30.32085937 -15.4053125 30.26671875 -16.515625 30.2109375 C-17.33546875 30.14132813 -18.1553125 30.07171875 -19 30 C-19.33 31.98 -19.66 33.96 -20 36 C-17.43269226 37.28365387 -15.55347003 37.13275635 -12.6875 37.125 C-11.74261719 37.12757813 -10.79773438 37.13015625 -9.82421875 37.1328125 C-7.11404264 37.005363 -4.64026415 36.60596226 -2 36 C-3.515625 37.984375 -3.515625 37.984375 -6 40 C-8.73682971 40.2911521 -11.03940039 40.38322418 -13.75 40.25 C-14.44738281 40.23195312 -15.14476562 40.21390625 -15.86328125 40.1953125 C-17.57611539 40.14838554 -19.28823824 40.07664605 -21 40 C-22.20272819 37.59454362 -22.10071472 36.05003047 -22.0625 33.375 C-22.05347656 32.55773437 -22.04445313 31.74046875 -22.03515625 30.8984375 C-22.02355469 30.27195313 -22.01195312 29.64546875 -22 29 C-19.24921116 28.08307039 -17.64051087 27.89113917 -14.8125 27.9375 C-12.9253125 27.9684375 -12.9253125 27.9684375 -11 28 C-11.33 26.35 -11.66 24.7 -12 23 C-11.34 22.67 -10.68 22.34 -10 22 C-9.731875 21.278125 -9.46375 20.55625 -9.1875 19.8125 C-8 17 -8 17 -5.4375 14.25 C-2.19984414 10.61239842 -2.11517319 6.71163044 -2 2 C-1.34 2 -0.68 2 0 2 C0 1.34 0 0.68 0 0 Z " fill="#20A7DB" transform="translate(317,209)"/>
<path d="M0 0 C0.495 1.485 0.495 1.485 1 3 C-6.92 3 -14.84 3 -23 3 C-23 5.97 -23 8.94 -23 12 C-23.66 12 -24.32 12 -25 12 C-25 12.66 -25 13.32 -25 14 C-24.34 14.33 -23.68 14.66 -23 15 C-23 15.66 -23 16.32 -23 17 C-26.71599191 17.20086443 -27.77208445 17.1519437 -31 15 C-31 14.34 -31 13.68 -31 13 C-31.66 13 -32.32 13 -33 13 C-34.70572284 8.52247755 -35 6.01632918 -35 1 C-17.675 0.505 -17.675 0.505 0 0 Z " fill="#1AA8E0" transform="translate(533,198)"/>
<path d="M0 0 C0.99 0 1.98 0 3 0 C2.67 1.32 2.34 2.64 2 4 C2.99 4.33 3.98 4.66 5 5 C4.67 5.66 4.34 6.32 4 7 C2.35 7 0.7 7 -1 7 C-1 7.66 -1 8.32 -1 9 C0.98 8.67 2.96 8.34 5 8 C1.74147635 10.1723491 -1.59244728 12.07119658 -5 14 C-5 12.35 -5 10.7 -5 9 C-7.97 9 -10.94 9 -14 9 C-14 25.83 -14 42.66 -14 60 C-11.03 60 -8.06 60 -5 60 C-5 60.33 -5 60.66 -5 61 C-8.3 61 -11.6 61 -15 61 C-15 42.19 -15 23.38 -15 4 C-8.565 3.505 -8.565 3.505 -2 3 C-1.34 2.01 -0.68 1.02 0 0 Z " fill="#65C7EA" transform="translate(423,162)"/>
<path d="M0 0 C-0.99 0.495 -0.99 0.495 -2 1 C-3.17486497 3.62616876 -4.09014862 6.27044585 -5 9 C-7.82000838 10.41000419 -10.59357703 10.37608381 -13.7109375 10.62109375 C-16.13589449 11.02249448 -17.8696298 11.79862685 -20 13 C-20 14.98 -20 16.96 -20 19 C-20.66 19 -21.32 19 -22 19 C-22.33 20.32 -22.66 21.64 -23 23 C-19.37 23 -15.74 23 -12 23 C-12.33 23.99 -12.66 24.98 -13 26 C-13 25.34 -13 24.68 -13 24 C-16.96 24 -20.92 24 -25 24 C-24.17027559 14.59645669 -24.17027559 14.59645669 -22 11 C-17.73759225 7.48978185 -14.27906825 7.7315728 -9 8 C-8.01 5.69 -7.02 3.38 -6 1 C-17.68330868 1.08077493 -17.68330868 1.08077493 -28 6 C-28 5.34 -28 4.68 -28 4 C-28.99 4 -29.98 4 -31 4 C-31 3.34 -31 2.68 -31 2 C-28.525 2.495 -28.525 2.495 -26 3 C-26 2.01 -26 1.02 -26 0 C-22.79395585 -0.3965962 -19.58515933 -0.76335479 -16.375 -1.125 C-15.01955078 -1.29322266 -15.01955078 -1.29322266 -13.63671875 -1.46484375 C-8.5448351 -2.02234926 -4.80578442 -2.15541826 0 0 Z " fill="#60C1E2" transform="translate(360,147)"/>
<path d="M0 0 C1.72863281 0.02707031 1.72863281 0.02707031 3.4921875 0.0546875 C4.36101562 0.07789063 5.22984375 0.10109375 6.125 0.125 C7.11260267 3.26737212 7.2500254 4.78249746 6.10546875 7.91796875 C4.125 10.125 4.125 10.125 0.98828125 10.61328125 C-0.76935547 10.52626953 -0.76935547 10.52626953 -2.5625 10.4375 C-3.74199219 10.39238281 -4.92148438 10.34726563 -6.13671875 10.30078125 C-7.04035156 10.24277344 -7.94398438 10.18476563 -8.875 10.125 C-8.875 9.135 -8.875 8.145 -8.875 7.125 C-10.195 6.465 -11.515 5.805 -12.875 5.125 C-12.875 4.135 -12.875 3.145 -12.875 2.125 C-8.41165816 0.40206865 -4.77298769 -0.09740791 0 0 Z " fill="#04A0DD" transform="translate(157.875,178.875)"/>
<path d="M0 0 C0.33 0 0.66 0 1 0 C1.042721 1.66611905 1.04063832 3.33382885 1 5 C0 6 0 6 -2.50390625 6.09765625 C-4.01791016 6.08025391 -4.01791016 6.08025391 -5.5625 6.0625 C-6.57441406 6.05347656 -7.58632813 6.04445312 -8.62890625 6.03515625 C-9.80259766 6.01775391 -9.80259766 6.01775391 -11 6 C-10.97679687 6.61488281 -10.95359375 7.22976562 -10.9296875 7.86328125 C-10.90261719 9.07564453 -10.90261719 9.07564453 -10.875 10.3125 C-10.85179687 11.11300781 -10.82859375 11.91351563 -10.8046875 12.73828125 C-11 15 -11 15 -13 18 C-13.43555111 19.90848362 -13.43555111 19.90848362 -13.59765625 21.9765625 C-13.71657227 23.10578125 -13.71657227 23.10578125 -13.83789062 24.2578125 C-13.91201172 25.03898437 -13.98613281 25.82015625 -14.0625 26.625 C-14.87839982 34.87839982 -14.87839982 34.87839982 -16 36 C-16.13787256 37.35115107 -16.23327644 38.7066454 -16.3125 40.0625 C-16.75157536 44.89929844 -17.70776473 49.48530278 -18.875 54.1875 C-19.03653564 54.85209229 -19.19807129 55.51668457 -19.36450195 56.20141602 C-22.29610827 67.67013328 -22.29610827 67.67013328 -26.5625 71 C-27.366875 71.33 -28.17125 71.66 -29 72 C-29.66 71.67 -30.32 71.34 -31 71 C-30.236875 70.319375 -29.47375 69.63875 -28.6875 68.9375 C-23.95633616 63.7662279 -22.48199786 57.74534162 -21.125 51 C-20.88064209 49.82425415 -20.88064209 49.82425415 -20.63134766 48.62475586 C-19.52222804 43.1056148 -18.58611144 37.56315392 -17.703125 32.00390625 C-17.59277924 31.30969574 -17.48243347 30.61548523 -17.3687439 29.90023804 C-16.81632984 26.40605636 -16.27582324 22.91046411 -15.75048828 19.41210938 C-15.55181152 18.12240234 -15.35313477 16.83269531 -15.1484375 15.50390625 C-14.97489746 14.34705322 -14.80135742 13.1902002 -14.62255859 11.99829102 C-14.05911157 9.28468595 -13.53574835 7.29709181 -12 5 C-9.3984375 4.390625 -9.3984375 4.390625 -6.375 4.25 C-5.37210937 4.19328125 -4.36921875 4.1365625 -3.3359375 4.078125 C-2.56507813 4.05234375 -1.79421875 4.0265625 -1 4 C-0.67 2.68 -0.34 1.36 0 0 Z " fill="#54B9DC" transform="translate(346,173)"/>
<path d="M0 0 C0.66 0.33 1.32 0.66 2 1 C2 1.66 2 2.32 2 3 C2.99 3 3.98 3 5 3 C5 2.01 5 1.02 5 0 C7.97 0.33 10.94 0.66 14 1 C12.02 1.99 12.02 1.99 10 3 C9.32839844 3.34160156 8.65679687 3.68320313 7.96484375 4.03515625 C7.29582031 4.37417969 6.62679688 4.71320313 5.9375 5.0625 C5.26589844 5.40410156 4.59429687 5.74570313 3.90234375 6.09765625 C2 7 2 7 -1 8 C-2.11935073 9.64630193 -2.11935073 9.64630193 -3 12 C-3.7734375 13.7325 -3.7734375 13.7325 -4.5625 15.5 C-6.56165401 20.83107737 -6.72739389 26.35987361 -7 32 C-7.33 32 -7.66 32 -8 32 C-8.33 26.72 -8.66 21.44 -9 16 C-9.66 16 -10.32 16 -11 16 C-11 14.35 -11 12.7 -11 11 C-10.34 10.67 -9.68 10.34 -9 10 C-8.87625 9.030625 -8.7525 8.06125 -8.625 7.0625 C-8 4 -8 4 -6.125 2.625 C-4 2 -4 2 -1 2 C-0.67 1.34 -0.34 0.68 0 0 Z " fill="#04A1E1" transform="translate(357,168)"/>
<path d="M0 0 C2.27734375 1.0234375 2.27734375 1.0234375 4 2 C3.2575 2.04125 2.515 2.0825 1.75 2.125 C-2.1190206 3.35605201 -3.03337062 5.55839859 -5 9 C-5.33 9.66 -5.66 10.32 -6 11 C-4.35 11 -2.7 11 -1 11 C-1.33 11.66 -1.66 12.32 -2 13 C0.97 13.495 0.97 13.495 4 14 C1.60502504 15.51903504 0.41793184 16.05492053 -2.4375 15.6796875 C-11.52419536 12.82624353 -11.52419536 12.82624353 -14 9 C-14.5625 6.5 -14.5625 6.5 -14 4 C-10.12063869 -0.63020544 -5.66711481 -0.87186382 0 0 Z " fill="#25ABDE" transform="translate(290,177)"/>
<path d="M0 0 C0.66 0.66 1.32 1.32 2 2 C-0.31 2.33 -2.62 2.66 -5 3 C-4.67 3.66 -4.34 4.32 -4 5 C-6.97 5.66 -9.94 6.32 -13 7 C-13 8.65 -13 10.3 -13 12 C-6.4 12.33 0.2 12.66 7 13 C7 11.02 7 9.04 7 7 C9 9 9 9 9 15 C0.42 15 -8.16 15 -17 15 C-15.84146341 5.73170732 -15.84146341 5.73170732 -12 2 C-8.32339362 -0.75745478 -4.40934378 -0.28447379 0 0 Z " fill="#55BCE1" transform="translate(515,177)"/>
<path d="M0 0 C4.12134441 4.12134441 4.15082658 7.59711487 4.25 13.25 C4.1799909 19.73459319 3.1087203 25.36409962 -1 30.5 C-5.2141589 33.66061917 -9.9485894 33.51400318 -15 33 C-19.54054054 30.91891892 -19.54054054 30.91891892 -21 28 C-18.36 28.33 -15.72 28.66 -13 29 C-13 29.33 -13 29.66 -13 30 C-8.2102679 30.23428313 -8.2102679 30.23428313 -4 28 C-3.01 28 -2.02 28 -1 28 C-1 27.01 -1 26.02 -1 25 C-0.34 25 0.32 25 1 25 C0.505 12.625 0.505 12.625 0 0 Z " fill="#5ABADD" transform="translate(384,183)"/>
<path d="M0 0 C2.64 0 5.28 0 8 0 C4.86936228 1.71369032 1.83197135 2.69141619 -1.625 3.5625 C-2.58664062 3.81128906 -3.54828125 4.06007813 -4.5390625 4.31640625 C-12.91044879 5.96989677 -21.30009808 6.19293923 -29.8125 6.1875 C-31.38547852 6.1884668 -31.38547852 6.1884668 -32.99023438 6.18945312 C-40.50130248 6.13829415 -47.64323916 5.60929143 -55 4 C-54.67 3.34 -54.34 2.68 -54 2 C-53.17258301 2.16226074 -52.34516602 2.32452148 -51.49267578 2.49169922 C-47.6790421 3.04671008 -43.9601745 3.14392243 -40.1171875 3.1328125 C-39.01215378 3.13424759 -39.01215378 3.13424759 -37.88479614 3.13571167 C-36.33677077 3.13638868 -34.78874249 3.13456802 -33.24072266 3.13037109 C-30.87526077 3.12500059 -28.50998741 3.13034021 -26.14453125 3.13671875 C-24.63541625 3.13605818 -23.12630137 3.13477747 -21.6171875 3.1328125 C-20.91294647 3.13483673 -20.20870544 3.13686096 -19.48312378 3.13894653 C-16.15898858 3.12309537 -13.19015695 2.94244133 -10 2 C-8.25113019 1.93375493 -6.49997252 1.91447405 -4.75 1.9375 C-3.85796875 1.94652344 -2.9659375 1.95554687 -2.046875 1.96484375 C-1.37140625 1.97644531 -0.6959375 1.98804688 0 2 C0 1.34 0 0.68 0 0 Z " fill="#33A6D1" transform="translate(496,311)"/>
<path d="M0 0 C1.4375 1.5625 1.4375 1.5625 1.4375 3.5625 C0.1175 3.5625 -1.2025 3.5625 -2.5625 3.5625 C-2.8925 2.9025 -3.2225 2.2425 -3.5625 1.5625 C-8.14410463 0.28391266 -11.26455235 0.5112068 -15.5625 2.5625 C-16.98305068 4.56386244 -16.98305068 4.56386244 -17.5625 6.5625 C-18.2225 6.5625 -18.8825 6.5625 -19.5625 6.5625 C-19.541875 7.366875 -19.52125 8.17125 -19.5 9 C-19.5625 11.5625 -19.5625 11.5625 -20.5625 12.5625 C-20.79731693 14.74542774 -20.97613323 16.93453174 -21.125 19.125 C-21.20878906 20.32253906 -21.29257812 21.52007812 -21.37890625 22.75390625 C-21.43949219 23.68074219 -21.50007813 24.60757813 -21.5625 25.5625 C-24.72036884 19.85065756 -23.9769955 14.48260786 -22.375 8.375 C-20.96018692 4.03712971 -19.27372776 1.36855026 -15.5625 -1.4375 C-10.4423889 -3.17258962 -4.68905585 -2.63044596 0 0 Z " fill="#5BBFE3" transform="translate(382.5625,179.4375)"/>
<path d="M0 0 C0.33 0 0.66 0 1 0 C1 4.95 1 9.9 1 15 C-10.22 15 -21.44 15 -33 15 C-32.67 16.65 -32.34 18.3 -32 20 C-31.66666667 21.66666667 -31.33333333 23.33333333 -31 25 C-31.66 25 -32.32 25 -33 25 C-34.92166045 20.77234701 -35.30047086 17.89670397 -36 13 C-24.12 13 -12.24 13 0 13 C0 8.71 0 4.42 0 0 Z " fill="#48AED7" transform="translate(257,186)"/>
<path d="M0 0 C2.5 1 2.5 1 4 2 C2 5 2 5 -1 6 C-1.33 6.66 -1.66 7.32 -2 8 C-1.01 8 -0.02 8 1 8 C1.33 8.99 1.66 9.98 2 11 C0.68 11.33 -0.64 11.66 -2 12 C-2.4021875 11.0409375 -2.4021875 11.0409375 -2.8125 10.0625 C-3.88667752 7.66868314 -3.88667752 7.66868314 -7 7 C-7 7.66 -7 8.32 -7 9 C-8.32 8.67 -9.64 8.34 -11 8 C-11.33 6.35 -11.66 4.7 -12 3 C-8.38071483 -0.61928517 -4.83387251 -0.60423406 0 0 Z " fill="#04A0DA" transform="translate(111,178)"/>
<path d="M0 0 C0.66 0 1.32 0 2 0 C1.57039806 5.3700243 0.97876657 9.20629234 -3 13 C-7.04561288 13.51176195 -10.94461604 13.34432505 -15 13 C-15.33 14.98 -15.66 16.96 -16 19 C-13.43269226 20.28365387 -11.55347003 20.13275635 -8.6875 20.125 C-7.74261719 20.12757813 -6.79773438 20.13015625 -5.82421875 20.1328125 C-3.11404264 20.005363 -0.64026415 19.60596226 2 19 C0.484375 20.984375 0.484375 20.984375 -2 23 C-4.73682971 23.2911521 -7.03940039 23.38322418 -9.75 23.25 C-10.44738281 23.23195312 -11.14476562 23.21390625 -11.86328125 23.1953125 C-13.57611539 23.14838554 -15.28823824 23.07664605 -17 23 C-18.20272819 20.59454362 -18.10071472 19.05003047 -18.0625 16.375 C-18.05347656 15.55773437 -18.04445313 14.74046875 -18.03515625 13.8984375 C-18.02355469 13.27195313 -18.01195312 12.64546875 -18 12 C-17.16855469 11.93941406 -16.33710938 11.87882813 -15.48046875 11.81640625 C-14.39378906 11.73261719 -13.30710937 11.64882812 -12.1875 11.5625 C-11.10855469 11.48128906 -10.02960938 11.40007812 -8.91796875 11.31640625 C-5.94010095 11.09787539 -5.94010095 11.09787539 -3 10 C-3 8.68 -3 7.36 -3 6 C-2.01 6 -1.02 6 0 6 C0 4.02 0 2.04 0 0 Z " fill="#4CB5DA" transform="translate(313,226)"/>
<path d="M0 0 C0.99 0 1.98 0 3 0 C2.69255859 1.01320312 2.69255859 1.01320312 2.37890625 2.046875 C2.10949219 2.93890625 1.84007812 3.8309375 1.5625 4.75 C1.29566406 5.63171875 1.02882813 6.5134375 0.75390625 7.421875 C-1.55882855 15.33070903 -1.90846794 23.16215681 1 31 C3.51061305 35.12920313 6.54486182 38.63768643 10 42 C8.35 41.67 6.7 41.34 5 41 C5 40.34 5 39.68 5 39 C4.01 39 3.02 39 2 39 C1.67 38.34 1.34 37.68 1 37 C-1.02463255 36.34786708 -1.02463255 36.34786708 -3 36 C-3.08813808 31.87513789 -3.14077078 27.75052261 -3.1875 23.625 C-3.21263672 22.46871094 -3.23777344 21.31242187 -3.26367188 20.12109375 C-3.32505259 12.87816892 -2.58048618 6.78626166 0 0 Z " fill="#30AAD6" transform="translate(489,179)"/>
<path d="M0 0 C0.33 0.99 0.66 1.98 1 3 C0.01 3.33 -0.98 3.66 -2 4 C-2 5.98 -2 7.96 -2 10 C8.395 9.505 8.395 9.505 19 9 C18.34 6.03 17.68 3.06 17 0 C18.9375 1.5 18.9375 1.5 21 4 C21.33 6.64 21.66 9.28 22 12 C13.42 12 4.84 12 -4 12 C-3 3 -3 3 0 0 Z " fill="#56BDE1" transform="translate(226,180)"/>
<path d="M0 0 C0.495 1.485 0.495 1.485 1 3 C-10.22 3 -21.44 3 -33 3 C-32.67 5.31 -32.34 7.62 -32 10 C-33.5 8.875 -33.5 8.875 -35 7 C-35 5.02 -35 3.04 -35 1 C-17.675 0.505 -17.675 0.505 0 0 Z " fill="#3EAAD2" transform="translate(533,198)"/>
<path d="M0 0 C7.75 -0.125 7.75 -0.125 10 1 C10.125 8.75 10.125 8.75 9 11 C2.07 11 -4.86 11 -12 11 C-12.33 11.99 -12.66 12.98 -13 14 C-14.4375 15.5625 -14.4375 15.5625 -16 17 C-16.66 17.66 -17.32 18.32 -18 19 C-18.33 18.01 -18.66 17.02 -19 16 C-16.91712145 12.35496255 -15.52558621 10.5358863 -11.53125 9.1328125 C-5.44183844 7.88414103 -0.11068098 7.99824902 6 9 C6.66 6.69 7.32 4.38 8 2 C5.36 1.67 2.72 1.34 0 1 C0 0.67 0 0.34 0 0 Z " fill="#56BBDC" transform="translate(473,169)"/>
<path d="M0 0 C0.66 0 1.32 0 2 0 C1.67 1.98 1.34 3.96 1 6 C3.64 6 6.28 6 9 6 C10.08339692 10.07344068 9.83467133 13.06248099 9.00390625 17.17578125 C8.77509766 18.33271484 8.54628906 19.48964844 8.31054688 20.68164062 C8.06369141 21.87982422 7.81683594 23.07800781 7.5625 24.3125 C7.31951172 25.53001953 7.07652344 26.74753906 6.82617188 28.00195312 C6.22593849 31.00312006 5.61693607 34.00222991 5 37 C4.67 37 4.34 37 4 37 C4.33 30.73 4.66 24.46 5 18 C5.66 18 6.32 18 7 18 C7 14.7 7 11.4 7 8 C4.69 8 2.38 8 0 8 C0 5.36 0 2.72 0 0 Z " fill="#4FB7DC" transform="translate(314,172)"/>
<path d="M0 0 C-0.99 0.495 -0.99 0.495 -2 1 C-3.17486497 3.62616876 -4.09014862 6.27044585 -5 9 C-5.66 8.67 -6.32 8.34 -7 8 C-6.67 5.69 -6.34 3.38 -6 1 C-17.68330868 1.08077493 -17.68330868 1.08077493 -28 6 C-28 5.34 -28 4.68 -28 4 C-28.99 4 -29.98 4 -31 4 C-31 3.34 -31 2.68 -31 2 C-28.525 2.495 -28.525 2.495 -26 3 C-26 2.01 -26 1.02 -26 0 C-22.79395585 -0.3965962 -19.58515933 -0.76335479 -16.375 -1.125 C-15.01955078 -1.29322266 -15.01955078 -1.29322266 -13.63671875 -1.46484375 C-8.5448351 -2.02234926 -4.80578442 -2.15541826 0 0 Z " fill="#1A9DD2" transform="translate(360,147)"/>
<path d="M0 0 C0.33 0 0.66 0 1 0 C0.63962036 13.62890276 -4.81504597 27.93843276 -11 40 C-11.99 40.495 -11.99 40.495 -13 41 C-13 39.02 -13 37.04 -13 35 C-12.34 35 -11.68 35 -11 35 C-11 34.01 -11 33.02 -11 32 C-10.34 32 -9.68 32 -9 32 C-9 30.35 -9 28.7 -9 27 C-8.34 27 -7.68 27 -7 27 C-6.24758891 23.34543185 -5.59950296 19.68266103 -5 16 C-4.34 16 -3.68 16 -3 16 C-3.33 14.02 -3.66 12.04 -4 10 C-3.34 9.67 -2.68 9.34 -2 9 C-1.31270746 6.88153715 -1.31270746 6.88153715 -0.875 4.4375 C-0.62363281 3.19806641 -0.62363281 3.19806641 -0.3671875 1.93359375 C-0.24601563 1.29550781 -0.12484375 0.65742188 0 0 Z " fill="#2FA9D4" transform="translate(592,208)"/>
<path d="M0 0 C0.99 0 1.98 0 3 0 C5.67927341 4.01891012 5.15601248 6.24161923 5 11 C3.741875 11.020625 2.48375 11.04125 1.1875 11.0625 C0.47980469 11.07410156 -0.22789062 11.08570313 -0.95703125 11.09765625 C-3 11 -3 11 -6 10 C-5.25 8.0625 -5.25 8.0625 -4 6 C-1.875 5.25 -1.875 5.25 0 5 C0 3.35 0 1.7 0 0 Z " fill="#16A5DA" transform="translate(517,179)"/>
<path d="M0 0 C0 3.7794561 -1.04679411 5.79116175 -3 9 C-4.32594105 9.36162029 -5.65938457 9.69728039 -7 10 C-8.29660434 12.49034386 -8.29660434 12.49034386 -9 15 C-8.34 15 -7.68 15 -7 15 C-7 15.99 -7 16.98 -7 18 C-8.175625 18.0928125 -8.175625 18.0928125 -9.375 18.1875 C-10.24125 18.455625 -11.1075 18.72375 -12 19 C-12.71727778 20.64551962 -13.38325228 22.31422289 -14 24 C-16.125 25.3125 -16.125 25.3125 -18 26 C-14.59182031 16.28037645 -6.98961098 7.43910365 0 0 Z " fill="#2EA8D8" transform="translate(71,36)"/>
<path d="M0 0 C5.47235396 0.65147071 10.03489463 2.03489463 14 6 C14.45111701 9.45856374 14.4201904 11.32404152 12.5625 14.3125 C8.94199701 16.69673367 5.31256091 17.2277761 1 17 C-1.28125 16.0078125 -1.28125 16.0078125 -3 15 C-2.15695312 14.96261719 -1.31390625 14.92523438 -0.4453125 14.88671875 C1.19824219 14.78810547 1.19824219 14.78810547 2.875 14.6875 C3.96554687 14.62949219 5.05609375 14.57148438 6.1796875 14.51171875 C7.11039062 14.34285156 8.04109375 14.17398438 9 14 C9.66 13.01 10.32 12.02 11 11 C8.22199092 5.24555261 6.04360155 3.35028949 0 1 C0 0.67 0 0.34 0 0 Z " fill="#54BCDE" transform="translate(282,200)"/>
<path d="M0 0 C1.6875 2.4375 1.6875 2.4375 1.4375 6.1875 C1.19 7.26 0.9425 8.3325 0.6875 9.4375 C-0.72449578 9.82972105 -2.14242764 10.20061059 -3.5625 10.5625 C-4.35140625 10.77132812 -5.1403125 10.98015625 -5.953125 11.1953125 C-8.3125 11.4375 -8.3125 11.4375 -12.3125 9.4375 C-6.8675 8.4475 -6.8675 8.4475 -1.3125 7.4375 C-1.9725 5.4575 -2.6325 3.4775 -3.3125 1.4375 C-4.1478125 1.45490234 -4.1478125 1.45490234 -5 1.47265625 C-10.21028343 1.53426433 -15.1562951 1.18749344 -20.3125 0.4375 C-20.3125 0.1075 -20.3125 -0.2225 -20.3125 -0.5625 C-18.06263201 -0.73093931 -15.81259983 -0.89718654 -13.5625 -1.0625 C-11.68304687 -1.20171875 -11.68304687 -1.20171875 -9.765625 -1.34375 C-2.65537605 -1.79417301 -2.65537605 -1.79417301 0 0 Z " fill="#46B4DC" transform="translate(532.3125,213.5625)"/>
<path d="M0 0 C0.33 0 0.66 0 1 0 C0.97643433 0.89924194 0.97643433 0.89924194 0.95239258 1.81665039 C0.8895587 4.56516877 0.85085765 7.31353542 0.8125 10.0625 C0.78736328 11.00544922 0.76222656 11.94839844 0.73632812 12.91992188 C0.67454739 18.83027908 1.3819497 22.71579875 4 28 C4 28.99 4 29.98 4 31 C4.66 31 5.32 31 6 31 C6 31.66 6 32.32 6 33 C5.01 32.67 4.02 32.34 3 32 C3 31.01 3 30.02 3 29 C1.68 28.67 0.36 28.34 -1 28 C-0.67 27.34 -0.34 26.68 0 26 C-0.66 25.01 -1.32 24.02 -2 23 C-2.25878906 20.87109375 -2.25878906 20.87109375 -2.265625 18.4375 C-2.26820313 17.55835938 -2.27078125 16.67921875 -2.2734375 15.7734375 C-2.26570313 14.85820312 -2.25796875 13.94296875 -2.25 13 C-2.25773437 12.08476562 -2.26546875 11.16953125 -2.2734375 10.2265625 C-2.27085937 9.34742188 -2.26828125 8.46828125 -2.265625 7.5625 C-2.26336914 6.75941406 -2.26111328 5.95632812 -2.25878906 5.12890625 C-2 3 -2 3 0 0 Z M-3 29 C-1 30 -1 30 -1 30 Z " fill="#58BADC" transform="translate(443,184)"/>
<path d="M0 0 C0.98097656 0.16371094 1.96195312 0.32742187 2.97265625 0.49609375 C7.14118966 1.09159852 11.23401136 1.11249575 15.4375 1.0625 C16.16904297 1.05798828 16.90058594 1.05347656 17.65429688 1.04882812 C19.43623419 1.03718148 21.21812863 1.01925191 23 1 C23.33 4.3 23.66 7.6 24 11 C21.24921116 11.91692961 19.64051087 12.10886083 16.8125 12.0625 C14.9253125 12.0315625 14.9253125 12.0315625 13 12 C15.63904371 10.58622659 18.07120629 9.62759865 21 9 C20.67 7.02 20.34 5.04 20 3 C18.69675781 3.12568359 18.69675781 3.12568359 17.3671875 3.25390625 C16.21476562 3.35574219 15.06234375 3.45757812 13.875 3.5625 C12.16957031 3.71912109 12.16957031 3.71912109 10.4296875 3.87890625 C7.11102007 3.99608016 4.2437314 3.6655072 1 3 C0.67 2.01 0.34 1.02 0 0 Z " fill="#53B7D8" transform="translate(460,212)"/>
<path d="M0 0 C0 0.66 0 1.32 0 2 C-0.99 2 -1.98 2 -3 2 C-3.2475 2.61875 -3.495 3.2375 -3.75 3.875 C-5.23250486 6.39525827 -6.28387064 7.01231659 -9 8 C-9.99 8 -10.98 8 -12 8 C-12 8.66 -12 9.32 -12 10 C-14.09697236 11.86397543 -15.94302864 12.97776727 -18.5625 14 C-21.03064201 15.01257108 -22.27589183 16.00366422 -24 18 C-24.66 17.34 -25.32 16.68 -26 16 C-4.73204904 0 -4.73204904 0 0 0 Z " fill="#33A8DA" transform="translate(104,13)"/>
<path d="M0 0 C0.66 0.33 1.32 0.66 2 1 C1.01 1.66 0.02 2.32 -1 3 C-0.67 4.65 -0.34 6.3 0 8 C0.99 8.33 1.98 8.66 3 9 C3 8.34 3 7.68 3 7 C4.875 7.125 4.875 7.125 7 8 C8.125 11 8.125 11 9 14 C9.66 14.33 10.32 14.66 11 15 C5.79615149 14.2115381 0.93988694 12.70474913 -3.0625 9.1875 C-4 7 -4 7 -3.3125 3.8125 C-2 1 -2 1 0 0 Z " fill="#3EAFDE" transform="translate(101,178)"/>
<path d="M0 0 C2.97 0.99 5.94 1.98 9 3 C9.33 2.34 9.66 1.68 10 1 C10 1.99 10 2.98 10 4 C10.66 4 11.32 4 12 4 C12 4.99 12 5.98 12 7 C14.75924185 8.80411967 15.88972103 9.0127245 19.25 8.625 C20.1575 8.41875 21.065 8.2125 22 8 C21.67 9.32 21.34 10.64 21 12 C21.66 12 22.32 12 23 12 C23 12.66 23 13.32 23 14 C14.39530506 11.39679125 5.87773735 6.92733331 0 0 Z " fill="#2DAAD6" transform="translate(36,328)"/>
<path d="M0 0 C1.03930664 0.01353516 1.03930664 0.01353516 2.09960938 0.02734375 C3.79572395 0.05073843 5.49165871 0.08660359 7.1875 0.125 C7.1875 0.455 7.1875 0.785 7.1875 1.125 C6.16269531 1.24617187 5.13789063 1.36734375 4.08203125 1.4921875 C2.72131021 1.66110459 1.3606355 1.8303952 0 2 C-1.01030273 2.11794922 -1.01030273 2.11794922 -2.04101562 2.23828125 C-6.07361853 2.74973333 -8.95980609 3.58392244 -12.8125 5.125 C-12.8125 9.085 -12.8125 13.045 -12.8125 17.125 C-15.8125 14.125 -15.8125 14.125 -16.1875 10.1875 C-16.07521266 7.52677836 -15.83525213 6.17050427 -14.625 3.75 C-10.2934645 -0.13344562 -5.56371748 -0.13842742 0 0 Z " fill="#5DBDDC" transform="translate(159.8125,196.875)"/>
<path d="M0 0 C0.61875 0.763125 1.2375 1.52625 1.875 2.3125 C6.66880984 7.06579878 13.46298183 8.15734935 20 8.25 C25.02153607 8.09058616 30.01290585 7.59420696 35 7 C34.67 7.66 34.34 8.32 34 9 C28.69613931 10.08242055 23.33899106 10.15426636 17.9375 10.25 C16.92901001 10.282146 16.92901001 10.282146 15.90014648 10.31494141 C10.13797206 10.35296626 5.71089882 9.01131203 1.0625 5.5625 C0 4 0 4 0 0 Z " fill="#53BBDF" transform="translate(136,215)"/>
<path d="M0 0 C2 1.5 2 1.5 4 4 C4 6.64 4 9.28 4 12 C-3.26 12 -10.52 12 -18 12 C-13.76906904 9.17937936 -9.92545589 9.6614939 -4.93359375 9.5390625 C-1.91545428 9.32809645 -1.91545428 9.32809645 -0.60546875 7.1328125 C0.0936955 4.66995006 0.14155502 2.54799042 0 0 Z " fill="#46B4DD" transform="translate(164,179)"/>
<path d="M0 0 C0.66 0.66 1.32 1.32 2 2 C-0.31 2.33 -2.62 2.66 -5 3 C-4.67 3.66 -4.34 4.32 -4 5 C-5.0725 5.28875 -6.145 5.5775 -7.25 5.875 C-10.09400364 6.72820109 -12.43508983 7.5636503 -15 9 C-14.79570164 5.3226295 -14.22067989 4.19915015 -11.4375 1.6875 C-7.10016101 -0.44173914 -4.77457085 -0.47745709 0 0 Z " fill="#38AEDA" transform="translate(515,177)"/>
<path d="M0 0 C0.99 0.33 1.98 0.66 3 1 C2.2884375 2.546875 2.2884375 2.546875 1.5625 4.125 C-2.78942895 14.36845541 -0.89307766 23.6675798 2 34 C1.34 34 0.68 34 0 34 C-3.63499887 28.54750169 -3.20433564 21.88159436 -3.25 15.5 C-3.270625 14.77941406 -3.29125 14.05882812 -3.3125 13.31640625 C-3.34990094 8.14572673 -2.31341726 4.62683453 0 0 Z " fill="#55B8DD" transform="translate(213,179)"/>
<path d="M0 0 C1.98 0 3.96 0 6 0 C6 0.66 6 1.32 6 2 C6.99 2.33 7.98 2.66 9 3 C9 6.3 9 9.6 9 13 C4.94568308 14.15837626 2.78187881 13.83691257 -1 12 C-1 11.34 -1 10.68 -1 10 C1.31 10.33 3.62 10.66 6 11 C6.66 8.69 7.32 6.38 8 4 C3.545 3.01 3.545 3.01 -1 2 C-0.67 1.34 -0.34 0.68 0 0 Z " fill="#3CADD9" transform="translate(295,169)"/>
<path d="M0 0 C4.18378137 1.55096701 6.08357411 4.35432004 8.6875 7.875 C9.47511719 8.92429687 10.26273438 9.97359375 11.07421875 11.0546875 C12.70044924 13.54186354 13.58826187 15.11085448 14 18 C13.34 17.67 12.68 17.34 12 17 C12 16.34 12 15.68 12 15 C10.68 14.67 9.36 14.34 8 14 C8 13.01 8 12.02 8 11 C6.17032476 9.43990623 6.17032476 9.43990623 4 8 C2.98198643 7.01834406 1.9753197 6.02408568 1 5 C1.33 4.34 1.66 3.68 2 3 C1.34 3 0.68 3 0 3 C0 2.01 0 1.02 0 0 Z " fill="#33AAD4" transform="translate(562,102)"/>
<path d="M0 0 C1.13998793 3.65277824 0.57532188 5.95290355 -0.453125 9.62890625 C-1.46566287 14.01898115 -1.68666203 18.51431963 -2 23 C-2.66 23 -3.32 23 -4 23 C-4 26.63 -4 30.26 -4 34 C-4.66 34 -5.32 34 -6 34 C-5.62945188 22.30920672 -3.70407722 11.11223166 0 0 Z " fill="#44AED7" transform="translate(45,78)"/>
<path d="M0 0 C0.33 0.99 0.66 1.98 1 3 C0.04422943 4.36538653 -0.96352976 5.69481525 -2 7 C-2.28875 7.763125 -2.5775 8.52625 -2.875 9.3125 C-4.37211767 12.88894777 -6.40126068 16.10973544 -9 19 C-9.66 19 -10.32 19 -11 19 C-11.33 20.65 -11.66 22.3 -12 24 C-12.66 24 -13.32 24 -14 24 C-12.72736779 19.73072644 -11.12485037 16.28607961 -8.6875 12.5625 C-8.07132813 11.61890625 -7.45515625 10.6753125 -6.8203125 9.703125 C-4.60880081 6.41907759 -2.34131549 3.19270294 0 0 Z " fill="#2CA8D6" transform="translate(22,184)"/>
<path d="M0 0 C0.33 0 0.66 0 1 0 C1 1.65 1 3.3 1 5 C1.66 3.68 2.32 2.36 3 1 C3.33 1 3.66 1 4 1 C4.36279456 2.28926992 4.71496698 3.58153272 5.0625 4.875 C5.25972656 5.59429687 5.45695312 6.31359375 5.66015625 7.0546875 C6 9 6 9 5 11 C3.35 10.67 1.7 10.34 0 10 C-0.33 10.66 -0.66 11.32 -1 12 C-2.1875 10.5 -2.1875 10.5 -3 8 C-2.27101296 5.21175762 -1.1843275 2.62334908 0 0 Z " fill="#02A1E4" transform="translate(438,172)"/>
<path d="M0 0 C1.70736328 0.01353516 1.70736328 0.01353516 3.44921875 0.02734375 C6.21637881 0.0505972 8.9830676 0.08327132 11.75 0.125 C11.75 0.455 11.75 0.785 11.75 1.125 C-5.575 2.115 -5.575 2.115 -23.25 3.125 C-23.25 3.785 -23.25 4.445 -23.25 5.125 C-26.22 4.63 -26.22 4.63 -29.25 4.125 C-20.57006232 -0.73545893 -9.64970477 -0.14810645 0 0 Z " fill="#31A4D0" transform="translate(323.25,13.875)"/>
<path d="M0 0 C0.66 0 1.32 0 2 0 C0.41078475 5.36095277 -1.18972938 10.70843973 -3 16 C-5.97 16.33 -8.94 16.66 -12 17 C-12 16.01 -12 15.02 -12 14 C-9.36 14 -6.72 14 -4 14 C-3.67 10.37 -3.34 6.74 -3 3 C-2.34 3 -1.68 3 -1 3 C-0.67 2.01 -0.34 1.02 0 0 Z " fill="#50B8DD" transform="translate(328,155)"/>
<path d="M0 0 C0.66 0.33 1.32 0.66 2 1 C1.67 2.32 1.34 3.64 1 5 C0.401875 5.144375 -0.19625 5.28875 -0.8125 5.4375 C-4.93954608 6.44879221 -4.93954608 6.44879221 -7.875 9.4375 C-10.17684835 12.21325831 -11.57670789 13.03445607 -15 14 C-15.99 14 -16.98 14 -18 14 C-16.12812601 12.41284471 -14.2526762 10.83026649 -12.375 9.25 C-11.59189453 8.58484375 -11.59189453 8.58484375 -10.79296875 7.90625 C-7.33636676 5.00441129 -3.79729899 2.44030626 0 0 Z " fill="#3FACD7" transform="translate(267,29)"/>
<path d="M0 0 C0.66 0 1.32 0 2 0 C0.52869627 4.3573226 -1.83080615 7.71934134 -4.625 11.3125 C-5.04523437 11.86228516 -5.46546875 12.41207031 -5.8984375 12.97851562 C-6.92720039 14.32292168 -7.9629009 15.66201413 -9 17 C-9.66 16.01 -10.32 15.02 -11 14 C-10.67 13.01 -10.34 12.02 -10 11 C-8.68 11 -7.36 11 -6 11 C-5.95101562 10.36191406 -5.90203125 9.72382813 -5.8515625 9.06640625 C-5.77679687 8.24011719 -5.70203125 7.41382813 -5.625 6.5625 C-5.55539062 5.73878906 -5.48578125 4.91507812 -5.4140625 4.06640625 C-5.27742187 3.38449219 -5.14078125 2.70257813 -5 2 C-4.34 1.67 -3.68 1.34 -3 1 C-2.67 1.66 -2.34 2.32 -2 3 C-1.34 2.01 -0.68 1.02 0 0 Z " fill="#32ABD7" transform="translate(573,256)"/>
<path d="M0 0 C0.639375 0.598125 1.27875 1.19625 1.9375 1.8125 C9.5225123 7.23036593 17.9069687 7.59242982 27 8 C27 8.33 27 8.66 27 9 C24.12474331 9.05425013 21.25052354 9.09379277 18.375 9.125 C17.56675781 9.14175781 16.75851562 9.15851563 15.92578125 9.17578125 C11.19906185 9.21420986 7.44612298 8.82737094 3 7 C3 6.01 3 5.02 3 4 C2.01 4 1.02 4 0 4 C0 2.68 0 1.36 0 0 Z " fill="#3CAEDA" transform="translate(265,216)"/>
<path d="M0 0 C0.33 0 0.66 0 1 0 C1.042721 1.66611905 1.04063832 3.33382885 1 5 C0 6 0 6 -2.50390625 6.09765625 C-4.01791016 6.08025391 -4.01791016 6.08025391 -5.5625 6.0625 C-6.57441406 6.05347656 -7.58632813 6.04445312 -8.62890625 6.03515625 C-9.80259766 6.01775391 -9.80259766 6.01775391 -11 6 C-10.95359375 6.60328125 -10.9071875 7.2065625 -10.859375 7.828125 C-10.56089194 14.4373928 -10.56089194 14.4373928 -13 17.5625 C-13.66 18.036875 -14.32 18.51125 -15 19 C-14.88512252 17.41590006 -14.75765492 15.83271037 -14.625 14.25 C-14.55539062 13.36828125 -14.48578125 12.4865625 -14.4140625 11.578125 C-13.98039892 8.87795553 -13.66488557 7.18020729 -12 5 C-9.3984375 4.390625 -9.3984375 4.390625 -6.375 4.25 C-5.37210937 4.19328125 -4.36921875 4.1365625 -3.3359375 4.078125 C-2.56507813 4.05234375 -1.79421875 4.0265625 -1 4 C-0.67 2.68 -0.34 1.36 0 0 Z " fill="#67C4E6" transform="translate(346,173)"/>
<path d="M0 0 C2.96503513 2.96503513 3.81603603 6.52963443 5.1875 10.4375 C5.47302734 11.21416016 5.75855469 11.99082031 6.05273438 12.79101562 C6.31763672 13.53931641 6.58253906 14.28761719 6.85546875 15.05859375 C7.09934326 15.74236084 7.34321777 16.42612793 7.59448242 17.13061523 C8 19 8 19 7 22 C6.3490741 20.75264433 5.70448331 19.50198168 5.0625 18.25 C4.52302734 17.20585937 4.52302734 17.20585937 3.97265625 16.140625 C3 14 3 14 2.49609375 11.796875 C2.33238281 11.20390625 2.16867187 10.6109375 2 10 C1.34 9.67 0.68 9.34 0 9 C0 6.03 0 3.06 0 0 Z " fill="#36A8D3" transform="translate(583,133)"/>
<path d="M0 0 C1.2328864 3.53317111 0.74551753 5.76738911 -0.3125 9.3125 C-0.59609375 10.27542969 -0.8796875 11.23835937 -1.171875 12.23046875 C-1.44515625 13.14441406 -1.7184375 14.05835938 -2 15 C-2.35508703 16.37476261 -2.70942581 17.74971907 -3.0625 19.125 C-3.5265625 20.548125 -3.5265625 20.548125 -4 22 C-4.66 22.33 -5.32 22.66 -6 23 C-5.46467627 14.97014409 -3.62096701 7.24193402 0 0 Z " fill="#2BAAD6" transform="translate(7,209)"/>
<path d="M0 0 C1.175625 0.309375 2.35125 0.61875 3.5625 0.9375 C10.28196405 2.45584043 17.14044366 2.6565703 24 3 C24 3.33 24 3.66 24 4 C16.31523458 5.61784535 8.36090324 5.97568429 1 3 C0.67 2.01 0.34 1.02 0 0 Z " fill="#5FBDE0" transform="translate(226,211)"/>
<path d="M0 0 C6.6198928 0.52349503 12.31765553 1.84725064 18.5625 4.0625 C19.38041016 4.34416016 20.19832031 4.62582031 21.04101562 4.91601562 C23.03023483 5.60235441 25.0155524 6.2999845 27 7 C27 7.33 27 7.66 27 8 C22.66831683 8.26252625 19.1196377 7.29243536 15 6 C15 5.34 15 4.68 15 4 C14.01 4.061875 13.02 4.12375 12 4.1875 C7.53111789 4.21491645 4.08695392 2.7208227 0 1 C0 0.67 0 0.34 0 0 Z " fill="#38A9D1" transform="translate(487,59)"/>
<path d="M0 0 C1.4375 1.5625 1.4375 1.5625 1.4375 3.5625 C0.1175 3.5625 -1.2025 3.5625 -2.5625 3.5625 C-2.8925 2.9025 -3.2225 2.2425 -3.5625 1.5625 C-7.85355809 0.46478747 -11.25461856 0.63938255 -15.5625 1.5625 C-15.5625 0.5725 -15.5625 -0.4175 -15.5625 -1.4375 C-10.31397697 -3.01205691 -4.80417856 -2.69502699 0 0 Z " fill="#4AB4DB" transform="translate(382.5625,179.4375)"/>
<path d="M0 0 C0 0.66 0 1.32 0 2 C-0.84304688 2.06058594 -1.68609375 2.12117188 -2.5546875 2.18359375 C-3.65039062 2.26738281 -4.74609375 2.35117187 -5.875 2.4375 C-6.96554687 2.51871094 -8.05609375 2.59992187 -9.1796875 2.68359375 C-11.94728971 2.83001703 -11.94728971 2.83001703 -14 4 C-15.65930619 4.27748533 -17.32809029 4.5003822 -19 4.6875 C-19.886875 4.79449219 -20.77375 4.90148438 -21.6875 5.01171875 C-24 5 -24 5 -26 3 C-22.98017116 2.49317558 -19.95937183 1.99436665 -16.9375 1.5 C-16.08994141 1.35691406 -15.24238281 1.21382812 -14.36914062 1.06640625 C-9.50727611 0.27799579 -4.92471814 -0.16037074 0 0 Z " fill="#48B2DD" transform="translate(462,57)"/>
<path d="M0 0 C7.75 -0.125 7.75 -0.125 10 1 C10.125 8.75 10.125 8.75 9 11 C6.03 11 3.06 11 0 11 C0 10.67 0 10.34 0 10 C1.98 9.67 3.96 9.34 6 9 C6.66 6.69 7.32 4.38 8 2 C5.36 1.67 2.72 1.34 0 1 C0 0.67 0 0.34 0 0 Z " fill="#46B5DC" transform="translate(473,169)"/>
<path d="M0 0 C0.66 0.33 1.32 0.66 2 1 C2 1.66 2 2.32 2 3 C2.99 3 3.98 3 5 3 C5 2.01 5 1.02 5 0 C7.97 0.33 10.94 0.66 14 1 C12.02 1.99 12.02 1.99 10 3 C9.32839844 3.34160156 8.65679687 3.68320313 7.96484375 4.03515625 C7.29582031 4.37417969 6.62679688 4.71320313 5.9375 5.0625 C4.93009766 5.57490234 4.93009766 5.57490234 3.90234375 6.09765625 C2 7 2 7 -1 8 C-1.33 8.66 -1.66 9.32 -2 10 C-2 8.68 -2 7.36 -2 6 C-1.01 6 -0.02 6 1 6 C0.67 4.02 0.34 2.04 0 0 Z " fill="#4BB7DE" transform="translate(357,168)"/>
<path d="M0 0 C-0.99 0.33 -1.98 0.66 -3 1 C-3 1.66 -3 2.32 -3 3 C-5.03959477 3.50838564 -7.08179138 4.00633886 -9.125 4.5 C-10.26195312 4.7784375 -11.39890625 5.056875 -12.5703125 5.34375 C-15.81466698 5.96453765 -18.70814457 6.12006768 -22 6 C-21.67 5.34 -21.34 4.68 -21 4 C-19.00674121 3.62847543 -17.00481172 3.30305293 -15 3 C-11.58662537 1.97598761 -8.21109049 0.862119 -4.828125 -0.2578125 C-2 -1 -2 -1 0 0 Z " fill="#39AFDB" transform="translate(435,62)"/>
<path d="M0 0 C2.64 0 5.28 0 8 0 C1.09167761 3.79215787 -7.15990705 5.53455179 -15 5 C-14 3 -14 3 -12.265625 2.37890625 C-9.71855716 1.95293111 -7.33143831 1.90353371 -4.75 1.9375 C-3.85796875 1.94652344 -2.9659375 1.95554687 -2.046875 1.96484375 C-1.37140625 1.97644531 -0.6959375 1.98804688 0 2 C0 1.34 0 0.68 0 0 Z " fill="#3EADD7" transform="translate(496,311)"/>
<path d="M0 0 C2.64 0.33 5.28 0.66 8 1 C8 1.33 8 1.66 8 2 C11.5219721 2.08004482 14.61981469 2.04005702 18 1 C18 1.99 18 2.98 18 4 C12.91602433 5.69465856 7.90689304 5.87399264 3 3.625 C1 2 1 2 0 0 Z " fill="#47B6DC" transform="translate(363,211)"/>
<path d="M0 0 C3.86715038 2.12246797 6.74405677 4.52746145 9.8125 7.6875 C10.60269531 8.49574219 11.39289062 9.30398437 12.20703125 10.13671875 C13.09455078 11.05904297 13.09455078 11.05904297 14 12 C13.34 12.66 12.68 13.32 12 14 C11.67 13.01 11.34 12.02 11 11 C8.98491642 10.26676204 8.98491642 10.26676204 7 10 C7 9.01 7 8.02 7 7 C5.02 6.34 3.04 5.68 1 5 C1.33 4.01 1.66 3.02 2 2 C1.34 2 0.68 2 0 2 C0 1.34 0 0.68 0 0 Z " fill="#36B2E1" transform="translate(548,87)"/>
<path d="M0 0 C0 0.66 0 1.32 0 2 C-4.2944907 5.49512016 -8.16832293 5.42694781 -13.4375 5.3125 C-14.17548828 5.31572266 -14.91347656 5.31894531 -15.67382812 5.32226562 C-20.15283346 5.27847091 -23.78426098 4.67694215 -28 3 C-24.98968256 2.06576355 -24.13349732 1.95550089 -21 3 C-13.19474419 3.59338202 -6.91030322 0 0 0 Z " fill="#5EBFE3" transform="translate(122,220)"/>
<path d="M0 0 C4.95 0 9.9 0 15 0 C15 0.33 15 0.66 15 1 C14.20335937 1.19335938 13.40671875 1.38671875 12.5859375 1.5859375 C4.7134296 3.51794536 4.7134296 3.51794536 -3 6 C-3 6.66 -3 7.32 -3 8 C-3.66 7.67 -4.32 7.34 -5 7 C-5 6.34 -5 5.68 -5 5 C-4.34 5 -3.68 5 -3 5 C-3 4.34 -3 3.68 -3 3 C-2.01 3 -1.02 3 0 3 C0 2.01 0 1.02 0 0 Z " fill="#50B9DF" transform="translate(223,168)"/>
<path d="M0 0 C3 0 3 0 5 1.8125 C5.66 2.534375 6.32 3.25625 7 4 C7.8971875 4.7425 7.8971875 4.7425 8.8125 5.5 C9.204375 5.995 9.59625 6.49 10 7 C9.6875 9.1875 9.6875 9.1875 9 11 C8.01 11 7.02 11 6 11 C6.66 9.35 7.32 7.7 8 6 C5.36 5.67 2.72 5.34 0 5 C0 3.35 0 1.7 0 0 Z " fill="#3AB2DD" transform="translate(266,191)"/>
<path d="M0 0 C1.32 0.33 2.64 0.66 4 1 C4 1.66 4 2.32 4 3 C6.63904371 4.41377341 9.07120629 5.37240135 12 6 C12.33 8.31 12.66 10.62 13 13 C8.11950075 9.0580583 3.9419417 4.88049925 0 0 Z " fill="#26AAD8" transform="translate(137,380)"/>
<path d="M0 0 C10.55808656 1.92710706 10.55808656 1.92710706 15 4 C15 4.33 15 4.66 15 5 C13.35 5 11.7 5 10 5 C10 5.66 10 6.32 10 7 C9.01 7.33 8.02 7.66 7 8 C7 6.68 7 5.36 7 4 C6.01 4 5.02 4 4 4 C4 3.34 4 2.68 4 2 C2.68 1.67 1.36 1.34 0 1 C0 0.67 0 0.34 0 0 Z " fill="#40B1DE" transform="translate(99,199)"/>
<path d="M0 0 C0.33 0 0.66 0 1 0 C1 5.61 1 11.22 1 17 C1.66 17 2.32 17 3 17 C5.125 21.625 5.125 21.625 4 25 C-0.70676221 19.23042051 -1.30481189 13.68994654 -0.828125 6.35546875 C-0.60064595 4.23121585 -0.30690564 2.11423888 0 0 Z " fill="#6DC0D8" transform="translate(453,187)"/>
<path d="M0 0 C0 0.33 0 0.66 0 1 C-0.73863281 1.08636719 -1.47726562 1.17273438 -2.23828125 1.26171875 C-9.88568209 2.32088863 -16.14900598 4.46661332 -23 8 C-23 6.35 -23 4.7 -23 3 C-21.96875 2.87625 -20.9375 2.7525 -19.875 2.625 C-16.11727645 2.15139875 -16.11727645 2.15139875 -13.1875 0.9375 C-8.77142866 -0.36134451 -4.57000668 -0.16256941 0 0 Z " fill="#67C2E0" transform="translate(473,168)"/>
<path d="M0 0 C0 0.66 0 1.32 0 2 C-4 4 -8 6 -12 8 C-11.125 3.25 -11.125 3.25 -10 1 C-6.56187949 0.23597322 -3.53471921 0 0 0 Z " fill="#4DB9DE" transform="translate(103,168)"/>
<path d="M0 0 C2.12493141 -0.02693575 4.24995912 -0.04636628 6.375 -0.0625 C7.55835938 -0.07410156 8.74171875 -0.08570313 9.9609375 -0.09765625 C13 0 13 0 15 1 C15 1.66 15 2.32 15 3 C16.32 2.67 17.64 2.34 19 2 C19.33 3.65 19.66 5.3 20 7 C19.2265625 6.65066406 18.453125 6.30132812 17.65625 5.94140625 C11.67821123 3.32971357 6.52728072 1.37657389 0 1 C0 0.67 0 0.34 0 0 Z " fill="#33A8CD" transform="translate(153,168)"/>
<path d="M0 0 C5.94 0 11.88 0 18 0 C18 0.33 18 0.66 18 1 C16.71416016 1.03867188 16.71416016 1.03867188 15.40234375 1.078125 C8.47538721 1.42173953 3.67006203 1.91228086 -2 6 C-2 5.34 -2 4.68 -2 4 C-2.99 4 -3.98 4 -5 4 C-5 3.34 -5 2.68 -5 2 C-2.525 2.495 -2.525 2.495 0 3 C0 2.01 0 1.02 0 0 Z " fill="#67C9E7" transform="translate(334,147)"/>
<path d="M0 0 C2.08466413 3.38757921 2.42905061 6.05273438 2 10 C-1.20380017 12.13586678 -2.01939967 12.23132175 -5.6875 12.125 C-6.89986328 12.09792969 -6.89986328 12.09792969 -8.13671875 12.0703125 C-9.05904297 12.03550781 -9.05904297 12.03550781 -10 12 C-6.36383344 10.0210244 -3.11574371 9.4748935 1 9 C-0.26946514 4.17557816 -0.26946514 4.17557816 -4 1 C-2.68 0.67 -1.36 0.34 0 0 Z " fill="#5ABEE0" transform="translate(254,212)"/>
<path d="M0 0 C1.33332095 2.6666419 0.67102033 4.16680303 0 7 C1.98 7.99 3.96 8.98 6 10 C5.34 10.66 4.68 11.32 4 12 C-2.46153846 11.53846154 -2.46153846 11.53846154 -5 9 C-4.34 7.35 -3.68 5.7 -3 4 C-2.34 4 -1.68 4 -1 4 C-0.67 2.68 -0.34 1.36 0 0 Z " fill="#43B5DB" transform="translate(88,211)"/>
<path d="M0 0 C0.66 0.33 1.32 0.66 2 1 C1.58427734 1.76570312 1.58427734 1.76570312 1.16015625 2.546875 C-2.04601631 8.98203985 -2.75842419 14.86143486 -3 22 C-3.33 22 -3.66 22 -4 22 C-4 16.06 -4 10.12 -4 4 C-3.34 4 -2.68 4 -2 4 C-1.34 2.68 -0.68 1.36 0 0 Z " fill="#65C8E3" transform="translate(353,178)"/>
<path d="M0 0 C0.66 0.33 1.32 0.66 2 1 C-0.64 5.62 -3.28 10.24 -6 15 C-7 12 -7 12 -7 8 C-6.01 8 -5.02 8 -4 8 C-4 7.01 -4 6.02 -4 5 C-3.34 5 -2.68 5 -2 5 C-1.855625 4.360625 -1.71125 3.72125 -1.5625 3.0625 C-1 1 -1 1 0 0 Z " fill="#37B0D9" transform="translate(317,353)"/>
<path d="M0 0 C0.58265625 0.33773437 1.1653125 0.67546875 1.765625 1.0234375 C8.4030606 4.63436945 14.51844408 6.13872123 22 7 C22 7.33 22 7.66 22 8 C7.18315377 8.54652302 7.18315377 8.54652302 1.5 4 C0 2 0 2 0 0 Z " fill="#61C2E2" transform="translate(356,217)"/>
<path d="M0 0 C1.98 0.66 3.96 1.32 6 2 C6 2.66 6 3.32 6 4 C5.34 4 4.68 4 4 4 C4 4.66 4 5.32 4 6 C1.69 6 -0.62 6 -3 6 C-1.125 1.125 -1.125 1.125 0 0 Z " fill="#06A0D7" transform="translate(161,209)"/>
<path d="M0 0 C0.66 0 1.32 0 2 0 C2 0.66 2 1.32 2 2 C2.556875 2.103125 3.11375 2.20625 3.6875 2.3125 C6.45710747 3.13589682 8.60252417 4.40168278 11 6 C11 6.33 11 6.66 11 7 C6.44262737 6.56179109 3.42346555 6.14958831 0 3 C-0.66 4.32 -1.32 5.64 -2 7 C-1.125 2.25 -1.125 2.25 0 0 Z " fill="#5BBDDF" transform="translate(268,208)"/>
<path d="M0 0 C0.66 0.33 1.32 0.66 2 1 C1.67 1.99 1.34 2.98 1 4 C0.01 4.33 -0.98 4.66 -2 5 C-3.20882096 7.00016466 -3.20882096 7.00016466 -4 9 C-4.66 9 -5.32 9 -6 9 C-6 9.66 -6 10.32 -6 11 C-7.65 11.33 -9.3 11.66 -11 12 C-7.49102731 7.81576108 -3.91939465 3.80411834 0 0 Z " fill="#2AA5D2" transform="translate(34,172)"/>
<path d="M0 0 C0.99 0.33 1.98 0.66 3 1 C3 1.66 3 2.32 3 3 C3.99 3.33 4.98 3.66 6 4 C2.535 5.485 2.535 5.485 -1 7 C-1.99 5.68 -2.98 4.36 -4 3 C-2.1875 1.4375 -2.1875 1.4375 0 0 Z " fill="#1EA7E0" transform="translate(524,297)"/>
<path d="M0 0 C3.125 0.375 3.125 0.375 6 1 C5.02433888 2.16959987 4.044375 3.33561177 3.0625 4.5 C2.51722656 5.1496875 1.97195313 5.799375 1.41015625 6.46875 C0.94480469 6.9740625 0.47945312 7.479375 0 8 C-0.33 8 -0.66 8 -1 8 C-1.625 5.125 -1.625 5.125 -2 2 C-1.34 1.34 -0.68 0.68 0 0 Z " fill="#1AA2D8" transform="translate(555,274)"/>
<path d="M0 0 C1.65 0 3.3 0 5 0 C3.125 7.625 3.125 7.625 2 11 C-0.67927341 6.98108988 -0.15601248 4.75838077 0 0 Z " fill="#01A1E5" transform="translate(147,201)"/>
<path d="M0 0 C0 0.33 0 0.66 0 1 C-0.79664063 1.06058594 -1.59328125 1.12117187 -2.4140625 1.18359375 C-9.04982178 1.69507815 -9.04982178 1.69507815 -15.625 2.6875 C-16.800625 2.8421875 -16.800625 2.8421875 -18 3 C-18.66 2.34 -19.32 1.68 -20 1 C-13.02420757 -0.7958955 -7.11778518 -1.12067256 0 0 Z " fill="#47B4D8" transform="translate(163,178)"/>
<path d="M0 0 C0 0.99 0 1.98 0 3 C0.99 3 1.98 3 3 3 C2.67 4.32 2.34 5.64 2 7 C-2 5 -6 3 -10 1 C-3.375 0 -3.375 0 0 0 Z " fill="#48B7DD" transform="translate(524,168)"/>
<path d="M0 0 C1.64936913 0.78427352 3.29441127 1.57765259 4.9375 2.375 C5.85402344 2.81585937 6.77054688 3.25671875 7.71484375 3.7109375 C10 5 10 5 11 7 C9.6078125 6.7215625 9.6078125 6.7215625 8.1875 6.4375 C4.98656229 5.75876119 4.98656229 5.75876119 2 7 C0.5393715 4.35261084 0 3.10551666 0 0 Z " fill="#23A4D6" transform="translate(209,14)"/>
<path d="M0 0 C0 0.66 0 1.32 0 2 C-0.99 2 -1.98 2 -3 2 C-3.20625 2.61875 -3.4125 3.2375 -3.625 3.875 C-5.54775888 6.84653645 -7.66594527 7.13024659 -11 8 C-11 7.01 -11 6.02 -11 5 C-9.54462432 4.16151196 -8.08559627 3.32936066 -6.625 2.5 C-5.81289062 2.0359375 -5.00078125 1.571875 -4.1640625 1.09375 C-2 0 -2 0 0 0 Z " fill="#28A8D4" transform="translate(104,13)"/>
<path d="M0 0 C0.66 0 1.32 0 2 0 C1.54996653 5.62541841 0.31558515 8.61487125 -3 13 C-5 12 -5 12 -6 10 C-5.01 10 -4.02 10 -3 10 C-3 8.68 -3 7.36 -3 6 C-2.01 6 -1.02 6 0 6 C0 4.02 0 2.04 0 0 Z " fill="#5FBEE2" transform="translate(313,226)"/>
<path d="M0 0 C3.65316671 1.24976756 4.78065836 1.67098753 7 5 C7.1953125 7.26171875 7.1953125 7.26171875 7.125 9.6875 C7.10695313 10.49574219 7.08890625 11.30398437 7.0703125 12.13671875 C7.03550781 13.05904297 7.03550781 13.05904297 7 14 C4.66666667 9.33333333 2.33333333 4.66666667 0 0 Z " fill="#5ABCDF" transform="translate(391,177)"/>
<path d="M0 0 C1.35015859 4.05047576 0.62084998 6.7920168 0 11 C-2 10 -2 10 -3 7 C-3.66 7 -4.32 7 -5 7 C-4.75 4.625 -4.75 4.625 -4 2 C-1.9375 0.6875 -1.9375 0.6875 0 0 Z " fill="#29A9D9" transform="translate(267,179)"/>
<path d="M0 0 C4.28477792 2.30718811 7.72291137 4.32966073 11 8 C9 9 9 9 7.1875 8.9375 C3.73068732 7.45600885 2.21604381 5.01628185 0 2 C0 1.34 0 0.68 0 0 Z " fill="#32AAD4" transform="translate(377,29)"/>
<path d="M0 0 C1.32 0.33 2.64 0.66 4 1 C3.02501855 2.5027237 2.04490611 4.00211963 1.0625 5.5 C0.51722656 6.3353125 -0.02804687 7.170625 -0.58984375 8.03125 C-1.05519531 8.6809375 -1.52054687 9.330625 -2 10 C-2.33 10 -2.66 10 -3 10 C-3 8.02 -3 6.04 -3 4 C-2.34 4 -1.68 4 -1 4 C-0.67 2.68 -0.34 1.36 0 0 Z " fill="#27A9D3" transform="translate(437,315)"/>
<path d="M0 0 C0 0.33 0 0.66 0 1 C-0.80824219 1.19335938 -1.61648438 1.38671875 -2.44921875 1.5859375 C-3.51785156 1.84632813 -4.58648437 2.10671875 -5.6875 2.375 C-6.74324219 2.63023437 -7.79898437 2.88546875 -8.88671875 3.1484375 C-11.70406766 3.91905489 -14.31668325 4.85498543 -17 6 C-17 5.01 -17 4.02 -17 3 C-16.01 3 -15.02 3 -14 3 C-14 2.34 -14 1.68 -14 1 C-9.27616037 0.34843591 -4.78025483 -0.11950637 0 0 Z " fill="#50B5DD" transform="translate(514,168)"/>
<path d="M0 0 C0.99 0.33 1.98 0.66 3 1 C3 1.66 3 2.32 3 3 C3.928125 3.12375 3.928125 3.12375 4.875 3.25 C7 4 7 4 8.1875 5.875 C8.83464059 7.56752155 9.42698864 9.28096593 10 11 C6.59048278 9.86349426 5.62363724 8.74186875 3.3125 6.0625 C2.68988281 5.35222656 2.06726563 4.64195312 1.42578125 3.91015625 C0 2 0 2 0 0 Z " fill="#2BAAD4" transform="translate(21,312)"/>
<path d="M0 0 C0.76441406 0.01675781 1.52882813 0.03351563 2.31640625 0.05078125 C3.07824219 0.05464844 3.84007812 0.05851563 4.625 0.0625 C6.87890625 0.36328125 6.87890625 0.36328125 10.87890625 2.36328125 C2.95890625 2.85828125 2.95890625 2.85828125 -5.12109375 3.36328125 C-2.12109375 0.36328125 -2.12109375 0.36328125 0 0 Z " fill="#53B5DA" transform="translate(283.12109375,176.63671875)"/>
<path d="M0 0 C0.99 0 1.98 0 3 0 C2.67 1.98 2.34 3.96 2 6 C1.01 6 0.02 6 -1 6 C-1.33 7.65 -1.66 9.3 -2 11 C-2.66 11 -3.32 11 -4 11 C-3.52269162 9.5410574 -3.04308958 8.08286504 -2.5625 6.625 C-2.29566406 5.81289062 -2.02882812 5.00078125 -1.75390625 4.1640625 C-1 2 -1 2 0 0 Z " fill="#33A9D4" transform="translate(50,66)"/>
<path d="M0 0 C0.66 0 1.32 0 2 0 C1 3 1 3 -0.9375 4.25 C-5.39594903 5.34186507 -9.49715772 4.64701035 -14 4 C-14 3.67 -14 3.34 -14 3 C-13.15695312 2.95101562 -12.31390625 2.90203125 -11.4453125 2.8515625 C-10.34960938 2.77679688 -9.25390625 2.70203125 -8.125 2.625 C-6.48917969 2.52058594 -6.48917969 2.52058594 -4.8203125 2.4140625 C-1.86953526 2.26746509 -1.86953526 2.26746509 0 0 Z " fill="#6DC4E4" transform="translate(293,212)"/>
<path d="M0 0 C1 3 1 3 1 6 C-2.45925163 4.7508258 -5.14693203 3.32472205 -8 1 C-5.36 0.67 -2.72 0.34 0 0 Z " fill="#3AB3DC" transform="translate(97,209)"/>
<path d="M0 0 C0.33 0 0.66 0 1 0 C1.08097324 2.27024968 1.13917704 4.54132075 1.1875 6.8125 C1.22230469 8.07707031 1.25710938 9.34164062 1.29296875 10.64453125 C1 14 1 14 -0.51171875 15.94921875 C-1.00285156 16.29597656 -1.49398438 16.64273438 -2 17 C-3.36118395 14.27763211 -2.41390806 12.80223871 -1.546875 10.01953125 C-0.65271523 6.71752697 -0.35769718 3.39812319 0 0 Z " fill="#3EA9D6" transform="translate(398,194)"/>
<path d="M0 0 C2.31 0 4.62 0 7 0 C4.33333333 2.66666667 1.66666667 5.33333333 -1 8 C-0.67 5.36 -0.34 2.72 0 0 Z " fill="#56BBDC" transform="translate(269,171)"/>
<path d="M0 0 C1.38226016 2.76452033 1.09525387 5.0461363 1.0625 8.125 C1.05347656 9.22070312 1.04445312 10.31640625 1.03515625 11.4453125 C1.02355469 12.28835937 1.01195312 13.13140625 1 14 C-0.88101041 12.41181179 -1.90165342 11.52451507 -2.36328125 9.0625 C-2.34652344 8.381875 -2.32976562 7.70125 -2.3125 7 C-2.30863281 6.319375 -2.30476562 5.63875 -2.30078125 4.9375 C-2 3 -2 3 0 0 Z " fill="#6AC4E2" transform="translate(146,200)"/>
<path d="M0 0 C1.98 0 3.96 0 6 0 C6 0.66 6 1.32 6 2 C6.99 2.33 7.98 2.66 9 3 C8.67 4.32 8.34 5.64 8 7 C8 6.01 8 5.02 8 4 C3.545 3.01 3.545 3.01 -1 2 C-0.67 1.34 -0.34 0.68 0 0 Z " fill="#59C0E1" transform="translate(295,169)"/>
<path d="M0 0 C4.23429756 1.31061591 8.07407404 2.94356259 12 5 C7.99799622 6.60080151 4.95443764 5.29279692 1 4 C0.67 2.68 0.34 1.36 0 0 Z " fill="#2AA5D4" transform="translate(515,67)"/>
<path d="M0 0 C1.32 0 2.64 0 4 0 C4.28875 0.639375 4.5775 1.27875 4.875 1.9375 C5.82823451 4.15206079 5.82823451 4.15206079 8 5 C8.75 7.4375 8.75 7.4375 9 10 C8.34 10.66 7.68 11.32 7 12 C6.66226563 11.30132812 6.32453125 10.60265625 5.9765625 9.8828125 C5.53054687 8.97273437 5.08453125 8.06265625 4.625 7.125 C4.18414062 6.22007812 3.74328125 5.31515625 3.2890625 4.3828125 C2.09497301 1.90465528 2.09497301 1.90465528 0 0 Z " fill="#56BFDE" transform="translate(249,174)"/>
<path d="M0 0 C-1.2065625 0.4021875 -1.2065625 0.4021875 -2.4375 0.8125 C-3.283125 1.204375 -4.12875 1.59625 -5 2 C-5.33 2.99 -5.66 3.98 -6 5 C-8.31 4.67 -10.62 4.34 -13 4 C-10.56272708 2.37515139 -8.62713877 1.34310925 -5.9375 0.3125 C-5.24527344 0.04050781 -4.55304688 -0.23148438 -3.83984375 -0.51171875 C-2 -1 -2 -1 0 0 Z " fill="#37ADDC" transform="translate(293,19)"/>
<path d="M0 0 C0.99 0.99 1.98 1.98 3 3 C0.36 5.31 -2.28 7.62 -5 10 C-5.33 9.01 -5.66 8.02 -6 7 C-5.01 6.67 -4.02 6.34 -3 6 C-3 5.34 -3 4.68 -3 4 C-2.01 4 -1.02 4 0 4 C0 2.68 0 1.36 0 0 Z " fill="#39B0D9" transform="translate(550,281)"/>
<path d="M0 0 C0.33 1.32 0.66 2.64 1 4 C1.99 4 2.98 4 4 4 C3.67 6.97 3.34 9.94 3 13 C0.89172945 9.83759418 0.66182535 8.49342531 0.375 4.8125 C0.30023438 3.91144531 0.22546875 3.01039063 0.1484375 2.08203125 C0.09945312 1.39496094 0.05046875 0.70789063 0 0 Z " fill="#28AAD7" transform="translate(1,267)"/>
<path d="M0 0 C0.99 0 1.98 0 3 0 C2.54636829 1.58468677 2.08688548 3.16769924 1.625 4.75 C1.36976563 5.63171875 1.11453125 6.5134375 0.8515625 7.421875 C0.0790066 9.76080572 -0.83625676 11.83442562 -2 14 C-2.1799928 8.78020872 -1.97094808 4.92737019 0 0 Z " fill="#5FC2E0" transform="translate(489,179)"/>
<path d="M0 0 C6.875 0.875 6.875 0.875 8 2 C8.04063832 3.66617115 8.042721 5.33388095 8 7 C7.34 7 6.68 7 6 7 C5.67 7.66 5.34 8.32 5 9 C5 7.02 5 5.04 5 3 C2.525 2.01 2.525 2.01 0 1 C0 0.67 0 0.34 0 0 Z " fill="#45B3D9" transform="translate(119,171)"/>
<path d="M0 0 C-0.66 1.65 -1.32 3.3 -2 5 C-3.98 5 -5.96 5 -8 5 C-3.375 0 -3.375 0 0 0 Z " fill="#2AA5D6" transform="translate(49,163)"/>
<path d="M0 0 C1.32 0 2.64 0 4 0 C4 3.63 4 7.26 4 11 C1.6870518 8.6870518 1.50419025 7.52095125 0.875 4.375 C0.70742188 3.55773437 0.53984375 2.74046875 0.3671875 1.8984375 C0.24601562 1.27195313 0.12484375 0.64546875 0 0 Z " fill="#2FA9D6" transform="translate(44,149)"/>
<path d="M0 0 C-1.62170379 1.00533667 -3.24747237 2.00411907 -4.875 3 C-6.23238281 3.8353125 -6.23238281 3.8353125 -7.6171875 4.6875 C-10 6 -10 6 -12 6 C-12 5.34 -12 4.68 -12 4 C-11.34 4 -10.68 4 -10 4 C-10 3.34 -10 2.68 -10 2 C-8.71211992 1.46987262 -7.41953322 0.9511671 -6.125 0.4375 C-5.40570313 0.14746094 -4.68640625 -0.14257812 -3.9453125 -0.44140625 C-2 -1 -2 -1 0 0 Z " fill="#3EADD3" transform="translate(279,401)"/>
<path d="M0 0 C1.65 0 3.3 0 5 0 C2.45217026 2.97246802 -0.45340883 4.41535288 -4 6 C-4.66 6 -5.32 6 -6 6 C-6 5.34 -6 4.68 -6 4 C-5.01 4 -4.02 4 -3 4 C-3 3.34 -3 2.68 -3 2 C-2.01 2 -1.02 2 0 2 C0 1.34 0 0.68 0 0 Z " fill="#42B2D9" transform="translate(402,349)"/>
<path d="M0 0 C1.875 0.6875 1.875 0.6875 4 2 C4.72159424 3.64363134 5.39351421 5.31050386 6 7 C6.66 7.33 7.32 7.66 8 8 C7.67 9.32 7.34 10.64 7 12 C5.83061933 10.18924982 4.66456267 8.37635257 3.5 6.5625 C2.8503125 5.55316406 2.200625 4.54382813 1.53125 3.50390625 C0 1 0 1 0 0 Z " fill="#48B4D9" transform="translate(11,298)"/>
<path d="M0 0 C0.70125 0.61875 1.4025 1.2375 2.125 1.875 C5.05777181 4.0427009 7.51182406 5.02655555 11 6 C11 6.33 11 6.66 11 7 C8.36 7 5.72 7 3 7 C3 6.01 3 5.02 3 4 C2.01 4 1.02 4 0 4 C0 2.68 0 1.36 0 0 Z " fill="#64C3E4" transform="translate(265,216)"/>
<path d="M0 0 C6.75 -0.125 6.75 -0.125 9 1 C9 1.99 9 2.98 9 4 C9.66 4 10.32 4 11 4 C10.67 4.66 10.34 5.32 10 6 C6.7 4.35 3.4 2.7 0 1 C0 0.67 0 0.34 0 0 Z " fill="#5BC1DF" transform="translate(380,170)"/>
<path d="M0 0 C0.66 0.33 1.32 0.66 2 1 C2 1.66 2 2.32 2 3 C-2.29 3.66 -6.58 4.32 -11 5 C-11 4.34 -11 3.68 -11 3 C-10.37351562 2.86722656 -9.74703125 2.73445312 -9.1015625 2.59765625 C-8.28429687 2.42105469 -7.46703125 2.24445313 -6.625 2.0625 C-5.81289063 1.88847656 -5.00078125 1.71445313 -4.1640625 1.53515625 C-1.970537 1.07669307 -1.970537 1.07669307 0 0 Z " fill="#0C9FD4" transform="translate(433,166)"/>
<path d="M0 0 C1.9375 0.6875 1.9375 0.6875 4 2 C4.75 4.625 4.75 4.625 5 7 C4.01 7 3.02 7 2 7 C1.67 6.34 1.34 5.68 1 5 C1.33 4.34 1.66 3.68 2 3 C1.34 3 0.68 3 0 3 C0 2.01 0 1.02 0 0 Z " fill="#1CA2D8" transform="translate(562,102)"/>
<path d="M0 0 C4.81033104 2.54664585 8.32442148 4.99027798 12 9 C7.50985376 7.50328459 3.52151236 5.16631659 0 2 C0 1.34 0 0.68 0 0 Z " fill="#3BA8CF" transform="translate(536,78)"/>
<path d="M0 0 C0.33 1.32 0.66 2.64 1 4 C-0.98 5.32 -2.96 6.64 -5 8 C-5.66 7.67 -6.32 7.34 -7 7 C-4.69 4.69 -2.38 2.38 0 0 Z " fill="#47B4DC" transform="translate(322,237)"/>
<path d="M0 0 C0.66 0 1.32 0 2 0 C2 1.32 2 2.64 2 4 C-0.75078884 4.91692961 -2.35948913 5.10886083 -5.1875 5.0625 C-7.0746875 5.0315625 -7.0746875 5.0315625 -9 5 C-6.92690266 3.88941214 -5.11381589 3.02601506 -2.8125 2.5 C-2.214375 2.335 -1.61625 2.17 -1 2 C-0.67 1.34 -0.34 0.68 0 0 Z " fill="#54BBE1" transform="translate(482,219)"/>
<path d="M0 0 C0.33 0 0.66 0 1 0 C1.28875 1.2375 1.5775 2.475 1.875 3.75 C2.61334794 6.72448742 3.44474933 9.333856 5 12 C1.125 11.125 1.125 11.125 0 10 C-0.07205511 8.31391034 -0.08386068 6.62499341 -0.0625 4.9375 C-0.05347656 4.01839844 -0.04445313 3.09929687 -0.03515625 2.15234375 C-0.02355469 1.44207031 -0.01195313 0.73179687 0 0 Z " fill="#50B7DE" transform="translate(87,182)"/>
<path d="M0 0 C-3.33333333 1.66666667 -6.66666667 3.33333333 -10 5 C-10 3.35 -10 1.7 -10 0 C-6.26432828 -0.76411467 -3.65188082 -1.07174763 0 0 Z " fill="#6AC2DF" transform="translate(428,171)"/>
<path d="M0 0 C1.32 0.66 2.64 1.32 4 2 C4 2.99 4 3.98 4 5 C0.37 4.34 -3.26 3.68 -7 3 C-7 2.67 -7 2.34 -7 2 C-4.69 2 -2.38 2 0 2 C0 1.34 0 0.68 0 0 Z " fill="#43B8E1" transform="translate(435,167)"/>
<path d="M0 0 C2.475 0.495 2.475 0.495 5 1 C4.47731534 3.76276177 3.89130413 6.3260876 3 9 C2.34 8.67 1.68 8.34 1 8 C1.33 5.69 1.66 3.38 2 1 C1.34 0.67 0.68 0.34 0 0 Z " fill="#2BAAD9" transform="translate(352,147)"/>
<path d="M0 0 C0.33 0.66 0.66 1.32 1 2 C2.32 2.33 3.64 2.66 5 3 C2.03 3.66 -0.94 4.32 -4 5 C-3 2 -3 2 0 0 Z " fill="#2CABD7" transform="translate(388,354)"/>
<path d="M0 0 C-0.66 1.65 -1.32 3.3 -2 5 C-2.99 5 -3.98 5 -5 5 C-5.33 3.68 -5.66 2.36 -6 1 C-4 0 -4 0 0 0 Z " fill="#02A0E3" transform="translate(235,179)"/>
<path d="M0 0 C2.475 0.99 2.475 0.99 5 2 C5.33 4.97 5.66 7.94 6 11 C4.41028035 8.61542052 3.13258407 6.3695876 1.875 3.8125 C1.52179687 3.09707031 1.16859375 2.38164062 0.8046875 1.64453125 C0.53914062 1.10183594 0.27359375 0.55914062 0 0 Z " fill="#73CBE6" transform="translate(527,175)"/>
<path d="M0 0 C2.97 0 5.94 0 9 0 C9 0.66 9 1.32 9 2 C9.66 2 10.32 2 11 2 C10.67 2.99 10.34 3.98 10 5 C6.66666667 3.33333333 3.33333333 1.66666667 0 0 Z " fill="#55BFE0" transform="translate(238,169)"/>
<path d="M0 0 C3.00617269 3.00617269 2.59585316 5.82381598 3 10 C2.01 9.67 1.02 9.34 0 9 C0 6.03 0 3.06 0 0 Z " fill="#22A7D5" transform="translate(583,133)"/>
<path d="M0 0 C3.96 1.98 3.96 1.98 8 4 C6.02 4.99 6.02 4.99 4 6 C3.01 5.67 2.02 5.34 1 5 C0.67 3.35 0.34 1.7 0 0 Z " fill="#2BAAD6" transform="translate(528,73)"/>
<path d="M0 0 C3.53372712 1.96318174 6.24479785 4.04070881 9 7 C6 7 6 7 3 6 C3 5.01 3 4.02 3 3 C2.01 2.67 1.02 2.34 0 2 C0 1.34 0 0.68 0 0 Z " fill="#38ADD9" transform="translate(222,22)"/>
<path d="M0 0 C0.99 0.66 1.98 1.32 3 2 C1.35 3.98 -0.3 5.96 -2 8 C-3.03864166 4.88407501 -3.09036928 3.9737344 -2 1 C-1.34 0.67 -0.68 0.34 0 0 Z " fill="#2AA7D3" transform="translate(301,376)"/>
<path d="M0 0 C2.64 0 5.28 0 8 0 C8.33 0.99 8.66 1.98 9 3 C9.66 3.33 10.32 3.66 11 4 C7.1936543 3.32829194 3.64793184 2.27253436 0 1 C0 0.67 0 0.34 0 0 Z " fill="#6BC4E6" transform="translate(101,189)"/>
<path d="M0 0 C0.99 0 1.98 0 3 0 C3.042721 1.66611905 3.04063832 3.33382885 3 5 C2 6 2 6 -0.5625 6.0625 C-1.7690625 6.0315625 -1.7690625 6.0315625 -3 6 C-2.01 5.67 -1.02 5.34 0 5 C0 3.35 0 1.7 0 0 Z " fill="#019FE4" transform="translate(518,183)"/>
<path d="M0 0 C0.33 0 0.66 0 1 0 C1.12156361 4.25472632 0.92751122 8.14497757 -1 12 C-2.1875 10.5 -2.1875 10.5 -3 8 C-2.27101296 5.21175762 -1.1843275 2.62334908 0 0 Z " fill="#48B8E2" transform="translate(438,172)"/>
<path d="M0 0 C5.57142857 5.14285714 5.57142857 5.14285714 6 9 C5.01 9.495 5.01 9.495 4 10 C3.32845067 8.71086513 2.66291141 7.41859796 2 6.125 C1.62875 5.40570313 1.2575 4.68640625 0.875 3.9453125 C0 2 0 2 0 0 Z " fill="#3EB0D4" transform="translate(407,57)"/>
<path d="M0 0 C2.0625 0.4375 2.0625 0.4375 4 1 C1.03 3.475 1.03 3.475 -2 6 C-2.33 5.34 -2.66 4.68 -3 4 C-1 1 -1 1 0 0 Z " fill="#41AEDD" transform="translate(289,389)"/>
<path d="M0 0 C1.32 0.33 2.64 0.66 4 1 C4 1.66 4 2.32 4 3 C5.32 3.66 6.64 4.32 8 5 C7.67 5.99 7.34 6.98 7 8 C5.83035398 6.8572081 4.66435444 5.71068285 3.5 4.5625 C2.8503125 3.92441406 2.200625 3.28632813 1.53125 2.62890625 C0 1 0 1 0 0 Z " fill="#38ACD5" transform="translate(137,380)"/>
<path d="M0 0 C3.69806223 0.50428121 7.34514648 1.24753016 11 2 C11 2.33 11 2.66 11 3 C2.42857143 3.28571429 2.42857143 3.28571429 -1 1 C-0.67 0.67 -0.34 0.34 0 0 Z " fill="#3BADD9" transform="translate(442,313)"/>
<path d="M0 0 C0.66 0.99 1.32 1.98 2 3 C1.67 3.99 1.34 4.98 1 6 C-2.0625 7.1875 -2.0625 7.1875 -5 8 C-3.625 5.5 -3.625 5.5 -2 3 C-1.34 3 -0.68 3 0 3 C0 2.01 0 1.02 0 0 Z " fill="#59BEDE" transform="translate(394,211)"/>
<path d="M0 0 C2.3828125 -0.29296875 2.3828125 -0.29296875 5.125 -0.1875 C6.03507813 -0.16042969 6.94515625 -0.13335937 7.8828125 -0.10546875 C8.58148438 -0.07066406 9.28015625 -0.03585938 10 0 C10 0.33 10 0.66 10 1 C6.04 1.66 2.08 2.32 -2 3 C-1.34 2.01 -0.68 1.02 0 0 Z " fill="#66C6E2" transform="translate(143,169)"/>
<path d="M0 0 C3.36720387 1.39332574 4.9859524 2.9789286 7 6 C6.01 6 5.02 6 4 6 C4 5.34 4 4.68 4 4 C2.68 3.67 1.36 3.34 0 3 C0 2.01 0 1.02 0 0 Z " fill="#3BA9D5" transform="translate(555,94)"/>
<path d="M0 0 C0.66 0.33 1.32 0.66 2 1 C1.67 2.32 1.34 3.64 1 5 C-0.65 5.33 -2.3 5.66 -4 6 C-3.6875 4.125 -3.6875 4.125 -3 2 C-2.01 1.34 -1.02 0.68 0 0 Z " fill="#30AADC" transform="translate(267,29)"/>
<path d="M0 0 C3.48539917 0.64544429 6.02819057 2.10134397 9 4 C8.01 4.495 8.01 4.495 7 5 C4.64018187 4.06421005 2.30368736 3.06652192 0 2 C0 1.34 0 0.68 0 0 Z " fill="#31A7D6" transform="translate(321,353)"/>
<path d="M0 0 C0.66 0.33 1.32 0.66 2 1 C0.7260411 3.03833424 -0.61061923 5.03852126 -2 7 C-2.66 7 -3.32 7 -4 7 C-2.92598892 4.08482708 -2.22189824 2.22189824 0 0 Z " fill="#6AC4DF" transform="translate(423,180)"/>
<path d="M0 0 C0.66 0 1.32 0 2 0 C3.125 3.75 3.125 3.75 2 6 C1.34 6 0.68 6 0 6 C-0.38218767 4.34385343 -0.71395102 2.67542976 -1 1 C-0.67 0.67 -0.34 0.34 0 0 Z " fill="#20A4D9" transform="translate(9,289)"/>
<path d="M0 0 C-0.33 0.99 -0.66 1.98 -1 3 C-3.64 3 -6.28 3 -9 3 C-5.73209435 0.82139623 -3.91954654 0 0 0 Z " fill="#5CC0E2" transform="translate(387,221)"/>
<path d="M0 0 C2.31 1.98 4.62 3.96 7 6 C5.68 6.33 4.36 6.66 3 7 C2.67 6.01 2.34 5.02 2 4 C1.34 4 0.68 4 0 4 C0 2.68 0 1.36 0 0 Z " fill="#54B9E0" transform="translate(492,214)"/>
<path d="M0 0 C1.98 0 3.96 0 6 0 C6 1.98 6 3.96 6 6 C5.34 6 4.68 6 4 6 C3.896875 5.38125 3.79375 4.7625 3.6875 4.125 C3.12474627 1.63473516 3.12474627 1.63473516 0 0 Z " fill="#3AADDA" transform="translate(477,213)"/>
<path d="M0 0 C1.32 0 2.64 0 4 0 C4 0.99 4 1.98 4 3 C3.01 3 2.02 3 1 3 C1 3.66 1 4.32 1 5 C0.34 4.67 -0.32 4.34 -1 4 C-0.67 2.68 -0.34 1.36 0 0 Z " fill="#089ED6" transform="translate(396,210)"/>
<path d="M0 0 C0.66 0 1.32 0 2 0 C4.125 4.625 4.125 4.625 3 8 C0.37613513 4.93882432 0 4.26826873 0 0 Z " fill="#55BBDF" transform="translate(454,204)"/>
<path d="M0 0 C2.64 0 5.28 0 8 0 C8.33 1.65 8.66 3.3 9 5 C4.545 3.02 4.545 3.02 0 1 C0 0.67 0 0.34 0 0 Z " fill="#7FD2EA" transform="translate(164,170)"/>
<path d="M0 0 C3.91211733 1.15585285 6.8745041 2.35534962 10 5 C8.51793505 4.745504 7.03931385 4.47088238 5.5625 4.1875 C4.73878906 4.03667969 3.91507812 3.88585937 3.06640625 3.73046875 C2.38449219 3.48941406 1.70257813 3.24835937 1 3 C0.67 2.01 0.34 1.02 0 0 Z " fill="#46AFD5" transform="translate(363,22)"/>
<path d="M0 0 C-1.65 0.33 -3.3 0.66 -5 1 C-5 1.66 -5 2.32 -5 3 C-7.97 2.505 -7.97 2.505 -11 2 C-7.50078951 0.05599417 -3.80583038 -1.90291519 0 0 Z " fill="#48AFDB" transform="translate(305,16)"/>
</svg>
