<?xml version="1.0" encoding="UTF-8"?>
<svg version="1.1" xmlns="http://www.w3.org/2000/svg" width="512" height="512">
<path d="M0 0 C1.01790619 0.00215515 2.03581238 0.0043103 3.08456421 0.00653076 C17.69363523 0.05620146 32.02575853 0.30709809 46.375 3.3125 C47.34985352 3.51117676 48.32470703 3.70985352 49.32910156 3.91455078 C97.7109774 14.03517194 141.69928269 35.9516877 177.375 70.3125 C178.3640332 71.26068604 178.3640332 71.26068604 179.37304688 72.22802734 C188.86130305 81.37247479 197.6012044 90.66984009 205.375 101.3125 C206.23306152 102.46355017 207.09113451 103.61459177 207.94921875 104.765625 C213.98736829 112.95680614 219.34595521 121.47054105 224.375 130.3125 C224.73948242 130.94430176 225.10396484 131.57610352 225.47949219 132.22705078 C247.08534998 169.97532572 256.85198095 212.74189997 256.6875 255.9375 C256.68534485 256.95540619 256.6831897 257.97331238 256.68096924 259.02206421 C256.63129854 273.63113523 256.38040191 287.96325853 253.375 302.3125 C253.07698486 303.77478027 253.07698486 303.77478027 252.77294922 305.26660156 C242.65232806 353.6484774 220.7358123 397.63678269 186.375 433.3125 C185.74287598 433.97185547 185.11075195 434.63121094 184.45947266 435.31054688 C175.31502521 444.79880305 166.01765991 453.5387044 155.375 461.3125 C154.22394983 462.17056152 153.07290823 463.02863451 151.921875 463.88671875 C143.73224019 469.92427396 135.22961724 475.30707302 126.375 480.3125 C125.66778809 480.7146875 124.96057617 481.116875 124.23193359 481.53125 C101.09654164 494.5566741 75.92537591 503.30551461 49.9375 508.625 C49.21860596 508.77235596 48.49971191 508.91971191 47.7590332 509.0715332 C33.08339502 511.86090125 18.55831162 512.66142619 3.64770508 512.62817383 C0.70811513 512.6250221 -2.2304558 512.64854926 -5.16992188 512.67382812 C-18.54306192 512.71848737 -31.43916711 511.51301542 -44.625 509.3125 C-46.33055054 509.03031616 -46.33055054 509.03031616 -48.07055664 508.74243164 C-91.33802759 500.97044532 -132.38793216 480.98345309 -165.625 452.3125 C-166.37007813 451.67828125 -167.11515625 451.0440625 -167.8828125 450.390625 C-181.38779833 438.57948485 -194.05918743 425.82889772 -204.625 411.3125 C-205.48149066 410.16255169 -206.33826433 409.01281411 -207.1953125 407.86328125 C-213.23534209 399.67315742 -218.61867614 391.16870382 -223.625 382.3125 C-224.0271875 381.60528809 -224.429375 380.89807617 -224.84375 380.16943359 C-237.8691741 357.03404164 -246.61801461 331.86287591 -251.9375 305.875 C-252.08485596 305.15610596 -252.23221191 304.43721191 -252.3840332 303.6965332 C-255.35789088 288.05024391 -255.99800362 272.57681954 -255.9375 256.6875 C-255.93534485 255.66959381 -255.9331897 254.65168762 -255.93096924 253.60293579 C-255.88129854 238.99386477 -255.63040191 224.66174147 -252.625 210.3125 C-252.42632324 209.33764648 -252.22764648 208.36279297 -252.02294922 207.35839844 C-241.90232806 158.9765226 -219.9858123 114.98821731 -185.625 79.3125 C-184.99287598 78.65314453 -184.36075195 77.99378906 -183.70947266 77.31445312 C-174.56502521 67.82619695 -165.26765991 59.0862956 -154.625 51.3125 C-153.47394983 50.45443848 -152.32290823 49.59636549 -151.171875 48.73828125 C-142.98224019 42.70072604 -134.47961724 37.31792698 -125.625 32.3125 C-124.91778809 31.9103125 -124.21057617 31.508125 -123.48193359 31.09375 C-100.34654164 18.0683259 -75.17537591 9.31948539 -49.1875 4 C-48.46860596 3.85264404 -47.74971191 3.70528809 -47.0090332 3.5534668 C-31.36274391 0.57960912 -15.88931954 -0.06050362 0 0 Z " fill="#9A6097" transform="translate(255.625,-0.3125)"/>
<path d="M0 0 C1.14270797 -0.00445668 1.14270797 -0.00445668 2.30850095 -0.0090034 C4.87488298 -0.01771212 7.44121848 -0.01920048 10.00761414 -0.02069092 C11.84213868 -0.02531757 13.67666225 -0.03034202 15.51118469 -0.03573608 C20.505044 -0.04887712 25.49888985 -0.05530839 30.49276376 -0.05974674 C33.61084122 -0.06267481 36.72891498 -0.06677911 39.84699059 -0.07125092 C49.59719874 -0.08493052 59.34739846 -0.09459483 69.09761554 -0.09845281 C80.36298936 -0.10293442 91.62824189 -0.12048521 102.89357883 -0.1494534 C111.59426477 -0.1710521 120.29491654 -0.18115612 128.99562901 -0.18249393 C134.19537874 -0.18354328 139.39501453 -0.18947878 144.5947361 -0.20731354 C149.48584208 -0.22376284 154.37674811 -0.22596502 159.26787186 -0.21717453 C161.06378018 -0.21640246 162.85969912 -0.22076918 164.65558052 -0.23063278 C167.10623855 -0.24330392 169.55618322 -0.23750211 172.00683594 -0.22705078 C172.71851482 -0.23510719 173.43019371 -0.24316359 174.16343862 -0.25146413 C179.91213001 -0.19407583 182.99082071 1.42400099 186.97801208 5.44248962 C189.03750884 8.68072282 189.17957605 10.49426601 189.147995 14.30767822 C189.14769287 15.52856644 189.14739075 16.74945465 189.14707947 18.00733948 C189.12643433 19.31583359 189.10578918 20.6243277 189.08451843 21.97247314 C189.0770519 23.33295356 189.07136091 24.69344478 189.06736755 26.05393982 C189.05214321 29.62328123 189.01289055 33.19196472 188.96855164 36.76104736 C188.92752889 40.40760398 188.9093417 44.05426759 188.88920593 47.70098877 C188.84639204 54.84774122 188.77818058 61.99404845 188.69389343 69.14044189 C190.26856384 69.12473145 190.26856384 69.12473145 191.87504578 69.10870361 C195.76254376 69.07255737 199.65002684 69.04956112 203.53764343 69.03057861 C205.2215881 69.02050873 206.90551523 69.00685202 208.58940125 68.98956299 C211.00708844 68.96535764 213.42454487 68.95396893 215.84233093 68.94512939 C216.59759064 68.93480682 217.35285034 68.92448425 218.1309967 68.91384888 C219.98683323 68.91344871 221.84208623 69.01821473 223.69389343 69.14044189 C226.55749132 72.00403979 225.94549417 73.96009481 225.94786072 77.97320557 C225.9509807 78.6840414 225.95410068 79.39487722 225.95731521 80.12725353 C225.96532436 82.52105568 225.95896034 84.91460638 225.9526825 87.30841064 C225.95539107 89.01972605 225.95895124 90.73104028 225.96330261 92.44235229 C225.97244483 97.09927333 225.96887484 101.75610607 225.96254444 106.41302872 C225.9574939 111.27814224 225.96217325 116.14324801 225.96531677 121.00836182 C225.96895919 129.17968102 225.96415011 137.35096411 225.95463562 145.52227783 C225.94375054 154.98012911 225.94727593 164.43789418 225.95828843 173.89574337 C225.96735348 182.00446023 225.96865043 190.11315109 225.96341109 198.22187138 C225.96028707 203.06993588 225.95989385 207.91795981 225.96648407 212.76602173 C225.97224555 217.32304308 225.96828271 221.87995287 225.95669556 226.43696213 C225.95404253 228.11318145 225.95482494 229.7894101 225.95922089 231.46562576 C225.96465261 233.7464383 225.9578715 236.026889 225.94786072 238.30767822 C225.94672964 240.22572014 225.94672964 240.22572014 225.94557571 242.18251038 C225.69389343 245.14044189 225.69389343 245.14044189 223.69389343 247.14044189 C221.80797386 247.38653755 221.80797386 247.38653755 219.46717834 247.38095093 C218.58094284 247.38370026 217.69470734 247.38644958 216.78161621 247.38928223 C215.80697922 247.38209167 214.83234222 247.37490112 213.82817078 247.36749268 C212.80375381 247.36778473 211.77933685 247.36807678 210.72387695 247.36837769 C207.3257765 247.36698038 203.92789325 247.35140028 200.52983093 247.33575439 C198.17856465 247.33202569 195.82729683 247.32917805 193.47602844 247.32717896 C187.27815993 247.31953128 181.08038468 247.29987304 174.8825531 247.277771 C168.56186688 247.25733698 162.24116564 247.24818248 155.92045593 247.23809814 C143.51155413 247.21662822 131.10274612 247.18143683 118.69389343 247.14044189 C118.69389343 256.05044189 118.69389343 264.96044189 118.69389343 274.14044189 C121.60032654 274.109021 121.60032654 274.109021 124.56547546 274.07696533 C130.97955174 274.01236958 137.39355082 273.96645996 143.80786324 273.93319321 C147.69551446 273.91235069 151.58281259 273.88409509 155.47026062 273.83868408 C159.22447538 273.79510571 162.97835129 273.7712797 166.73279953 273.76093292 C168.16251329 273.75356291 169.59220927 273.73917076 171.02177811 273.71752167 C173.02964825 273.68833429 175.037862 273.6868067 177.04594421 273.68634033 C178.18733856 273.67745789 179.32873291 273.66857544 180.50471497 273.65942383 C185.58710004 274.42599085 188.6694824 276.97759694 192.00639343 280.76544189 C194.44353544 284.19549361 194.82151415 285.94817451 194.82670593 290.11309814 C194.827995 291.09471924 194.82928406 292.07634033 194.83061218 293.08770752 C194.826745 294.11573486 194.82287781 295.14376221 194.81889343 296.20294189 C194.82276062 297.23483643 194.82662781 298.26673096 194.83061218 299.32989502 C194.82867859 300.80039307 194.82867859 300.80039307 194.82670593 302.30059814 C194.825578 303.20431152 194.82445007 304.1080249 194.82328796 305.03912354 C194.69389343 307.14044189 194.69389343 307.14044189 193.69389343 308.14044189 C190.93979952 308.24054042 188.21071114 308.2748372 185.45610046 308.26742554 C184.14505687 308.26976552 184.14505687 308.26976552 182.80752754 308.27215278 C179.85557025 308.27616666 176.90366368 308.27297165 173.95170593 308.26983643 C171.84483307 308.2711903 169.73796043 308.27297015 167.63108826 308.27514648 C161.89158808 308.27972253 156.15210579 308.27793056 150.41260529 308.2747674 C144.42059275 308.27224468 138.4285818 308.27458109 132.43656921 308.27615356 C122.37195052 308.27797552 112.30733914 308.27556828 102.24272156 308.27081299 C90.58829473 308.26537032 78.9338854 308.26713296 67.279459 308.27263939 C57.29309247 308.27716979 47.30673122 308.27782143 37.320364 308.27520072 C31.34723499 308.27363754 25.37411421 308.2734453 19.40098572 308.27673721 C13.78685432 308.27961487 8.17274558 308.27764219 2.55861664 308.27184296 C0.49173775 308.27051479 -1.57514303 308.27091043 -3.64202118 308.27310562 C-6.45081153 308.27581491 -9.25952803 308.27243873 -12.0683136 308.26742554 C-12.89738157 308.26965626 -13.72644955 308.27188698 -14.58064079 308.2741853 C-20.19195674 308.25459172 -20.19195674 308.25459172 -21.30610657 307.14044189 C-21.61477336 303.58672916 -21.58460662 300.01840259 -21.61860657 296.45294189 C-21.64761047 295.45843018 -21.67661438 294.46391846 -21.70649719 293.43927002 C-21.75948065 287.31356766 -21.39964256 283.79320411 -17.30610657 279.14044189 C-12.63182078 275.0226187 -10.29976123 274.01497152 -4.11225891 274.0269165 C-2.8110611 274.02699203 -1.50986328 274.02706757 -0.16923523 274.02714539 C1.25649554 274.03225243 2.68222593 274.03746843 4.10795593 274.04278564 C5.56241304 274.04465042 7.01687078 274.04607404 8.47132874 274.04707336 C12.30182119 274.05089384 16.1322758 274.06072013 19.9627533 274.07177734 C23.87052397 274.08200154 27.77830074 274.08657315 31.68608093 274.09161377 C39.35537102 274.10234281 47.02462211 274.11993582 54.69389343 274.14044189 C54.69389343 265.23044189 54.69389343 256.32044189 54.69389343 247.14044189 C49.9384613 247.15615234 49.9384613 247.15615234 45.08695984 247.17218018 C34.63352606 247.20526189 24.18009001 247.22738832 13.72661781 247.24406624 C7.38625453 247.25452085 1.0459447 247.26871058 -5.29438782 247.2913208 C-11.40867771 247.31298944 -17.52291605 247.32499787 -23.63724136 247.33019638 C-25.97452735 247.33390291 -28.3118104 247.34114041 -30.64907455 247.35190201 C-33.91290724 247.36633745 -37.17652464 247.36842318 -40.44038391 247.36749268 C-41.4150209 247.37468323 -42.3896579 247.38187378 -43.39382935 247.38928223 C-44.7231826 247.38515823 -44.7231826 247.38515823 -46.07939148 247.38095093 C-46.851854 247.38279451 -47.62431652 247.3846381 -48.420187 247.38653755 C-50.30610657 247.14044189 -50.30610657 247.14044189 -52.30610657 245.14044189 C-52.55778885 242.18251038 -52.55778885 242.18251038 -52.56007385 238.30767822 C-52.56319383 237.59684239 -52.56631382 236.88600657 -52.56952834 236.15363026 C-52.5775375 233.75982811 -52.57117348 231.36627741 -52.56489563 228.97247314 C-52.5676042 227.26115774 -52.57116438 225.54984351 -52.57551575 223.83853149 C-52.58465796 219.18161046 -52.58108797 214.52477772 -52.57475758 209.86785507 C-52.56970704 205.00274155 -52.57438638 200.13763578 -52.57752991 195.27252197 C-52.58117232 187.10120277 -52.57636325 178.92991968 -52.56684875 170.75860596 C-52.55596368 161.30075468 -52.55948906 151.84298961 -52.57050157 142.38514042 C-52.57956661 134.27642356 -52.58086356 126.1677327 -52.57562423 118.05901241 C-52.57250021 113.21094791 -52.57210698 108.36292398 -52.5786972 103.51486206 C-52.58445868 98.95784071 -52.58049584 94.40093091 -52.56890869 89.84392166 C-52.56625567 88.16770234 -52.56703808 86.49147368 -52.57143402 84.81525803 C-52.57686574 82.53444549 -52.57008463 80.25399479 -52.56007385 77.97320557 C-52.55894278 76.05516365 -52.55894278 76.05516365 -52.55778885 74.09837341 C-52.30610657 71.14044189 -52.30610657 71.14044189 -50.30610657 69.14044189 C-47.653189 68.96533804 -45.10624483 68.90888707 -42.45454407 68.94512939 C-41.68051239 68.94795929 -40.90648071 68.95078918 -40.10899353 68.95370483 C-37.632875 68.96491436 -35.15711607 68.99001987 -32.68110657 69.01544189 C-31.00402845 69.02547072 -29.32694468 69.03459674 -27.64985657 69.04278564 C-23.53513434 69.06485616 -19.42068145 69.09939088 -15.30610657 69.14044189 C-15.31943024 68.39177353 -15.33275391 67.64310516 -15.34648132 66.87174988 C-15.46700222 59.79559016 -15.55820353 52.71978943 -15.6169796 45.64288998 C-15.64821439 42.00498905 -15.690538 38.3679403 -15.75874329 34.73052979 C-15.82422445 31.2161638 -15.85987161 27.70261423 -15.87537003 24.18768501 C-15.89175481 22.20282659 -15.93854894 20.21829402 -15.98588562 18.2339325 C-15.98963456 8.13550753 -15.98963456 8.13550753 -12.39448547 3.82623291 C-8.47099194 0.02803362 -5.28583082 -0.00637564 0 0 Z " fill="#FCFAFB" transform="translate(169.3061065673828,101.85955810546875)"/>
<path d="M0 0 C61.38 0 122.76 0 186 0 C186.0309375 28.9265625 186.0309375 28.9265625 186.0625 58.4375 C186.071604 64.53661865 186.08070801 70.6357373 186.09008789 76.91967773 C186.09460449 84.34191895 186.09460449 84.34191895 186.09544373 87.81166077 C186.09698381 90.24578534 186.10051003 92.67990914 186.10557556 95.11402893 C186.11284882 98.79144628 186.11390756 102.46881682 186.11352539 106.14624023 C186.1171235 107.23874053 186.12072161 108.33124083 186.12442875 109.45684719 C186.12305125 110.44061872 186.12167376 111.42439024 186.12025452 112.43797302 C186.12163721 113.73078768 186.12163721 113.73078768 186.12304783 115.04971981 C186 117 186 117 185 118 C182.62422214 118.09986156 180.27745992 118.13442524 177.90112305 118.12698364 C176.77383931 118.12932363 176.77383931 118.12932363 175.62378216 118.13171089 C173.08640819 118.13572372 170.54909325 118.13253016 168.01171875 118.12939453 C166.20040858 118.13074845 164.38909868 118.13252832 162.57778931 118.13470459 C157.6440476 118.13928008 152.71032671 118.13748889 147.77658463 118.1343255 C142.62538851 118.1318025 137.47419423 118.13413927 132.32299805 118.13571167 C123.67073241 118.13753354 115.01847529 118.1351266 106.36621094 118.13037109 C96.34773037 118.12492844 86.32927014 118.12669109 76.31079006 118.1321975 C67.72568557 118.13672813 59.14058721 118.13737942 50.55548191 118.13475883 C45.42072275 118.13319578 40.28597316 118.13300305 35.1512146 118.13629532 C30.32502663 118.13917331 25.49886501 118.13719966 20.6726799 118.13140106 C18.89606139 118.13007308 17.11944068 118.13046822 15.34282303 118.13266373 C12.92814387 118.13537374 10.51355056 118.13199596 8.09887695 118.12698364 C7.03036767 118.13032973 7.03036767 118.13032973 5.94027233 118.13374341 C1.11414986 118.11414986 1.11414986 118.11414986 0 117 C-0.09578593 115.4818148 -0.12188147 113.95917604 -0.12025452 112.43797302 C-0.12163201 111.4542015 -0.12300951 110.47042997 -0.12442875 109.45684719 C-0.12083064 108.3643469 -0.11723253 107.2718466 -0.11352539 106.14624023 C-0.11364593 104.98639398 -0.11376646 103.82654772 -0.11389065 102.6315546 C-0.11314108 98.85721517 -0.10551083 95.08292441 -0.09765625 91.30859375 C-0.09618697 88.98636906 -0.09516617 86.66414404 -0.09460449 84.34191895 C-0.08935001 75.7071076 -0.07538896 67.07230333 -0.0625 58.4375 C-0.041875 39.153125 -0.02125 19.86875 0 0 Z " fill="#BB4485" transform="translate(163,156)"/>
<path d="M0 0 C9.57 0 19.14 0 29 0 C29.0093457 2.84641113 29.01869141 5.69282227 29.02832031 8.62548828 C29.06209758 18.03329461 29.11765081 27.44088175 29.18390274 36.84851265 C29.22340054 42.55201488 29.25557786 48.25536218 29.27099609 53.95898438 C29.28614729 59.46401002 29.32056607 64.9686098 29.36830902 70.47344589 C29.38313858 72.57292859 29.39104191 74.67247209 29.39188385 76.77200699 C29.39425046 79.71451393 29.42130618 82.65584105 29.45410156 85.59814453 C29.4490712 86.46489304 29.44404083 87.33164154 29.43885803 88.22465515 C29.53133843 93.59283624 30.33502217 96.80326977 34 101 C37.58319656 103.4439267 41.23463903 103.28330523 45.41926575 103.26069641 C46.16911812 103.26452196 46.91897049 103.26834751 47.69154567 103.27228898 C50.20564916 103.28261248 52.719524 103.27862806 55.23364258 103.2746582 C57.03566194 103.2790051 58.83767946 103.28418818 60.63969421 103.29014587 C65.53648619 103.30355117 70.43320104 103.30411272 75.33000779 103.30158257 C79.41791999 103.30051365 83.50581653 103.30539435 87.59372538 103.310188 C97.23933466 103.32128901 106.884905 103.3217176 116.53051758 103.31567383 C126.47912105 103.30963598 136.42758302 103.32193892 146.37616235 103.3432439 C154.91811678 103.36086357 163.46002619 103.36686057 172.00199813 103.36360615 C177.10340481 103.36179334 182.20471062 103.36442907 187.30610085 103.37832069 C192.10532651 103.39089991 196.90433186 103.38895399 201.70355415 103.37590981 C203.46314315 103.37354448 205.22274766 103.37627714 206.98231888 103.38453293 C209.38839522 103.39500624 211.79373321 103.38689537 214.19978333 103.3742218 C215.2390075 103.38528323 215.2390075 103.38528323 216.29922611 103.39656812 C221.2872413 103.34147078 224.63405142 102.24201384 229 100 C232.81878782 95.78842955 232.44126298 91.10318248 232.43237305 85.71166992 C232.4425647 84.78435059 232.45275635 83.85703125 232.46325684 82.90161133 C232.49338789 79.84450235 232.50265306 76.78770672 232.51171875 73.73046875 C232.52856533 71.60768085 232.54671554 69.48490293 232.56611633 67.36213684 C232.61362458 61.78088498 232.64342875 56.19967358 232.66955566 50.61828613 C232.6993569 44.92057303 232.74588878 39.22299931 232.79101562 33.52539062 C232.87705834 22.35031728 232.94285289 11.17525852 233 0 C242.57 0 252.14 0 262 0 C262 43.23 262 86.46 262 131 C175.54 131 89.08 131 0 131 C0 87.77 0 44.54 0 0 Z " fill="#A6478F" transform="translate(125,179)"/>
<path d="M0 0 C0.69736771 0.00669217 1.39473541 0.01338433 2.11323547 0.02027929 C2.85688858 0.01559932 3.60054169 0.01091934 4.36672974 0.00609756 C6.86574486 -0.00589596 9.364216 0.00362152 11.86323547 0.01304662 C13.65189434 0.00898285 15.44055069 0.00364206 17.22920227 -0.00288355 C22.09276965 -0.01658607 26.9561466 -0.01124642 31.81971741 -0.0017463 C36.90323917 0.00583512 41.98674434 -0.00119108 47.07026672 -0.00590479 C55.608057 -0.01136678 64.1457695 -0.00415912 72.68354797 0.01011693 C82.56234979 0.02644429 92.44096587 0.02115609 102.31976318 0.00463772 C110.79285271 -0.00896453 119.26588624 -0.01090299 127.73898315 -0.00304627 C132.80338079 0.00163719 137.86769106 0.00223665 142.93208313 -0.00765574 C147.69272073 -0.0163048 152.45311826 -0.01034132 157.21372986 0.00702703 C158.96370545 0.01100292 160.71370116 0.00983907 162.46366882 0.00323904 C164.84713296 -0.00492326 167.22982118 0.00527994 169.61323547 0.02027929 C170.31060318 0.01358712 171.00797089 0.00689496 171.72647095 0 C175.99161558 0.0522915 176.66922985 0.20722459 179.86323547 3.40123022 C179.86323547 14.95123022 179.86323547 26.50123022 179.86323547 38.40123022 C117.82323547 38.40123022 55.78323547 38.40123022 -8.13676453 38.40123022 C-8.13676453 26.85123022 -8.13676453 15.30123022 -8.13676453 3.40123022 C-4.9427589 0.20722459 -4.26514463 0.0522915 0 0 Z " fill="#D25681" transform="translate(170.1367645263672,109.5987697839737)"/>
<path d="M0 0 C86.46 0 172.92 0 262 0 C262 7.26 262 14.52 262 22 C175.54 22 89.08 22 0 22 C0 14.74 0 7.48 0 0 Z " fill="#8659A0" transform="translate(125,319)"/>
<path d="M0 0 C0.76588886 -0.00367669 1.53177773 -0.00735338 2.32087535 -0.01114148 C4.90107263 -0.02220194 7.48122967 -0.02602613 10.06144714 -0.02983093 C11.90582406 -0.03609376 13.75019972 -0.04274039 15.59457397 -0.04974365 C20.6152879 -0.06716921 25.6359923 -0.07770946 30.65672898 -0.08594918 C33.79155726 -0.09109561 36.92638255 -0.09717148 40.06120872 -0.10346031 C49.8637403 -0.12251598 59.66626432 -0.13674681 69.46881086 -0.14507228 C80.79478049 -0.15484973 92.12055494 -0.18118095 103.44645578 -0.22157317 C112.19384963 -0.25170208 120.94118744 -0.26653805 129.68863219 -0.26985329 C134.91636821 -0.2722073 140.14389581 -0.28121332 145.37157631 -0.30631447 C150.28898833 -0.32954407 155.20605394 -0.33384906 160.12350655 -0.32355309 C161.92909648 -0.32305638 163.73470316 -0.32941634 165.54024124 -0.34310913 C168.00421477 -0.36075094 170.46693471 -0.35376074 172.9309082 -0.34057617 C174.00426295 -0.35703004 174.00426295 -0.35703004 175.09930164 -0.37381631 C179.87942664 -0.31200539 182.29774663 0.76504186 185.65592957 4.14717102 C187.74824354 8.33179897 186.65592957 13.46861474 186.65592957 18.14717102 C120.65592957 18.14717102 54.65592957 18.14717102 -13.34407043 18.14717102 C-13.34407043 6.14717102 -13.34407043 6.14717102 -11.46907043 2.95967102 C-7.73779532 -0.22288717 -4.70832089 -0.00120183 0 0 Z " fill="#6478B6" transform="translate(169.3440704345703,383.8528289794922)"/>
<path d="M0 0 C15.84 0 31.68 0 48 0 C48 8.91 48 17.82 48 27 C32.16 27 16.32 27 0 27 C0 18.09 0 9.18 0 0 Z " fill="#7469AC" transform="translate(232,349)"/>
<path d="M0 0 C4.75373901 1.71906429 8.35940604 3.55143179 11 8 C11.89343272 12.52257029 12.02849442 17.06643049 9.828125 21.203125 C5.99745096 25.90261171 2.60067696 27.71628979 -3.4375 28.375 C-8.52689174 27.83927455 -11.47058172 25.74037253 -14.8125 21.9375 C-17.23959201 17.97750777 -17.38595477 14.55426632 -17 10 C-13.32491798 2.79118526 -8.22687702 -1.13474166 0 0 Z " fill="#FCF7F9" transform="translate(224,115)"/>
<path d="M0 0 C3.92776608 1.39271387 6.50848515 3.30236602 8.9375 6.75 C10.7223511 12.20954454 10.95974165 16.68627598 8.375 21.8125 C5.73730404 25.35256562 4.16293638 26.61235454 0 28 C-6.04533066 28.76940572 -9.14965337 27.35793228 -14 24 C-16.94753066 20.75771627 -17.89836231 18.07735951 -18.3125 13.6875 C-17.83274239 8.02636016 -15.46822047 5.26800859 -11.25 1.625 C-7.35490341 -0.3225483 -4.23018008 -0.80030434 0 0 Z " fill="#FCF7F9" transform="translate(186,115)"/>
<path d="M0 0 C6.5494429 5.50748607 6.5494429 5.50748607 7.1875 11.25 C6.89750099 16.38298239 5.09721464 19.84641348 1.625 23.625 C-2.30701862 25.93292397 -5.70240147 26.62451362 -10.25 26.3125 C-14.45180508 25.062648 -17.29270517 22.72288219 -19.75 19.125 C-21.88423253 14.81957854 -21.68102691 10.83586091 -20.25 6.3125 C-15.72520936 -1.56398741 -8.12553099 -4.21902571 0 0 Z " fill="#FCF6F8" transform="translate(267.25,116.6875)"/>
<path d="M0 0 C0.33 0.33 0.66 0.66 1 1 C0.67086488 6.91695189 -1.19202931 10.68673891 -4.25 15.5625 C-5.1502669 17.04264815 -6.04997618 18.52313556 -6.94921875 20.00390625 C-7.43567871 20.79684082 -7.92213867 21.58977539 -8.42333984 22.40673828 C-11.36016808 27.23717953 -14.20126082 32.12454683 -17.0625 37 C-18.17657018 38.89690061 -19.29231617 40.79281854 -20.41015625 42.6875 C-21.12377319 43.89986328 -21.12377319 43.89986328 -21.85180664 45.13671875 C-23 47 -23 47 -24 48 C-26.4375 48.1875 -26.4375 48.1875 -29 48 C-31 46 -31 46 -31.27856445 43.66455078 C-30.95934214 40.61109566 -30.14126955 38.97558402 -28.54296875 36.3671875 C-28.01227783 35.48699951 -27.48158691 34.60681152 -26.93481445 33.69995117 C-26.35820068 32.76771729 -25.78158691 31.8354834 -25.1875 30.875 C-23.99634806 28.91079127 -22.80626438 26.94593436 -21.6171875 24.98046875 C-21.01358398 23.98837402 -20.40998047 22.9962793 -19.78808594 21.97412109 C-16.56751643 16.61735188 -13.49363132 11.17492581 -10.4284668 5.72802734 C-9.7929187 4.61548584 -9.7929187 4.61548584 -9.14453125 3.48046875 C-8.77690674 2.82973389 -8.40928223 2.17899902 -8.03051758 1.50854492 C-5.77687552 -1.7904966 -3.47413522 -0.8908039 0 0 Z " fill="#FBF7F9" transform="translate(271,166)"/>
<path d="M0 0 C1.4616156 -0.00956978 1.4616156 -0.00956978 2.95275879 -0.01933289 C4.00797729 -0.02044571 5.0631958 -0.02155853 6.15039062 -0.02270508 C7.23042358 -0.02603348 8.31045654 -0.02936188 9.42321777 -0.03279114 C11.70971245 -0.03786008 13.99621455 -0.04019947 16.28271484 -0.04003906 C19.79211517 -0.04222727 23.30120215 -0.06038825 26.81054688 -0.0793457 C29.02799371 -0.0822792 31.24544205 -0.08426429 33.46289062 -0.08520508 C34.51810913 -0.09239059 35.57332764 -0.09957611 36.66052246 -0.10697937 C38.12213806 -0.10236443 38.12213806 -0.10236443 39.61328125 -0.09765625 C40.47328735 -0.09908127 41.33329346 -0.10050629 42.21936035 -0.10197449 C44.30664062 0.14526367 44.30664062 0.14526367 46.30664062 2.14526367 C45.75108507 6.70081923 45.75108507 6.70081923 44.30664062 8.14526367 C42.78277832 8.24885146 41.25417077 8.28377506 39.72680664 8.29052734 C38.26507774 8.30009712 38.26507774 8.30009712 36.77381897 8.30986023 C35.18324928 8.31152946 35.18324928 8.31152946 33.56054688 8.31323242 C32.47909897 8.31656082 31.39765106 8.31988922 30.28343201 8.32331848 C27.99096097 8.32839245 25.69848251 8.33072666 23.40600586 8.33056641 C19.88773496 8.33275212 16.36977781 8.35090095 12.8515625 8.36987305 C10.62955837 8.37280695 8.40755274 8.37479177 6.18554688 8.37573242 C5.12719131 8.38291794 4.06883575 8.39010345 2.97840881 8.39750671 C1.51195168 8.39289177 1.51195168 8.39289177 0.01586914 8.38818359 C-1.27866432 8.39032112 -1.27866432 8.39032112 -2.59934998 8.39250183 C-4.69335938 8.14526367 -4.69335938 8.14526367 -6.69335938 6.14526367 C-6.81835938 3.52026367 -6.81835938 3.52026367 -6.69335938 1.14526367 C-4.26830997 -0.06726103 -2.70953143 0.01200943 0 0 Z " fill="#FDFDFD" transform="translate(295.693359375,124.854736328125)"/>
<path d="M0 0 C0.72397476 0.00091141 1.44794952 0.00182281 2.19386292 0.00276184 C2.93858353 -0.00152328 3.68330414 -0.00580841 4.45059204 -0.01022339 C6.02670779 -0.01596972 7.60285007 -0.01646471 9.17897034 -0.01213074 C11.59129608 -0.00897356 14.00239229 -0.03241447 16.41456604 -0.05778503 C17.94516345 -0.06005828 19.47576416 -0.0607614 21.00636292 -0.05973816 C21.72831345 -0.06894791 22.45026398 -0.07815765 23.1940918 -0.08764648 C26.14718628 -0.06035633 28.18020573 -0.02775013 30.66090393 1.66218567 C31.66651917 3.30354309 31.66651917 3.30354309 31.41651917 5.92854309 C30.66651917 8.30354309 30.66651917 8.30354309 29.66651917 9.30354309 C27.10802481 9.42927699 24.5779733 9.49218196 22.01808167 9.50666809 C21.24975006 9.51236816 20.48141846 9.51806824 19.68980408 9.52394104 C18.06063724 9.53340489 16.43145114 9.5399305 14.80226135 9.54377747 C12.30875713 9.55347604 9.81607945 9.5844822 7.32276917 9.61604309 C5.74204491 9.6225736 4.16131474 9.62782389 2.58058167 9.63166809 C1.8336203 9.64401489 1.08665894 9.65636169 0.31706238 9.66908264 C-4.83845459 9.646893 -4.83845459 9.646893 -7.33982849 7.91194153 C-8.33348083 6.30354309 -8.33348083 6.30354309 -8.14598083 4.24104309 C-6.38229082 0.03532075 -4.23743166 0.06020714 0 0 Z " fill="#F9F1F6" transform="translate(180.33348083496094,222.6964569091797)"/>
<path d="M0 0 C4.35716132 0.62917174 7.52281221 2.78431198 11.20703125 5.10546875 C11.94759766 5.54052734 12.68816406 5.97558594 13.45117188 6.42382812 C18.69147457 9.68392427 18.69147457 9.68392427 19.625 13.05859375 C18.67665776 16.12168847 17.61734666 16.82930197 14.89453125 18.48046875 C13.66476562 19.22876953 13.66476562 19.22876953 12.41015625 19.9921875 C11.16492188 20.69794922 11.16492188 20.69794922 9.89453125 21.41796875 C9.1675 21.83691406 8.44046875 22.25585938 7.69140625 22.6875 C4.0308667 24.66447079 1.16391345 26.06484484 -3.10546875 25.41796875 C-4.10546875 24.41796875 -4.10546875 24.41796875 -4.44921875 22.0625 C-4.10546875 19.41796875 -4.10546875 19.41796875 -2.13671875 17.6171875 C-1.30140625 17.11832031 -0.46609375 16.61945313 0.39453125 16.10546875 C1.22984375 15.59371094 2.06515625 15.08195313 2.92578125 14.5546875 C3.57546875 14.17957031 4.22515625 13.80445313 4.89453125 13.41796875 C4.24484375 13.04285156 3.59515625 12.66773438 2.92578125 12.28125 C2.09046875 11.76949219 1.25515625 11.25773438 0.39453125 10.73046875 C-0.44078125 10.23160156 -1.27609375 9.73273438 -2.13671875 9.21875 C-4.10546875 7.41796875 -4.10546875 7.41796875 -4.51171875 4.8359375 C-3.9858139 1.70579229 -3.15282324 0.62588513 0 0 Z " fill="#FBF7F9" transform="translate(277.10546875,176.58203125)"/>
<path d="M0 0 C2 2 2 2 2.40625 4.41796875 C2 7 2 7 0.03125 8.80078125 C-0.8040625 9.29964844 -1.639375 9.79851562 -2.5 10.3125 C-3.3353125 10.82425781 -4.170625 11.33601562 -5.03125 11.86328125 C-5.6809375 12.23839844 -6.330625 12.61351562 -7 13 C-6.3503125 13.37511719 -5.700625 13.75023437 -5.03125 14.13671875 C-4.1959375 14.64847656 -3.360625 15.16023437 -2.5 15.6875 C-1.6646875 16.18636719 -0.829375 16.68523437 0.03125 17.19921875 C2 19 2 19 2.34375 21.64453125 C2 24 2 24 1 25 C-4.75173524 24.65228805 -8.58349356 22.92189945 -13.375 20 C-14.00277344 19.63132813 -14.63054687 19.26265625 -15.27734375 18.8828125 C-19.78447421 16.21552579 -19.78447421 16.21552579 -21 15 C-21.54296875 12.76953125 -21.54296875 12.76953125 -21 10 C-18.692753 7.81781133 -16.04141252 6.29064704 -13.3125 4.6875 C-12.2306543 4.0059082 -12.2306543 4.0059082 -11.12695312 3.31054688 C-4.27751919 -0.84915501 -4.27751919 -0.84915501 0 0 Z " fill="#FCF8FA" transform="translate(237,177)"/>
<path d="M0 0 C0.79289932 -0.0033284 1.58579865 -0.0066568 2.40272522 -0.01008606 C4.08317483 -0.01515851 5.76363454 -0.01749429 7.4440918 -0.01733398 C10.02083884 -0.01951911 12.59715701 -0.03766734 15.17382812 -0.05664062 C16.80338395 -0.0595747 18.43294181 -0.0615594 20.0625 -0.0625 C20.83649643 -0.06968552 21.61049286 -0.07687103 22.40794373 -0.08427429 C27.86883372 -0.06085378 27.86883372 -0.06085378 30.09765625 2.16796875 C29.54210069 6.72352431 29.54210069 6.72352431 28.09765625 8.16796875 C25.45479351 8.28133501 22.83904169 8.33214636 20.1953125 8.3359375 C19.40241318 8.3392659 18.60951385 8.3425943 17.79258728 8.34602356 C16.11213767 8.35109601 14.43167796 8.35343179 12.7512207 8.35327148 C10.17447366 8.35545661 7.59815549 8.37360484 5.02148438 8.39257812 C3.39192855 8.3955122 1.76237069 8.3974969 0.1328125 8.3984375 C-1.02818214 8.40921577 -1.02818214 8.40921577 -2.21263123 8.42021179 C-7.67352122 8.39679128 -7.67352122 8.39679128 -9.90234375 6.16796875 C-9.04328183 -0.87633896 -6.34569987 0.00909981 0 0 Z " fill="#FDFBFC" transform="translate(266.90234375,255.83203125)"/>
<path d="M0 0 C0.79289932 -0.0033284 1.58579865 -0.0066568 2.40272522 -0.01008606 C4.08317483 -0.01515851 5.76363454 -0.01749429 7.4440918 -0.01733398 C10.02083884 -0.01951911 12.59715701 -0.03766734 15.17382812 -0.05664062 C16.80338395 -0.0595747 18.43294181 -0.0615594 20.0625 -0.0625 C20.83649643 -0.06968552 21.61049286 -0.07687103 22.40794373 -0.08427429 C27.86883372 -0.06085378 27.86883372 -0.06085378 30.09765625 2.16796875 C29.54210069 6.72352431 29.54210069 6.72352431 28.09765625 8.16796875 C25.45479351 8.28133501 22.83904169 8.33214636 20.1953125 8.3359375 C19.40241318 8.3392659 18.60951385 8.3425943 17.79258728 8.34602356 C16.11213767 8.35109601 14.43167796 8.35343179 12.7512207 8.35327148 C10.17447366 8.35545661 7.59815549 8.37360484 5.02148438 8.39257812 C3.39192855 8.3955122 1.76237069 8.3974969 0.1328125 8.3984375 C-1.02818214 8.40921577 -1.02818214 8.40921577 -2.21263123 8.42021179 C-7.67352122 8.39679128 -7.67352122 8.39679128 -9.90234375 6.16796875 C-9.04328183 -0.87633896 -6.34569987 0.00909981 0 0 Z " fill="#FDFBFC" transform="translate(224.90234375,239.83203125)"/>
<path d="M0 0 C0.79289932 -0.0033284 1.58579865 -0.0066568 2.40272522 -0.01008606 C4.08317483 -0.01515851 5.76363454 -0.01749429 7.4440918 -0.01733398 C10.02083884 -0.01951911 12.59715701 -0.03766734 15.17382812 -0.05664062 C16.80338395 -0.0595747 18.43294181 -0.0615594 20.0625 -0.0625 C20.83649643 -0.06968552 21.61049286 -0.07687103 22.40794373 -0.08427429 C27.86883372 -0.06085378 27.86883372 -0.06085378 30.09765625 2.16796875 C29.84765625 4.73046875 29.84765625 4.73046875 29.09765625 7.16796875 C25.9982208 8.71768648 22.71822027 8.33088317 19.31640625 8.3359375 C18.54711792 8.3392659 17.77782959 8.3425943 16.98522949 8.34602356 C15.35783487 8.35108879 13.73042985 8.35343201 12.10302734 8.35327148 C9.6075745 8.35546005 7.1125622 8.37362529 4.6171875 8.39257812 C3.03776193 8.39551166 1.45833426 8.39749672 -0.12109375 8.3984375 C-0.87007935 8.40562302 -1.61906494 8.41280853 -2.39074707 8.42021179 C-7.67351615 8.39679635 -7.67351615 8.39679635 -9.90234375 6.16796875 C-9.04328183 -0.87633896 -6.34569987 0.00909981 0 0 Z " fill="#FDFBFC" transform="translate(309.90234375,239.83203125)"/>
<path d="M0 0 C1.93939453 -0.00193359 1.93939453 -0.00193359 3.91796875 -0.00390625 C4.59263184 -0.00181152 5.26729492 0.0002832 5.96240234 0.00244141 C8.02318689 0.00779157 10.08375349 0.00249215 12.14453125 -0.00390625 C13.43746094 -0.00261719 14.73039062 -0.00132812 16.0625 0 C17.25423828 0.00112793 18.44597656 0.00225586 19.67382812 0.00341797 C22.53125 0.1328125 22.53125 0.1328125 24.53125 1.1328125 C24.57379356 3.13235996 24.57205783 5.13322886 24.53125 7.1328125 C22.05637289 9.60768961 15.9904388 8.30618482 12.52148438 8.31835938 C11.79533936 8.31827881 11.06919434 8.31819824 10.32104492 8.31811523 C8.10641218 8.32030001 5.89227877 8.33844781 3.67773438 8.35742188 C2.27604338 8.36035606 0.87435 8.36234069 -0.52734375 8.36328125 C-1.80923584 8.36739014 -3.09112793 8.37149902 -4.41186523 8.37573242 C-7.46875 8.1328125 -7.46875 8.1328125 -9.46875 6.1328125 C-9.21875 3.5703125 -9.21875 3.5703125 -8.46875 1.1328125 C-5.61867869 -0.29222315 -3.18254745 0.00301215 0 0 Z " fill="#FDFBFC" transform="translate(181.46875,255.8671875)"/>
<path d="M0 0 C0.66209473 -0.00095673 1.32418945 -0.00191345 2.00634766 -0.00289917 C3.40852961 -0.00358076 4.8107147 -0.00172792 6.21289062 0.00244141 C8.36595713 0.00779004 10.51881502 0.0024958 12.671875 -0.00390625 C14.03125046 -0.00324546 15.3906258 -0.00196429 16.75 0 C18.61785156 0.00169189 18.61785156 0.00169189 20.5234375 0.00341797 C23.375 0.1328125 23.375 0.1328125 24.375 1.1328125 C24.41580783 3.13239614 24.41754356 5.13326504 24.375 7.1328125 C19.81243942 9.41409279 13.44692821 8.31783871 8.4375 8.3203125 C7.13619141 8.33255859 5.83488281 8.34480469 4.49414062 8.35742188 C2.62725586 8.36032227 2.62725586 8.36032227 0.72265625 8.36328125 C-0.42195068 8.36739014 -1.56655762 8.37149902 -2.74584961 8.37573242 C-5.625 8.1328125 -5.625 8.1328125 -8.625 6.1328125 C-7.46001163 -0.35783697 -6.57645652 0.00595694 0 0 Z " fill="#FCFAFC" transform="translate(180.625,239.8671875)"/>
<path d="M0 0 C1.31419922 -0.01224609 2.62839844 -0.02449219 3.98242188 -0.03710938 C5.23474609 -0.03904297 6.48707031 -0.04097656 7.77734375 -0.04296875 C8.93355225 -0.04707764 10.08976074 -0.05118652 11.28100586 -0.05541992 C14.0625 0.1875 14.0625 0.1875 16.0625 2.1875 C15.50694444 6.74305556 15.50694444 6.74305556 14.0625 8.1875 C9.42234675 8.4416555 4.77128694 8.37272798 0.125 8.375 C-1.18919922 8.38724609 -2.50339844 8.39949219 -3.85742188 8.41210938 C-5.10974609 8.41404297 -6.36207031 8.41597656 -7.65234375 8.41796875 C-9.38665649 8.42413208 -9.38665649 8.42413208 -11.15600586 8.43041992 C-13.9375 8.1875 -13.9375 8.1875 -15.9375 6.1875 C-14.84705137 -2.75417876 -7.54753556 0.00369073 0 0 Z " fill="#FDFBFC" transform="translate(272.9375,239.8125)"/>
<path d="M0 0 C1.58748047 -0.02416992 1.58748047 -0.02416992 3.20703125 -0.04882812 C4.22152344 -0.04947266 5.23601562 -0.05011719 6.28125 -0.05078125 C7.21001953 -0.05376221 8.13878906 -0.05674316 9.09570312 -0.05981445 C11.5 0.3125 11.5 0.3125 13.33789062 1.70629883 C14.5 3.3125 14.5 3.3125 14.3125 5.375 C13.5 7.3125 13.5 7.3125 11.5 9.3125 C9.1015625 9.57128906 9.1015625 9.57128906 6.125 9.578125 C5.05765625 9.58070313 3.9903125 9.58328125 2.890625 9.5859375 C1.21226562 9.57433594 1.21226562 9.57433594 -0.5 9.5625 C-1.61890625 9.57023438 -2.7378125 9.57796875 -3.890625 9.5859375 C-4.95796875 9.58335937 -6.0253125 9.58078125 -7.125 9.578125 C-8.10726563 9.57586914 -9.08953125 9.57361328 -10.1015625 9.57128906 C-12.5 9.3125 -12.5 9.3125 -14.5 7.3125 C-14.8125 4.8125 -14.8125 4.8125 -14.5 2.3125 C-9.92734569 -0.73593621 -5.37785396 -0.01637593 0 0 Z " fill="#F9F1F6" transform="translate(325.5,222.6875)"/>
<path d="M0 0 C1.26650391 -0.01224609 2.53300781 -0.02449219 3.83789062 -0.03710938 C5.04509766 -0.03904297 6.25230469 -0.04097656 7.49609375 -0.04296875 C9.1675647 -0.04913208 9.1675647 -0.04913208 10.87280273 -0.05541992 C13.5625 0.1875 13.5625 0.1875 15.5625 2.1875 C15.75 4.75 15.75 4.75 15.5625 7.1875 C12.80698489 9.94301511 4.34275429 8.37318203 0.625 8.375 C-0.68919922 8.38724609 -2.00339844 8.39949219 -3.35742188 8.41210938 C-4.60974609 8.41404297 -5.86207031 8.41597656 -7.15234375 8.41796875 C-8.88665649 8.42413208 -8.88665649 8.42413208 -10.65600586 8.43041992 C-13.4375 8.1875 -13.4375 8.1875 -15.4375 6.1875 C-14.36207392 -2.63099386 -7.47729811 0.00379366 0 0 Z " fill="#FDFCFC" transform="translate(230.4375,255.8125)"/>
<path d="M0 0 C1.53333984 -0.00386719 1.53333984 -0.00386719 3.09765625 -0.0078125 C4.16886719 -0.00007812 5.24007813 0.00765625 6.34375 0.015625 C7.95056641 0.00402344 7.95056641 0.00402344 9.58984375 -0.0078125 C10.61207031 -0.00523437 11.63429688 -0.00265625 12.6875 0 C13.62787109 0.00225586 14.56824219 0.00451172 15.53710938 0.00683594 C17.84375 0.265625 17.84375 0.265625 19.84375 2.265625 C20.09375 4.765625 20.09375 4.765625 19.84375 7.265625 C17.23506631 9.87430869 16.09842636 9.52291413 12.46875 9.53125 C11.40140625 9.53382813 10.3340625 9.53640625 9.234375 9.5390625 C7.55601562 9.52746094 7.55601562 9.52746094 5.84375 9.515625 C4.72484375 9.52335938 3.6059375 9.53109375 2.453125 9.5390625 C1.38578125 9.53648437 0.3184375 9.53390625 -0.78125 9.53125 C-1.76351563 9.52899414 -2.74578125 9.52673828 -3.7578125 9.52441406 C-6.15625 9.265625 -6.15625 9.265625 -8.15625 7.265625 C-7.56663558 1.36948082 -5.75019775 0.01379417 0 0 Z " fill="#F9F1F5" transform="translate(271.15625,222.734375)"/>
<path d="M0 0 C1.06669922 0.00322266 2.13339844 0.00644531 3.23242188 0.00976562 C4.29525391 -0.00634766 5.35808594 -0.02246094 6.453125 -0.0390625 C7.98163086 -0.0400293 7.98163086 -0.0400293 9.54101562 -0.04101562 C10.4761499 -0.04399658 11.41128418 -0.04697754 12.37475586 -0.05004883 C14.79492188 0.32226562 14.79492188 0.32226562 16.63500977 1.6809082 C17.79492188 3.32226562 17.79492188 3.32226562 17.60742188 5.94726562 C16.79492188 8.32226562 16.79492188 8.32226562 14.79492188 9.32226562 C10.96666318 9.56335516 7.12992925 9.50745816 3.29492188 9.50976562 C1.68810547 9.52813477 1.68810547 9.52813477 0.04882812 9.546875 C-0.97339844 9.54880859 -1.995625 9.55074219 -3.04882812 9.55273438 C-4.45938477 9.55889771 -4.45938477 9.55889771 -5.8984375 9.56518555 C-8.20507812 9.32226562 -8.20507812 9.32226562 -10.20507812 7.32226562 C-10.45507812 4.82226562 -10.45507812 4.82226562 -10.20507812 2.32226562 C-7.16404247 -0.71877003 -4.15666727 0.02895715 0 0 Z " fill="#F9F1F6" transform="translate(237.205078125,222.677734375)"/>
<path d="M0 0 C1.21880859 -0.01224609 2.43761719 -0.02449219 3.69335938 -0.03710938 C5.43649414 -0.04000977 5.43649414 -0.04000977 7.21484375 -0.04296875 C8.28726318 -0.04707764 9.35968262 -0.05118652 10.46459961 -0.05541992 C13.0625 0.1875 13.0625 0.1875 15.0625 2.1875 C14.6875 5.3125 14.6875 5.3125 14.0625 8.1875 C9.60422074 8.2453304 5.1460372 8.28103855 0.6875 8.3125 C-0.58351563 8.32925781 -1.85453125 8.34601563 -3.1640625 8.36328125 C-4.37578125 8.36972656 -5.5875 8.37617188 -6.8359375 8.3828125 C-7.95661621 8.39328613 -9.07729492 8.40375977 -10.23193359 8.41455078 C-12.9375 8.1875 -12.9375 8.1875 -14.9375 6.1875 C-13.87751684 -2.50436188 -7.40312928 0.00390255 0 0 Z " fill="#FDFBFC" transform="translate(314.9375,255.8125)"/>
<path d="M0 0 C0.73734375 0.00773437 1.4746875 0.01546875 2.234375 0.0234375 C3.34039062 0.01183594 3.34039062 0.01183594 4.46875 0 C9.9810554 0.0201179 9.9810554 0.0201179 12.234375 2.2734375 C12.484375 4.7734375 12.484375 4.7734375 12.234375 7.2734375 C9.67488501 9.83292749 7.96230305 9.53412481 4.46875 9.546875 C3.73140625 9.53914063 2.9940625 9.53140625 2.234375 9.5234375 C1.12835938 9.53503906 1.12835938 9.53503906 0 9.546875 C-5.5123054 9.5267571 -5.5123054 9.5267571 -7.765625 7.2734375 C-8.015625 4.7734375 -8.015625 4.7734375 -7.765625 2.2734375 C-5.20613501 -0.28605249 -3.49355305 0.01275019 0 0 Z " fill="#F5F1F7" transform="translate(253.765625,324.7265625)"/>
<path d="M0 0 C3.5 0.25 3.5 0.25 5.5 2.25 C5.25 5.8125 5.25 5.8125 4.5 9.25 C1.73749964 10.63125018 -0.44731099 10.44079306 -3.5 10.25 C-5.5 8.25 -5.5 8.25 -5.75 5.25 C-5.37802459 0.78629509 -4.42019834 0.31572845 0 0 Z " fill="#D15480" transform="translate(221.5,123.75)"/>
<path d="M0 0 C1.7325 0.1546875 1.7325 0.1546875 3.5 0.3125 C5.5 3.3125 5.5 3.3125 5.25 6.4375 C5.0025 7.38625 4.755 8.335 4.5 9.3125 C1.73749964 10.69375018 -0.44731099 10.50329306 -3.5 10.3125 C-5.5 8.3125 -5.5 8.3125 -5.75 5.3125 C-5.37833659 0.85253908 -4.40663794 0.39344982 0 0 Z " fill="#D25581" transform="translate(182.5,123.6875)"/>
<path d="M0 0 C3 0.25 3 0.25 5 2.25 C5.25 5.25 5.25 5.25 5 8.25 C3 10.25 3 10.25 0 10.5 C-3 10.25 -3 10.25 -5 8.25 C-5.25 5.25 -5.25 5.25 -5 2.25 C-3 0.25 -3 0.25 0 0 Z " fill="#D1537F" transform="translate(260,123.75)"/>
</svg>
